<?xml version="1.0" encoding="UTF-8"?>
<svg width="26px" height="28px" viewBox="0 0 26 28" version="1.1" xmlns="http://www.w3.org/2000/svg" xmlns:xlink="http://www.w3.org/1999/xlink">
    <!-- Generator: Sketch 52.1 (67048) - http://www.bohemiancoding.com/sketch -->
    <title>pin19</title>
    <desc>Created with Sketch.</desc>
    <defs>
        <filter x="-25.0%" y="-21.7%" width="150.0%" height="139.1%" filterUnits="objectBoundingBox" id="filter-1">
            <feOffset dx="0" dy="0" in="SourceAlpha" result="shadowOffsetOuter1"></feOffset>
            <feGaussianBlur stdDeviation="1" in="shadowOffsetOuter1" result="shadowBlurOuter1"></feGaussianBlur>
            <feColorMatrix values="0 0 0 0 0   0 0 0 0 0   0 0 0 0 0  0 0 0 0.5 0" type="matrix" in="shadowBlurOuter1" result="shadowMatrixOuter1"></feColorMatrix>
            <feMerge>
                <feMergeNode in="shadowMatrixOuter1"></feMergeNode>
                <feMergeNode in="SourceGraphic"></feMergeNode>
            </feMerge>
        </filter>
    </defs>
    <g id="Page-1" stroke="none" stroke-width="1" fill="none" fill-rule="evenodd">
        <g id="pin19" transform="translate(3.000000, 3.000000)">
            <g id="1" filter="url(#filter-1)">
                <path d="M9.68958365,0 C15.040919,0 19.3789472,4.33450677 19.3789472,9.6818804 C19.3789472,14.3573109 16.0621494,18.258455 11.6519307,19.165017 C11.0180635,19.2950919 10.3617469,22.1342884 9.68958365,22.1342884 C9.0286451,22.1342884 8.38289295,19.2972928 7.75915007,19.1713997 C3.33264453,18.2771629 0,14.3683155 0,9.6818804 C0,4.33450677 4.33802825,0 9.68958365,0" id="circle" stroke="#FFFFFF" stroke-width="1.5" fill="#594383"></path>
                <path d="M8.49934211,12.7 C8.99934461,12.7 9.24934211,12.9124979 9.24934211,13.3375 C9.24934211,13.7791689 8.99934461,14 8.49934211,14 L4.27434211,14 C3.76600623,14 3.51184211,13.7791689 3.51184211,13.3375 C3.51184211,12.9124979 3.76600623,12.7 4.27434211,12.7 L5.57434211,12.7 L5.57434211,7 L4.37434211,7.7375 C4.25767486,7.804167 4.15350923,7.8375 4.06184211,7.8375 C3.88684123,7.8375 3.73892604,7.76250075 3.61809211,7.6125 C3.49725817,7.46249925 3.43684211,7.29583425 3.43684211,7.1125 C3.43684211,6.87083212 3.54517436,6.683334 3.76184211,6.55 L5.69934211,5.35 C5.94934336,5.19999925 6.18684098,5.125 6.41184211,5.125 C6.64517661,5.125 6.83267473,5.19583262 6.97434211,5.3375 C7.11600948,5.47916737 7.18684211,5.67499875 7.18684211,5.925 L7.18684211,12.7 L8.49934211,12.7 Z M13.1993421,5.075 C14.3160144,5.075 15.1764224,5.45207956 15.7805921,6.20625 C16.3847618,6.96042044 16.6868421,8.037493 16.6868421,9.4375 C16.6868421,10.3958381 16.5451769,11.2270798 16.2618421,11.93125 C15.9785074,12.6354202 15.5722614,13.1749981 15.0430921,13.55 C14.5139228,13.9250019 13.8910124,14.1125 13.1743421,14.1125 C12.6993397,14.1125 12.2222612,14.0270842 11.7430921,13.85625 C11.263923,13.6854158 10.8576771,13.4541681 10.5243421,13.1625 C10.4160082,13.0708329 10.3389257,12.9812504 10.2930921,12.89375 C10.2472585,12.8062496 10.2243421,12.7000006 10.2243421,12.575 C10.2243421,12.3916658 10.2764249,12.2354173 10.3805921,12.10625 C10.4847593,11.9770827 10.6076747,11.9125 10.7493421,11.9125 C10.8326759,11.9125 10.9118417,11.9270832 10.9868421,11.95625 C11.0618425,11.9854168 11.1535082,12.033333 11.2618421,12.1 C11.9535122,12.5833357 12.5701727,12.825 13.1118421,12.825 C13.7201785,12.825 14.1993404,12.5437528 14.5493421,11.98125 C14.8993439,11.4187472 15.0826754,10.6291717 15.0993421,9.6125 C14.9076745,9.98750187 14.6201774,10.2854156 14.2368421,10.50625 C13.8535069,10.7270844 13.4243445,10.8375 12.9493421,10.8375 C12.4243395,10.8375 11.9576775,10.7187512 11.5493421,10.48125 C11.1410067,10.2437488 10.8222599,9.91041881 10.5930921,9.48125 C10.3639243,9.05208119 10.2493421,8.56250275 10.2493421,8.0125 C10.2493421,7.4458305 10.3764242,6.93958556 10.6305921,6.49375 C10.88476,6.04791444 11.2347565,5.70000125 11.6805921,5.45 C12.1264277,5.19999875 12.6326726,5.075 13.1993421,5.075 Z M13.2868421,9.5625 C13.7535111,9.5625 14.1305907,9.41458481 14.4180921,9.11875 C14.7055935,8.82291519 14.8493421,8.43750237 14.8493421,7.9625 C14.8493421,7.47916425 14.7055935,7.08958481 14.4180921,6.79375 C14.1305907,6.49791519 13.7535111,6.35 13.2868421,6.35 C12.8285065,6.35 12.4618435,6.49791519 12.1868421,6.79375 C11.9118407,7.08958481 11.7743421,7.47916425 11.7743421,7.9625 C11.7743421,8.44583575 11.9118407,8.83333188 12.1868421,9.125 C12.4618435,9.41666812 12.8285065,9.5625 13.2868421,9.5625 Z" fill="#FFFFFF"></path>
            </g>
        </g>
    </g>
</svg>