<?xml version="1.0" encoding="UTF-8"?>
<svg width="26px" height="28px" viewBox="0 0 26 28" version="1.1" xmlns="http://www.w3.org/2000/svg" xmlns:xlink="http://www.w3.org/1999/xlink">
    <!-- Generator: Sketch 52.1 (67048) - http://www.bohemiancoding.com/sketch -->
    <title>pin16</title>
    <desc>Created with Sketch.</desc>
    <defs>
        <filter x="-25.0%" y="-21.7%" width="150.0%" height="139.1%" filterUnits="objectBoundingBox" id="filter-1">
            <feOffset dx="0" dy="0" in="SourceAlpha" result="shadowOffsetOuter1"></feOffset>
            <feGaussianBlur stdDeviation="1" in="shadowOffsetOuter1" result="shadowBlurOuter1"></feGaussianBlur>
            <feColorMatrix values="0 0 0 0 0   0 0 0 0 0   0 0 0 0 0  0 0 0 0.5 0" type="matrix" in="shadowBlurOuter1" result="shadowMatrixOuter1"></feColorMatrix>
            <feMerge>
                <feMergeNode in="shadowMatrixOuter1"></feMergeNode>
                <feMergeNode in="SourceGraphic"></feMergeNode>
            </feMerge>
        </filter>
    </defs>
    <g id="Page-1" stroke="none" stroke-width="1" fill="none" fill-rule="evenodd">
        <g id="pin16" transform="translate(3.000000, 3.000000)">
            <g id="1" filter="url(#filter-1)">
                <path d="M9.68958365,0 C15.040919,0 19.3789472,4.33450677 19.3789472,9.6818804 C19.3789472,14.3573109 16.0621494,18.258455 11.6519307,19.165017 C11.0180635,19.2950919 10.3617469,22.1342884 9.68958365,22.1342884 C9.0286451,22.1342884 8.38289295,19.2972928 7.75915007,19.1713997 C3.33264453,18.2771629 0,14.3683155 0,9.6818804 C0,4.33450677 4.33802825,0 9.68958365,0" id="circle" stroke="#FFFFFF" stroke-width="1.5" fill="#594383"></path>
                <path d="M8.49934211,12.7 C8.99934461,12.7 9.24934211,12.9124979 9.24934211,13.3375 C9.24934211,13.7791689 8.99934461,14 8.49934211,14 L4.27434211,14 C3.76600623,14 3.51184211,13.7791689 3.51184211,13.3375 C3.51184211,12.9124979 3.76600623,12.7 4.27434211,12.7 L5.57434211,12.7 L5.57434211,7 L4.37434211,7.7375 C4.25767486,7.804167 4.15350923,7.8375 4.06184211,7.8375 C3.88684123,7.8375 3.73892604,7.76250075 3.61809211,7.6125 C3.49725817,7.46249925 3.43684211,7.29583425 3.43684211,7.1125 C3.43684211,6.87083212 3.54517436,6.683334 3.76184211,6.55 L5.69934211,5.35 C5.94934336,5.19999925 6.18684098,5.125 6.41184211,5.125 C6.64517661,5.125 6.83267473,5.19583262 6.97434211,5.3375 C7.11600948,5.47916737 7.18684211,5.67499875 7.18684211,5.925 L7.18684211,12.7 L8.49934211,12.7 Z M14.0243421,8.35 C14.5493447,8.35 15.0160067,8.46874881 15.4243421,8.70625 C15.8326775,8.94375119 16.1514243,9.27708119 16.3805921,9.70625 C16.6097599,10.1354188 16.7243421,10.6249972 16.7243421,11.175 C16.7243421,11.7416695 16.59726,12.2479144 16.3430921,12.69375 C16.0889242,13.1395856 15.7389277,13.4874988 15.2930921,13.7375 C14.8472565,13.9875012 14.3410116,14.1125 13.7743421,14.1125 C12.6576699,14.1125 11.7972618,13.7354204 11.1930921,12.98125 C10.5889224,12.2270796 10.2868421,11.150007 10.2868421,9.75 C10.2868421,8.79166187 10.4285074,7.96042019 10.7118421,7.25625 C10.9951769,6.55207981 11.4014228,6.01250187 11.9305921,5.6375 C12.4597614,5.26249813 13.0826719,5.075 13.7993421,5.075 C14.2743445,5.075 14.751423,5.16041581 15.2305921,5.33125 C15.7097612,5.50208419 16.1160071,5.73333188 16.4493421,6.025 C16.557676,6.11666712 16.6347585,6.20624956 16.6805921,6.29375 C16.7264257,6.38125044 16.7493421,6.48749938 16.7493421,6.6125 C16.7493421,6.79583425 16.6972593,6.95208269 16.5930921,7.08125 C16.4889249,7.21041731 16.3660095,7.275 16.2243421,7.275 C16.1410084,7.275 16.0618425,7.26041681 15.9868421,7.23125 C15.9118417,7.20208319 15.820176,7.154167 15.7118421,7.0875 C15.020172,6.60416425 14.4035115,6.3625 13.8618421,6.3625 C13.2535057,6.3625 12.7743439,6.64374719 12.4243421,7.20625 C12.0743404,7.76875281 11.8910089,8.55832825 11.8743421,9.575 C12.0660097,9.19999812 12.3535069,8.90208444 12.7368421,8.68125 C13.1201774,8.46041556 13.5493397,8.35 14.0243421,8.35 Z M13.6868421,12.8375 C14.1451777,12.8375 14.5118407,12.6895848 14.7868421,12.39375 C15.0618435,12.0979152 15.1993421,11.7083357 15.1993421,11.225 C15.1993421,10.7416642 15.0618435,10.3541681 14.7868421,10.0625 C14.5118407,9.77083187 14.1451777,9.625 13.6868421,9.625 C13.2201731,9.625 12.8430935,9.77291519 12.5555921,10.06875 C12.2680907,10.3645848 12.1243421,10.7499976 12.1243421,11.225 C12.1243421,11.7083357 12.2680907,12.0979152 12.5555921,12.39375 C12.8430935,12.6895848 13.2201731,12.8375 13.6868421,12.8375 Z" fill="#FFFFFF"></path>
            </g>
        </g>
    </g>
</svg>