<?xml version="1.0" encoding="UTF-8"?>
<svg width="26px" height="28px" viewBox="0 0 26 28" version="1.1" xmlns="http://www.w3.org/2000/svg" xmlns:xlink="http://www.w3.org/1999/xlink">
    <!-- Generator: Sketch 52.1 (67048) - http://www.bohemiancoding.com/sketch -->
    <title>pin17</title>
    <desc>Created with Sketch.</desc>
    <defs>
        <filter x="-25.0%" y="-21.7%" width="150.0%" height="139.1%" filterUnits="objectBoundingBox" id="filter-1">
            <feOffset dx="0" dy="0" in="SourceAlpha" result="shadowOffsetOuter1"></feOffset>
            <feGaussianBlur stdDeviation="1" in="shadowOffsetOuter1" result="shadowBlurOuter1"></feGaussianBlur>
            <feColorMatrix values="0 0 0 0 0   0 0 0 0 0   0 0 0 0 0  0 0 0 0.5 0" type="matrix" in="shadowBlurOuter1" result="shadowMatrixOuter1"></feColorMatrix>
            <feMerge>
                <feMergeNode in="shadowMatrixOuter1"></feMergeNode>
                <feMergeNode in="SourceGraphic"></feMergeNode>
            </feMerge>
        </filter>
    </defs>
    <g id="Page-1" stroke="none" stroke-width="1" fill="none" fill-rule="evenodd">
        <g id="pin17" transform="translate(3.000000, 3.000000)">
            <g id="1" filter="url(#filter-1)">
                <path d="M9.68958365,0 C15.040919,0 19.3789472,4.33450677 19.3789472,9.6818804 C19.3789472,14.3573109 16.0621494,18.258455 11.6519307,19.165017 C11.0180635,19.2950919 10.3617469,22.1342884 9.68958365,22.1342884 C9.0286451,22.1342884 8.38289295,19.2972928 7.75915007,19.1713997 C3.33264453,18.2771629 0,14.3683155 0,9.6818804 C0,4.33450677 4.33802825,0 9.68958365,0" id="circle" stroke="#FFFFFF" stroke-width="1.5" fill="#594383"></path>
                <path d="M8.49934211,12.7 C8.99934461,12.7 9.24934211,12.9124979 9.24934211,13.3375 C9.24934211,13.7791689 8.99934461,14 8.49934211,14 L4.27434211,14 C3.76600623,14 3.51184211,13.7791689 3.51184211,13.3375 C3.51184211,12.9124979 3.76600623,12.7 4.27434211,12.7 L5.57434211,12.7 L5.57434211,7 L4.37434211,7.7375 C4.25767486,7.804167 4.15350923,7.8375 4.06184211,7.8375 C3.88684123,7.8375 3.73892604,7.76250075 3.61809211,7.6125 C3.49725817,7.46249925 3.43684211,7.29583425 3.43684211,7.1125 C3.43684211,6.87083212 3.54517436,6.683334 3.76184211,6.55 L5.69934211,5.35 C5.94934336,5.19999925 6.18684098,5.125 6.41184211,5.125 C6.64517661,5.125 6.83267473,5.19583262 6.97434211,5.3375 C7.11600948,5.47916737 7.18684211,5.67499875 7.18684211,5.925 L7.18684211,12.7 L8.49934211,12.7 Z M16.0243421,5.1875 C16.2410099,5.1875 16.4076749,5.24791606 16.5243421,5.36875 C16.6410094,5.48958394 16.6993421,5.64583237 16.6993421,5.8375 C16.6993421,6.02916762 16.6410094,6.22916563 16.5243421,6.4375 L12.5368421,13.675 C12.3701746,13.9583348 12.1410102,14.1 11.8493421,14.1 C11.6493411,14.1 11.4722595,14.0312507 11.3180921,13.89375 C11.1639247,13.7562493 11.0868421,13.587501 11.0868421,13.3875 C11.0868421,13.2458326 11.1285084,13.1041674 11.2118421,12.9625 L14.7993421,6.4875 L11.0243421,6.4875 C10.5243396,6.4875 10.2743421,6.27500213 10.2743421,5.85 C10.2743421,5.40833113 10.5243396,5.1875 11.0243421,5.1875 L16.0243421,5.1875 Z" fill="#FFFFFF"></path>
            </g>
        </g>
    </g>
</svg>