<?xml version="1.0" encoding="UTF-8"?>
<svg width="26px" height="28px" viewBox="0 0 26 28" version="1.1" xmlns="http://www.w3.org/2000/svg" xmlns:xlink="http://www.w3.org/1999/xlink">
    <!-- Generator: Sketch 52.1 (67048) - http://www.bohemiancoding.com/sketch -->
    <title>pin12</title>
    <desc>Created with Sketch.</desc>
    <defs>
        <filter x="-25.0%" y="-21.7%" width="150.0%" height="139.1%" filterUnits="objectBoundingBox" id="filter-1">
            <feOffset dx="0" dy="0" in="SourceAlpha" result="shadowOffsetOuter1"></feOffset>
            <feGaussianBlur stdDeviation="1" in="shadowOffsetOuter1" result="shadowBlurOuter1"></feGaussianBlur>
            <feColorMatrix values="0 0 0 0 0   0 0 0 0 0   0 0 0 0 0  0 0 0 0.5 0" type="matrix" in="shadowBlurOuter1" result="shadowMatrixOuter1"></feColorMatrix>
            <feMerge>
                <feMergeNode in="shadowMatrixOuter1"></feMergeNode>
                <feMergeNode in="SourceGraphic"></feMergeNode>
            </feMerge>
        </filter>
    </defs>
    <g id="Page-1" stroke="none" stroke-width="1" fill="none" fill-rule="evenodd">
        <g id="pin12" transform="translate(3.000000, 3.000000)">
            <g id="1" filter="url(#filter-1)">
                <path d="M9.68958365,0 C15.040919,0 19.3789472,4.33450677 19.3789472,9.6818804 C19.3789472,14.3573109 16.0621494,18.258455 11.6519307,19.165017 C11.0180635,19.2950919 10.3617469,22.1342884 9.68958365,22.1342884 C9.0286451,22.1342884 8.38289295,19.2972928 7.75915007,19.1713997 C3.33264453,18.2771629 0,14.3683155 0,9.6818804 C0,4.33450677 4.33802825,0 9.68958365,0" id="circle" stroke="#FFFFFF" stroke-width="1.5" fill="#594383"></path>
                <path d="M8.49309211,12.7 C8.99309461,12.7 9.24309211,12.9124979 9.24309211,13.3375 C9.24309211,13.7791689 8.99309461,14 8.49309211,14 L4.26809211,14 C3.75975623,14 3.50559211,13.7791689 3.50559211,13.3375 C3.50559211,12.9124979 3.75975623,12.7 4.26809211,12.7 L5.56809211,12.7 L5.56809211,7 L4.36809211,7.7375 C4.25142486,7.804167 4.14725923,7.8375 4.05559211,7.8375 C3.88059123,7.8375 3.73267604,7.76250075 3.61184211,7.6125 C3.49100817,7.46249925 3.43059211,7.29583425 3.43059211,7.1125 C3.43059211,6.87083212 3.53892436,6.683334 3.75559211,6.55 L5.69309211,5.35 C5.94309336,5.19999925 6.18059098,5.125 6.40559211,5.125 C6.63892661,5.125 6.82642473,5.19583262 6.96809211,5.3375 C7.10975948,5.47916737 7.18059211,5.67499875 7.18059211,5.925 L7.18059211,12.7 L8.49309211,12.7 Z M15.9555921,12.7 C16.4555946,12.7 16.7055921,12.9124979 16.7055921,13.3375 C16.7055921,13.7791689 16.4555946,14 15.9555921,14 L11.2055921,14 C10.9889244,14 10.8180927,13.9354173 10.6930921,13.80625 C10.5680915,13.6770827 10.5055921,13.5166676 10.5055921,13.325 C10.5055921,13.0749988 10.6014245,12.850001 10.7930921,12.65 L13.6430921,9.5875 C13.9930939,9.20416475 14.2493413,8.85208494 14.4118421,8.53125 C14.5743429,8.21041506 14.6555921,7.89166825 14.6555921,7.575 C14.6555921,7.18333138 14.5430932,6.88333438 14.3180921,6.675 C14.093091,6.46666563 13.7722609,6.3625 13.3555921,6.3625 C13.0139237,6.3625 12.682677,6.42708269 12.3618421,6.55625 C12.0410072,6.68541731 11.7180937,6.86249887 11.3930921,7.0875 C11.3097584,7.14583362 11.2264259,7.19374981 11.1430921,7.23125 C11.0597584,7.26875019 10.9764259,7.2875 10.8930921,7.2875 C10.7514247,7.2875 10.6285093,7.220834 10.5243421,7.0875 C10.4201749,6.954166 10.3680921,6.79583425 10.3680921,6.6125 C10.3680921,6.48749938 10.3910085,6.37916713 10.4368421,6.2875 C10.4826757,6.19583287 10.5555916,6.10833375 10.6555921,6.025 C11.0222606,5.73333188 11.451423,5.50208419 11.9430921,5.33125 C12.4347612,5.16041581 12.926423,5.075 13.4180921,5.075 C14.2764297,5.075 14.9618395,5.2916645 15.4743421,5.725 C15.9868447,6.1583355 16.2430921,6.741663 16.2430921,7.475 C16.2430921,7.98333588 16.1347599,8.46041444 15.9180921,8.90625 C15.7014244,9.35208556 15.3347614,9.84999725 14.8180921,10.4 L12.6555921,12.7 L15.9555921,12.7 Z" fill="#FFFFFF"></path>
            </g>
        </g>
    </g>
</svg>