<?xml version="1.0" encoding="UTF-8"?>
<svg width="26px" height="28px" viewBox="0 0 26 28" version="1.1" xmlns="http://www.w3.org/2000/svg" xmlns:xlink="http://www.w3.org/1999/xlink">
    <!-- Generator: Sketch 52.1 (67048) - http://www.bohemiancoding.com/sketch -->
    <title>pin15</title>
    <desc>Created with Sketch.</desc>
    <defs>
        <filter x="-25.0%" y="-21.7%" width="150.0%" height="139.1%" filterUnits="objectBoundingBox" id="filter-1">
            <feOffset dx="0" dy="0" in="SourceAlpha" result="shadowOffsetOuter1"></feOffset>
            <feGaussianBlur stdDeviation="1" in="shadowOffsetOuter1" result="shadowBlurOuter1"></feGaussianBlur>
            <feColorMatrix values="0 0 0 0 0   0 0 0 0 0   0 0 0 0 0  0 0 0 0.5 0" type="matrix" in="shadowBlurOuter1" result="shadowMatrixOuter1"></feColorMatrix>
            <feMerge>
                <feMergeNode in="shadowMatrixOuter1"></feMergeNode>
                <feMergeNode in="SourceGraphic"></feMergeNode>
            </feMerge>
        </filter>
    </defs>
    <g id="Page-1" stroke="none" stroke-width="1" fill="none" fill-rule="evenodd">
        <g id="pin15" transform="translate(3.000000, 3.000000)">
            <g id="1" filter="url(#filter-1)">
                <path d="M9.68958365,0 C15.040919,0 19.3789472,4.33450677 19.3789472,9.6818804 C19.3789472,14.3573109 16.0621494,18.258455 11.6519307,19.165017 C11.0180635,19.2950919 10.3617469,22.1342884 9.68958365,22.1342884 C9.0286451,22.1342884 8.38289295,19.2972928 7.75915007,19.1713997 C3.33264453,18.2771629 0,14.3683155 0,9.6818804 C0,4.33450677 4.33802825,0 9.68958365,0" id="circle" stroke="#FFFFFF" stroke-width="1.5" fill="#594383"></path>
                <path d="M8.49934211,12.7 C8.99934461,12.7 9.24934211,12.9124979 9.24934211,13.3375 C9.24934211,13.7791689 8.99934461,14 8.49934211,14 L4.27434211,14 C3.76600623,14 3.51184211,13.7791689 3.51184211,13.3375 C3.51184211,12.9124979 3.76600623,12.7 4.27434211,12.7 L5.57434211,12.7 L5.57434211,7 L4.37434211,7.7375 C4.25767486,7.804167 4.15350923,7.8375 4.06184211,7.8375 C3.88684123,7.8375 3.73892604,7.76250075 3.61809211,7.6125 C3.49725817,7.46249925 3.43684211,7.29583425 3.43684211,7.1125 C3.43684211,6.87083212 3.54517436,6.683334 3.76184211,6.55 L5.69934211,5.35 C5.94934336,5.19999925 6.18684098,5.125 6.41184211,5.125 C6.64517661,5.125 6.83267473,5.19583262 6.97434211,5.3375 C7.11600948,5.47916737 7.18684211,5.67499875 7.18684211,5.925 L7.18684211,12.7 L8.49934211,12.7 Z M13.9493421,8.3625 C14.4993449,8.3625 14.9847567,8.48124881 15.4055921,8.71875 C15.8264275,8.95625119 16.1535076,9.28749787 16.3868421,9.7125 C16.6201766,10.1375021 16.7368421,10.6249972 16.7368421,11.175 C16.7368421,11.7500029 16.6055934,12.2583311 16.3430921,12.7 C16.0805908,13.1416689 15.7097612,13.4854154 15.2305921,13.73125 C14.751423,13.9770846 14.1993452,14.1 13.5743421,14.1 C13.0576729,14.1 12.5514279,14.0145842 12.0555921,13.84375 C11.5597563,13.6729158 11.1368439,13.4416681 10.7868421,13.15 C10.5951745,12.9833325 10.4993421,12.7875011 10.4993421,12.5625 C10.4993421,12.3791657 10.5514249,12.2229173 10.6555921,12.09375 C10.7597593,11.9645827 10.8826747,11.9 11.0243421,11.9 C11.1076759,11.9 11.1868417,11.9145832 11.2618421,11.94375 C11.3368425,11.9729168 11.4243416,12.020833 11.5243421,12.0875 C11.8576771,12.3208345 12.1826739,12.4999994 12.4993421,12.625 C12.8160104,12.7500006 13.153507,12.8125 13.5118421,12.8125 C14.0618449,12.8125 14.482674,12.6750014 14.7743421,12.4 C15.0660102,12.1249986 15.2118421,11.7333359 15.2118421,11.225 C15.2118421,10.7333309 15.0639269,10.3437514 14.7680921,10.05625 C14.4722573,9.76874856 14.0660114,9.625 13.5493421,9.625 C13.2243405,9.625 12.93476,9.67083287 12.6805921,9.7625 C12.4264242,9.85416713 12.1660101,10.0083322 11.8993421,10.225 C11.741008,10.3333339 11.5785096,10.3875 11.4118421,10.3875 C11.2451746,10.3875 11.1035094,10.3375005 10.9868421,10.2375 C10.8701749,10.1374995 10.8118421,10.0041675 10.8118421,9.8375 L10.8118421,5.9375 C10.8118421,5.7041655 10.8785081,5.520834 11.0118421,5.3875 C11.1451761,5.254166 11.3326742,5.1875 11.5743421,5.1875 L15.7368421,5.1875 C16.2368446,5.1875 16.4868421,5.39583125 16.4868421,5.8125 C16.4868421,6.22916875 16.2368446,6.4375 15.7368421,6.4375 L12.3868421,6.4375 L12.3868421,8.8125 C12.8118442,8.5124985 13.3326724,8.3625 13.9493421,8.3625 Z" fill="#FFFFFF"></path>
            </g>
        </g>
    </g>
</svg>