<?xml version="1.0" encoding="UTF-8"?>
<svg width="26px" height="28px" viewBox="0 0 26 28" version="1.1" xmlns="http://www.w3.org/2000/svg" xmlns:xlink="http://www.w3.org/1999/xlink">
    <!-- Generator: Sketch 52.1 (67048) - http://www.bohemiancoding.com/sketch -->
    <title>pin18</title>
    <desc>Created with Sketch.</desc>
    <defs>
        <filter x="-25.0%" y="-21.7%" width="150.0%" height="139.1%" filterUnits="objectBoundingBox" id="filter-1">
            <feOffset dx="0" dy="0" in="SourceAlpha" result="shadowOffsetOuter1"></feOffset>
            <feGaussianBlur stdDeviation="1" in="shadowOffsetOuter1" result="shadowBlurOuter1"></feGaussianBlur>
            <feColorMatrix values="0 0 0 0 0   0 0 0 0 0   0 0 0 0 0  0 0 0 0.5 0" type="matrix" in="shadowBlurOuter1" result="shadowMatrixOuter1"></feColorMatrix>
            <feMerge>
                <feMergeNode in="shadowMatrixOuter1"></feMergeNode>
                <feMergeNode in="SourceGraphic"></feMergeNode>
            </feMerge>
        </filter>
    </defs>
    <g id="Page-1" stroke="none" stroke-width="1" fill="none" fill-rule="evenodd">
        <g id="pin18" transform="translate(3.000000, 3.000000)">
            <g id="1" filter="url(#filter-1)">
                <path d="M9.68958365,0 C15.040919,0 19.3789472,4.33450677 19.3789472,9.6818804 C19.3789472,14.3573109 16.0621494,18.258455 11.6519307,19.165017 C11.0180635,19.2950919 10.3617469,22.1342884 9.68958365,22.1342884 C9.0286451,22.1342884 8.38289295,19.2972928 7.75915007,19.1713997 C3.33264453,18.2771629 0,14.3683155 0,9.6818804 C0,4.33450677 4.33802825,0 9.68958365,0" id="circle" stroke="#FFFFFF" stroke-width="1.5" fill="#594383"></path>
                <path d="M8.49934211,12.7 C8.99934461,12.7 9.24934211,12.9124979 9.24934211,13.3375 C9.24934211,13.7791689 8.99934461,14 8.49934211,14 L4.27434211,14 C3.76600623,14 3.51184211,13.7791689 3.51184211,13.3375 C3.51184211,12.9124979 3.76600623,12.7 4.27434211,12.7 L5.57434211,12.7 L5.57434211,7 L4.37434211,7.7375 C4.25767486,7.804167 4.15350923,7.8375 4.06184211,7.8375 C3.88684123,7.8375 3.73892604,7.76250075 3.61809211,7.6125 C3.49725817,7.46249925 3.43684211,7.29583425 3.43684211,7.1125 C3.43684211,6.87083212 3.54517436,6.683334 3.76184211,6.55 L5.69934211,5.35 C5.94934336,5.19999925 6.18684098,5.125 6.41184211,5.125 C6.64517661,5.125 6.83267473,5.19583262 6.97434211,5.3375 C7.11600948,5.47916737 7.18684211,5.67499875 7.18684211,5.925 L7.18684211,12.7 L8.49934211,12.7 Z M15.1743421,9.475 C15.6910114,9.61666738 16.088924,9.87499813 16.3680921,10.25 C16.6472602,10.6250019 16.7868421,11.0833306 16.7868421,11.625 C16.7868421,12.4000039 16.4951784,13.0062478 15.9118421,13.44375 C15.3285059,13.8812522 14.5201806,14.1 13.4868421,14.1 C12.4535036,14.1 11.6451784,13.8812522 11.0618421,13.44375 C10.4785059,13.0062478 10.1868421,12.4000039 10.1868421,11.625 C10.1868421,11.0833306 10.3285074,10.6229186 10.6118421,10.24375 C10.8951769,9.86458144 11.2951729,9.608334 11.8118421,9.475 C11.3701732,9.3083325 11.0243434,9.04791844 10.7743421,8.69375 C10.5243409,8.33958156 10.3993421,7.92500238 10.3993421,7.45 C10.3993421,6.716663 10.6743394,6.13750212 11.2243421,5.7125 C11.7743449,5.28749787 12.528504,5.075 13.4868421,5.075 C14.4451802,5.075 15.1993394,5.28749787 15.7493421,5.7125 C16.2993449,6.13750212 16.5743421,6.716663 16.5743421,7.45 C16.5743421,7.93333575 16.4493434,8.35416487 16.1993421,8.7125 C15.9493409,9.07083512 15.6076776,9.32499925 15.1743421,9.475 Z M13.4868421,6.3375 C12.4451702,6.3375 11.9243421,6.76249575 11.9243421,7.6125 C11.9243421,8.03750212 12.0555908,8.36041556 12.3180921,8.58125 C12.5805934,8.80208444 12.9701729,8.9125 13.4868421,8.9125 C14.0035114,8.9125 14.3930908,8.80208444 14.6555921,8.58125 C14.9180934,8.36041556 15.0493421,8.03750212 15.0493421,7.6125 C15.0493421,6.76249575 14.528514,6.3375 13.4868421,6.3375 Z M13.4868421,12.8375 C14.6785147,12.8375 15.2743421,12.3916711 15.2743421,11.5 C15.2743421,10.6083289 14.6785147,10.1625 13.4868421,10.1625 C12.2951695,10.1625 11.6993421,10.6083289 11.6993421,11.5 C11.6993421,12.3916711 12.2951695,12.8375 13.4868421,12.8375 Z" fill="#FFFFFF"></path>
            </g>
        </g>
    </g>
</svg>