<?xml version="1.0" encoding="UTF-8"?>
<svg width="26px" height="28px" viewBox="0 0 26 28" version="1.1" xmlns="http://www.w3.org/2000/svg" xmlns:xlink="http://www.w3.org/1999/xlink">
    <!-- Generator: Sketch 52.1 (67048) - http://www.bohemiancoding.com/sketch -->
    <title>pin10</title>
    <desc>Created with Sketch.</desc>
    <defs>
        <filter x="-25.0%" y="-21.7%" width="150.0%" height="139.1%" filterUnits="objectBoundingBox" id="filter-1">
            <feOffset dx="0" dy="0" in="SourceAlpha" result="shadowOffsetOuter1"></feOffset>
            <feGaussianBlur stdDeviation="1" in="shadowOffsetOuter1" result="shadowBlurOuter1"></feGaussianBlur>
            <feColorMatrix values="0 0 0 0 0   0 0 0 0 0   0 0 0 0 0  0 0 0 0.5 0" type="matrix" in="shadowBlurOuter1" result="shadowMatrixOuter1"></feColorMatrix>
            <feMerge>
                <feMergeNode in="shadowMatrixOuter1"></feMergeNode>
                <feMergeNode in="SourceGraphic"></feMergeNode>
            </feMerge>
        </filter>
    </defs>
    <g id="Page-1" stroke="none" stroke-width="1" fill="none" fill-rule="evenodd">
        <g id="pin10" transform="translate(3.000000, 3.000000)">
            <g id="1" filter="url(#filter-1)">
                <path d="M9.68958365,0 C15.040919,0 19.3789472,4.33450677 19.3789472,9.6818804 C19.3789472,14.3573109 16.0621494,18.258455 11.6519307,19.165017 C11.0180635,19.2950919 10.3617469,22.1342884 9.68958365,22.1342884 C9.0286451,22.1342884 8.38289295,19.2972928 7.75915007,19.1713997 C3.33264453,18.2771629 0,14.3683155 0,9.6818804 C0,4.33450677 4.33802825,0 9.68958365,0" id="circle" stroke="#FFFFFF" stroke-width="1.5" fill="#594383"></path>
                <path d="M8.49934211,12.7 C8.99934461,12.7 9.24934211,12.9124979 9.24934211,13.3375 C9.24934211,13.7791689 8.99934461,14 8.49934211,14 L4.27434211,14 C3.76600623,14 3.51184211,13.7791689 3.51184211,13.3375 C3.51184211,12.9124979 3.76600623,12.7 4.27434211,12.7 L5.57434211,12.7 L5.57434211,7 L4.37434211,7.7375 C4.25767486,7.804167 4.15350923,7.8375 4.06184211,7.8375 C3.88684123,7.8375 3.73892604,7.76250075 3.61809211,7.6125 C3.49725817,7.46249925 3.43684211,7.29583425 3.43684211,7.1125 C3.43684211,6.87083212 3.54517436,6.683334 3.76184211,6.55 L5.69934211,5.35 C5.94934336,5.19999925 6.18684098,5.125 6.41184211,5.125 C6.64517661,5.125 6.83267473,5.19583262 6.97434211,5.3375 C7.11600948,5.47916737 7.18684211,5.67499875 7.18684211,5.925 L7.18684211,12.7 L8.49934211,12.7 Z M13.4868421,14.1125 C12.4451702,14.1125 11.6493449,13.7270872 11.0993421,12.95625 C10.5493394,12.1854128 10.2743421,11.0625074 10.2743421,9.5875 C10.2743421,8.120826 10.5493394,7.00208719 11.0993421,6.23125 C11.6493449,5.46041281 12.4451702,5.075 13.4868421,5.075 C14.528514,5.075 15.3243394,5.46041281 15.8743421,6.23125 C16.4243449,7.00208719 16.6993421,8.120826 16.6993421,9.5875 C16.6993421,11.054174 16.4243449,12.1749961 15.8743421,12.95 C15.3243394,13.7250039 14.528514,14.1125 13.4868421,14.1125 Z M13.4868421,12.85 C14.0535116,12.85 14.4660075,12.5895859 14.7243421,12.06875 C14.9826767,11.5479141 15.1118421,10.720839 15.1118421,9.5875 C15.1118421,8.44582762 14.9826767,7.61875256 14.7243421,7.10625 C14.4660075,6.59374744 14.0535116,6.3375 13.4868421,6.3375 C12.9201726,6.3375 12.5076767,6.59583075 12.2493421,7.1125 C11.9910075,7.62916925 11.8618421,8.454161 11.8618421,9.5875 C11.8618421,10.720839 11.9910075,11.5479141 12.2493421,12.06875 C12.5076767,12.5895859 12.9201726,12.85 13.4868421,12.85 Z" fill="#FFFFFF"></path>
            </g>
        </g>
    </g>
</svg>