<?xml version="1.0" encoding="UTF-8"?>
<svg width="26px" height="28px" viewBox="0 0 26 28" version="1.1" xmlns="http://www.w3.org/2000/svg" xmlns:xlink="http://www.w3.org/1999/xlink">
    <!-- Generator: Sketch 52.1 (67048) - http://www.bohemiancoding.com/sketch -->
    <title>pin20</title>
    <desc>Created with Sketch.</desc>
    <defs>
        <filter x="-25.0%" y="-21.7%" width="150.0%" height="139.1%" filterUnits="objectBoundingBox" id="filter-1">
            <feOffset dx="0" dy="0" in="SourceAlpha" result="shadowOffsetOuter1"></feOffset>
            <feGaussianBlur stdDeviation="1" in="shadowOffsetOuter1" result="shadowBlurOuter1"></feGaussianBlur>
            <feColorMatrix values="0 0 0 0 0   0 0 0 0 0   0 0 0 0 0  0 0 0 0.5 0" type="matrix" in="shadowBlurOuter1" result="shadowMatrixOuter1"></feColorMatrix>
            <feMerge>
                <feMergeNode in="shadowMatrixOuter1"></feMergeNode>
                <feMergeNode in="SourceGraphic"></feMergeNode>
            </feMerge>
        </filter>
    </defs>
    <g id="Page-1" stroke="none" stroke-width="1" fill="none" fill-rule="evenodd">
        <g id="pin20" transform="translate(3.000000, 3.000000)">
            <g id="1" filter="url(#filter-1)">
                <path d="M9.68958365,0 C15.040919,0 19.3789472,4.33450677 19.3789472,9.6818804 C19.3789472,14.3573109 16.0621494,18.258455 11.6519307,19.165017 C11.0180635,19.2950919 10.3617469,22.1342884 9.68958365,22.1342884 C9.0286451,22.1342884 8.38289295,19.2972928 7.75915007,19.1713997 C3.33264453,18.2771629 0,14.3683155 0,9.6818804 C0,4.33450677 4.33802825,0 9.68958365,0" id="circle" stroke="#FFFFFF" stroke-width="1.5" fill="#594383"></path>
                <path d="M8.45559211,12.7 C8.95559461,12.7 9.20559211,12.9124979 9.20559211,13.3375 C9.20559211,13.7791689 8.95559461,14 8.45559211,14 L3.70559211,14 C3.48892436,14 3.31809273,13.9354173 3.19309211,13.80625 C3.06809148,13.6770827 3.00559211,13.5166676 3.00559211,13.325 C3.00559211,13.0749988 3.10142448,12.850001 3.29309211,12.65 L6.14309211,9.5875 C6.49309386,9.20416475 6.74934129,8.85208494 6.91184211,8.53125 C7.07434292,8.21041506 7.15559211,7.89166825 7.15559211,7.575 C7.15559211,7.18333138 7.04309323,6.88333438 6.81809211,6.675 C6.59309098,6.46666563 6.27226086,6.3625 5.85559211,6.3625 C5.51392373,6.3625 5.18267704,6.42708269 4.86184211,6.55625 C4.54100717,6.68541731 4.21809373,6.86249887 3.89309211,7.0875 C3.80975836,7.14583362 3.72642586,7.19374981 3.64309211,7.23125 C3.55975836,7.26875019 3.47642586,7.2875 3.39309211,7.2875 C3.25142473,7.2875 3.12850929,7.220834 3.02434211,7.0875 C2.92017492,6.954166 2.86809211,6.79583425 2.86809211,6.6125 C2.86809211,6.48749938 2.89100854,6.37916713 2.93684211,6.2875 C2.98267567,6.19583287 3.05559161,6.10833375 3.15559211,6.025 C3.52226061,5.73333188 3.95142298,5.50208419 4.44309211,5.33125 C4.93476123,5.16041581 5.42642298,5.075 5.91809211,5.075 C6.77642973,5.075 7.46183954,5.2916645 7.97434211,5.725 C8.48684467,6.1583355 8.74309211,6.741663 8.74309211,7.475 C8.74309211,7.98333588 8.63475986,8.46041444 8.41809211,8.90625 C8.20142436,9.35208556 7.83476136,9.84999725 7.31809211,10.4 L5.15559211,12.7 L8.45559211,12.7 Z M13.4930921,14.1125 C12.4514202,14.1125 11.6555949,13.7270872 11.1055921,12.95625 C10.5555894,12.1854128 10.2805921,11.0625074 10.2805921,9.5875 C10.2805921,8.120826 10.5555894,7.00208719 11.1055921,6.23125 C11.6555949,5.46041281 12.4514202,5.075 13.4930921,5.075 C14.534764,5.075 15.3305894,5.46041281 15.8805921,6.23125 C16.4305949,7.00208719 16.7055921,8.120826 16.7055921,9.5875 C16.7055921,11.054174 16.4305949,12.1749961 15.8805921,12.95 C15.3305894,13.7250039 14.534764,14.1125 13.4930921,14.1125 Z M13.4930921,12.85 C14.0597616,12.85 14.4722575,12.5895859 14.7305921,12.06875 C14.9889267,11.5479141 15.1180921,10.720839 15.1180921,9.5875 C15.1180921,8.44582762 14.9889267,7.61875256 14.7305921,7.10625 C14.4722575,6.59374744 14.0597616,6.3375 13.4930921,6.3375 C12.9264226,6.3375 12.5139267,6.59583075 12.2555921,7.1125 C11.9972575,7.62916925 11.8680921,8.454161 11.8680921,9.5875 C11.8680921,10.720839 11.9972575,11.5479141 12.2555921,12.06875 C12.5139267,12.5895859 12.9264226,12.85 13.4930921,12.85 Z" fill="#FFFFFF"></path>
            </g>
        </g>
    </g>
</svg>