<?xml version="1.0" encoding="UTF-8"?>
<svg width="26px" height="28px" viewBox="0 0 26 28" version="1.1" xmlns="http://www.w3.org/2000/svg" xmlns:xlink="http://www.w3.org/1999/xlink">
    <!-- Generator: Sketch 52.1 (67048) - http://www.bohemiancoding.com/sketch -->
    <title>pin2</title>
    <desc>Created with Sketch.</desc>
    <defs>
        <filter x="-25.0%" y="-21.7%" width="150.0%" height="139.1%" filterUnits="objectBoundingBox" id="filter-1">
            <feOffset dx="0" dy="0" in="SourceAlpha" result="shadowOffsetOuter1"></feOffset>
            <feGaussianBlur stdDeviation="1" in="shadowOffsetOuter1" result="shadowBlurOuter1"></feGaussianBlur>
            <feColorMatrix values="0 0 0 0 0   0 0 0 0 0   0 0 0 0 0  0 0 0 0.5 0" type="matrix" in="shadowBlurOuter1" result="shadowMatrixOuter1"></feColorMatrix>
            <feMerge>
                <feMergeNode in="shadowMatrixOuter1"></feMergeNode>
                <feMergeNode in="SourceGraphic"></feMergeNode>
            </feMerge>
        </filter>
    </defs>
    <g id="Page-1" stroke="none" stroke-width="1" fill="none" fill-rule="evenodd">
        <g id="pin2" transform="translate(3.000000, 3.000000)">
            <g id="1" filter="url(#filter-1)">
                <path d="M9.68958365,0 C15.040919,0 19.3789472,4.33450677 19.3789472,9.6818804 C19.3789472,14.3573109 16.0621494,18.258455 11.6519307,19.165017 C11.0180635,19.2950919 10.3617469,22.1342884 9.68958365,22.1342884 C9.0286451,22.1342884 8.38289295,19.2972928 7.75915007,19.1713997 C3.33264453,18.2771629 0,14.3683155 0,9.6818804 C0,4.33450677 4.33802825,0 9.68958365,0" id="circle" stroke="#FFFFFF" stroke-width="1.5" fill="#594383"></path>
                <path d="M12.2055921,12.7 C12.7055946,12.7 12.9555921,12.9124979 12.9555921,13.3375 C12.9555921,13.7791689 12.7055946,14 12.2055921,14 L7.45559211,14 C7.23892436,14 7.06809273,13.9354173 6.94309211,13.80625 C6.81809148,13.6770827 6.75559211,13.5166676 6.75559211,13.325 C6.75559211,13.0749988 6.85142448,12.850001 7.04309211,12.65 L9.89309211,9.5875 C10.2430939,9.20416475 10.4993413,8.85208494 10.6618421,8.53125 C10.8243429,8.21041506 10.9055921,7.89166825 10.9055921,7.575 C10.9055921,7.18333138 10.7930932,6.88333438 10.5680921,6.675 C10.343091,6.46666563 10.0222609,6.3625 9.60559211,6.3625 C9.26392373,6.3625 8.93267704,6.42708269 8.61184211,6.55625 C8.29100717,6.68541731 7.96809373,6.86249887 7.64309211,7.0875 C7.55975836,7.14583362 7.47642586,7.19374981 7.39309211,7.23125 C7.30975836,7.26875019 7.22642586,7.2875 7.14309211,7.2875 C7.00142473,7.2875 6.87850929,7.220834 6.77434211,7.0875 C6.67017492,6.954166 6.61809211,6.79583425 6.61809211,6.6125 C6.61809211,6.48749938 6.64100854,6.37916713 6.68684211,6.2875 C6.73267567,6.19583287 6.80559161,6.10833375 6.90559211,6.025 C7.27226061,5.73333188 7.70142298,5.50208419 8.19309211,5.33125 C8.68476123,5.16041581 9.17642298,5.075 9.66809211,5.075 C10.5264297,5.075 11.2118395,5.2916645 11.7243421,5.725 C12.2368447,6.1583355 12.4930921,6.741663 12.4930921,7.475 C12.4930921,7.98333588 12.3847599,8.46041444 12.1680921,8.90625 C11.9514244,9.35208556 11.5847614,9.84999725 11.0680921,10.4 L8.90559211,12.7 L12.2055921,12.7 Z" fill="#FFFFFF"></path>
            </g>
        </g>
    </g>
</svg>