<?xml version="1.0" encoding="UTF-8"?>
<svg width="26px" height="28px" viewBox="0 0 26 28" version="1.1" xmlns="http://www.w3.org/2000/svg" xmlns:xlink="http://www.w3.org/1999/xlink">
    <!-- Generator: Sketch 52.1 (67048) - http://www.bohemiancoding.com/sketch -->
    <title>pin23</title>
    <desc>Created with Sketch.</desc>
    <defs>
        <filter x="-25.0%" y="-21.7%" width="150.0%" height="139.1%" filterUnits="objectBoundingBox" id="filter-1">
            <feOffset dx="0" dy="0" in="SourceAlpha" result="shadowOffsetOuter1"></feOffset>
            <feGaussianBlur stdDeviation="1" in="shadowOffsetOuter1" result="shadowBlurOuter1"></feGaussianBlur>
            <feColorMatrix values="0 0 0 0 0   0 0 0 0 0   0 0 0 0 0  0 0 0 0.5 0" type="matrix" in="shadowBlurOuter1" result="shadowMatrixOuter1"></feColorMatrix>
            <feMerge>
                <feMergeNode in="shadowMatrixOuter1"></feMergeNode>
                <feMergeNode in="SourceGraphic"></feMergeNode>
            </feMerge>
        </filter>
    </defs>
    <g id="Page-1" stroke="none" stroke-width="1" fill="none" fill-rule="evenodd">
        <g id="pin23" transform="translate(3.000000, 3.000000)">
            <g id="1" filter="url(#filter-1)">
                <path d="M9.68958365,0 C15.040919,0 19.3789472,4.33450677 19.3789472,9.6818804 C19.3789472,14.3573109 16.0621494,18.258455 11.6519307,19.165017 C11.0180635,19.2950919 10.3617469,22.1342884 9.68958365,22.1342884 C9.0286451,22.1342884 8.38289295,19.2972928 7.75915007,19.1713997 C3.33264453,18.2771629 0,14.3683155 0,9.6818804 C0,4.33450677 4.33802825,0 9.68958365,0" id="circle" stroke="#FFFFFF" stroke-width="1.5" fill="#594383"></path>
                <path d="M8.45559211,12.7 C8.95559461,12.7 9.20559211,12.9124979 9.20559211,13.3375 C9.20559211,13.7791689 8.95559461,14 8.45559211,14 L3.70559211,14 C3.48892436,14 3.31809273,13.9354173 3.19309211,13.80625 C3.06809148,13.6770827 3.00559211,13.5166676 3.00559211,13.325 C3.00559211,13.0749988 3.10142448,12.850001 3.29309211,12.65 L6.14309211,9.5875 C6.49309386,9.20416475 6.74934129,8.85208494 6.91184211,8.53125 C7.07434292,8.21041506 7.15559211,7.89166825 7.15559211,7.575 C7.15559211,7.18333138 7.04309323,6.88333438 6.81809211,6.675 C6.59309098,6.46666563 6.27226086,6.3625 5.85559211,6.3625 C5.51392373,6.3625 5.18267704,6.42708269 4.86184211,6.55625 C4.54100717,6.68541731 4.21809373,6.86249887 3.89309211,7.0875 C3.80975836,7.14583362 3.72642586,7.19374981 3.64309211,7.23125 C3.55975836,7.26875019 3.47642586,7.2875 3.39309211,7.2875 C3.25142473,7.2875 3.12850929,7.220834 3.02434211,7.0875 C2.92017492,6.954166 2.86809211,6.79583425 2.86809211,6.6125 C2.86809211,6.48749938 2.89100854,6.37916713 2.93684211,6.2875 C2.98267567,6.19583287 3.05559161,6.10833375 3.15559211,6.025 C3.52226061,5.73333188 3.95142298,5.50208419 4.44309211,5.33125 C4.93476123,5.16041581 5.42642298,5.075 5.91809211,5.075 C6.77642973,5.075 7.46183954,5.2916645 7.97434211,5.725 C8.48684467,6.1583355 8.74309211,6.741663 8.74309211,7.475 C8.74309211,7.98333588 8.63475986,8.46041444 8.41809211,8.90625 C8.20142436,9.35208556 7.83476136,9.84999725 7.31809211,10.4 L5.15559211,12.7 L8.45559211,12.7 Z M14.8430921,9.475 C15.3680947,9.608334 15.770174,9.86041481 16.0493421,10.23125 C16.3285102,10.6020852 16.4680921,11.0624972 16.4680921,11.6125 C16.4680921,12.3708371 16.1889282,12.9749977 15.6305921,13.425 C15.072256,13.8750022 14.3180969,14.1 13.3680921,14.1 C12.8264227,14.1 12.3055946,14.0166675 11.8055921,13.85 C11.3055896,13.6833325 10.8805939,13.4500015 10.5305921,13.15 C10.3389245,12.9833325 10.2430921,12.7875011 10.2430921,12.5625 C10.2430921,12.3791658 10.2951749,12.2229173 10.3993421,12.09375 C10.5035093,11.9645827 10.6264247,11.9 10.7680921,11.9 C10.8514259,11.9 10.9264251,11.9145832 10.9930921,11.94375 C11.0597591,11.9729168 11.1514249,12.020833 11.2680921,12.0875 C11.6180939,12.3208345 11.9514239,12.4999994 12.2680921,12.625 C12.5847604,12.7500006 12.9305902,12.8125 13.3055921,12.8125 C13.8555949,12.8125 14.2639241,12.7020844 14.5305921,12.48125 C14.7972601,12.2604156 14.9305921,11.9250023 14.9305921,11.475 C14.9305921,11.0333311 14.7910102,10.7062511 14.5118421,10.49375 C14.232674,10.2812489 13.8014284,10.175 13.2180921,10.175 L12.5055921,10.175 C12.3139245,10.175 12.1660093,10.1104173 12.0618421,9.98125 C11.9576749,9.85208269 11.9055921,9.7041675 11.9055921,9.5375 C11.9055921,9.36249912 11.9576749,9.21250062 12.0618421,9.0875 C12.1660093,8.96249937 12.3139245,8.9 12.5055921,8.9 L13.0055921,8.9 C14.1472645,8.9 14.7180921,8.47083762 14.7180921,7.6125 C14.7180921,7.212498 14.59726,6.90416775 14.3555921,6.6875 C14.1139242,6.47083225 13.7805942,6.3625 13.3555921,6.3625 C12.7472557,6.3625 12.0972622,6.60416425 11.4055921,7.0875 C11.2889249,7.154167 11.1972591,7.20208319 11.1305921,7.23125 C11.0639251,7.26041681 10.9889259,7.275 10.9055921,7.275 C10.7639247,7.275 10.6410093,7.21041731 10.5368421,7.08125 C10.4326749,6.95208269 10.3805921,6.79583425 10.3805921,6.6125 C10.3805921,6.48749938 10.4035085,6.38125044 10.4493421,6.29375 C10.4951757,6.20624956 10.5680916,6.11666712 10.6680921,6.025 C11.0180939,5.73333188 11.4368397,5.50208419 11.9243421,5.33125 C12.4118445,5.16041581 12.9097562,5.075 13.4180921,5.075 C14.2847631,5.075 14.9743395,5.28749787 15.4868421,5.7125 C15.9993447,6.13750212 16.2555921,6.70416312 16.2555921,7.4125 C16.2472587,7.89583575 16.1201767,8.31874819 15.8743421,8.68125 C15.6285075,9.04375181 15.284761,9.3083325 14.8430921,9.475 Z" fill="#FFFFFF"></path>
            </g>
        </g>
    </g>
</svg>