<?xml version="1.0" encoding="UTF-8"?>
<svg width="26px" height="28px" viewBox="0 0 26 28" version="1.1" xmlns="http://www.w3.org/2000/svg" xmlns:xlink="http://www.w3.org/1999/xlink">
    <!-- Generator: Sketch 52.1 (67048) - http://www.bohemiancoding.com/sketch -->
    <title>pin3</title>
    <desc>Created with Sketch.</desc>
    <defs>
        <filter x="-25.0%" y="-21.7%" width="150.0%" height="139.1%" filterUnits="objectBoundingBox" id="filter-1">
            <feOffset dx="0" dy="0" in="SourceAlpha" result="shadowOffsetOuter1"></feOffset>
            <feGaussianBlur stdDeviation="1" in="shadowOffsetOuter1" result="shadowBlurOuter1"></feGaussianBlur>
            <feColorMatrix values="0 0 0 0 0   0 0 0 0 0   0 0 0 0 0  0 0 0 0.5 0" type="matrix" in="shadowBlurOuter1" result="shadowMatrixOuter1"></feColorMatrix>
            <feMerge>
                <feMergeNode in="shadowMatrixOuter1"></feMergeNode>
                <feMergeNode in="SourceGraphic"></feMergeNode>
            </feMerge>
        </filter>
    </defs>
    <g id="Page-1" stroke="none" stroke-width="1" fill="none" fill-rule="evenodd">
        <g id="pin3" transform="translate(3.000000, 3.000000)">
            <g id="1" filter="url(#filter-1)">
                <path d="M9.68958365,0 C15.040919,0 19.3789472,4.33450677 19.3789472,9.6818804 C19.3789472,14.3573109 16.0621494,18.258455 11.6519307,19.165017 C11.0180635,19.2950919 10.3617469,22.1342884 9.68958365,22.1342884 C9.0286451,22.1342884 8.38289295,19.2972928 7.75915007,19.1713997 C3.33264453,18.2771629 0,14.3683155 0,9.6818804 C0,4.33450677 4.33802825,0 9.68958365,0" id="circle" stroke="#FFFFFF" stroke-width="1.5" fill="#594383"></path>
                <path d="M11.0868421,9.475 C11.6118447,9.608334 12.013924,9.86041481 12.2930921,10.23125 C12.5722602,10.6020852 12.7118421,11.0624972 12.7118421,11.6125 C12.7118421,12.3708371 12.4326782,12.9749977 11.8743421,13.425 C11.316006,13.8750022 10.5618469,14.1 9.61184211,14.1 C9.07017273,14.1 8.54934461,14.0166675 8.04934211,13.85 C7.54933961,13.6833325 7.12434386,13.4500015 6.77434211,13.15 C6.58267448,12.9833325 6.48684211,12.7875011 6.48684211,12.5625 C6.48684211,12.3791658 6.53892492,12.2229173 6.64309211,12.09375 C6.74725929,11.9645827 6.87017473,11.9 7.01184211,11.9 C7.09517586,11.9 7.17017511,11.9145832 7.23684211,11.94375 C7.30350911,11.9729168 7.39517486,12.020833 7.51184211,12.0875 C7.86184386,12.3208345 8.19517386,12.4999994 8.51184211,12.625 C8.82851036,12.7500006 9.17434023,12.8125 9.54934211,12.8125 C10.0993449,12.8125 10.5076741,12.7020844 10.7743421,12.48125 C11.0410101,12.2604156 11.1743421,11.9250023 11.1743421,11.475 C11.1743421,11.0333311 11.0347602,10.7062511 10.7555921,10.49375 C10.476424,10.2812489 10.0451784,10.175 9.46184211,10.175 L8.74934211,10.175 C8.55767448,10.175 8.40975929,10.1104173 8.30559211,9.98125 C8.20142492,9.85208269 8.14934211,9.7041675 8.14934211,9.5375 C8.14934211,9.36249912 8.20142492,9.21250062 8.30559211,9.0875 C8.40975929,8.96249937 8.55767448,8.9 8.74934211,8.9 L9.24934211,8.9 C10.3910145,8.9 10.9618421,8.47083762 10.9618421,7.6125 C10.9618421,7.212498 10.84101,6.90416775 10.5993421,6.6875 C10.3576742,6.47083225 10.0243442,6.3625 9.59934211,6.3625 C8.99100573,6.3625 8.34101223,6.60416425 7.64934211,7.0875 C7.53267486,7.154167 7.44100911,7.20208319 7.37434211,7.23125 C7.30767511,7.26041681 7.23267586,7.275 7.14934211,7.275 C7.00767473,7.275 6.88475929,7.21041731 6.78059211,7.08125 C6.67642492,6.95208269 6.62434211,6.79583425 6.62434211,6.6125 C6.62434211,6.48749938 6.64725854,6.38125044 6.69309211,6.29375 C6.73892567,6.20624956 6.81184161,6.11666712 6.91184211,6.025 C7.26184386,5.73333188 7.68058967,5.50208419 8.16809211,5.33125 C8.65559454,5.16041581 9.15350623,5.075 9.66184211,5.075 C10.5285131,5.075 11.2180895,5.28749787 11.7305921,5.7125 C12.2430947,6.13750212 12.4993421,6.70416312 12.4993421,7.4125 C12.4910087,7.89583575 12.3639267,8.31874819 12.1180921,8.68125 C11.8722575,9.04375181 11.528511,9.3083325 11.0868421,9.475 Z" fill="#FFFFFF"></path>
            </g>
        </g>
    </g>
</svg>