<?xml version="1.0" encoding="UTF-8"?>
<svg width="26px" height="28px" viewBox="0 0 26 28" version="1.1" xmlns="http://www.w3.org/2000/svg" xmlns:xlink="http://www.w3.org/1999/xlink">
    <!-- Generator: Sketch 52.1 (67048) - http://www.bohemiancoding.com/sketch -->
    <title>pin4</title>
    <desc>Created with Sketch.</desc>
    <defs>
        <filter x="-25.0%" y="-21.7%" width="150.0%" height="139.1%" filterUnits="objectBoundingBox" id="filter-1">
            <feOffset dx="0" dy="0" in="SourceAlpha" result="shadowOffsetOuter1"></feOffset>
            <feGaussianBlur stdDeviation="1" in="shadowOffsetOuter1" result="shadowBlurOuter1"></feGaussianBlur>
            <feColorMatrix values="0 0 0 0 0   0 0 0 0 0   0 0 0 0 0  0 0 0 0.5 0" type="matrix" in="shadowBlurOuter1" result="shadowMatrixOuter1"></feColorMatrix>
            <feMerge>
                <feMergeNode in="shadowMatrixOuter1"></feMergeNode>
                <feMergeNode in="SourceGraphic"></feMergeNode>
            </feMerge>
        </filter>
    </defs>
    <g id="Page-1" stroke="none" stroke-width="1" fill="none" fill-rule="evenodd">
        <g id="pin4" transform="translate(3.000000, 3.000000)">
            <g id="1" filter="url(#filter-1)">
                <path d="M9.68958365,0 C15.040919,0 19.3789472,4.33450677 19.3789472,9.6818804 C19.3789472,14.3573109 16.0621494,18.258455 11.6519307,19.165017 C11.0180635,19.2950919 10.3617469,22.1342884 9.68958365,22.1342884 C9.0286451,22.1342884 8.38289295,19.2972928 7.75915007,19.1713997 C3.33264453,18.2771629 0,14.3683155 0,9.6818804 C0,4.33450677 4.33802825,0 9.68958365,0" id="circle" stroke="#FFFFFF" stroke-width="1.5" fill="#594383"></path>
                <path d="M12.5493421,11.025 C12.7993434,11.025 12.9868415,11.0791661 13.1118421,11.1875 C13.2368427,11.2958339 13.2993421,11.449999 13.2993421,11.65 C13.2993421,12.0666687 13.0493446,12.275 12.5493421,12.275 L11.9118421,12.275 L11.9118421,13.2625 C11.9118421,13.5208346 11.8389262,13.7208326 11.6930921,13.8625 C11.547258,14.0041674 11.3576766,14.075 11.1243421,14.075 C10.8910076,14.075 10.7014262,14.0041674 10.5555921,13.8625 C10.409758,13.7208326 10.3368421,13.5208346 10.3368421,13.2625 L10.3368421,12.275 L7.06184211,12.275 C6.83684098,12.275 6.66184273,12.2104173 6.53684211,12.08125 C6.41184148,11.9520827 6.34934211,11.7916676 6.34934211,11.6 C6.34934211,11.399999 6.41600811,11.2083343 6.54934211,11.025 L10.4118421,5.475 C10.4951759,5.35833275 10.5993415,5.26875031 10.7243421,5.20625 C10.8493427,5.14374969 10.9785081,5.1125 11.1118421,5.1125 C11.3285099,5.1125 11.516008,5.18333262 11.6743421,5.325 C11.8326762,5.46666738 11.9118421,5.66666537 11.9118421,5.925 L11.9118421,11.025 L12.5493421,11.025 Z M8.01184211,11.025 L10.3368421,11.025 L10.3368421,7.6625 L8.01184211,11.025 Z" fill="#FFFFFF"></path>
            </g>
        </g>
    </g>
</svg>