<?xml version="1.0" encoding="UTF-8"?>
<svg width="26px" height="28px" viewBox="0 0 26 28" version="1.1" xmlns="http://www.w3.org/2000/svg" xmlns:xlink="http://www.w3.org/1999/xlink">
    <!-- Generator: Sketch 52.1 (67048) - http://www.bohemiancoding.com/sketch -->
    <title>pin5</title>
    <desc>Created with Sketch.</desc>
    <defs>
        <filter x="-25.0%" y="-21.7%" width="150.0%" height="139.1%" filterUnits="objectBoundingBox" id="filter-1">
            <feOffset dx="0" dy="0" in="SourceAlpha" result="shadowOffsetOuter1"></feOffset>
            <feGaussianBlur stdDeviation="1" in="shadowOffsetOuter1" result="shadowBlurOuter1"></feGaussianBlur>
            <feColorMatrix values="0 0 0 0 0   0 0 0 0 0   0 0 0 0 0  0 0 0 0.5 0" type="matrix" in="shadowBlurOuter1" result="shadowMatrixOuter1"></feColorMatrix>
            <feMerge>
                <feMergeNode in="shadowMatrixOuter1"></feMergeNode>
                <feMergeNode in="SourceGraphic"></feMergeNode>
            </feMerge>
        </filter>
    </defs>
    <g id="Page-1" stroke="none" stroke-width="1" fill="none" fill-rule="evenodd">
        <g id="pin5" transform="translate(3.000000, 3.000000)">
            <g id="1" filter="url(#filter-1)">
                <path d="M9.68958365,0 C15.040919,0 19.3789472,4.33450677 19.3789472,9.6818804 C19.3789472,14.3573109 16.0621494,18.258455 11.6519307,19.165017 C11.0180635,19.2950919 10.3617469,22.1342884 9.68958365,22.1342884 C9.0286451,22.1342884 8.38289295,19.2972928 7.75915007,19.1713997 C3.33264453,18.2771629 0,14.3683155 0,9.6818804 C0,4.33450677 4.33802825,0 9.68958365,0" id="circle" stroke="#FFFFFF" stroke-width="1.5" fill="#594383"></path>
                <path d="M10.1993421,8.3625 C10.7493449,8.3625 11.2347567,8.48124881 11.6555921,8.71875 C12.0764275,8.95625119 12.4035076,9.28749787 12.6368421,9.7125 C12.8701766,10.1375021 12.9868421,10.6249972 12.9868421,11.175 C12.9868421,11.7500029 12.8555934,12.2583311 12.5930921,12.7 C12.3305908,13.1416689 11.9597612,13.4854154 11.4805921,13.73125 C11.001423,13.9770846 10.4493452,14.1 9.82434211,14.1 C9.30767286,14.1 8.80142792,14.0145842 8.30559211,13.84375 C7.80975629,13.6729158 7.38684386,13.4416681 7.03684211,13.15 C6.84517448,12.9833325 6.74934211,12.7875011 6.74934211,12.5625 C6.74934211,12.3791657 6.80142492,12.2229173 6.90559211,12.09375 C7.00975929,11.9645827 7.13267473,11.9 7.27434211,11.9 C7.35767586,11.9 7.43684173,11.9145832 7.51184211,11.94375 C7.58684248,11.9729168 7.67434161,12.020833 7.77434211,12.0875 C8.10767711,12.3208345 8.43267386,12.4999994 8.74934211,12.625 C9.06601036,12.7500006 9.40350698,12.8125 9.76184211,12.8125 C10.3118449,12.8125 10.732674,12.6750014 11.0243421,12.4 C11.3160102,12.1249986 11.4618421,11.7333359 11.4618421,11.225 C11.4618421,10.7333309 11.3139269,10.3437514 11.0180921,10.05625 C10.7222573,9.76874856 10.3160114,9.625 9.79934211,9.625 C9.47434048,9.625 9.18476004,9.67083287 8.93059211,9.7625 C8.67642417,9.85416713 8.41601011,10.0083322 8.14934211,10.225 C7.99100798,10.3333339 7.82850961,10.3875 7.66184211,10.3875 C7.49517461,10.3875 7.35350936,10.3375005 7.23684211,10.2375 C7.12017486,10.1374995 7.06184211,10.0041675 7.06184211,9.8375 L7.06184211,5.9375 C7.06184211,5.7041655 7.12850811,5.520834 7.26184211,5.3875 C7.39517611,5.254166 7.58267423,5.1875 7.82434211,5.1875 L11.9868421,5.1875 C12.4868446,5.1875 12.7368421,5.39583125 12.7368421,5.8125 C12.7368421,6.22916875 12.4868446,6.4375 11.9868421,6.4375 L8.63684211,6.4375 L8.63684211,8.8125 C9.06184423,8.5124985 9.58267236,8.3625 10.1993421,8.3625 Z" fill="#FFFFFF"></path>
            </g>
        </g>
    </g>
</svg>