<?xml version="1.0" encoding="UTF-8"?>
<svg width="26px" height="28px" viewBox="0 0 26 28" version="1.1" xmlns="http://www.w3.org/2000/svg" xmlns:xlink="http://www.w3.org/1999/xlink">
    <!-- Generator: Sketch 52.1 (67048) - http://www.bohemiancoding.com/sketch -->
    <title>pin6</title>
    <desc>Created with Sketch.</desc>
    <defs>
        <filter x="-25.0%" y="-21.7%" width="150.0%" height="139.1%" filterUnits="objectBoundingBox" id="filter-1">
            <feOffset dx="0" dy="0" in="SourceAlpha" result="shadowOffsetOuter1"></feOffset>
            <feGaussianBlur stdDeviation="1" in="shadowOffsetOuter1" result="shadowBlurOuter1"></feGaussianBlur>
            <feColorMatrix values="0 0 0 0 0   0 0 0 0 0   0 0 0 0 0  0 0 0 0.5 0" type="matrix" in="shadowBlurOuter1" result="shadowMatrixOuter1"></feColorMatrix>
            <feMerge>
                <feMergeNode in="shadowMatrixOuter1"></feMergeNode>
                <feMergeNode in="SourceGraphic"></feMergeNode>
            </feMerge>
        </filter>
    </defs>
    <g id="Page-1" stroke="none" stroke-width="1" fill="none" fill-rule="evenodd">
        <g id="pin6" transform="translate(3.000000, 3.000000)">
            <g id="1" filter="url(#filter-1)">
                <path d="M9.68958365,0 C15.040919,0 19.3789472,4.33450677 19.3789472,9.6818804 C19.3789472,14.3573109 16.0621494,18.258455 11.6519307,19.165017 C11.0180635,19.2950919 10.3617469,22.1342884 9.68958365,22.1342884 C9.0286451,22.1342884 8.38289295,19.2972928 7.75915007,19.1713997 C3.33264453,18.2771629 0,14.3683155 0,9.6818804 C0,4.33450677 4.33802825,0 9.68958365,0" id="circle" stroke="#FFFFFF" stroke-width="1.5" fill="#594383"></path>
                <path d="M10.2743421,8.35 C10.7993447,8.35 11.2660067,8.46874881 11.6743421,8.70625 C12.0826775,8.94375119 12.4014243,9.27708119 12.6305921,9.70625 C12.8597599,10.1354188 12.9743421,10.6249972 12.9743421,11.175 C12.9743421,11.7416695 12.84726,12.2479144 12.5930921,12.69375 C12.3389242,13.1395856 11.9889277,13.4874988 11.5430921,13.7375 C11.0972565,13.9875012 10.5910116,14.1125 10.0243421,14.1125 C8.90766986,14.1125 8.04726179,13.7354204 7.44309211,12.98125 C6.83892242,12.2270796 6.53684211,11.150007 6.53684211,9.75 C6.53684211,8.79166187 6.67850736,7.96042019 6.96184211,7.25625 C7.24517686,6.55207981 7.65142279,6.01250187 8.18059211,5.6375 C8.70976142,5.26249813 9.33267186,5.075 10.0493421,5.075 C10.5243445,5.075 11.001423,5.16041581 11.4805921,5.33125 C11.9597612,5.50208419 12.3660071,5.73333188 12.6993421,6.025 C12.807676,6.11666712 12.8847585,6.20624956 12.9305921,6.29375 C12.9764257,6.38125044 12.9993421,6.48749938 12.9993421,6.6125 C12.9993421,6.79583425 12.9472593,6.95208269 12.8430921,7.08125 C12.7389249,7.21041731 12.6160095,7.275 12.4743421,7.275 C12.3910084,7.275 12.3118425,7.26041681 12.2368421,7.23125 C12.1618417,7.20208319 12.070176,7.154167 11.9618421,7.0875 C11.270172,6.60416425 10.6535115,6.3625 10.1118421,6.3625 C9.50350573,6.3625 9.02434386,6.64374719 8.67434211,7.20625 C8.32434036,7.76875281 8.14100886,8.55832825 8.12434211,9.575 C8.31600973,9.19999812 8.60350686,8.90208444 8.98684211,8.68125 C9.37017736,8.46041556 9.79933973,8.35 10.2743421,8.35 Z M9.93684211,12.8375 C10.3951777,12.8375 10.7618407,12.6895848 11.0368421,12.39375 C11.3118435,12.0979152 11.4493421,11.7083357 11.4493421,11.225 C11.4493421,10.7416642 11.3118435,10.3541681 11.0368421,10.0625 C10.7618407,9.77083187 10.3951777,9.625 9.93684211,9.625 C9.47017311,9.625 9.09309354,9.77291519 8.80559211,10.06875 C8.51809067,10.3645848 8.37434211,10.7499976 8.37434211,11.225 C8.37434211,11.7083357 8.51809067,12.0979152 8.80559211,12.39375 C9.09309354,12.6895848 9.47017311,12.8375 9.93684211,12.8375 Z" fill="#FFFFFF"></path>
            </g>
        </g>
    </g>
</svg>