<?xml version="1.0" encoding="UTF-8"?>
<svg width="26px" height="28px" viewBox="0 0 26 28" version="1.1" xmlns="http://www.w3.org/2000/svg" xmlns:xlink="http://www.w3.org/1999/xlink">
    <!-- Generator: Sketch 52.1 (67048) - http://www.bohemiancoding.com/sketch -->
    <title>pin7</title>
    <desc>Created with Sketch.</desc>
    <defs>
        <filter x="-25.0%" y="-21.7%" width="150.0%" height="139.1%" filterUnits="objectBoundingBox" id="filter-1">
            <feOffset dx="0" dy="0" in="SourceAlpha" result="shadowOffsetOuter1"></feOffset>
            <feGaussianBlur stdDeviation="1" in="shadowOffsetOuter1" result="shadowBlurOuter1"></feGaussianBlur>
            <feColorMatrix values="0 0 0 0 0   0 0 0 0 0   0 0 0 0 0  0 0 0 0.5 0" type="matrix" in="shadowBlurOuter1" result="shadowMatrixOuter1"></feColorMatrix>
            <feMerge>
                <feMergeNode in="shadowMatrixOuter1"></feMergeNode>
                <feMergeNode in="SourceGraphic"></feMergeNode>
            </feMerge>
        </filter>
    </defs>
    <g id="Page-1" stroke="none" stroke-width="1" fill="none" fill-rule="evenodd">
        <g id="pin7" transform="translate(3.000000, 3.000000)">
            <g id="1" filter="url(#filter-1)">
                <path d="M9.68958365,0 C15.040919,0 19.3789472,4.33450677 19.3789472,9.6818804 C19.3789472,14.3573109 16.0621494,18.258455 11.6519307,19.165017 C11.0180635,19.2950919 10.3617469,22.1342884 9.68958365,22.1342884 C9.0286451,22.1342884 8.38289295,19.2972928 7.75915007,19.1713997 C3.33264453,18.2771629 0,14.3683155 0,9.6818804 C0,4.33450677 4.33802825,0 9.68958365,0" id="circle" stroke="#FFFFFF" stroke-width="1.5" fill="#594383"></path>
                <path d="M12.2743421,5.1875 C12.4910099,5.1875 12.6576749,5.24791606 12.7743421,5.36875 C12.8910094,5.48958394 12.9493421,5.64583237 12.9493421,5.8375 C12.9493421,6.02916762 12.8910094,6.22916563 12.7743421,6.4375 L8.78684211,13.675 C8.62017461,13.9583348 8.39101023,14.1 8.09934211,14.1 C7.89934111,14.1 7.72225954,14.0312507 7.56809211,13.89375 C7.41392467,13.7562493 7.33684211,13.587501 7.33684211,13.3875 C7.33684211,13.2458326 7.37850836,13.1041674 7.46184211,12.9625 L11.0493421,6.4875 L7.27434211,6.4875 C6.77433961,6.4875 6.52434211,6.27500213 6.52434211,5.85 C6.52434211,5.40833113 6.77433961,5.1875 7.27434211,5.1875 L12.2743421,5.1875 Z" fill="#FFFFFF"></path>
            </g>
        </g>
    </g>
</svg>