<?xml version="1.0" encoding="UTF-8"?>
<svg width="26px" height="28px" viewBox="0 0 26 28" version="1.1" xmlns="http://www.w3.org/2000/svg" xmlns:xlink="http://www.w3.org/1999/xlink">
    <!-- Generator: Sketch 52.1 (67048) - http://www.bohemiancoding.com/sketch -->
    <title>pin8</title>
    <desc>Created with Sketch.</desc>
    <defs>
        <filter x="-25.0%" y="-21.7%" width="150.0%" height="139.1%" filterUnits="objectBoundingBox" id="filter-1">
            <feOffset dx="0" dy="0" in="SourceAlpha" result="shadowOffsetOuter1"></feOffset>
            <feGaussianBlur stdDeviation="1" in="shadowOffsetOuter1" result="shadowBlurOuter1"></feGaussianBlur>
            <feColorMatrix values="0 0 0 0 0   0 0 0 0 0   0 0 0 0 0  0 0 0 0.5 0" type="matrix" in="shadowBlurOuter1" result="shadowMatrixOuter1"></feColorMatrix>
            <feMerge>
                <feMergeNode in="shadowMatrixOuter1"></feMergeNode>
                <feMergeNode in="SourceGraphic"></feMergeNode>
            </feMerge>
        </filter>
    </defs>
    <g id="Page-1" stroke="none" stroke-width="1" fill="none" fill-rule="evenodd">
        <g id="pin8" transform="translate(3.000000, 3.000000)">
            <g id="1" filter="url(#filter-1)">
                <path d="M9.68958365,0 C15.040919,0 19.3789472,4.33450677 19.3789472,9.6818804 C19.3789472,14.3573109 16.0621494,18.258455 11.6519307,19.165017 C11.0180635,19.2950919 10.3617469,22.1342884 9.68958365,22.1342884 C9.0286451,22.1342884 8.38289295,19.2972928 7.75915007,19.1713997 C3.33264453,18.2771629 0,14.3683155 0,9.6818804 C0,4.33450677 4.33802825,0 9.68958365,0" id="circle" stroke="#FFFFFF" stroke-width="1.5" fill="#594383"></path>
                <path d="M11.4243421,9.475 C11.9410114,9.61666738 12.338924,9.87499813 12.6180921,10.25 C12.8972602,10.6250019 13.0368421,11.0833306 13.0368421,11.625 C13.0368421,12.4000039 12.7451784,13.0062478 12.1618421,13.44375 C11.5785059,13.8812522 10.7701806,14.1 9.73684211,14.1 C8.70350361,14.1 7.89517836,13.8812522 7.31184211,13.44375 C6.72850586,13.0062478 6.43684211,12.4000039 6.43684211,11.625 C6.43684211,11.0833306 6.57850736,10.6229186 6.86184211,10.24375 C7.14517686,9.86458144 7.54517286,9.608334 8.06184211,9.475 C7.62017323,9.3083325 7.27434336,9.04791844 7.02434211,8.69375 C6.77434086,8.33958156 6.64934211,7.92500238 6.64934211,7.45 C6.64934211,6.716663 6.92433936,6.13750212 7.47434211,5.7125 C8.02434486,5.28749787 8.77850398,5.075 9.73684211,5.075 C10.6951802,5.075 11.4493394,5.28749787 11.9993421,5.7125 C12.5493449,6.13750212 12.8243421,6.716663 12.8243421,7.45 C12.8243421,7.93333575 12.6993434,8.35416487 12.4493421,8.7125 C12.1993409,9.07083512 11.8576776,9.32499925 11.4243421,9.475 Z M9.73684211,6.3375 C8.69517023,6.3375 8.17434211,6.76249575 8.17434211,7.6125 C8.17434211,8.03750212 8.30559079,8.36041556 8.56809211,8.58125 C8.83059342,8.80208444 9.22017286,8.9125 9.73684211,8.9125 C10.2535114,8.9125 10.6430908,8.80208444 10.9055921,8.58125 C11.1680934,8.36041556 11.2993421,8.03750212 11.2993421,7.6125 C11.2993421,6.76249575 10.778514,6.3375 9.73684211,6.3375 Z M9.73684211,12.8375 C10.9285147,12.8375 11.5243421,12.3916711 11.5243421,11.5 C11.5243421,10.6083289 10.9285147,10.1625 9.73684211,10.1625 C8.54516948,10.1625 7.94934211,10.6083289 7.94934211,11.5 C7.94934211,12.3916711 8.54516948,12.8375 9.73684211,12.8375 Z" fill="#FFFFFF"></path>
            </g>
        </g>
    </g>
</svg>