<?xml version="1.0" encoding="UTF-8"?>
<svg width="26px" height="28px" viewBox="0 0 26 28" version="1.1" xmlns="http://www.w3.org/2000/svg" xmlns:xlink="http://www.w3.org/1999/xlink">
    <!-- Generator: Sketch 52.1 (67048) - http://www.bohemiancoding.com/sketch -->
    <title>pin9</title>
    <desc>Created with Sketch.</desc>
    <defs>
        <filter x="-25.0%" y="-21.7%" width="150.0%" height="139.1%" filterUnits="objectBoundingBox" id="filter-1">
            <feOffset dx="0" dy="0" in="SourceAlpha" result="shadowOffsetOuter1"></feOffset>
            <feGaussianBlur stdDeviation="1" in="shadowOffsetOuter1" result="shadowBlurOuter1"></feGaussianBlur>
            <feColorMatrix values="0 0 0 0 0   0 0 0 0 0   0 0 0 0 0  0 0 0 0.5 0" type="matrix" in="shadowBlurOuter1" result="shadowMatrixOuter1"></feColorMatrix>
            <feMerge>
                <feMergeNode in="shadowMatrixOuter1"></feMergeNode>
                <feMergeNode in="SourceGraphic"></feMergeNode>
            </feMerge>
        </filter>
    </defs>
    <g id="Page-1" stroke="none" stroke-width="1" fill="none" fill-rule="evenodd">
        <g id="pin9" transform="translate(3.000000, 3.000000)">
            <g id="1" filter="url(#filter-1)">
                <path d="M9.68958365,0 C15.040919,0 19.3789472,4.33450677 19.3789472,9.6818804 C19.3789472,14.3573109 16.0621494,18.258455 11.6519307,19.165017 C11.0180635,19.2950919 10.3617469,22.1342884 9.68958365,22.1342884 C9.0286451,22.1342884 8.38289295,19.2972928 7.75915007,19.1713997 C3.33264453,18.2771629 0,14.3683155 0,9.6818804 C0,4.33450677 4.33802825,0 9.68958365,0" id="circle" stroke="#FFFFFF" stroke-width="1.5" fill="#594383"></path>
                <path d="M9.44934211,5.075 C10.5660144,5.075 11.4264224,5.45207956 12.0305921,6.20625 C12.6347618,6.96042044 12.9368421,8.037493 12.9368421,9.4375 C12.9368421,10.3958381 12.7951769,11.2270798 12.5118421,11.93125 C12.2285074,12.6354202 11.8222614,13.1749981 11.2930921,13.55 C10.7639228,13.9250019 10.1410124,14.1125 9.42434211,14.1125 C8.94933973,14.1125 8.47226117,14.0270842 7.99309211,13.85625 C7.51392304,13.6854158 7.10767711,13.4541681 6.77434211,13.1625 C6.66600823,13.0708329 6.58892567,12.9812504 6.54309211,12.89375 C6.49725854,12.8062496 6.47434211,12.7000006 6.47434211,12.575 C6.47434211,12.3916658 6.52642492,12.2354173 6.63059211,12.10625 C6.73475929,11.9770827 6.85767473,11.9125 6.99934211,11.9125 C7.08267586,11.9125 7.16184173,11.9270832 7.23684211,11.95625 C7.31184248,11.9854168 7.40350823,12.033333 7.51184211,12.1 C8.20351223,12.5833357 8.82017273,12.825 9.36184211,12.825 C9.97017848,12.825 10.4493404,12.5437528 10.7993421,11.98125 C11.1493439,11.4187472 11.3326754,10.6291717 11.3493421,9.6125 C11.1576745,9.98750187 10.8701774,10.2854156 10.4868421,10.50625 C10.1035069,10.7270844 9.67434448,10.8375 9.19934211,10.8375 C8.67433948,10.8375 8.20767748,10.7187512 7.79934211,10.48125 C7.39100673,10.2437488 7.07225992,9.91041881 6.84309211,9.48125 C6.61392429,9.05208119 6.49934211,8.56250275 6.49934211,8.0125 C6.49934211,7.4458305 6.62642417,6.93958556 6.88059211,6.49375 C7.13476004,6.04791444 7.48475654,5.70000125 7.93059211,5.45 C8.37642767,5.19999875 8.88267261,5.075 9.44934211,5.075 Z M9.53684211,9.5625 C10.0035111,9.5625 10.3805907,9.41458481 10.6680921,9.11875 C10.9555935,8.82291519 11.0993421,8.43750237 11.0993421,7.9625 C11.0993421,7.47916425 10.9555935,7.08958481 10.6680921,6.79375 C10.3805907,6.49791519 10.0035111,6.35 9.53684211,6.35 C9.07850648,6.35 8.71184348,6.49791519 8.43684211,6.79375 C8.16184073,7.08958481 8.02434211,7.47916425 8.02434211,7.9625 C8.02434211,8.44583575 8.16184073,8.83333188 8.43684211,9.125 C8.71184348,9.41666812 9.07850648,9.5625 9.53684211,9.5625 Z" fill="#FFFFFF"></path>
            </g>
        </g>
    </g>
</svg>