<?xml version="1.0" encoding="UTF-8"?>
<svg width="29px" height="28px" viewBox="0 0 29 28" version="1.1" xmlns="http://www.w3.org/2000/svg" xmlns:xlink="http://www.w3.org/1999/xlink">
    <!-- Generator: Sketch 51.2 (57519) - http://www.bohemiancoding.com/sketch -->
    <title>cl-icon</title>
    <desc>Created with Sketch.</desc>
    <defs></defs>
    <g id="Individual-Tour-Pages" stroke="none" stroke-width="1" fill="none" fill-rule="evenodd">
        <g id="Desktop---1440-V2-Copy" transform="translate(-538.000000, -551.000000)" stroke="#22BFB3">
            <g id="modal" transform="translate(520.000000, 126.000000)">
                <g id="copy-link" transform="translate(19.000000, 425.000000)">
                    <g id="cl-icon">
                        <path d="M13.5305432,27.2451415 C6.10337518,27.2451415 0.0609247442,21.2075328 0.0609247442,13.786316 C0.0609247442,6.36509921 6.10337518,0.327490477 13.5305432,0.327490477 C15.33537,0.327490477 17.0873388,0.678337588 18.7379793,1.37034553 C18.9977797,1.47923967 19.1200267,1.77798481 19.0110452,2.037577 C18.9020638,2.29727116 18.6027729,2.41972608 18.3431767,2.3104241 C16.8182526,1.67123185 15.1991432,1.34709847 13.5305432,1.34709847 C6.66603788,1.34709847 1.08135039,6.92731105 1.08135039,13.786316 C1.08135039,20.6453209 6.66603788,26.2255335 13.5305432,26.2255335 C20.3950485,26.2255335 25.979736,20.6453209 25.979736,13.786316 C25.979736,10.9034763 24.9701269,8.09343671 23.1371363,5.87395404 C22.9577455,5.65687949 22.9885624,5.33549906 23.205811,5.15625197 C23.4231616,4.97700489 23.7447998,5.00779705 23.9240886,5.22497355 C25.907796,7.62666018 27.0001617,10.6671312 27.0001617,13.786316 C27.0001617,21.2075328 20.9577112,27.2451415 13.5305432,27.2451415" id="fb" stroke-width="0.5" fill="#22BFB3"></path>
                        <g id="cl" transform="translate(6.000000, 7.000000)" stroke-width="1.5">
                            <g id="Group-7" transform="translate(7.500000, 7.000000) rotate(-45.000000) translate(-7.500000, -7.000000) translate(5.000000, 0.000000)">
                                <path d="M3.4211375,5.605375 L1.5625125,5.605375 C0.7375125,5.605375 0.0625125,4.930375 0.0625125,4.105375 L0.0625125,1.5625 C0.0625125,0.7375 0.7375125,0.0625 1.5625125,0.0625 L3.4211375,0.0625 C4.2461375,0.0625 4.9211375,0.7375 4.9211375,1.5625 L4.9211375,4.105375 C4.9211375,4.930375 4.2461375,5.605375 3.4211375,5.605375 Z" id="Stroke-1"></path>
                                <path d="M3.4211375,13.790675 L1.5625125,13.790675 C0.7375125,13.790675 0.0625125,13.115675 0.0625125,12.290675 L0.0625125,9.7478 C0.0625125,8.9228 0.7375125,8.2478 1.5625125,8.2478 L3.4211375,8.2478 C4.2461375,8.2478 4.9211375,8.9228 4.9211375,9.7478 L4.9211375,12.290675 C4.9211375,13.115675 4.2461375,13.790675 3.4211375,13.790675 Z" id="Stroke-3"></path>
                                <path d="M2.5047,3.8183875 L2.5047,10.1621375" id="Stroke-5" stroke-linecap="round"></path>
                            </g>
                        </g>
                    </g>
                </g>
            </g>
        </g>
    </g>
</svg>