<?xml version="1.0" encoding="UTF-8"?>
<svg width="12px" height="22px" viewBox="0 0 12 22" version="1.1" xmlns="http://www.w3.org/2000/svg" xmlns:xlink="http://www.w3.org/1999/xlink">
    <!-- Generator: Sketch 49.3 (51167) - http://www.bohemiancoding.com/sketch -->
    <title>walking-icn</title>
    <desc>Created with Sketch.</desc>
    <defs></defs>
    <g id="Individual-Tour-Pages" stroke="none" stroke-width="1" fill="none" fill-rule="evenodd">
        <g id="Desktop---1440-V2-Copy" transform="translate(-381.000000, -840.000000)" fill="#F26668">
            <g id="key-info" transform="translate(142.000000, 840.000000)">
                <g id="distance" transform="translate(239.000000, 0.000000)">
                    <g id="walking-icn">
                        <path d="M0.862752,19.1632974 C0.510432,19.7307316 0.460032,20.3608105 1.063392,20.7820737 C1.579392,21.1420539 2.449632,20.9827184 2.803392,20.4134684 C3.365952,19.5042118 4.210752,18.8069487 4.567872,18.5350342 C4.663872,18.4619487 4.693632,18.3411987 4.640832,18.2358829 C4.476192,17.9081329 4.264032,17.3012053 4.085472,15.9879355 C4.075872,15.9175737 3.989472,15.8808039 3.934272,15.9289224 C3.428832,16.3678895 1.578912,18.0093632 0.862752,19.1632974" id="Fill-1"></path>
                        <path d="M11.282352,8.91602566 C9.782352,7.65314408 8.175312,6.52190724 6.417072,5.61038092 C6.227472,5.47555855 6.010032,5.36933487 5.781072,5.29851908 C5.629392,5.23995987 5.479152,5.21136118 5.335152,5.20818355 C5.092752,5.18140066 4.851312,5.19365724 4.630032,5.25040066 C4.044912,5.39793355 3.839472,5.67665724 3.424272,6.16737434 C3.008592,6.6576375 0.996912,9.39267039 0.184752,10.7667691 C-0.621168,12.1317888 1.422192,12.957973 2.228592,11.5947691 C2.479632,11.1685125 3.278352,10.0577033 3.548592,9.64642697 C3.782832,11.1358283 4.395312,14.1232559 4.603632,15.2499533 C4.811952,16.3761967 5.691312,19.461223 6.673392,21.3868678 C7.390032,22.7913809 9.439152,21.6546967 8.726352,20.2556309 C7.991952,18.8175257 7.500432,17.2232625 7.198512,15.6185586 C7.861872,15.1804993 8.261712,14.3012033 8.135952,13.5049796 C7.905552,12.0332822 7.501392,10.2106836 7.268592,8.73853224 C7.967952,9.21563092 8.949552,9.94194671 9.628752,10.4594467 C10.868592,11.405473 12.517872,9.95511118 11.282352,8.91602566" id="Fill-3"></path>
                        <path d="M6.892992,2.56253289 C6.892992,3.72736184 5.893632,4.67248026 4.661472,4.67248026 C3.429792,4.67248026 2.432352,3.72736184 2.432352,2.56253289 C2.432352,1.39906579 3.429792,0.453947368 4.661472,0.453947368 C5.893632,0.453947368 6.892992,1.39906579 6.892992,2.56253289" id="Fill-6"></path>
                    </g>
                </g>
            </g>
        </g>
    </g>
</svg>