<?xml version="1.0" encoding="UTF-8"?>
<svg width="10px" height="19px" viewBox="0 0 10 19" version="1.1" xmlns="http://www.w3.org/2000/svg" xmlns:xlink="http://www.w3.org/1999/xlink">
    <!-- Generator: Sketch 49.3 (51167) - http://www.bohemiancoding.com/sketch -->
    <title>walking-icn</title>
    <desc>Created with Sketch.</desc>
    <defs></defs>
    <g id="Individual-Tour-Pages" stroke="none" stroke-width="1" fill="none" fill-rule="evenodd">
        <g id="Desktop---1440-V2-Copy" transform="translate(-393.000000, -392.000000)" fill="#22BFB3">
            <g id="intro" transform="translate(142.000000, 264.000000)">
                <g id="details" transform="translate(0.000000, 128.000000)">
                    <g id="distance" transform="translate(251.000000, 0.000000)">
                        <g id="walking-icn">
                            <path d="M0.71896,15.83055 C0.42536,16.2993 0.38336,16.8198 0.88616,17.1678 C1.31616,17.465175 2.04136,17.33355 2.33616,16.8633 C2.80496,16.112175 3.50896,15.536175 3.80656,15.31155 C3.88656,15.251175 3.91136,15.151425 3.86736,15.064425 C3.73016,14.793675 3.55336,14.2923 3.40456,13.207425 C3.39656,13.1493 3.32456,13.118925 3.27856,13.158675 C2.85736,13.5213 1.31576,14.8773 0.71896,15.83055" id="Fill-1"></path>
                            <path d="M9.40196,7.3654125 C8.15196,6.3221625 6.81276,5.3876625 5.34756,4.6346625 C5.18956,4.5232875 5.00836,4.4355375 4.81756,4.3770375 C4.69116,4.3286625 4.56596,4.3050375 4.44596,4.3024125 C4.24396,4.2802875 4.04276,4.2904125 3.85836,4.3372875 C3.37076,4.4591625 3.19956,4.6894125 2.85356,5.0947875 C2.50716,5.4997875 0.83076,7.7591625 0.15396,8.8942875 C-0.51764,10.0219125 1.18516,10.7044125 1.85716,9.5782875 C2.06636,9.2261625 2.73196,8.3085375 2.95716,7.9687875 C3.15236,9.1991625 3.66276,11.6670375 3.83636,12.5977875 C4.00996,13.5281625 4.74276,16.0766625 5.56116,17.6674125 C6.15836,18.8276625 7.86596,17.8886625 7.27196,16.7329125 C6.65996,15.5449125 6.25036,14.2279125 5.99876,12.9022875 C6.55156,12.5404125 6.88476,11.8140375 6.77996,11.1562875 C6.58796,9.9405375 6.25116,8.4349125 6.05716,7.2187875 C6.63996,7.6129125 7.45796,8.2129125 8.02396,8.6404125 C9.05716,9.4219125 10.43156,8.2237875 9.40196,7.3654125" id="Fill-3"></path>
                            <path d="M5.74416,2.116875 C5.74416,3.079125 4.91136,3.859875 3.88456,3.859875 C2.85816,3.859875 2.02696,3.079125 2.02696,2.116875 C2.02696,1.15575 2.85816,0.375 3.88456,0.375 C4.91136,0.375 5.74416,1.15575 5.74416,2.116875" id="Fill-6"></path>
                        </g>
                    </g>
                </g>
            </g>
        </g>
    </g>
</svg>