<?xml version="1.0" encoding="UTF-8"?>
<svg width="29px" height="28px" viewBox="0 0 29 28" version="1.1" xmlns="http://www.w3.org/2000/svg" xmlns:xlink="http://www.w3.org/1999/xlink">
    <!-- Generator: Sketch 51.2 (57519) - http://www.bohemiancoding.com/sketch -->
    <title>em-icon</title>
    <desc>Created with Sketch.</desc>
    <defs></defs>
    <g id="Individual-Tour-Pages" stroke="none" stroke-width="1" fill="none" fill-rule="evenodd">
        <g id="Desktop---1440-V2-Copy" transform="translate(-538.000000, -477.000000)">
            <g id="modal" transform="translate(520.000000, 126.000000)">
                <g id="email" transform="translate(19.000000, 351.000000)">
                    <g id="em-icon">
                        <path d="M13.5305432,27.2451415 C6.10337518,27.2451415 0.0609247442,21.2075328 0.0609247442,13.786316 C0.0609247442,6.36509921 6.10337518,0.327490477 13.5305432,0.327490477 C15.33537,0.327490477 17.0873388,0.678337588 18.7379793,1.37034553 C18.9977797,1.47923967 19.1200267,1.77798481 19.0110452,2.037577 C18.9020638,2.29727116 18.6027729,2.41972608 18.3431767,2.3104241 C16.8182526,1.67123185 15.1991432,1.34709847 13.5305432,1.34709847 C6.66603788,1.34709847 1.08135039,6.92731105 1.08135039,13.786316 C1.08135039,20.6453209 6.66603788,26.2255335 13.5305432,26.2255335 C20.3950485,26.2255335 25.979736,20.6453209 25.979736,13.786316 C25.979736,10.9034763 24.9701269,8.09343671 23.1371363,5.87395404 C22.9577455,5.65687949 22.9885624,5.33549906 23.205811,5.15625197 C23.4231616,4.97700489 23.7447998,5.00779705 23.9240886,5.22497355 C25.907796,7.62666018 27.0001617,10.6671312 27.0001617,13.786316 C27.0001617,21.2075328 20.9577112,27.2451415 13.5305432,27.2451415" id="fb" stroke="#F26668" stroke-width="0.5" fill="#F26668"></path>
                        <g id="email" transform="translate(7.000000, 9.000000)">
                            <rect id="Rectangle" fill="#F26668" x="0" y="0" width="13" height="10" rx="2"></rect>
                            <path d="M0.451049805,0.451049805 L5.78919938,5.78919938 C6.17972367,6.17972367 6.81288865,6.17972367 7.20341294,5.78919938 C7.20464101,5.78797131 7.20586588,5.78674005 7.20708754,5.7855056 L12.5127126,0.4243032" id="Path-2" stroke="#FFFFFF" stroke-linejoin="round"></path>
                        </g>
                    </g>
                </g>
            </g>
        </g>
    </g>
</svg>