<?xml version="1.0" encoding="UTF-8"?>
<svg width="38px" height="39px" viewBox="0 0 38 39" version="1.1" xmlns="http://www.w3.org/2000/svg" xmlns:xlink="http://www.w3.org/1999/xlink">
    <!-- Generator: Sketch 48.2 (47327) - http://www.bohemiancoding.com/sketch -->
    <title>fb</title>
    <desc>Created with Sketch.</desc>
    <defs></defs>
    <g id="Desktop---1156" stroke="none" stroke-width="1" fill="none" fill-rule="evenodd" transform="translate(-507.000000, -3543.000000)">
        <g id="footer" transform="translate(0.000000, 3488.000000)" fill="#343030">
            <g id="social-accounts" transform="translate(507.000000, 55.000000)">
                <g id="fb">
                    <path d="M19.035068,38.2758494 C8.57767353,38.2758494 0.0699506323,29.7749436 0.0699506323,19.3259285 C0.0699506323,8.8769134 8.57767353,0.376007585 19.035068,0.376007585 C21.57625,0.376007585 24.0430083,0.869997569 26.3670973,1.84433934 C26.7328942,1.99766142 26.905017,2.41829225 26.7515719,2.78379602 C26.5981269,3.14944336 26.1767277,3.32185893 25.8112182,3.1679626 C23.664137,2.26798492 21.3844437,1.81160766 19.035068,1.81160766 C9.36989821,1.81160766 1.50670195,9.66850328 1.50670195,19.3259285 C1.50670195,28.9833537 9.36989821,36.8402494 19.035068,36.8402494 C28.7002377,36.8402494 36.563434,28.9833537 36.563434,19.3259285 C36.563434,15.2669129 35.1419122,11.3103991 32.5610759,8.18538485 C32.308495,7.87974559 32.3518849,7.42724445 32.6577692,7.17486596 C32.9637973,6.92248747 33.4166613,6.96584259 33.6690985,7.2716254 C36.462143,10.6531814 38.0001853,14.9341408 38.0001853,19.3259285 C38.0001853,29.7749436 29.4924624,38.2758494 19.035068,38.2758494"></path>
                    <path d="M19.76156,27.1428571 L19.76156,19.7142214 L22.1623838,19.7142214 L22.5218189,16.8190983 L19.76156,16.8190983 L19.76156,14.9706902 C19.76156,14.1324845 19.9856359,13.5612942 21.1429696,13.5612942 L22.6190476,13.5605755 L22.6190476,10.9712084 C22.3636924,10.9359897 21.4875262,10.8571429 20.4681813,10.8571429 C18.3400131,10.8571429 16.8831041,12.2063076 16.8831041,14.6840528 L16.8831041,16.8190983 L14.4761905,16.8190983 L14.4761905,19.7142214 L16.8831041,19.7142214 L16.8831041,27.1428571 L19.76156,27.1428571 Z" id="Fill-4"></path>
                </g>
            </g>
        </g>
    </g>
</svg>