<?xml version="1.0" encoding="UTF-8"?>
<svg width="29px" height="28px" viewBox="0 0 29 28" version="1.1" xmlns="http://www.w3.org/2000/svg" xmlns:xlink="http://www.w3.org/1999/xlink">
    <!-- Generator: Sketch 51.2 (57519) - http://www.bohemiancoding.com/sketch -->
    <title>fb-icon</title>
    <desc>Created with Sketch.</desc>
    <defs></defs>
    <g id="Individual-Tour-Pages" stroke="none" stroke-width="1" fill="none" fill-rule="evenodd">
        <g id="Desktop---1440-V2-Copy" transform="translate(-538.000000, -329.000000)" fill="#343030">
            <g id="modal" transform="translate(520.000000, 126.000000)">
                <g id="fb" transform="translate(19.000000, 203.000000)">
                    <g id="fb-icon">
                        <path d="M13.5305432,27.2451415 C6.10337518,27.2451415 0.0609247442,21.2075328 0.0609247442,13.786316 C0.0609247442,6.36509921 6.10337518,0.327490477 13.5305432,0.327490477 C15.33537,0.327490477 17.0873388,0.678337588 18.7379793,1.37034553 C18.9977797,1.47923967 19.1200267,1.77798481 19.0110452,2.037577 C18.9020638,2.29727116 18.6027729,2.41972608 18.3431767,2.3104241 C16.8182526,1.67123185 15.1991432,1.34709847 13.5305432,1.34709847 C6.66603788,1.34709847 1.08135039,6.92731105 1.08135039,13.786316 C1.08135039,20.6453209 6.66603788,26.2255335 13.5305432,26.2255335 C20.3950485,26.2255335 25.979736,20.6453209 25.979736,13.786316 C25.979736,10.9034763 24.9701269,8.09343671 23.1371363,5.87395404 C22.9577455,5.65687949 22.9885624,5.33549906 23.205811,5.15625197 C23.4231616,4.97700489 23.7447998,5.00779705 23.9240886,5.22497355 C25.907796,7.62666018 27.0001617,10.6671312 27.0001617,13.786316 C27.0001617,21.2075328 20.9577112,27.2451415 13.5305432,27.2451415" id="fb" stroke="#343030" stroke-width="0.5"></path>
                        <g id="fb">
                            <path d="M14.598778,21.0276498 L14.598778,14.5575477 L16.6898182,14.5575477 L17.0028745,12.0359889 L14.598778,12.0359889 L14.598778,10.426085 C14.598778,9.69603485 14.793941,9.19854656 15.8019413,9.19854656 L17.0875576,9.19792056 L17.0875576,6.94266539 C16.8651514,6.91199101 16.102039,6.84331797 15.2142224,6.84331797 C13.3606566,6.84331797 12.0917358,8.01839694 12.0917358,10.1764331 L12.0917358,12.0359889 L9.99539171,12.0359889 L9.99539171,14.5575477 L12.0917358,14.5575477 L12.0917358,21.0276498 L14.598778,21.0276498 Z" id="Fill-4"></path>
                        </g>
                    </g>
                </g>
            </g>
        </g>
    </g>
</svg>