<?xml version="1.0" encoding="UTF-8"?>
<svg width="234px" height="70px" viewBox="0 0 234 70" version="1.1" xmlns="http://www.w3.org/2000/svg" xmlns:xlink="http://www.w3.org/1999/xlink">
    <!-- Generator: Sketch 50.2 (55047) - http://www.bohemiancoding.com/sketch -->
    <title>genre-btns</title>
    <desc>Created with Sketch.</desc>
    <defs>
        <polygon id="path-1" points="0.0333073788 23.5087386 4.2618621 23.5087386 4.2618621 0.0275748566 0.0333073788 0.0275748566 0.0333073788 23.5087386"></polygon>
        <polygon id="path-3" points="0.0276407501 1.70096924e-05 6.49132386 1.70096924e-05 6.49132386 2.38135693 0.0276407501 2.38135693"></polygon>
        <polygon id="path-5" points="0.0847784408 0.0714038318 6.93476654 0.0714038318 6.93476654 7.90959201 0.0847784408 7.90959201"></polygon>
    </defs>
    <g id="Home" stroke="none" stroke-width="1" fill="none" fill-rule="evenodd">
        <g id="Mobile---320" transform="translate(-70.000000, -972.000000)">
            <g id="intro" transform="translate(43.000000, 890.000000)">
                <g id="genre-btns" transform="translate(27.000000, 82.000000)">
                    <g id="top-rw">
                        <g id="architecture" transform="translate(0.000000, 0.392665)" fill="#F4BD34">
                            <g id="icon">
                                <g id="not-selected" transform="translate(0.943594, 0.000000)">
                                    <path d="M6.62004425,7.385498 L2.54497726,7.385498 C1.15611206,7.385498 0.0262109382,6.25559688 0.0262109382,4.86673168 C0.0262109382,3.66878696 0.845145492,2.6703599 2.00912084,2.40059693 C2.54403366,1.54192659 3.49035338,1.01886111 4.53962966,1.01886111 C5.85153954,1.01886111 7.00880488,1.86715191 7.41706646,3.08113773 C8.15422288,3.28170383 8.76860727,3.87983744 8.97535915,4.63691418 C9.05158056,4.91621793 8.88708071,5.20443341 8.60777696,5.28065482 C8.3284732,5.35698107 8.04015288,5.19248122 7.96393147,4.91307262 C7.83696569,4.44819542 7.42272802,4.09749307 6.956383,4.06016869 C6.7239444,4.04161135 6.53166096,3.87155478 6.48469096,3.64310024 C6.29723033,2.730016 5.47923937,2.06729864 4.53962966,2.06729864 C3.79639229,2.06729864 3.13514274,2.4657049 2.81379664,3.10692929 C2.73579289,3.26272711 2.5853421,3.36956289 2.41245475,3.39199945 C1.63724005,3.49233492 1.07464847,4.11248572 1.07464847,4.86673168 C1.07464847,5.67738358 1.73422052,6.33706047 2.54497726,6.33706047 L6.62004425,6.33706047 C6.90951785,6.33706047 7.14426301,6.57180563 7.14426301,6.86127924 C7.14426301,7.15075284 6.90951785,7.385498 6.62004425,7.385498" id="Fill-14"></path>
                                    <path d="M22.2381883,8.28547678 L22.2393164,8.28547678 L22.2381883,8.28547678 Z M23.9330924,7.43466972 C23.362323,7.43466972 22.8654684,7.83685036 22.7516081,8.39094959 C22.704743,8.61940413 22.5124595,8.7894607 22.2799161,8.80801804 C21.9703125,8.83276117 21.7087273,9.11804102 21.7087273,9.43099962 C21.7087273,9.78526666 21.9758692,10.0524085 22.3301362,10.0524085 L25.3081182,10.0524085 C25.777294,10.0524085 26.1588204,9.67077728 26.1588204,9.20160149 C26.1588204,8.76471757 25.8307643,8.4051035 25.3785732,8.34649584 C25.2056858,8.32416412 25.0552351,8.21732834 24.9771265,8.06142568 C24.78348,7.67486676 24.3833963,7.43466972 23.9330924,7.43466972 Z M25.3081182,11.1008461 L22.3301362,11.1008461 C21.3937767,11.1008461 20.6602898,10.3673592 20.6602898,9.43099962 C20.6602898,8.69394804 21.1485471,8.05366724 21.8246845,7.83643098 C22.1516922,6.97849455 22.9884502,6.38623219 23.9330924,6.38623219 C24.6902739,6.38623219 25.3755327,6.75308048 25.7793909,7.35918222 C26.6210765,7.58344301 27.2072579,8.32091396 27.2072579,9.20160149 C27.2072579,10.2488857 26.3554024,11.1008461 25.3081182,11.1008461 Z" id="Fill-16"></path>
                                    <path d="M20.7476456,30.6143758 C20.4580671,30.6143758 20.2234268,30.3797355 20.2234268,30.0901571 L20.2234268,13.1656494 L17.2000475,13.1656494 C16.9104691,13.1656494 16.6758288,12.9309043 16.6758288,12.6414307 C16.6758288,12.3519571 16.9104691,12.1172119 17.2000475,12.1172119 L20.7476456,12.1172119 C21.037224,12.1172119 21.2718644,12.3519571 21.2718644,12.6414307 L21.2718644,30.0901571 C21.2718644,30.3797355 21.037224,30.6143758 20.7476456,30.6143758" id="Fill-18"></path>
                                    <path d="M2.82335839,30.6143758 C2.53388479,30.6143758 2.29913963,30.3797355 2.29913963,30.0901571 L2.29913963,12.6414307 C2.29913963,12.3519571 2.53388479,12.1172119 2.82335839,12.1172119 L14.2690461,12.1172119 C14.5586245,12.1172119 14.7932648,12.3519571 14.7932648,12.6414307 C14.7932648,12.9309043 14.5586245,13.1656494 14.2690461,13.1656494 L3.34757716,13.1656494 L3.34757716,30.0901571 C3.34757716,30.3797355 3.11283199,30.6143758 2.82335839,30.6143758" id="Fill-20"></path>
                                    <path d="M6.70016584,9.80002866 C6.41069224,9.80002866 6.17594708,9.5652835 6.17594708,9.2758099 L6.17594708,5.61162558 C6.17594708,5.40413979 6.29829974,5.21615494 6.48817177,5.1321751 L11.5734083,2.88306691 C11.7085519,2.82341081 11.8624625,2.82341081 11.9975013,2.88306691 L17.0828427,5.1321751 C17.272505,5.21615494 17.3949625,5.40413979 17.3949625,5.61162558 L17.3949625,7.75484157 C17.3949625,8.04431518 17.1603222,8.27906034 16.8707438,8.27906034 C16.5812702,8.27906034 16.346525,8.04431518 16.346525,7.75484157 L16.346525,5.95299684 L11.7855072,3.93569819 L7.22438461,5.95299684 L7.22438461,9.2758099 C7.22438461,9.5652835 6.98963944,9.80002866 6.70016584,9.80002866" id="Fill-22"></path>
                                    <path d="M11.7854967,3.66241246 C11.4960231,3.66241246 11.261278,3.4276673 11.261278,3.1381937 L11.261278,0.524229249 C11.261278,0.234755647 11.4960231,1.04843753e-05 11.7854967,1.04843753e-05 C12.0749703,1.04843753e-05 12.3097155,0.234755647 12.3097155,0.524229249 L12.3097155,3.1381937 C12.3097155,3.4276673 12.0749703,3.66241246 11.7854967,3.66241246" id="Fill-24"></path>
                                    <path d="M10.105082,17.6558348 C9.81560844,17.6558348 9.58086328,17.4211945 9.58086328,17.131616 L9.58086328,15.5976471 C9.58086328,15.3080686 9.81560844,15.0734283 10.105082,15.0734283 C10.3945556,15.0734283 10.6293008,15.3080686 10.6293008,15.5976471 L10.6293008,17.131616 C10.6293008,17.4211945 10.3945556,17.6558348 10.105082,17.6558348" id="Fill-26"></path>
                                    <path d="M6.37089355,17.6558348 C6.08141995,17.6558348 5.84667479,17.4211945 5.84667479,17.131616 L5.84667479,15.5976471 C5.84667479,15.3080686 6.08141995,15.0734283 6.37089355,15.0734283 C6.66036715,15.0734283 6.89511232,15.3080686 6.89511232,15.5976471 L6.89511232,17.131616 C6.89511232,17.4211945 6.66036715,17.6558348 6.37089355,17.6558348" id="Fill-28"></path>
                                    <path d="M17.3868057,17.6558348 C17.0972273,17.6558348 16.8625869,17.4211945 16.8625869,17.131616 L16.8625869,15.5976471 C16.8625869,15.3080686 17.0972273,15.0734283 17.3868057,15.0734283 C17.6763841,15.0734283 17.9110245,15.3080686 17.9110245,15.5976471 L17.9110245,17.131616 C17.9110245,17.4211945 17.6763841,17.6558348 17.3868057,17.6558348" id="Fill-30"></path>
                                    <path d="M13.6525648,17.6558348 C13.3629863,17.6558348 13.128346,17.4211945 13.128346,17.131616 L13.128346,15.5976471 C13.128346,15.3080686 13.3629863,15.0734283 13.6525648,15.0734283 C13.9421432,15.0734283 14.1767835,15.3080686 14.1767835,15.5976471 L14.1767835,17.131616 C14.1767835,17.4211945 13.9421432,17.6558348 13.6525648,17.6558348" id="Fill-32"></path>
                                    <path d="M10.105082,21.7000987 C9.81560844,21.7000987 9.58086328,21.4654583 9.58086328,21.1758799 L9.58086328,19.6418061 C9.58086328,19.3522277 9.81560844,19.1175873 10.105082,19.1175873 C10.3945556,19.1175873 10.6293008,19.3522277 10.6293008,19.6418061 L10.6293008,21.1758799 C10.6293008,21.4654583 10.3945556,21.7000987 10.105082,21.7000987" id="Fill-34"></path>
                                    <path d="M6.37089355,21.7000987 C6.08141995,21.7000987 5.84667479,21.4654583 5.84667479,21.1758799 L5.84667479,19.6418061 C5.84667479,19.3522277 6.08141995,19.1175873 6.37089355,19.1175873 C6.66036715,19.1175873 6.89511232,19.3522277 6.89511232,19.6418061 L6.89511232,21.1758799 C6.89511232,21.4654583 6.66036715,21.7000987 6.37089355,21.7000987" id="Fill-36"></path>
                                    <path d="M17.3868057,21.7000987 C17.0972273,21.7000987 16.8625869,21.4654583 16.8625869,21.1758799 L16.8625869,19.6418061 C16.8625869,19.3522277 17.0972273,19.1175873 17.3868057,19.1175873 C17.6763841,19.1175873 17.9110245,19.3522277 17.9110245,19.6418061 L17.9110245,21.1758799 C17.9110245,21.4654583 17.6763841,21.7000987 17.3868057,21.7000987" id="Fill-38"></path>
                                    <path d="M13.6525648,21.7000987 C13.3629863,21.7000987 13.128346,21.4654583 13.128346,21.1758799 L13.128346,19.6418061 C13.128346,19.3522277 13.3629863,19.1175873 13.6525648,19.1175873 C13.9421432,19.1175873 14.1767835,19.3522277 14.1767835,19.6418061 L14.1767835,21.1758799 C14.1767835,21.4654583 13.9421432,21.7000987 13.6525648,21.7000987" id="Fill-40"></path>
                                    <path d="M10.105082,25.8838152 C9.81560844,25.8838152 9.58086328,25.6491749 9.58086328,25.3595965 L9.58086328,23.8255227 C9.58086328,23.5359442 9.81560844,23.3013039 10.105082,23.3013039 C10.3945556,23.3013039 10.6293008,23.5359442 10.6293008,23.8255227 L10.6293008,25.3595965 C10.6293008,25.6491749 10.3945556,25.8838152 10.105082,25.8838152" id="Fill-42"></path>
                                    <path d="M6.37089355,25.8838152 C6.08141995,25.8838152 5.84667479,25.6491749 5.84667479,25.3595965 L5.84667479,23.8255227 C5.84667479,23.5359442 6.08141995,23.3013039 6.37089355,23.3013039 C6.66036715,23.3013039 6.89511232,23.5359442 6.89511232,23.8255227 L6.89511232,25.3595965 C6.89511232,25.6491749 6.66036715,25.8838152 6.37089355,25.8838152" id="Fill-44"></path>
                                    <path d="M17.3868057,25.8838152 C17.0972273,25.8838152 16.8625869,25.6491749 16.8625869,25.3595965 L16.8625869,23.8255227 C16.8625869,23.5359442 17.0972273,23.3013039 17.3868057,23.3013039 C17.6763841,23.3013039 17.9110245,23.5359442 17.9110245,23.8255227 L17.9110245,25.3595965 C17.9110245,25.6491749 17.6763841,25.8838152 17.3868057,25.8838152" id="Fill-46"></path>
                                    <path d="M13.6525648,25.8838152 C13.3629863,25.8838152 13.128346,25.6491749 13.128346,25.3595965 L13.128346,23.8255227 C13.128346,23.5359442 13.3629863,23.3013039 13.6525648,23.3013039 C13.9421432,23.3013039 14.1767835,23.5359442 14.1767835,23.8255227 L14.1767835,25.3595965 C14.1767835,25.6491749 13.9421432,25.8838152 13.6525648,25.8838152" id="Fill-48"></path>
                                    <path d="M10.105082,29.9553175 C9.81560844,29.9553175 9.58086328,29.7206772 9.58086328,29.4310988 L9.58086328,27.897025 C9.58086328,27.6074465 9.81560844,27.3728062 10.105082,27.3728062 C10.3945556,27.3728062 10.6293008,27.6074465 10.6293008,27.897025 L10.6293008,29.4310988 C10.6293008,29.7206772 10.3945556,29.9553175 10.105082,29.9553175" id="Fill-50"></path>
                                    <path d="M6.37089355,29.9553175 C6.08141995,29.9553175 5.84667479,29.7206772 5.84667479,29.4310988 L5.84667479,27.897025 C5.84667479,27.6074465 6.08141995,27.3728062 6.37089355,27.3728062 C6.66036715,27.3728062 6.89511232,27.6074465 6.89511232,27.897025 L6.89511232,29.4310988 C6.89511232,29.7206772 6.66036715,29.9553175 6.37089355,29.9553175" id="Fill-52"></path>
                                    <path d="M17.3868057,29.9553175 C17.0972273,29.9553175 16.8625869,29.7206772 16.8625869,29.4310988 L16.8625869,27.897025 C16.8625869,27.6074465 17.0972273,27.3728062 17.3868057,27.3728062 C17.6763841,27.3728062 17.9110245,27.6074465 17.9110245,27.897025 L17.9110245,29.4310988 C17.9110245,29.7206772 17.6763841,29.9553175 17.3868057,29.9553175" id="Fill-54"></path>
                                    <path d="M13.6525648,29.9553175 C13.3629863,29.9553175 13.128346,29.7206772 13.128346,29.4310988 L13.128346,27.897025 C13.128346,27.6074465 13.3629863,27.3728062 13.6525648,27.3728062 C13.9421432,27.3728062 14.1767835,27.6074465 14.1767835,27.897025 L14.1767835,29.4310988 C14.1767835,29.7206772 13.9421432,29.9553175 13.6525648,29.9553175" id="Fill-56"></path>
                                    <path d="M18.7630896,12.7565386 C18.4735112,12.7565386 18.2388709,12.5217935 18.2388709,12.2323199 L18.2388709,10.0907814 L5.33218552,10.0907814 L5.33218552,12.2323199 C5.33218552,12.5217935 5.09744036,12.7565386 4.80796676,12.7565386 C4.51838831,12.7565386 4.28374799,12.5217935 4.28374799,12.2323199 L4.28374799,9.56656259 C4.28374799,9.27698415 4.51838831,9.04234383 4.80796676,9.04234383 L18.7630896,9.04234383 C19.0526681,9.04234383 19.2873084,9.27698415 19.2873084,9.56656259 L19.2873084,12.2323199 C19.2873084,12.5217935 19.0526681,12.7565386 18.7630896,12.7565386" id="Fill-58"></path>
                                </g>
                            </g>
                        </g>
                        <g id="art" transform="translate(47.278230, 5.123486)" fill="#594383">
                            <g id="icon">
                                <g id="not-selected" transform="translate(0.796418, 0.747040)">
                                    <path d="M7.29084437,19.3964411 C8.80194714,19.3964411 10.0147915,19.7309364 11.187815,20.0544811 C12.3673095,20.3799172 13.5871225,20.7164036 15.1476032,20.7164036 C16.7080838,20.7164036 17.9278969,20.3799172 19.1073913,20.0544811 C20.2803152,19.7309364 21.4932592,19.3964411 23.0043619,19.3964411 C25.0637982,19.3964411 27.5943154,20.1635903 29.105916,20.6975883 C28.7084041,19.6468148 28.1612652,17.9463638 28.1612652,16.5503434 C28.1612652,15.4613419 28.3533014,14.5886674 28.5391653,13.7447634 C28.7247306,12.9023527 28.9164681,12.031271 28.9164681,10.9184766 C28.9164681,9.8057817 28.7247306,8.93460044 28.5391653,8.09218977 C28.3533014,7.24828581 28.1612652,6.37571082 28.1612652,5.28670936 C28.1612652,3.89068893 28.7084041,2.19033744 29.105916,1.13936492 C27.5942159,1.67346244 25.0637982,2.44061166 23.0043619,2.44061166 C21.4932592,2.44061166 20.2803152,2.10601673 19.1073913,1.7824721 C17.9278969,1.45703597 16.7080838,1.12054955 15.1476032,1.12054955 C13.5871225,1.12054955 12.3673095,1.45703597 11.187815,1.7824721 C10.0147915,2.10601673 8.80194714,2.44061166 7.29084437,2.44061166 C5.23110946,2.44061166 2.70079132,1.67336289 1.18929034,1.13936492 C1.58680226,2.19003878 2.13394112,3.89009162 2.13394112,5.28670936 C2.13394112,6.37571082 1.94190494,7.24828581 1.75594144,8.09218977 C1.5704757,8.93460044 1.37863862,9.8057817 1.37863862,10.9184766 C1.37863862,12.031271 1.5704757,12.9023527 1.75594144,13.7447634 C1.94190494,14.5886674 2.13394112,15.4613419 2.13394112,16.5503434 C2.13394112,17.9463638 1.58680226,19.6468148 1.18929034,20.6975883 C2.70079132,20.1636898 5.23110946,19.3964411 7.29084437,19.3964411 M29.3782908,21.8019208 C29.2831189,21.8019208 29.1868519,21.785196 29.0929742,21.7507509 C27.9756003,21.3422883 25.1455305,20.391963 23.0043619,20.391963 C21.6280528,20.391963 20.5322818,20.6942035 19.3721006,21.0142638 C18.1285941,21.3572211 16.8427779,21.7119256 15.1476032,21.7119256 C13.4524284,21.7119256 12.1666122,21.3572211 10.9230062,21.0142638 C9.76292448,20.6942035 8.66715347,20.391963 7.29084437,20.391963 C5.14957621,20.391963 2.31950641,21.3422883 1.20223213,21.7508505 C0.894118084,21.8635436 0.559124948,21.7865897 0.328661617,21.5499541 C0.0933202276,21.3082414 0.022040856,20.9480616 0.147078413,20.6323816 C0.517313026,19.6973873 1.13841917,17.9239645 1.13841917,16.5503434 C1.13841917,15.5696547 0.966193873,14.7871744 0.783814252,13.9589002 C0.586800458,13.0644237 0.383116667,12.1394843 0.383116667,10.9184766 C0.383116667,9.69746891 0.586800458,8.77252947 0.783814252,7.878053 C0.966193873,7.04977873 1.13841917,6.26739803 1.13841917,5.28670936 C1.13841917,3.91239131 0.517313026,2.13926716 0.147078413,1.20467116 C0.022040856,0.888891594 0.0933202276,0.528811305 0.328661617,0.287098575 C0.559124948,0.0503634555 0.894118084,-0.0265903913 1.20223213,0.0862022457 C2.31950641,0.494764454 5.14957621,1.44508971 7.29084437,1.44508971 C8.66715347,1.44508971 9.76292448,1.14284924 10.9230062,0.822788936 C12.1666122,0.479732073 13.4524284,0.125027602 15.1476032,0.125027602 C16.8427779,0.125027602 18.1285941,0.479732073 19.3721006,0.822788936 C20.5322818,1.14284924 21.6280528,1.44508971 23.0043619,1.44508971 C25.1455305,1.44508971 27.9756003,0.494764454 29.0930737,0.0862022457 C29.4014864,-0.0265903913 29.7358823,0.0504630076 29.9663456,0.286999023 C30.2018861,0.528811305 30.2730659,0.888991146 30.1481279,1.20467116 C29.7778933,2.13956582 29.1567871,3.91308817 29.1567871,5.28670936 C29.1567871,6.26739803 29.3290124,7.04977873 29.5113921,7.878053 C29.7084059,8.77252947 29.9119901,9.69746891 29.9119901,10.9184766 C29.9119901,12.1394843 29.7084059,13.0644237 29.5113921,13.9589002 C29.3290124,14.7871744 29.1567871,15.5696547 29.1567871,16.5503434 C29.1567871,17.9239645 29.7778933,19.6973873 30.1481279,20.6323816 C30.2730659,20.9481611 30.2018861,21.308341 29.9663456,21.5500537 C29.8061661,21.7145139 29.5954141,21.8019208 29.3782908,21.8019208" id="Fill-3"></path>
                                    <path d="M25.9735062,17.840062 L4.32170016,17.840062 C4.046737,17.840062 3.82393918,17.6172641 3.82393918,17.342301 L3.82393918,4.49469201 C3.82393918,4.2198284 4.046737,3.99693103 4.32170016,3.99693103 L24.1272111,3.99693103 C24.4021743,3.99693103 24.6249721,4.2198284 24.6249721,4.49469201 C24.6249721,4.76955562 24.4021743,4.99245298 24.1272111,4.99245298 L4.81946113,4.99245298 L4.81946113,16.84454 L25.4757452,16.84454 L25.4757452,4.66253701 C25.4757452,4.3876734 25.698543,4.16477603 25.9735062,4.16477603 C26.2484693,4.16477603 26.4712671,4.3876734 26.4712671,4.66253701 L26.4712671,17.342301 C26.4712671,17.6172641 26.2484693,17.840062 25.9735062,17.840062" id="Fill-5"></path>
                                    <path d="M25.9734066,5.05844613 C25.8499619,5.05844613 25.7264176,5.01285123 25.6299515,4.920865 C25.4310462,4.73111852 25.4235798,4.41603582 25.6133263,4.21713053 L27.3756988,2.36924269 C27.5653458,2.1701383 27.8803289,2.16287099 28.0794333,2.35251792 C28.2783386,2.5422644 28.2859045,2.8573471 28.0960585,3.05625239 L26.333686,4.90423978 C26.2359257,5.00677854 26.1047159,5.05844613 25.9734066,5.05844613" id="Fill-7"></path>
                                    <path d="M4.27987828,4.9704619 C4.14627924,4.9704619 4.0130784,4.91700237 3.91501949,4.81137749 L2.36240345,3.13939838 C2.17534488,2.93800429 2.18709204,2.62302114 2.38848613,2.43596257 C2.58988022,2.24900355 2.90476381,2.2605516 3.09192194,2.46204525 L4.64453797,4.13402436 C4.83159655,4.33541845 4.81994894,4.6504016 4.6184553,4.83746017 C4.52258653,4.92645983 4.40113285,4.9704619 4.27987828,4.9704619" id="Fill-9"></path>
                                    <path d="M27.7359882,19.5779546 C27.6046788,19.5779546 27.473469,19.526287 27.3757088,19.4237482 L25.6133363,17.5758604 C25.4234902,17.3768555 25.4310562,17.0617729 25.6299615,16.8720264 C25.8290659,16.6822799 26.1441486,16.6897463 26.333696,16.8886516 L28.0960685,18.736639 C28.2858149,18.9356438 28.2783485,19.2507265 28.0794432,19.4403734 C27.9829772,19.5323597 27.8593333,19.5779546 27.7359882,19.5779546" id="Fill-11"></path>
                                    <path d="M2.72710296,19.4899703 C2.60584839,19.4899703 2.48439471,19.4459683 2.38852595,19.3569686 C2.18703231,19.16991 2.1753847,18.8549269 2.36244327,18.6535328 L3.91505931,16.9816532 C4.10221743,16.7801596 4.41710103,16.7686115 4.61849512,16.9555706 C4.81988921,17.1426291 4.83163637,17.4576123 4.64457779,17.6590064 L3.09196176,19.3308859 C2.99390285,19.4365108 2.86070201,19.4899703 2.72710296,19.4899703" id="Fill-13"></path>
                                </g>
                            </g>
                        </g>
                        <g id="ent" transform="translate(97.394952, 3.231158)" fill="#22BFB3">
                            <g id="icon">
                                <g id="not-selected" transform="translate(0.397319, 0.503800)">
                                    <path d="M1.04776911,10.8507933 C0.820502824,10.8507933 0.61558571,10.6939517 0.563636292,10.4630102 C0.245185363,9.04646976 0.139001943,8.0804887 0.106123822,7.51957404 C0.0935089534,7.35736869 0.0534790955,6.83638456 0.415337091,6.51366245 C0.816231648,6.15637362 1.38022553,6.2654376 2.16085742,6.4164187 C2.31014992,6.44532364 2.47036868,6.47631449 2.64101706,6.50651071 C3.44608405,6.64060577 5.62736365,6.87383184 8.3879339,6.12558142 C9.69531105,5.78349003 10.9325614,5.27065093 12.0694889,4.60017564 C12.3058935,4.46071679 12.6102396,4.53958454 12.7495991,4.77569118 C12.8888593,5.01199647 12.8102896,5.31644191 12.5740836,5.45580144 C11.3579904,6.17296167 10.0356145,6.72126147 8.64360848,7.08540404 C5.69818571,7.88361729 3.34705237,7.63112126 2.47305058,7.48540463 C2.29207192,7.45351981 2.12648935,7.42153565 1.97213104,7.39163742 C1.65268682,7.32985437 1.26410914,7.25376784 1.09634132,7.26717734 C1.09236814,7.303532 1.09008355,7.36233517 1.09703663,7.45242718 C1.12842481,7.98533087 1.22894644,8.89380006 1.5327959,10.2450809 C1.59289036,10.5127744 1.42472522,10.7783819 1.15713108,10.8385757 C1.12047843,10.8468201 1.08382579,10.8507933 1.04776911,10.8507933 Z M4.26009071,11.5508688 L4.26118024,11.5508688 L4.26009071,11.5508688 Z M4.38722959,12.0310284 L4.38624902,12.0312463 L4.38614007,12.0312463 C4.38657588,12.0311374 4.38690273,12.0310284 4.38722959,12.0310284 Z M4.84106997,11.9118328 C5.25378475,12.1938298 5.81847394,12.3955683 6.52103271,12.2168742 C7.21872433,12.0293398 7.60054759,11.5781844 7.80894124,11.1323929 L4.84106997,11.9118328 Z M5.99547942,13.2777151 C4.9496373,13.2777151 4.19493045,12.7206743 3.79949902,12.3379571 C3.60550817,12.1501247 3.52743505,11.8708097 3.59597252,11.6089766 C3.66490732,11.3458523 3.87101639,11.1394453 4.13394203,11.0705105 L7.99925689,10.0554606 C8.258706,9.98751908 8.53732573,10.0633076 8.72625076,10.2540206 C8.91428183,10.4436409 8.98778579,10.7212674 8.91795703,10.9785312 C8.7407529,11.6321205 8.22642385,12.7871259 6.77203879,13.1779881 C6.49798823,13.2475189 6.23883711,13.2777151 5.99547942,13.2777151 Z M8.02061277,18.7618057 C7.8001009,18.7618057 7.58723741,18.6698264 7.43357441,18.5004693 C7.22994858,18.2762822 7.17164206,17.9618045 7.28140135,17.6798076 C7.6263733,16.7931909 8.55401311,15.1959698 10.8910416,14.4618242 C11.152676,14.3801752 11.4315937,14.5249978 11.5137394,14.7867315 C11.595885,15.0484652 11.4504664,15.3271843 11.1887327,15.4095286 C9.55436224,15.9228643 8.75724162,16.9255973 8.37869624,17.6599416 L11.2335304,16.854676 C11.4975486,16.780576 11.7718972,16.933941 11.8463944,17.19786 C11.9207924,17.4619776 11.7671293,17.7362268 11.5032104,17.8107241 L8.23874073,18.7315101 C8.16642873,18.7518727 8.09312343,18.7618057 8.02061277,18.7618057 Z M10.5392159,22.1783491 C5.81976523,22.1783491 2.61330408,17.4228417 1.10468502,12.5281734 C1.02392999,12.2660424 1.17093791,11.9880187 1.43306891,11.9072637 C1.69529925,11.82631 1.97312434,11.9735165 2.05397869,12.2355482 C2.4282529,13.4499528 3.51660812,16.5132799 5.5337951,18.7247557 C7.49694674,20.8769317 9.77169556,21.6228975 12.2945699,20.9424893 C12.4393926,20.9029561 12.5921616,20.8555758 12.7604261,20.7979646 C13.0196765,20.7091639 13.3022694,20.8472321 13.3911695,21.1068799 C13.4800695,21.366329 13.3418026,21.6487233 13.0822542,21.7377226 C12.8938258,21.8021876 12.7212902,21.855627 12.554615,21.90112 C11.8553341,22.089747 11.1827729,22.1783491 10.5392159,22.1783491 Z" id="Fill-6"></path>
                                    <path d="M14.7356165,10.0096001 L19.4512927,11.3457828 C19.2199538,10.6171003 18.682183,9.62767747 17.4421514,9.26939534 C16.2018218,8.91131188 15.2736853,9.49507236 14.7356165,10.0096001 Z M19.7378588,12.4278803 C19.6648515,12.4278803 19.5910495,12.4177486 19.5182409,12.3970881 L14.1472868,10.8753575 C13.8824739,10.8003636 13.6781528,10.5979297 13.6005763,10.3339114 C13.5232978,10.0703898 13.5856769,9.79028015 13.7675495,9.58466772 C14.2782033,9.00726434 15.6847115,7.72809682 17.7177912,8.31503585 C19.7220653,8.89422717 20.3383066,10.7053051 20.5102463,11.457032 C20.5732213,11.7324732 20.4884931,12.0132782 20.2833773,12.208163 C20.1324955,12.3515951 19.938306,12.4278803 19.7378588,12.4278803 Z M24.044992,12.7870564 L24.0458636,12.7872743 C24.0456457,12.7872743 24.0453189,12.7871653 24.045101,12.7870564 L24.044992,12.7870564 Z M24.3527153,12.8780423 L28.8283117,14.2010142 C28.6046213,13.4730271 28.0897956,12.4872794 26.9148249,12.1320765 C25.7479992,11.792965 24.8655544,12.370865 24.3527153,12.8780423 Z M29.1138845,15.2870849 C29.0379966,15.2870849 28.9611155,15.2761586 28.8854263,15.2537101 L23.7634917,13.7396279 L23.7633924,13.7396279 C23.5037446,13.6627467 23.3029,13.4620015 23.2263168,13.202453 C23.1496343,12.9434013 23.2089342,12.6662715 23.384847,12.461255 C23.8778202,11.8861362 25.2361534,10.6101473 27.1972192,11.1797036 C29.1249101,11.7624708 29.7200935,13.5711648 29.8867687,14.3217991 C29.9482538,14.5980349 29.8611416,14.8787406 29.6538406,15.0722348 C29.5033562,15.212687 29.3117492,15.2870849 29.1138845,15.2870849 Z M19.6720032,19.3045728 C22.1904077,20.0353412 23.9272863,19.2026606 24.76841,18.6085698 L15.6090223,16.0631476 C16.0947444,17.0880312 17.2042568,18.5812541 19.6720032,19.3045728 Z M21.594827,20.5850316 C20.9296162,20.5850316 20.1950732,20.4907677 19.3944761,20.2583363 C19.3940788,20.258237 19.3935821,20.2581377 19.3931848,20.257939 C16.0787523,19.2865941 14.883717,16.9915821 14.5237463,16.0500361 C14.4154769,15.7668472 14.4748761,15.4517735 14.6787006,15.2278844 C14.8822271,15.004194 15.1894537,14.9154926 15.481185,14.9967442 L25.4131589,17.7568178 C25.6993277,17.8363809 25.9161644,18.0661304 25.9791394,18.3563717 C26.0419157,18.6457191 25.9400035,18.9437081 25.7133332,19.1339244 C25.1147726,19.6364332 23.7041919,20.5850316 21.594827,20.5850316 Z M20.6508971,25.8257644 C19.7937814,25.8257644 18.9169983,25.7069661 18.0248192,25.4692702 C15.6347487,24.8303818 13.7774825,23.5076085 12.5041754,21.5374045 C11.7603948,20.3865709 11.2148762,19.0064845 10.8825192,17.4355857 C10.7185259,16.6607149 10.6047934,15.8313121 10.5445003,14.9703226 C10.2768068,11.1527853 11.0884296,7.61267574 11.4496916,6.26775198 C11.5752443,5.80080319 11.7088427,5.3348477 11.8468116,4.88299702 C12.43236,2.96474239 12.9776799,1.69679913 13.3319889,0.970798551 C13.4836653,0.653539578 13.7438097,0.214999075 14.2303264,0.112689513 C14.8383233,-0.0152471047 15.3813587,0.451900344 16.132589,1.09823852 C16.2911191,1.23471749 16.4620655,1.38182473 16.647216,1.53548774 C17.2922629,2.07603981 19.6903792,3.91552601 23.5422845,4.95352109 C27.1925507,5.93718283 30.1284378,5.62002319 31.2213622,5.43815056 C31.4565748,5.39653143 31.6804639,5.35272704 31.8880629,5.3121012 C32.8570239,5.12267952 33.5571987,4.9857039 34.0223596,5.39951132 C34.3977264,5.73345767 34.4040835,6.25424315 34.3762712,6.61689578 C34.3138922,7.55287928 34.1331122,8.73559769 33.8537971,10.0320486 C33.7959873,10.3001394 33.5317703,10.4707877 33.2637789,10.4129779 C32.9956881,10.355168 32.8250397,10.0909511 32.8828496,9.82286028 C33.2230537,8.24341916 33.3439379,7.1689701 33.3854577,6.54577573 C33.4071116,6.26417611 33.3705583,6.1640518 33.3597313,6.14140464 C33.2064657,6.06641074 32.58198,6.18838757 32.0787759,6.28692261 C31.8657137,6.32854174 31.6356662,6.37363741 31.3893286,6.41704448 C30.2277675,6.61043935 27.1225232,6.94706761 23.2838287,5.9126484 C19.2355486,4.82171061 16.693603,2.8703792 16.0110095,2.29824029 C15.8227797,2.14209405 15.6474629,1.99111294 15.4847609,1.85125677 C15.0936999,1.51482717 14.6086731,1.09744388 14.4371308,1.08572298 C14.4165696,1.10032444 14.3391917,1.16667666 14.2263532,1.40288263 C13.8859505,2.10017692 13.3634764,3.31676675 12.7968006,5.17303966 C12.6621096,5.61426207 12.5315904,6.0692913 12.4090176,6.52561181 C12.0606684,7.82206269 11.2782486,11.2333416 11.5353138,14.9008911 C11.5924283,15.7162884 11.6998037,16.4999002 11.8542613,17.2298739 C12.1613887,18.6818751 12.6607189,19.9496197 13.3384453,20.998243 C14.4737835,22.7549876 16.1366615,23.9364147 18.2808911,24.5096463 C21.7339879,25.4292404 24.842212,24.3835969 27.5196433,21.4009255 C30.229754,18.3817008 31.6713256,14.2660752 32.1653914,12.6365719 C32.2450538,12.3742422 32.5220842,12.226241 32.7848112,12.3054068 C33.0473395,12.3850692 33.1955394,12.6623976 33.1159763,12.9249259 C32.6026406,14.6178015 31.1018686,18.8971225 28.2587554,22.0643484 C26.9122423,23.5644251 25.4314356,24.6307292 23.8575569,25.2338589 C22.8281042,25.628297 21.7559397,25.8257644 20.6508971,25.8257644 Z" id="Fill-8"></path>
                                </g>
                            </g>
                        </g>
                        <g id="history" transform="translate(150.350166, 3.231158)" fill="#F26668">
                            <g id="icon">
                                <g id="not-selected" transform="translate(0.000000, 0.020968)">
                                    <path d="M29.8369323,25.4127631 L0.85967268,25.4127631 C0.628106215,25.4127631 0.440320153,25.2250609 0.440320153,24.9934106 L0.440320153,22.9805185 C0.440320153,22.7488681 0.628106215,22.561166 0.85967268,22.561166 L3.29434958,22.561166 C3.52599992,22.561166 3.71370211,22.7488681 3.71370211,22.9805185 C3.71370211,23.2121688 3.52599992,23.399871 3.29434958,23.399871 L1.27902521,23.399871 L1.27902521,24.5740581 L29.4175798,24.5740581 L29.4175798,23.399871 L5.36989298,23.399871 C5.13832651,23.399871 4.95054045,23.2121688 4.95054045,22.9805185 C4.95054045,22.7488681 5.13832651,22.561166 5.36989298,22.561166 L29.8369323,22.561166 C30.0685826,22.561166 30.2562848,22.7488681 30.2562848,22.9805185 L30.2562848,24.9934106 C30.2562848,25.2250609 30.0685826,25.4127631 29.8369323,25.4127631 Z" id="Fill-14"></path>
                                    <path d="M29.0588405,22.728907 L28.2201354,22.728907 L28.2201354,21.6385904 L2.47641925,21.6385904 L2.47641925,22.728907 L1.6377142,22.728907 L1.6377142,21.2192379 C1.6377142,20.9875875 1.82550026,20.7998853 2.05706672,20.7998853 L28.6394879,20.7998853 C28.8711383,20.7998853 29.0588405,20.9875875 29.0588405,21.2192379 L29.0588405,22.728907 Z" id="Fill-16"></path>
                                    <path d="M28.6394879,8.21930953 L2.05706672,8.21930953 C1.82550026,8.21930953 1.6377142,8.03160734 1.6377142,7.799957 L1.6377142,6.29028791 C1.6377142,6.05863757 1.82550026,5.87093538 2.05706672,5.87093538 C2.28863319,5.87093538 2.47641925,6.05863757 2.47641925,6.29028791 L2.47641925,7.38060448 L28.2201354,7.38060448 L28.2201354,6.29028791 C28.2201354,6.05863757 28.4078376,5.87093538 28.6394879,5.87093538 C28.8711383,5.87093538 29.0588405,6.05863757 29.0588405,6.29028791 L29.0588405,7.799957 C29.0588405,8.03160734 28.8711383,8.21930953 28.6394879,8.21930953" id="Fill-18"></path>
                                    <path d="M29.118464,6.45802892 L27.4621054,6.45802892 C27.2304551,6.45802892 27.0427529,6.27032672 27.0427529,6.03867639 C27.0427529,5.80702605 27.2304551,5.61932386 27.4621054,5.61932386 L28.6991115,5.61932386 L28.6991115,4.93535989 L15.2295083,1.35677317 L1.99742641,4.93393409 L1.99742641,5.61932386 L25.5662126,5.61932386 C25.7977791,5.61932386 25.9855651,5.80702605 25.9855651,6.03867639 C25.9855651,6.27032672 25.7977791,6.45802892 25.5662126,6.45802892 L1.57807388,6.45802892 C1.34650742,6.45802892 1.15872135,6.27032672 1.15872135,6.03867639 L1.15872135,4.6128778 C1.15872135,4.42341433 1.28578517,4.25751847 1.46870674,4.20803487 L15.1191347,0.51773263 C15.1900892,0.498442414 15.2650694,0.498190802 15.3361916,0.517313277 L29.2261537,4.20761551 C29.409914,4.25642815 29.5378165,4.42274336 29.5378165,4.6128778 L29.5378165,6.03867639 C29.5378165,6.27032672 29.3501143,6.45802892 29.118464,6.45802892" id="Fill-20"></path>
                                    <polygon id="Fill-22" points="3.67327653 21.0514969 4.51198158 21.0514969 4.51198158 8.05156852 3.67327653 8.05156852"></polygon>
                                    <polygon id="Fill-24" points="6.22780438 21.0514969 7.06650943 21.0514969 7.06650943 8.05156852 6.22780438 8.05156852"></polygon>
                                    <polygon id="Fill-25" points="8.45515339 21.0514969 9.29385844 21.0514969 9.29385844 8.05156852 8.45515339 8.05156852"></polygon>
                                    <polygon id="Fill-26" points="11.0894421 21.0514969 11.9281471 21.0514969 11.9281471 8.05156852 11.0894421 8.05156852"></polygon>
                                    <polygon id="Fill-27" points="18.6886131 21.0514969 19.5273182 21.0514969 19.5273182 8.05156852 18.6886131 8.05156852"></polygon>
                                    <polygon id="Fill-28" points="21.3229018 21.0514969 22.1616069 21.0514969 22.1616069 8.05156852 21.3229018 8.05156852"></polygon>
                                    <polygon id="Fill-29" points="23.5502508 21.0514969 24.3889559 21.0514969 24.3889559 8.05156852 23.5502508 8.05156852"></polygon>
                                    <polygon id="Fill-30" points="26.1845395 21.0514969 27.0232446 21.0514969 27.0232446 8.05156852 26.1845395 8.05156852"></polygon>
                                </g>
                            </g>
                        </g>
                        <g id="nature" transform="translate(199.520724, 2.284994)" fill="#22BFB3">
                            <g id="icon">
                                <g id="not-selected" transform="translate(0.901970, 0.473534)">
                                    <path d="M7.67453776,17.4080204 C5.92092775,17.4080204 4.507631,16.5322978 3.67745784,14.9372541 C1.4231643,13.9487852 0.083287907,12.0511306 0.083287907,9.83147267 C0.083287907,8.04115248 0.873593994,6.47100315 2.3721269,5.2772459 C2.40793511,4.3761779 2.65841217,3.496216 3.1019108,2.71934926 C3.22539049,2.50296667 3.50085212,2.42765217 3.71714452,2.55131226 C3.93343692,2.67479195 4.00866121,2.95025357 3.88518153,3.16645578 C3.48245193,3.87197669 3.26967722,4.6795104 3.26967722,5.50201681 C3.26967722,5.64398689 3.20275105,5.77765884 3.08928322,5.8628048 C1.71278685,6.89510943 0.985257877,8.26745674 0.985257877,9.83147267 C0.985257877,11.7240763 2.17883474,13.3460889 4.17805118,14.1701286 C4.28069536,14.2123408 4.36403738,14.2909024 4.41229278,14.3908407 C5.08119371,15.774643 6.20919735,16.5060504 7.67453776,16.5060504 C8.95849201,16.5060504 10.351314,15.6138218 10.9144139,14.4307979 C10.9608653,14.3332048 11.0407799,14.2555452 11.1396358,14.2118898 C12.4448765,13.636433 14.6344988,12.3020586 14.6344988,9.83147267 C14.6344988,8.97207568 14.1515841,7.16082979 12.3417814,5.82329852 C12.22669,5.73815255 12.1587717,5.60357863 12.1587717,5.4605262 C12.1587717,4.26090614 11.6773903,3.117569 10.803201,2.24130518 C9.95408647,1.39011612 8.81913765,0.90196997 7.68933007,0.90196997 C6.91859673,0.90196997 6.15769486,1.11474469 5.48888413,1.51747428 C5.27529764,1.6459148 4.99830267,1.57700429 4.86986214,1.36377859 C4.74133142,1.1504627 4.81024193,0.873287325 5.02355782,0.744846801 C5.83289548,0.257512426 6.75461859,0 7.68933007,0 C10.5268374,0 12.9352776,2.37515752 13.0560514,5.23566508 C14.0534498,6.03968111 15.5364688,7.77254582 15.5364688,9.83147267 C15.5364688,12.7173256 13.1702408,14.2709689 11.6525861,14.9700858 C10.8988098,16.3917708 9.25406757,17.4080204 7.67453776,17.4080204" id="Fill-24"></path>
                                    <path d="M7.77949099,19.5727483 C7.53045708,19.5727483 7.328506,19.3708875 7.328506,19.1217634 L7.328506,6.58438078 C7.328506,6.33525667 7.53045708,6.13339579 7.77949099,6.13339579 C8.0285249,6.13339579 8.23047597,6.33525667 8.23047597,6.58438078 L8.23047597,19.1217634 C8.23047597,19.3708875 8.0285249,19.5727483 7.77949099,19.5727483" id="Fill-26"></path>
                                    <path d="M7.77940079,14.7923075 C7.66899967,14.7923075 7.55832795,14.7520796 7.47137805,14.6706318 L4.67527114,12.0549188 C4.49343399,11.8848073 4.48387311,11.599424 4.65407485,11.4174967 C4.82418638,11.2356595 5.10956968,11.2260986 5.29149702,11.3963004 L8.08760393,14.0120133 C8.26944108,14.1821248 8.27900196,14.4675081 8.10880022,14.6494355 C8.02004638,14.7443227 7.89981378,14.7923075 7.77940079,14.7923075" id="Fill-28"></path>
                                    <path d="M7.77958119,11.9060036 C7.65871721,11.9060036 7.53830422,11.8577482 7.44936998,11.7623198 C7.27970943,11.5800317 7.28990169,11.2947386 7.47218982,11.1249878 L10.0879027,8.68966888 C10.2701909,8.51982794 10.5555742,8.5301104 10.7253249,8.71239853 C10.8949855,8.89468666 10.8847932,9.17997976 10.7025051,9.34973051 L8.08679216,11.7850494 C7.99993245,11.8660463 7.88962152,11.9060036 7.77958119,11.9060036" id="Fill-30"></path>
                                    <path d="M24.9924063,21.1962943 C23.4128765,21.1962943 21.7681342,20.1800447 21.0143579,18.7583597 C19.4966131,18.0592427 17.1304752,16.5055995 17.1304752,13.6197465 C17.1304752,11.5608197 18.6134041,9.82795499 19.6108927,9.02393896 C19.7316664,6.16343139 22.1401066,3.78827387 24.977614,3.78827387 C25.9123255,3.78827387 26.8341388,4.0457863 27.6433862,4.53312067 C27.8567021,4.6615612 27.9256126,4.93873657 27.7970819,5.15205247 C27.6685512,5.36536836 27.3917366,5.43436907 27.1780599,5.30574815 C26.5092492,4.90301856 25.7483473,4.69024384 24.977614,4.69024384 C23.8478064,4.69024384 22.7128576,5.17838999 21.863743,6.02957905 C20.9895538,6.90584288 20.5080822,8.04918001 20.5080822,9.24880007 C20.5080822,9.39185251 20.4401638,9.52642643 20.3251627,9.61157239 C18.5152697,10.9491037 18.0324452,12.7603496 18.0324452,13.6197465 C18.0324452,16.0903325 20.2220675,17.4247069 21.5273082,18.0001637 C21.6261642,18.043819 21.7060787,18.1214787 21.7525301,18.2190718 C22.31563,19.4020956 23.708452,20.2943243 24.9924063,20.2943243 C26.4576565,20.2943243 27.5857503,19.5629169 28.2546513,18.1791145 C28.3029067,18.0791763 28.3863389,18.0006147 28.4888929,17.9584025 C30.4881093,17.1342725 31.6816862,15.5123501 31.6816862,13.6197465 C31.6816862,12.0557306 30.9541572,10.6833833 29.5776608,9.65107868 C29.4641028,9.56593271 29.3972668,9.43226076 29.3972668,9.29029069 C29.3972668,8.46769408 29.1844921,7.66007016 28.7817625,6.95481985 C28.6582828,6.73852745 28.7335071,6.46306582 28.9497093,6.33958613 C29.1660919,6.21592605 29.4414634,6.29142093 29.564943,6.50753294 C30.0084417,7.28430948 30.2590089,8.16436157 30.2947269,9.06551977 C31.79335,10.259277 32.5836561,11.8294263 32.5836561,13.6197465 C32.5836561,15.8394044 31.2437797,17.7369689 28.9894862,18.7255279 C28.1592228,20.3205716 26.7459261,21.1962943 24.9924063,21.1962943" id="Fill-32"></path>
                                    <path d="M24.8267234,25.4355531 C24.5775993,25.4355531 24.3757384,25.2336923 24.3757384,24.9845682 L24.3757384,10.3726547 C24.3757384,10.1235305 24.5775993,9.92166967 24.8267234,9.92166967 C25.0758475,9.92166967 25.2777084,10.1235305 25.2777084,10.3726547 L25.2777084,24.9845682 C25.2777084,25.2336923 25.0758475,25.4355531 24.8267234,25.4355531" id="Fill-34"></path>
                                    <path d="M24.8266332,18.5805814 C24.7162321,18.5805814 24.6056506,18.5403535 24.5186105,18.4589056 L21.7225036,15.8431927 C21.5405762,15.6730812 21.5311055,15.3876979 21.7013073,15.2057705 C21.8714188,15.0239334 22.1566217,15.0142823 22.3387295,15.1845742 L25.1348364,17.8002872 C25.3167637,17.9703987 25.3262344,18.255782 25.1560327,18.4377093 C25.0672788,18.5325966 24.9470462,18.5805814 24.8266332,18.5805814" id="Fill-36"></path>
                                    <path d="M24.8268136,15.6942775 C24.7059496,15.6942775 24.5854464,15.6460221 24.4966926,15.5505937 C24.3269419,15.3683055 24.3371341,15.0830124 24.5194222,14.9132617 L27.1351352,12.4779428 C27.3173331,12.3080116 27.6028968,12.3183843 27.7724671,12.5006724 C27.9422179,12.6829605 27.9320256,12.9682536 27.7497375,13.1380044 L25.1340246,15.5733233 C25.0471649,15.6543202 24.9368539,15.6942775 24.8268136,15.6942775" id="Fill-38"></path>
                                    <path d="M32.4934682,25.7963411 L0.473534234,25.7963411 C0.224500325,25.7963411 0.0225492492,25.5944803 0.0225492492,25.3453561 C0.0225492492,25.096232 0.224500325,24.8943712 0.473534234,24.8943712 L32.4934682,24.8943712 C32.7425923,24.8943712 32.9444531,25.096232 32.9444531,25.3453561 C32.9444531,25.5944803 32.7425923,25.7963411 32.4934682,25.7963411" id="Fill-40"></path>
                                    <path d="M14.1834778,25.6835949 C13.9344439,25.6835949 13.7324928,25.481734 13.7324928,25.2326099 C13.7324928,24.3242359 12.9815126,23.5319455 11.9857377,23.3897049 C11.808681,23.3644497 11.6632835,23.2369111 11.6151183,23.0646349 C11.4683678,22.5395982 10.9526213,22.1793514 10.2690183,22.124692 C10.0345963,22.105931 9.85402192,21.9102035 9.85402192,21.6751501 L9.85402192,21.6095769 C9.85402192,21.1539017 9.66388665,20.7328621 9.31843215,20.4240276 C8.96485992,20.1077969 8.48356875,19.9335363 7.96331247,19.9335363 C7.06377782,19.9335363 6.34734307,20.3989528 6.13799584,21.1192661 C6.0820737,21.3119268 5.90555818,21.4444262 5.70496006,21.4444262 C4.85945341,21.4444262 4.17161111,22.0447774 4.17161111,22.7828595 C4.17161111,22.8324678 4.174768,22.8821664 4.1809014,22.9308727 C4.21111739,23.169534 4.0487628,23.3897951 3.81190549,23.4316465 C3.80694465,23.4325484 3.80189362,23.4333602 3.79702298,23.4340818 C2.90028444,23.6573193 2.27747417,24.3919739 2.27747417,25.2326099 C2.27747417,25.481734 2.0755231,25.6835949 1.82648919,25.6835949 C1.57745528,25.6835949 1.3755042,25.481734 1.3755042,25.2326099 C1.3755042,24.0758334 2.13965316,23.0589525 3.2737902,22.6513522 C3.34179874,21.5759334 4.23817649,20.701654 5.38313717,20.5619388 C5.79813356,19.6223567 6.77641019,19.0315664 7.96331247,19.0315664 C9.40962131,19.0315664 10.566488,19.9975762 10.7348858,21.2841462 C11.4948857,21.4513714 12.1016409,21.9147134 12.3846791,22.5471747 C13.7036297,22.8514994 14.6344628,23.942883 14.6344628,25.2326099 C14.6344628,25.481734 14.4325117,25.6835949 14.1834778,25.6835949" id="Fill-42"></path>
                                    <path d="M23.5639655,25.5161532 C23.3148414,25.5161532 23.1129805,25.3142923 23.1129805,25.0651682 C23.1129805,23.846697 22.1938731,22.8254866 20.927417,22.6368846 C20.749729,22.6104569 20.6046922,22.4812046 20.5582407,22.3076656 C20.3691878,21.6026859 19.7167027,21.1201319 18.8553214,21.0481547 C18.621621,21.0286722 18.4418584,20.8332153 18.4418584,20.5987031 L18.4418584,20.5164434 C18.4418584,19.2719053 17.4011654,18.2970561 16.0725637,18.2970561 C14.9495209,18.2970561 14.0523313,18.9121095 13.7869718,19.8640486 C13.7326732,20.0590545 13.5549851,20.193899 13.352583,20.193899 C12.3899105,20.193899 11.5642472,20.8586508 11.4321988,21.7402363 C11.3953082,21.9865643 11.1657568,22.1574876 10.9194288,22.1193343 C10.6731008,22.0824437 10.5032599,21.8528923 10.5401505,21.6064742 C10.7222582,20.3913402 11.7622296,19.4513071 13.0234542,19.310239 C13.4928394,18.1365055 14.6551179,17.3950862 16.0725637,17.3950862 C17.7971303,17.3950862 19.1704697,18.6071534 19.3286753,20.2067972 C20.2661829,20.4011717 21.0115708,20.9895267 21.3368212,21.7966094 C22.904445,22.1532483 24.0149504,23.4874423 24.0149504,25.0651682 C24.0149504,25.3142923 23.8130896,25.5161532 23.5639655,25.5161532" id="Fill-44"></path>
                                </g>
                            </g>
                        </g>
                    </g>
                    <g id="btm-rw" transform="translate(24.000000, 41.000000)">
                        <g id="sport" transform="translate(53.385030, 2.394794)" fill="#F4BD34">
                            <g id="icon">
                                <g id="not-selected" transform="translate(0.561050, 0.772846)">
                                    <path d="M12.3555015,24.6861859 C5.54950135,24.6861859 0.0124085488,19.1490931 0.0124085488,12.343093 C0.0124085488,5.5370928 5.54950135,0 12.3555015,0 C14.0093825,0 15.6148261,0.321761992 17.1274161,0.956402689 C17.3654881,1.05626953 17.4775111,1.33024879 17.3776442,1.56832087 C17.2777774,1.80648646 17.0035176,1.91878991 16.7656325,1.81854903 C15.3682448,1.23234562 13.8845489,0.935082801 12.3555015,0.935082801 C6.06510601,0.935082801 0.947491349,6.05269746 0.947491349,12.343093 C0.947491349,18.6334885 6.06510601,23.7511031 12.3555015,23.7511031 C18.645897,23.7511031 23.7635117,18.6334885 23.7635117,12.343093 C23.7635117,9.69923986 22.8383408,7.12215166 21.1586515,5.08666342 C20.994264,4.88758429 21.0225035,4.59284619 21.2215826,4.42845864 C21.4207552,4.26407108 21.7154933,4.29231058 21.8797874,4.49148322 C23.6975883,6.69407075 24.6985945,9.48248767 24.6985945,12.343093 C24.6985945,19.1490931 19.1615017,24.6861859 12.3555015,24.6861859" id="Fill-4"></path>
                                    <path d="M9.36962317,6.94444852 L9.37077502,6.94444852 L9.36962317,6.94444852 Z M9.55733764,7.37271645 L9.55710727,7.37271645 L9.55710727,7.37283163 C9.55710727,7.37271645 9.55722246,7.37271645 9.55733764,7.37271645 Z M5.8238827,14.2962565 C6.58541413,14.4857043 8.98838991,15.0683544 10.3119061,15.216191 C10.7423247,14.4071573 12.0822984,11.8756077 12.5573204,10.8373852 C12.0473263,10.2502467 10.4403865,8.40364523 9.52269623,7.38786479 C8.76490512,7.72066076 6.4099926,8.78852532 5.3496087,9.65188727 C5.37766119,10.3984574 5.49061919,12.7982539 5.8238827,14.2962565 Z M10.344073,16.1551076 C10.3125607,16.1551076 10.2808614,16.153331 10.248975,16.1499647 C8.85570166,16.0006319 6.31274399,15.3818877 5.5664544,15.1958062 C5.24141962,15.1147345 4.99343566,14.8622621 4.91947061,14.5367598 C4.55843515,12.9445008 4.44145629,10.4017302 4.41415187,9.6602095 C4.40423999,9.38744585 4.52271498,9.12188233 4.73105143,8.9498271 C5.85791971,8.01876515 8.21900378,6.93780944 9.18195205,6.5161806 C9.53008338,6.3637621 9.93553528,6.45053779 10.1907194,6.73255876 C11.1232775,7.76339404 12.794925,9.68489569 13.2850954,10.2493117 C13.5109179,10.5091712 13.5646851,10.880399 13.422085,11.1947739 C12.9549176,12.223552 11.6571162,14.6788924 11.1208462,15.6867246 C10.9656225,15.97819 10.6677051,16.1551076 10.344073,16.1551076 Z" id="Fill-6"></path>
                                    <path d="M11.3687273,3.34018122 C11.1021352,3.34018122 10.8386289,3.24592487 10.6314146,3.07386964 C9.3806478,2.03536668 7.68150884,1.96401986 7.66458384,1.9633653 C7.40687502,1.95438851 7.20471012,1.73829087 7.21331288,1.48058205 C7.22172863,1.22287323 7.43651715,1.02005377 7.69469351,1.02884355 C7.77688729,1.03146178 9.72541283,1.1061749 11.228839,2.35451044 C11.274284,2.39219428 11.331137,2.41042839 11.387055,2.40416334 C13.098724,2.23360423 14.6236571,2.09521198 15.950446,2.13149319 C16.0448894,2.13485949 16.1332547,2.08240134 16.1719672,2.00002055 C16.2522908,1.82964846 16.3396275,1.62944724 16.4319202,1.40512087 C16.5301039,1.16639423 16.8030545,1.05240764 17.0422487,1.15059133 C17.2810689,1.24886854 17.394962,1.52200622 17.2967783,1.76082637 C17.1985946,1.9994595 17.1048058,2.21387399 17.0180301,2.39827231 C16.8211952,2.81662836 16.3930207,3.0802282 15.9251053,3.06620196 C14.6522706,3.03141688 13.1591304,3.16728441 11.4797217,3.33466423 C11.4427859,3.33831105 11.4057566,3.34018122 11.3687273,3.34018122" id="Fill-8"></path>
                                    <path d="M6.18431972,22.9095286 C6.04041047,22.9095286 5.8983714,22.8433248 5.80682679,22.7183042 C5.72472652,22.6062813 3.78873109,19.9527033 3.23086069,18.188015 C3.21309412,18.1318166 3.17802851,18.0848754 3.13220945,18.0562619 C2.15317776,17.4415384 1.60344258,17.0628299 0.733067512,16.30747 C0.53800924,16.1383135 0.517156894,15.8430144 0.686313372,15.6480496 C0.855469851,15.4528978 1.15104952,15.4320455 1.34582727,15.6012955 C2.16926119,16.3156987 2.6934686,16.6766407 3.62939298,17.2642467 C3.86269614,17.4105872 4.03774364,17.6385604 4.12236863,17.9059941 C4.63385892,19.5240613 6.54189538,22.1394879 6.56106458,22.1656702 C6.71367009,22.3739132 6.6685991,22.6665006 6.46026265,22.8191061 C6.37704028,22.880167 6.2801657,22.9095286 6.18431972,22.9095286" id="Fill-10"></path>
                                    <path d="M21.0509487,15.2065129 C20.6970199,15.2066064 20.3545925,15.0200574 20.1699137,14.6923108 C19.2325867,13.0294531 18.2779606,11.4520619 17.9110342,10.8510842 C17.7381373,10.5683152 17.7153213,10.2188747 17.8498797,9.91656245 C18.4468366,8.57387706 18.9512203,7.22922799 19.1986432,6.5472721 C19.2923385,6.28900224 19.4818798,6.08431261 19.7322014,5.97098057 C19.981962,5.85792906 20.2599622,5.85054191 20.5150527,5.95050226 C22.1173171,6.57803633 23.205847,7.37958931 23.6156003,7.68124702 C23.8234692,7.83441358 23.8678856,8.1270945 23.7148126,8.33505691 C23.5617395,8.54292582 23.2691521,8.58743576 23.0610962,8.4342692 C22.6783668,8.15243524 21.6618383,7.40390146 20.1741215,6.82115786 C20.1509315,6.81218106 20.1306402,6.81704349 20.1178296,6.82293451 C20.1044579,6.82891904 20.0866913,6.84135565 20.0777145,6.86613534 C19.8259902,7.55977976 19.3129103,8.92771239 18.7041714,10.2965801 C18.6947271,10.3181805 18.6964102,10.3430537 18.7090338,10.3636255 C19.0785785,10.9689981 20.0398437,12.5575168 20.9844643,14.2331852 C21.003914,14.2676897 21.0469278,14.2811549 21.0823675,14.2639494 C21.7108366,13.9554656 22.8901631,13.3334485 23.7283713,12.6332585 C23.9267023,12.4678424 24.2214404,12.4943052 24.3869501,12.6924493 C24.5523662,12.8905933 24.5259034,13.1855184 24.3277593,13.3510281 C23.4143705,14.1138686 22.1605179,14.7762813 21.494365,15.1032797 C21.3518583,15.1733174 21.2003749,15.2065129 21.0509487,15.2065129" id="Fill-12"></path>
                                    <path d="M11.7613967,24.6714864 C11.6003754,24.6714864 11.4438425,24.5882641 11.3569733,24.4392119 C11.0753264,23.9558676 10.8520286,23.554156 10.7142909,23.3022447 C10.5647712,23.0286395 10.5882418,22.6899525 10.7736687,22.4392568 C11.5045294,21.4510613 12.3383427,20.2711738 12.66291,19.8098974 C12.8415108,19.5560225 13.1343787,19.4085599 13.4481925,19.420903 C15.4171964,19.4843016 17.3427189,19.1241077 18.0788161,18.9659852 C18.4910006,18.8776199 18.8887848,19.1298117 18.9862204,19.5398455 L19.0202574,19.6824457 C19.1468676,20.2122636 19.3045226,20.8717775 19.4625516,21.8301438 C19.5046303,22.0849539 19.3321075,22.3255507 19.0772975,22.3675359 C18.8221134,22.4096146 18.5818906,22.2369984 18.5399054,21.9822818 C18.388796,21.0653396 18.2368451,20.4270521 18.1141622,19.9140657 C17.2505197,20.0915444 15.362307,20.4170467 13.4222907,20.3556118 C13.0995001,20.8143634 12.295703,21.9514241 11.5754087,22.927931 C11.7116503,23.175728 11.9147502,23.5391012 12.1648849,23.9684912 C12.2948614,24.1916019 12.2194002,24.4779243 11.9962895,24.6078073 C11.9223244,24.6509146 11.8412527,24.6714864 11.7613967,24.6714864" id="Fill-14"></path>
                                    <path d="M5.06139748,9.81846292 C4.98013879,9.81846292 4.8978515,9.79723654 4.82285786,9.75272659 L1.3630515,7.69554443 C1.14115635,7.56360425 1.06821989,7.27662734 1.20016007,7.05463868 C1.33200675,6.83274353 1.61889015,6.75962006 1.84106582,6.89174726 L5.30087219,8.94892942 C5.52276734,9.0808696 5.59570379,9.36784651 5.46376361,9.58983517 C5.37633337,9.73683019 5.22092261,9.81846292 5.06139748,9.81846292" id="Fill-16"></path>
                                    <path d="M13.0105177,20.5719151 C12.8537043,20.5719151 12.7006312,20.4929941 12.6121724,20.349833 L9.90043227,15.9549438 C9.76484527,15.7351058 9.83310631,15.4471003 10.0527573,15.3115133 C10.2725952,15.1758328 10.5606007,15.2440938 10.6961877,15.4638383 L13.4079279,19.8587275 C13.5435149,20.0785654 13.4753473,20.3665709 13.2556029,20.5021579 C13.1791131,20.5493796 13.0943011,20.5719151 13.0105177,20.5719151" id="Fill-18"></path>
                                    <path d="M9.73717617,7.29373935 C9.6833154,7.29373935 9.62842604,7.28429502 9.5749393,7.26456477 C9.33275286,7.17489033 9.20922842,6.90586701 9.29890286,6.66377407 L10.2338922,4.13905051 C10.3236601,3.89695757 10.5925899,3.77352664 10.8346829,3.86301407 C11.0768693,3.95268851 11.2003937,4.22161832 11.1107193,4.46371126 L10.1756365,6.98843482 C10.1057858,7.17713453 9.92718499,7.29373935 9.73717617,7.29373935" id="Fill-20"></path>
                                    <path d="M3.65877328,17.9536833 C3.57461583,17.9536833 3.48942979,17.9309608 3.41265949,17.8832715 C3.19319555,17.7471235 3.12586959,17.4588375 3.26201765,17.239467 L4.94516669,14.5277269 C5.08122124,14.308263 5.36941376,14.2408435 5.5889712,14.3770851 C5.80834162,14.5132331 5.87576109,14.8015192 5.73961304,15.0208896 L4.056464,17.7326297 C3.96800516,17.8752298 3.81511913,17.9536833 3.65877328,17.9536833" id="Fill-22"></path>
                                    <path d="M18.433175,19.8238489 C18.3604256,19.8238489 18.2865541,19.8068304 18.2175449,19.7709232 C17.9885432,19.6516066 17.8996168,19.3693051 18.0188399,19.1402098 L20.3565469,14.6518124 C20.4758634,14.4228106 20.7582584,14.3336972 20.9871667,14.4531073 C21.216262,14.5724239 21.3051884,14.8547254 21.1858718,15.0838207 L18.8481648,19.5722181 C18.7648489,19.7322108 18.6019575,19.8238489 18.433175,19.8238489" id="Fill-24"></path>
                                    <path d="M13.1030161,11.3145019 C12.8645699,11.3145019 12.6609089,11.1330958 12.6380929,10.8909094 C12.6138742,10.6338551 12.802574,10.4056949 13.0596282,10.3814763 L18.0155671,9.91393487 C18.2731824,9.88924868 18.5007815,10.0783224 18.5249067,10.3354702 C18.5492188,10.5925245 18.3605191,10.8206847 18.1034648,10.8449033 L13.147526,11.3124447 C13.1324712,11.3138473 13.1176969,11.3145019 13.1030161,11.3145019" id="Fill-26"></path>
                                    <path d="M10.9533355,23.2836552 C10.9219167,23.2836552 10.8901239,23.280476 10.8581441,23.2739304 L8.14640396,22.7128807 C7.89355757,22.6605161 7.73094667,22.4130932 7.7833113,22.1602468 C7.83567594,21.9074004 8.08319236,21.7456311 8.33585173,21.7971541 L11.0475919,22.3582038 C11.3004382,22.4104749 11.4630491,22.6578978 11.410778,22.9107442 C11.364959,23.1316108 11.1703682,23.2836552 10.9533355,23.2836552" id="Fill-28"></path>
                                    <path d="M18.7141581,5.51698852 C18.5912882,5.51698852 18.4686053,5.46883176 18.3767802,5.3732663 L16.1325815,3.0355593 C15.9537001,2.8492908 15.9597782,2.5533371 16.1460467,2.37445576 C16.3324087,2.19566792 16.6282689,2.20183947 16.8071502,2.38792095 L19.0513489,4.72562795 C19.2302303,4.91189644 19.2241522,5.20785015 19.0378837,5.38673149 C18.9471807,5.47369419 18.8305759,5.51698852 18.7141581,5.51698852" id="Fill-30"></path>
                                </g>
                            </g>
                        </g>
                        <g id="food-&amp;-drink" transform="translate(97.824767, 3.340958)">
                            <g id="genre-food-no">
                                <g id="icon">
                                    <g id="not-selected" transform="translate(0.277948, 0.597404)">
                                        <g id="Group-20" transform="translate(30.296281, 0.000000)">
                                            <mask id="mask-2" fill="white">
                                                <use xlink:href="#path-1"></use>
                                            </mask>
                                            <g id="Clip-19"></g>
                                            <path d="M1.49994384,13.2465348 C1.5000494,13.2467491 1.50026053,13.2468562 1.50036609,13.2470705 C1.50026053,13.2468562 1.5000494,13.2466419 1.49994384,13.2465348 Z M1.50040708,13.247099 C1.50061821,13.2473133 1.50082934,13.2475275 1.50104047,13.247849 C1.50082934,13.2475275 1.50061821,13.2473133 1.50040708,13.247099 Z M2.19842598,12.6288191 C2.31219916,12.7634772 2.3699196,12.9534278 2.42365612,13.6702563 C2.45135823,14.0385912 2.46636739,14.4190566 2.46636739,14.5112109 L2.46636739,22.1272899 C2.46636739,22.3704643 2.66130126,22.5684079 2.90089203,22.5684079 C3.1404828,22.5684079 3.33541667,22.3704643 3.33541667,22.1272899 L3.33541667,1.62494282 C1.68885551,3.31851235 0.95979914,4.4681837 0.95979914,6.8600568 L0.95979914,10.4139198 C0.95979914,10.8792988 1.12999568,11.3248364 1.43888803,11.6686282 C1.44555877,11.676057 1.45195156,11.6836738 1.45815906,11.6914787 L2.19842598,12.6288191 Z M2.90089203,23.5087574 C2.1504337,23.5087574 1.53987563,22.8890671 1.53987563,22.1272899 L1.53987563,14.5112109 C1.53987563,14.3036757 1.49030832,13.4262356 1.43722034,13.1684858 L0.744111858,12.2907635 C0.285683735,11.7750758 0.0333073788,11.1091203 0.0333073788,10.4139198 L0.0333073788,6.8600568 C0.0333073788,3.81106744 1.20800628,2.42057257 3.14252108,0.492761968 L3.47411248,0.162417173 C3.60706405,0.0296398176 3.80561123,-0.00919661854 3.97784605,0.0643387158 C4.14998822,0.13768598 4.26190843,0.308547492 4.26190843,0.497933891 L4.26190843,22.1272899 C4.26190843,22.8890671 3.65135036,23.5087574 2.90089203,23.5087574 Z" id="Fill-18" fill="#594383" mask="url(#mask-2)"></path>
                                        </g>
                                        <path d="M3.03272254,23.5087386 C2.28217157,23.5087386 1.67170614,22.8890483 1.67170614,22.1273651 L1.67170614,8.77308511 C0.950154361,8.47706307 3.70596705e-05,7.69027261 3.70596705e-05,6.13455832 L3.70596705e-05,0.730369491 C3.70596705e-05,0.470644947 0.207385916,0.260194719 0.46328294,0.260194719 C0.719087316,0.260194719 0.926528821,0.470644947 0.926528821,0.730369491 L0.926528821,6.13455832 C0.926528821,7.63441584 2.09715116,7.93852489 2.23075127,7.96823993 C2.44319583,8.01553951 2.59819791,8.20737082 2.59819791,8.42825893 L2.59819791,22.1273651 C2.59819791,22.3705395 2.79313177,22.5683891 3.03272254,22.5683891 C3.27231331,22.5683891 3.46715453,22.3705395 3.46715453,22.1273651 L3.46715453,8.42825893 C3.46715453,8.1927954 3.6387408,7.9937234 3.86860341,7.96231573 C3.9882135,7.94332067 5.07693396,7.72506554 5.07693396,6.13455832 L5.07693396,0.730369491 C5.07693396,0.470644947 5.28437547,0.260194719 5.54017984,0.260194719 C5.79607687,0.260194719 6.00342573,0.470644947 6.00342573,0.730369491 L6.00342573,6.13455832 C6.00342573,7.76399601 5.09926242,8.5231402 4.39364629,8.78925912 L4.39364629,22.1273651 C4.39364629,22.8890483 3.78318087,23.5087386 3.03272254,23.5087386" id="Fill-21" fill="#594383"></path>
                                        <path d="M5.54022617,6.47904597 L2.21708552,6.47904597 C1.9611885,6.47904597 1.75383964,6.26859574 1.75383964,6.0088712 C1.75383964,5.74914666 1.9611885,5.53869643 2.21708552,5.53869643 L5.54022617,5.53869643 C5.79612319,5.53869643 6.00347205,5.74914666 6.00347205,6.0088712 C6.00347205,6.26859574 5.79612319,6.47904597 5.54022617,6.47904597" id="Fill-23" fill="#594383"></path>
                                        <path d="M3.86855708,6.47904597 C3.61266006,6.47904597 3.4053112,6.26859574 3.4053112,6.0088712 L3.4053112,0.73031307 C3.4053112,0.470588526 3.61266006,0.260138298 3.86855708,0.260138298 C4.12445411,0.260138298 4.33180297,0.470588526 4.33180297,0.73031307 L4.33180297,6.0088712 C4.33180297,6.26859574 4.12445411,6.47904597 3.86855708,6.47904597" id="Fill-25" fill="#594383"></path>
                                        <path d="M2.19679535,6.47904597 C1.94089833,6.47904597 1.73354947,6.26859574 1.73354947,6.0088712 L1.73354947,0.73031307 C1.73354947,0.470588526 1.94089833,0.260138298 2.19679535,0.260138298 C2.45269237,0.260138298 2.66004123,0.470588526 2.66004123,0.73031307 L2.66004123,6.0088712 C2.66004123,6.26859574 2.45269237,6.47904597 2.19679535,6.47904597" id="Fill-27" fill="#594383"></path>
                                        <path d="M17.7948864,1.50584755 C12.134207,1.50584755 7.52898706,6.17994899 7.52898706,11.9252966 C7.52898706,17.6705502 12.134207,22.3446517 17.7948864,22.3446517 C23.4555657,22.3446517 28.0607857,17.6705502 28.0607857,11.9252966 C28.0607857,6.17994899 23.4555657,1.50584755 17.7948864,1.50584755 M17.7948864,23.2850012 C11.6234321,23.2850012 6.6024953,18.189059 6.6024953,11.9252966 C6.6024953,5.66144025 11.6234321,0.565498005 17.7948864,0.565498005 C23.9663406,0.565498005 28.9872774,5.66144025 28.9872774,11.9252966 C28.9872774,18.189059 23.9663406,23.2850012 17.7948864,23.2850012" id="Fill-29" fill="#594383"></path>
                                        <path d="M11.2105503,7.51204816 C11.1155849,7.51204816 11.019693,7.48261522 10.9373279,7.42121039 C10.7308129,7.26783938 10.6859707,6.97360401 10.8371741,6.76418816 C12.4562185,4.5192917 15.0573441,3.17901149 17.7948493,3.17901149 C18.0507463,3.17901149 18.2580952,3.38946172 18.2580952,3.64918627 C18.2580952,3.90891081 18.0507463,4.11936104 17.7948493,4.11936104 C15.3515979,4.11936104 13.0300875,5.31576776 11.5846677,7.31955861 C11.4939641,7.44537737 11.35323,7.51204816 11.2105503,7.51204816" id="Fill-31" fill="#594383"></path>
                                        <path d="M17.7948864,6.55866537 C14.8793094,6.55866537 12.5073979,8.96614827 12.5073979,11.9252402 C12.5073979,14.8844262 14.8793094,17.2920031 17.7948864,17.2920031 C20.7104633,17.2920031 23.0824675,14.8844262 23.0824675,11.9252402 C23.0824675,8.96614827 20.7104633,6.55866537 17.7948864,6.55866537 M17.7948864,18.2323527 C14.3685345,18.2323527 11.5809061,15.403029 11.5809061,11.9252402 C11.5809061,8.44763953 14.3685345,5.61831582 17.7948864,5.61831582 C21.2213309,5.61831582 24.0089593,8.44763953 24.0089593,11.9252402 C24.0089593,15.403029 21.2213309,18.2323527 17.7948864,18.2323527" id="Fill-33" fill="#594383"></path>
                                        <path d="M10.2638796,8.57462434 L10.2649352,8.57462434 L10.2638796,8.57462434 Z M10.7265695,8.57462434 L10.7276252,8.57462434 L10.7265695,8.57462434 Z M10.2638796,9.04536332 C10.0079825,9.04536332 9.80007778,8.83434888 9.80007778,8.57462434 C9.80007778,8.31489979 10.0079825,8.10397939 10.2638796,8.10397939 C10.5197766,8.10397939 10.7276813,8.31489979 10.7276813,8.57462434 C10.7276813,8.83434888 10.5197766,9.04536332 10.2638796,9.04536332 Z" id="Fill-35" fill="#594383"></path>
                                    </g>
                                </g>
                            </g>
                        </g>
                        <g id="horror" transform="translate(0.779981, 0.502466)">
                            <g id="icon">
                                <g id="not-selected" transform="translate(1.286358, 0.425242)">
                                    <path d="M12.1045138,26.0248294 C11.1825885,26.0248294 10.6700014,25.5113067 10.2581117,25.0986516 C9.87258705,24.7124465 9.63385602,24.493957 9.21286613,24.493957 C8.68224878,24.493957 8.42166029,24.7809956 8.11990835,25.1132799 C7.8406092,25.4209002 7.52405883,25.769684 7.00160612,25.769684 C6.26159946,25.769684 6.06607304,25.3246254 6.06607304,25.0892963 L6.06607304,8.84504004 C6.06607304,3.96785094 10.033924,0 14.9111131,0 C19.7883022,0 23.7561531,3.96785094 23.7561531,8.84504004 L23.7561531,25.0892963 C23.7561531,25.3242001 23.5658147,25.5145386 23.3309108,25.5145386 C23.096007,25.5145386 22.9056685,25.3242001 22.9056685,25.0892963 L22.9056685,8.84504004 C22.9056685,4.43680816 19.319345,0.850484619 14.9111131,0.850484619 C10.5028812,0.850484619 6.91655766,4.43680816 6.91655766,8.84504004 L6.91655766,24.9152871 C6.93935065,24.9175834 6.96750169,24.9191993 7.00160612,24.9191993 C7.14040521,24.9191993 7.27767343,24.7756375 7.49029459,24.5416692 C7.83440066,24.1626082 8.30573924,23.6434724 9.21286613,23.6434724 C10.0071337,23.6434724 10.4602719,24.0973761 10.8599997,24.4977842 C11.2373597,24.8757396 11.5353695,25.1743447 12.1045138,25.1743447 C13.0487219,25.1743447 13.7851565,24.0979714 13.7924707,24.0870852 C13.9235303,23.8928345 14.1873507,23.8405297 14.3821117,23.9711641 C14.5768726,24.1016285 14.6295176,24.3645983 14.4994785,24.5596995 C14.4595908,24.6195736 13.5066228,26.0248294 12.1045138,26.0248294" id="Fill-8" fill="#F26668"></path>
                                    <g id="Group-12" transform="translate(17.264838, 23.643472)">
                                        <mask id="mask-4" fill="white">
                                            <use xlink:href="#path-3"></use>
                                        </mask>
                                        <g id="Clip-11"></g>
                                        <path d="M5.64083924,1.44524552 L5.64083924,1.44594552 L5.64083924,1.44524552 Z M0.45288306,2.38137394 C0.217979208,2.38137394 0.0276407501,2.19103549 0.0276407501,1.95613163 C0.0276407501,1.72122778 0.217979208,1.53088932 0.45288306,1.53088932 C1.02202737,1.53088932 1.32003718,1.23228417 1.6973972,0.85432881 C2.09712497,0.453920651 2.55026318,1.70096924e-05 3.34453077,1.70096924e-05 C4.25165766,1.70096924e-05 4.72299624,0.519067773 5.06710231,0.898128768 C5.27972347,1.13218214 5.41699169,1.27574394 5.55579078,1.27574394 C5.61336858,1.27574394 5.65359651,1.27123637 5.68047182,1.26638861 C5.7481704,1.12121088 5.89530424,1.02059855 6.06608155,1.02059855 C6.3009854,1.02059855 6.49132386,1.21093701 6.49132386,1.44584086 C6.49132386,1.68108491 6.29579744,2.12622856 5.55579078,2.12622856 C5.03333807,2.12622856 4.7167877,1.77744482 4.43748855,1.46982453 C4.13573661,1.13754019 3.87514812,0.850501629 3.34453077,0.850501629 C2.92354088,0.850501629 2.68480985,1.06899113 2.29928517,1.45519619 C1.88739547,1.86785133 1.37480839,2.38137394 0.45288306,2.38137394 Z" id="Fill-10" fill="#F26668" mask="url(#mask-4)"></path>
                                    </g>
                                    <path d="M6.49098366,18.7957951 C6.42694217,18.7957951 6.3618801,18.7812518 6.30073025,18.7506344 L1.69025313,16.4393574 C1.00238117,16.0988234 0.486137008,15.506801 0.238220742,14.773173 C-0.00952542774,14.039545 0.0420989887,13.2556533 0.383483515,12.5659103 C0.725038138,11.8761672 1.31706048,11.359838 2.05068851,11.1120068 C2.7842315,10.8641756 3.56812317,10.9159701 4.25795125,11.2572696 L6.69705609,12.4647876 C6.90746598,12.568972 6.99362007,12.8240323 6.88952076,13.0346123 C6.78516629,13.2450222 6.53027605,13.3309212 6.31961101,13.2269919 L3.88059122,12.0195589 C3.39453926,11.7788718 2.84129902,11.7427262 2.32284359,11.917841 C1.80438817,12.0928707 1.38637498,12.4571333 1.14577288,12.9432703 C0.905085732,13.4294073 0.868940136,13.9826475 1.04405492,14.5010179 C1.2191697,15.0194733 1.58334722,15.4374865 2.06948422,15.6780886 L6.68191746,17.9903012 C6.89181706,18.0955911 6.97669543,18.3510767 6.87149048,18.5610614 C6.79690298,18.7098111 6.64679245,18.7957951 6.49098366,18.7957951" id="Fill-13" fill="#F26668"></path>
                                    <g id="Group-17" transform="translate(22.963085, 10.886203)">
                                        <mask id="mask-6" fill="white">
                                            <use xlink:href="#path-5"></use>
                                        </mask>
                                        <g id="Clip-16"></g>
                                        <path d="M0.527462056,7.90959201 C0.371653274,7.90959201 0.221542739,7.82360801 0.146955237,7.67485825 C0.04175029,7.4648736 0.126628655,7.20938802 0.336528259,7.10409803 L4.94700538,4.79290607 C5.95763625,4.29256597 6.37199236,3.06574191 5.87267284,2.0571522 C5.37343837,1.04839239 4.14669935,0.634036284 3.1376844,1.1333558 L0.698834707,2.34070377 C0.488339764,2.44505823 0.233194378,2.35881909 0.129010012,2.1484092 C0.024825646,1.93782921 0.110979738,1.68276887 0.321389633,1.57866955 L2.76040942,0.371066439 C4.18973388,-0.335856376 5.92744405,0.250892963 6.63487716,1.67970712 C7.34231026,3.10869138 6.75522073,4.8466567 5.32632152,5.55417486 L0.717715465,7.86443128 C0.656565621,7.89504872 0.591503548,7.90959201 0.527462056,7.90959201" id="Fill-15" fill="#F26668" mask="url(#mask-6)"></path>
                                    </g>
                                    <path d="M11.5091746,8.33474927 C10.7588771,8.33474927 10.1483992,8.94522713 10.1483992,9.69552466 C10.1483992,10.4458222 10.7588771,11.0563001 11.5091746,11.0563001 C12.2594721,11.0563001 12.86995,10.4458222 12.86995,9.69552466 C12.86995,8.94522713 12.2594721,8.33474927 11.5091746,8.33474927 M11.5091746,11.9067847 C10.2898348,11.9067847 9.2979146,10.9148645 9.2979146,9.69552466 C9.2979146,8.47618486 10.2898348,7.48426465 11.5091746,7.48426465 C12.7285144,7.48426465 13.7204346,8.47618486 13.7204346,9.69552466 C13.7204346,10.9148645 12.7285144,11.9067847 11.5091746,11.9067847" id="Fill-18" fill="#F26668"></path>
                                    <path d="M18.1429546,8.33474927 C17.3926571,8.33474927 16.7821792,8.94522713 16.7821792,9.69552466 C16.7821792,10.4458222 17.3926571,11.0563001 18.1429546,11.0563001 C18.8932522,11.0563001 19.50373,10.4458222 19.50373,9.69552466 C19.50373,8.94522713 18.8932522,8.33474927 18.1429546,8.33474927 M18.1429546,11.9067847 C16.9236148,11.9067847 15.9316946,10.9148645 15.9316946,9.69552466 C15.9316946,8.47618486 16.9236148,7.48426465 18.1429546,7.48426465 C19.3622944,7.48426465 20.3542146,8.47618486 20.3542146,9.69552466 C20.3542146,10.9148645 19.3622944,11.9067847 18.1429546,11.9067847" id="Fill-20" fill="#F26668"></path>
                                </g>
                            </g>
                        </g>
                        <g id="scenic" transform="translate(150.896703, 2.394794)" fill="#22BFB3">
                            <g id="icon" transform="translate(0.946164, 0.000000)">
                                <g id="not-selected" transform="translate(0.413186, 0.472602)">
                                    <path d="M34.0491196,11.3241138 L9.97287268,11.3241138 C9.74471154,11.3241138 9.559687,11.1391719 9.559687,10.9109281 C9.559687,10.6826844 9.74471154,10.4977424 9.97287268,10.4977424 L34.0491196,10.4977424 C34.2773633,10.4977424 34.4623053,10.6826844 34.4623053,10.9109281 C34.4623053,11.1391719 34.2773633,11.3241138 34.0491196,11.3241138" id="Fill-15"></path>
                                    <path d="M7.43867269,11.3241138 L0.413193943,11.3241138 C0.185032811,11.3241138 8.26371359e-06,11.1391719 8.26371359e-06,10.9109281 C8.26371359e-06,10.6826844 0.185032811,10.4977424 0.413193943,10.4977424 L7.43867269,10.4977424 C7.66691646,10.4977424 7.85185837,10.6826844 7.85185837,10.9109281 C7.85185837,11.1391719 7.66691646,11.3241138 7.43867269,11.3241138" id="Fill-17"></path>
                                    <path d="M25.4369417,11.4314429 C25.3375292,11.4314429 25.2378689,11.3958263 25.1586198,11.3236015 L16.3642932,3.30573335 C16.2590961,3.20970899 16.0744848,3.20979163 15.9692877,3.30573335 L11.9026316,7.01341372 C11.7447947,7.15720234 11.5035769,7.15720234 11.3458226,7.01341372 L9.5672235,5.3918252 C9.46194379,5.29580085 9.27733243,5.29596613 9.17221799,5.3918252 L2.91840483,11.0935397 C2.74982507,11.2470795 2.48860908,11.235345 2.3346561,11.0666 C2.18086839,10.8979376 2.19301605,10.6366389 2.36159581,10.4828512 L8.61549161,4.78105413 C9.03851111,4.39563453 9.70101303,4.39555189 10.1239499,4.78113677 L11.6242271,6.14894664 L15.4124787,2.69496227 C15.8356634,2.30954267 16.4981654,2.30946004 16.9210196,2.69504491 L25.7154289,10.712913 C25.8840086,10.8667007 25.8961563,11.1279994 25.7423686,11.2966617 C25.6608057,11.3859925 25.5489977,11.4314429 25.4369417,11.4314429" id="Fill-19"></path>
                                    <path d="M32.2201284,11.3241138 C32.1207159,11.3241138 32.0210555,11.2884972 31.9418065,11.2162723 L25.6879107,5.51455788 C25.5829615,5.41861616 25.3981849,5.41853353 25.2930705,5.51447524 L22.3702776,8.17910969 C22.2019458,8.33273212 21.9404819,8.32099765 21.7865289,8.15208734 C21.6328238,7.98350759 21.6448888,7.72212633 21.8135512,7.56842125 L24.7362614,4.90386944 C25.159033,4.51828457 25.8217829,4.51828457 26.2446371,4.90386944 L32.4986155,10.6055839 C32.6671953,10.7593716 32.6793429,11.0206702 32.5255552,11.18925 C32.4439924,11.2786634 32.3321843,11.3241138 32.2201284,11.3241138" id="Fill-21"></path>
                                    <path d="M28.7016705,3.48851016 L28.7026705,3.48851016 L28.7016705,3.48851016 Z M29.7895884,3.09705805 C29.4556517,3.09705805 29.1676613,3.29984958 29.1047745,3.57924574 C29.0648607,3.75683294 28.9133042,3.88739962 28.7316678,3.90053892 C28.5755662,3.91194285 28.4384712,4.0326757 28.4384712,4.15886261 C28.4384712,4.30314705 28.579946,4.41619465 28.7606734,4.41619465 L30.6722357,4.41619465 C30.9266754,4.41619465 31.1415319,4.2369547 31.1415319,4.0246599 C31.1415319,3.82558704 30.9609698,3.65973431 30.7121494,3.63039813 C30.5795994,3.61469707 30.4627505,3.53594388 30.3984588,3.41901233 C30.2893778,3.22043529 30.0560932,3.09705805 29.7895884,3.09705805 Z M30.6722357,5.24256601 L28.7606734,5.24256601 C28.1165996,5.24256601 27.6120999,4.76657611 27.6120999,4.15886261 C27.6120999,3.68907049 27.9355416,3.28042986 28.3872362,3.13234411 C28.6212646,2.61379608 29.1627031,2.27068669 29.7895884,2.27068669 C30.2826016,2.27068669 30.7325608,2.48736126 31.0091473,2.84724599 C31.575129,2.99475328 31.9679033,3.4638843 31.9679033,4.0246599 C31.9679033,4.69616927 31.3866337,5.24256601 30.6722357,5.24256601 Z" id="Fill-23"></path>
                                    <path d="M9.57973477,2.33014411 L9.58073477,2.33014411 L9.57973477,2.33014411 Z M10.6676527,1.938692 C10.333716,1.938692 10.0457256,2.14148353 9.98283872,2.42087969 C9.94292498,2.59846689 9.79136847,2.72903357 9.60973205,2.74217287 C9.4536305,2.7535768 9.31653549,2.87430965 9.31653549,3.00049656 C9.31653549,3.144781 9.45801027,3.2578286 9.63873768,3.2578286 L11.5502999,3.2578286 C11.8047396,3.2578286 12.0195962,3.07858865 12.0195962,2.86629385 C12.0195962,2.66713835 11.8390341,2.50128562 11.5902963,2.47203207 C11.4577463,2.45633102 11.3408148,2.37757783 11.2765231,2.26064628 C11.1674421,2.06206924 10.9341574,1.938692 10.6676527,1.938692 Z M11.5502999,4.08419996 L9.63873768,4.08419996 C8.99466384,4.08419996 8.49016413,3.60821005 8.49016413,3.00049656 C8.49016413,2.53070444 8.81360588,2.1220638 9.26530046,1.97397806 C9.49932883,1.45543003 10.0407673,1.11232064 10.6676527,1.11232064 C11.1606658,1.11232064 11.610625,1.32899521 11.8871289,1.6887973 C12.4531933,1.83622195 12.8459676,2.30543561 12.8459676,2.86629385 C12.8459676,3.53780321 12.2646979,4.08419996 11.5502999,4.08419996 Z" id="Fill-25"></path>
                                    <path d="M21.8893543,0.849534548 C21.464682,0.849534548 21.0902532,1.05092125 20.9121701,1.37485882 C20.8477958,1.491873 20.7309469,1.5706262 20.5984796,1.58624461 C20.1752122,1.63615744 19.8679673,1.93034565 19.8679673,2.28568533 C19.8679673,2.66978274 20.2286784,2.98231639 20.6721092,2.98231639 L23.3084818,2.98231639 C23.645476,2.98231639 23.909419,2.75762601 23.909419,2.47079252 C23.909419,2.21478267 23.6577063,1.9800932 23.3597995,1.958277 C23.1782457,1.94505506 23.0266892,1.81457102 22.9866928,1.63698382 C22.8839748,1.18074419 22.4224464,0.849534548 21.8893543,0.849534548 M23.3084818,3.80868775 L20.6721092,3.80868775 C19.7730172,3.80868775 19.0415959,3.12544391 19.0415959,2.28568533 C19.0415959,1.56839499 19.5594829,0.970680589 20.2993331,0.800530726 C20.6478966,0.316525022 21.2388347,0.0231631892 21.8893543,0.0231631892 C22.7020079,0.0231631892 23.423678,0.497087163 23.7067928,1.18347121 C24.302276,1.34717538 24.7357904,1.86828516 24.7357904,2.47079252 C24.7357904,3.22097244 24.1088225,3.80868775 23.3084818,3.80868775" id="Fill-27"></path>
                                    <path d="M8.08249861,25.8654235 C7.9344955,25.8654235 7.79145062,25.7856787 7.71715983,25.645774 C7.61022738,25.4441394 7.68699728,25.1940794 7.88854925,25.087147 C8.04192378,25.005832 8.21761033,24.9198068 8.40362652,24.828658 C9.37651352,24.3522549 10.8467934,23.6324028 10.8467934,22.6298491 C10.8467934,22.0890717 10.3676633,21.7061312 9.58591602,21.1261838 C8.69500506,20.465252 7.58617997,19.6426819 7.41718703,18.1355458 C7.19861181,16.1860532 9.26949843,14.4888517 13.572662,13.0910445 C16.8935179,12.0122993 20.7555645,11.3645068 22.4047538,11.088003 L22.7373683,11.031975 C23.8660263,10.8405048 24.3312734,10.7501824 24.5213388,10.7094423 C24.5692683,10.6807672 24.6253789,10.6606037 24.6891748,10.6520921 C24.7304934,10.6467207 24.768837,10.6453158 24.804371,10.6471339 C24.8551928,10.6432499 24.9413833,10.6359778 25.0838498,10.6222601 C26.3674524,10.4992134 28.3376043,10.4977259 28.4209026,10.4977259 C28.6297266,10.4977259 28.8055784,10.6534143 28.8310307,10.8606682 C28.8564829,11.0678395 28.7232719,11.2613757 28.5207282,11.311867 C20.1904091,13.3866376 17.9957321,15.1661456 17.9991202,15.817161 C18.0019299,16.3592606 19.1900866,16.8493815 20.3390733,17.3234707 C20.9139799,17.5606393 21.5086367,17.8059889 22.0772628,18.0962932 C22.2804676,18.2000854 22.3610388,18.4490711 22.2572465,18.6522758 C22.153289,18.8554806 21.9044686,18.9360518 21.7013465,18.8323422 C21.1624698,18.5571605 20.5836793,18.3182565 20.0238953,18.0873684 C18.4970916,17.4574255 17.1784508,16.9134252 17.1727488,15.8215408 C17.1643198,14.2053237 20.9260449,12.6601745 24.5763751,11.5419288 C24.5604261,11.5451516 24.5439813,11.5483745 24.5268755,11.5517626 C24.1889722,11.6189466 23.6334027,11.7181938 22.8755376,11.8466945 L22.5415183,11.9028878 C20.9103438,12.1764993 17.0906075,12.817185 13.8278455,13.8770063 C11.1619715,14.7430435 8.02820601,16.1688646 8.23843489,18.0434054 C8.36734882,19.1933012 9.23718731,19.8384493 10.0782681,20.4625249 C10.8624119,21.0442077 11.6731648,21.6457235 11.6731648,22.6298491 C11.6731648,24.1478107 9.92423246,25.0041793 8.76698201,25.5709048 C8.5871636,25.6589133 8.41734429,25.7420463 8.27578687,25.8171634 C8.21413957,25.8499704 8.14786459,25.8654235 8.08249861,25.8654235" id="Fill-29"></path>
                                    <path d="M21.9060635,25.8653409 C21.8026844,25.8653409 21.6991401,25.8267493 21.6188994,25.7492357 C21.4548647,25.5905724 21.450485,25.3290259 21.6090656,25.1649085 C23.3808058,23.3328432 24.0921463,21.9186739 23.7839924,20.8414162 C23.6773905,20.4692186 23.4666658,20.1314806 23.1397533,19.8087826 C22.9772887,19.6485492 22.9755533,19.38692 23.1358693,19.224538 C23.2960201,19.0620734 23.5578146,19.060338 23.7201139,19.2206541 C24.145034,19.6398723 24.4337682,20.1087554 24.5783832,20.6140815 C24.9804129,22.0193259 24.2256879,23.647856 22.2032266,25.7394019 C22.122077,25.8231959 22.0142355,25.8653409 21.9060635,25.8653409" id="Fill-31"></path>
                                </g>
                            </g>
                        </g>
                    </g>
                </g>
            </g>
        </g>
    </g>
</svg>