<?xml version="1.0" encoding="UTF-8"?>
<svg width="509px" height="37px" viewBox="0 0 509 37" version="1.1" xmlns="http://www.w3.org/2000/svg" xmlns:xlink="http://www.w3.org/1999/xlink">
    <!-- Generator: Sketch 48.2 (47327) - http://www.bohemiancoding.com/sketch -->
    <title>genre-btns</title>
    <desc>Created with Sketch.</desc>
    <defs>
        <polygon id="path-1" points="0.0388586086 27.2701368 4.97217245 27.2701368 4.97217245 0.0319868337 0.0388586086 0.0319868337 0.0388586086 27.2701368"></polygon>
        <polygon id="path-3" points="0.0323455587 1.99049592e-05 7.59623005 1.99049592e-05 7.59623005 2.78669428 0.0323455587 2.78669428"></polygon>
        <polygon id="path-5" points="0.0992088137 0.0835576755 8.11515233 0.0835576755 8.11515233 9.25590554 0.0992088137 9.25590554"></polygon>
    </defs>
    <g id="Tablet---768" stroke="none" stroke-width="1" fill="none" fill-rule="evenodd" transform="translate(-130.000000, -658.000000)">
        <g id="intro" transform="translate(94.000000, 590.000000)">
            <g id="genre-btns" transform="translate(35.000000, 68.000000)">
                <g id="architecture" transform="translate(0.000000, 0.459502)" fill="#F4BD34">
                    <g id="icon">
                        <g id="not-selected" transform="translate(1.104205, 0.000000)">
                            <path d="M7.74686029,8.64260404 L2.97816488,8.64260404 C1.3528971,8.64260404 0.0306723745,7.32037932 0.0306723745,5.69511154 C0.0306723745,4.29326134 0.989000044,3.12488925 2.35109885,2.80920917 C2.97706067,1.80438218 4.08445608,1.19228427 5.31233258,1.19228427 C6.84754627,1.19228427 8.20179295,2.184965 8.67954585,3.6055867 C9.54217571,3.84029171 10.2611362,4.5402353 10.5030799,5.42617616 C10.5922751,5.75302099 10.3997753,6.09029442 10.0729305,6.17948968 C9.74608566,6.26880764 9.40868954,6.07630781 9.31949427,5.7493403 C9.17091729,5.20533507 8.68617108,4.79493869 8.1404482,4.75126123 C7.86844558,4.72954519 7.64343304,4.53054283 7.58846815,4.26320241 C7.36909932,3.19469957 6.41187586,2.41917925 5.31233258,2.41917925 C4.44258673,2.41917925 3.66878406,2.88539935 3.29274075,3.63576832 C3.20145976,3.81808491 3.02540033,3.94310551 2.82308535,3.96936106 C1.9159192,4.08677491 1.25756736,4.81248329 1.25756736,5.69511154 C1.25756736,6.64374674 2.02940699,7.41570906 2.97816488,7.41570906 L7.74686029,7.41570906 C8.08560599,7.41570906 8.36030778,7.69041085 8.36030778,8.02915655 C8.36030778,8.36790226 8.08560599,8.64260404 7.74686029,8.64260404" id="Fill-14"></path>
                            <path d="M26.0234118,9.6957707 L26.0247319,9.6957707 L26.0234118,9.6957707 Z M28.0068102,8.70014542 C27.3388886,8.70014542 26.7574631,9.17078233 26.6242223,9.81919633 C26.5693801,10.0865367 26.3443675,10.2855391 26.0722422,10.3072552 C25.7099401,10.3362099 25.4038298,10.670048 25.4038298,11.0362762 C25.4038298,11.450844 25.7164427,11.7634568 26.1310105,11.7634568 L29.615883,11.7634568 C30.1649185,11.7634568 30.6113856,11.316867 30.6113856,10.7678315 C30.6113856,10.2565844 30.2274901,9.83575941 29.6983303,9.76717598 C29.4960153,9.74104312 29.3199559,9.61602252 29.2285522,9.43358324 C29.0019447,8.98122706 28.5337616,8.70014542 28.0068102,8.70014542 Z M29.615883,12.9903518 L26.1310105,12.9903518 C25.0352706,12.9903518 24.1769348,12.1320161 24.1769348,11.0362762 C24.1769348,10.173769 24.7482998,9.42450422 25.5395244,9.17029158 C25.922193,8.16632341 26.9013778,7.47325044 28.0068102,7.47325044 C28.8928738,7.47325044 29.6947723,7.90254099 30.1673723,8.61180898 C31.1523236,8.87424182 31.8382805,9.73723975 31.8382805,10.7678315 C31.8382805,11.9933769 30.8414284,12.9903518 29.615883,12.9903518 Z" id="Fill-16"></path>
                            <path d="M24.2791597,35.8253334 C23.9402913,35.8253334 23.6657122,35.5507543 23.6657122,35.2118859 L23.6657122,15.406611 L20.1277152,15.406611 C19.7888468,15.406611 19.5142677,15.1319092 19.5142677,14.7931635 C19.5142677,14.4544178 19.7888468,14.1797161 20.1277152,14.1797161 L24.2791597,14.1797161 C24.6180281,14.1797161 24.8926072,14.4544178 24.8926072,14.7931635 L24.8926072,35.2118859 C24.8926072,35.5507543 24.6180281,35.8253334 24.2791597,35.8253334" id="Fill-18"></path>
                            <path d="M3.30393003,35.8253334 C2.96518433,35.8253334 2.69048254,35.5507543 2.69048254,35.2118859 L2.69048254,14.7931635 C2.69048254,14.4544178 2.96518433,14.1797161 3.30393003,14.1797161 L16.6978198,14.1797161 C17.0366882,14.1797161 17.3112673,14.4544178 17.3112673,14.7931635 C17.3112673,15.1319092 17.0366882,15.406611 16.6978198,15.406611 L3.91737752,15.406611 L3.91737752,35.2118859 C3.91737752,35.5507543 3.64267574,35.8253334 3.30393003,35.8253334" id="Fill-20"></path>
                            <path d="M7.8406196,11.4681186 C7.5018739,11.4681186 7.22717211,11.1934169 7.22717211,10.8546712 L7.22717211,6.56679589 C7.22717211,6.32399337 7.37035076,6.1040111 7.59254144,6.00573681 L13.5433502,3.3738017 C13.7014969,3.30399138 13.8816051,3.30399138 14.0396292,3.3738017 L19.9905606,6.00573681 C20.2125059,6.1040111 20.3558072,6.32399337 20.3558072,6.56679589 L20.3558072,9.07481461 C20.3558072,9.41356031 20.0812281,9.6882621 19.7423597,9.6882621 C19.403614,9.6882621 19.1289123,9.41356031 19.1289123,9.07481461 L19.1289123,6.96627289 L13.791551,4.60560426 L8.45406709,6.96627289 L8.45406709,10.8546712 C8.45406709,11.1934169 8.17936531,11.4681186 7.8406196,11.4681186" id="Fill-22"></path>
                            <path d="M13.7915387,4.28580182 C13.452793,4.28580182 13.1780913,4.01110003 13.1780913,3.67235433 L13.1780913,0.613459759 C13.1780913,0.274714055 13.452793,1.22689498e-05 13.7915387,1.22689498e-05 C14.1302845,1.22689498e-05 14.4049862,0.274714055 14.4049862,0.613459759 L14.4049862,3.67235433 C14.4049862,4.01110003 14.1302845,4.28580182 13.7915387,4.28580182" id="Fill-24"></path>
                            <path d="M11.825096,20.6610832 C11.4863503,20.6610832 11.2116485,20.3865041 11.2116485,20.0476358 L11.2116485,18.2525657 C11.2116485,17.9136973 11.4863503,17.6391182 11.825096,17.6391182 C12.1638417,17.6391182 12.4385435,17.9136973 12.4385435,18.2525657 L12.4385435,20.0476358 C12.4385435,20.3865041 12.1638417,20.6610832 11.825096,20.6610832" id="Fill-26"></path>
                            <path d="M7.45530096,20.6610832 C7.11655526,20.6610832 6.84185347,20.3865041 6.84185347,20.0476358 L6.84185347,18.2525657 C6.84185347,17.9136973 7.11655526,17.6391182 7.45530096,17.6391182 C7.79404667,17.6391182 8.06874845,17.9136973 8.06874845,18.2525657 L8.06874845,20.0476358 C8.06874845,20.3865041 7.79404667,20.6610832 7.45530096,20.6610832" id="Fill-28"></path>
                            <path d="M20.346262,20.6610832 C20.0073936,20.6610832 19.7328145,20.3865041 19.7328145,20.0476358 L19.7328145,18.2525657 C19.7328145,17.9136973 20.0073936,17.6391182 20.346262,17.6391182 C20.6851304,17.6391182 20.9597095,17.9136973 20.9597095,18.2525657 L20.9597095,20.0476358 C20.9597095,20.3865041 20.6851304,20.6610832 20.346262,20.6610832" id="Fill-30"></path>
                            <path d="M15.9764056,20.6610832 C15.6375372,20.6610832 15.3629581,20.3865041 15.3629581,20.0476358 L15.3629581,18.2525657 C15.3629581,17.9136973 15.6375372,17.6391182 15.9764056,17.6391182 C16.315274,17.6391182 16.5898531,17.9136973 16.5898531,18.2525657 L16.5898531,20.0476358 C16.5898531,20.3865041 16.315274,20.6610832 15.9764056,20.6610832" id="Fill-32"></path>
                            <path d="M11.825096,25.3937325 C11.4863503,25.3937325 11.2116485,25.1191534 11.2116485,24.780285 L11.2116485,22.9850923 C11.2116485,22.6462239 11.4863503,22.3716448 11.825096,22.3716448 C12.1638417,22.3716448 12.4385435,22.6462239 12.4385435,22.9850923 L12.4385435,24.780285 C12.4385435,25.1191534 12.1638417,25.3937325 11.825096,25.3937325" id="Fill-34"></path>
                            <path d="M7.45530096,25.3937325 C7.11655526,25.3937325 6.84185347,25.1191534 6.84185347,24.780285 L6.84185347,22.9850923 C6.84185347,22.6462239 7.11655526,22.3716448 7.45530096,22.3716448 C7.79404667,22.3716448 8.06874845,22.6462239 8.06874845,22.9850923 L8.06874845,24.780285 C8.06874845,25.1191534 7.79404667,25.3937325 7.45530096,25.3937325" id="Fill-36"></path>
                            <path d="M20.346262,25.3937325 C20.0073936,25.3937325 19.7328145,25.1191534 19.7328145,24.780285 L19.7328145,22.9850923 C19.7328145,22.6462239 20.0073936,22.3716448 20.346262,22.3716448 C20.6851304,22.3716448 20.9597095,22.6462239 20.9597095,22.9850923 L20.9597095,24.780285 C20.9597095,25.1191534 20.6851304,25.3937325 20.346262,25.3937325" id="Fill-38"></path>
                            <path d="M15.9764056,25.3937325 C15.6375372,25.3937325 15.3629581,25.1191534 15.3629581,24.780285 L15.3629581,22.9850923 C15.3629581,22.6462239 15.6375372,22.3716448 15.9764056,22.3716448 C16.315274,22.3716448 16.5898531,22.6462239 16.5898531,22.9850923 L16.5898531,24.780285 C16.5898531,25.1191534 16.315274,25.3937325 15.9764056,25.3937325" id="Fill-40"></path>
                            <path d="M11.825096,30.289571 C11.4863503,30.289571 11.2116485,30.0149919 11.2116485,29.6761235 L11.2116485,27.8809308 C11.2116485,27.5420624 11.4863503,27.2674833 11.825096,27.2674833 C12.1638417,27.2674833 12.4385435,27.5420624 12.4385435,27.8809308 L12.4385435,29.6761235 C12.4385435,30.0149919 12.1638417,30.289571 11.825096,30.289571" id="Fill-42"></path>
                            <path d="M7.45530096,30.289571 C7.11655526,30.289571 6.84185347,30.0149919 6.84185347,29.6761235 L6.84185347,27.8809308 C6.84185347,27.5420624 7.11655526,27.2674833 7.45530096,27.2674833 C7.79404667,27.2674833 8.06874845,27.5420624 8.06874845,27.8809308 L8.06874845,29.6761235 C8.06874845,30.0149919 7.79404667,30.289571 7.45530096,30.289571" id="Fill-44"></path>
                            <path d="M20.346262,30.289571 C20.0073936,30.289571 19.7328145,30.0149919 19.7328145,29.6761235 L19.7328145,27.8809308 C19.7328145,27.5420624 20.0073936,27.2674833 20.346262,27.2674833 C20.6851304,27.2674833 20.9597095,27.5420624 20.9597095,27.8809308 L20.9597095,29.6761235 C20.9597095,30.0149919 20.6851304,30.289571 20.346262,30.289571" id="Fill-46"></path>
                            <path d="M15.9764056,30.289571 C15.6375372,30.289571 15.3629581,30.0149919 15.3629581,29.6761235 L15.3629581,27.8809308 C15.3629581,27.5420624 15.6375372,27.2674833 15.9764056,27.2674833 C16.315274,27.2674833 16.5898531,27.5420624 16.5898531,27.8809308 L16.5898531,29.6761235 C16.5898531,30.0149919 16.315274,30.289571 15.9764056,30.289571" id="Fill-48"></path>
                            <path d="M11.825096,35.054095 C11.4863503,35.054095 11.2116485,34.7795159 11.2116485,34.4406475 L11.2116485,32.6454548 C11.2116485,32.3065864 11.4863503,32.0320073 11.825096,32.0320073 C12.1638417,32.0320073 12.4385435,32.3065864 12.4385435,32.6454548 L12.4385435,34.4406475 C12.4385435,34.7795159 12.1638417,35.054095 11.825096,35.054095" id="Fill-50"></path>
                            <path d="M7.45530096,35.054095 C7.11655526,35.054095 6.84185347,34.7795159 6.84185347,34.4406475 L6.84185347,32.6454548 C6.84185347,32.3065864 7.11655526,32.0320073 7.45530096,32.0320073 C7.79404667,32.0320073 8.06874845,32.3065864 8.06874845,32.6454548 L8.06874845,34.4406475 C8.06874845,34.7795159 7.79404667,35.054095 7.45530096,35.054095" id="Fill-52"></path>
                            <path d="M20.346262,35.054095 C20.0073936,35.054095 19.7328145,34.7795159 19.7328145,34.4406475 L19.7328145,32.6454548 C19.7328145,32.3065864 20.0073936,32.0320073 20.346262,32.0320073 C20.6851304,32.0320073 20.9597095,32.3065864 20.9597095,32.6454548 L20.9597095,34.4406475 C20.9597095,34.7795159 20.6851304,35.054095 20.346262,35.054095" id="Fill-54"></path>
                            <path d="M15.9764056,35.054095 C15.6375372,35.054095 15.3629581,34.7795159 15.3629581,34.4406475 L15.3629581,32.6454548 C15.3629581,32.3065864 15.6375372,32.0320073 15.9764056,32.0320073 C16.315274,32.0320073 16.5898531,32.3065864 16.5898531,32.6454548 L16.5898531,34.4406475 C16.5898531,34.7795159 16.315274,35.054095 15.9764056,35.054095" id="Fill-56"></path>
                            <path d="M21.956807,14.9278643 C21.6179386,14.9278643 21.3433595,14.6531626 21.3433595,14.3144169 L21.3433595,11.8083612 L6.23979157,11.8083612 L6.23979157,14.3144169 C6.23979157,14.6531626 5.96508978,14.9278643 5.62634408,14.9278643 C5.28747568,14.9278643 5.01289659,14.6531626 5.01289659,14.3144169 L5.01289659,11.1949137 C5.01289659,10.8560453 5.28747568,10.5814662 5.62634408,10.5814662 L21.956807,10.5814662 C22.2956754,10.5814662 22.5702545,10.8560453 22.5702545,11.1949137 L22.5702545,14.3144169 C22.5702545,14.6531626 22.2956754,14.9278643 21.956807,14.9278643" id="Fill-58"></path>
                        </g>
                    </g>
                </g>
                <g id="art" transform="translate(55.325588, 5.995569)" fill="#594383">
                    <g id="icon">
                        <g id="not-selected" transform="translate(0.931978, 0.874195)">
                            <path d="M8.53183916,22.6979629 C10.3001509,22.6979629 11.7194369,23.0893937 13.092124,23.4680098 C14.4723834,23.8488393 15.8998242,24.2426 17.7259186,24.2426 C19.552013,24.2426 20.9794538,23.8488393 22.3597132,23.4680098 C23.7322838,23.0893937 25.1516863,22.6979629 26.919998,22.6979629 C29.3299766,22.6979629 32.2912202,23.5956908 34.0601144,24.220582 C33.5949409,22.9909535 32.954672,21.001064 32.954672,19.3674231 C32.954672,18.0930597 33.1793952,17.0718448 33.3968956,16.0842976 C33.6140465,15.0984979 33.8384202,14.0791469 33.8384202,12.7769407 C33.8384202,11.4748509 33.6140465,10.4553835 33.3968956,9.46958377 C33.1793952,8.48203659 32.954672,7.4609382 32.954672,6.18657478 C32.954672,4.55293385 33.5949409,2.56316083 34.0601144,1.33329937 C32.2911037,1.95830711 29.3299766,2.85603492 26.919998,2.85603492 C25.1516863,2.85603492 23.7322838,2.46448766 22.3597132,2.0858716 C20.9794538,1.70504209 19.552013,1.31128139 17.7259186,1.31128139 C15.8998242,1.31128139 14.4723834,1.70504209 13.092124,2.0858716 C11.7194369,2.46448766 10.3001509,2.85603492 8.53183916,2.85603492 C6.12151107,2.85603492 3.16050048,1.95819062 1.39172274,1.33329937 C1.85689626,2.56281134 2.49716514,4.55223487 2.49716514,6.18657478 C2.49716514,7.4609382 2.27244195,8.48203659 2.05482509,9.46958377 C1.83779071,10.4553835 1.61330051,11.4748509 1.61330051,12.7769407 C1.61330051,14.0791469 1.83779071,15.0984979 2.05482509,16.0842976 C2.27244195,17.0718448 2.49716514,18.0930597 2.49716514,19.3674231 C2.49716514,21.001064 1.85689626,22.9909535 1.39172274,24.220582 C3.16050048,23.5958072 6.12151107,22.6979629 8.53183916,22.6979629 M34.3788509,25.512886 C34.2674795,25.512886 34.1548267,25.4933144 34.0449698,25.4530064 C32.7374047,24.9750182 29.4256209,23.8629354 26.919998,23.8629354 C25.3094235,23.8629354 24.0271383,24.2166211 22.6694794,24.5911597 C21.2143122,24.9924928 19.7096338,25.4075725 17.7259186,25.4075725 C15.7422034,25.4075725 14.2375249,24.9924928 12.7822413,24.5911597 C11.4246989,24.2166211 10.1424136,23.8629354 8.53183916,23.8629354 C6.02609982,23.8629354 2.71431601,24.9750182 1.40686738,25.4531229 C1.0463084,25.5849978 0.654295152,25.4949454 0.384604019,25.2180314 C0.109204522,24.9351761 0.025792491,24.5136891 0.172113036,24.1442763 C0.605366307,23.0501341 1.33219265,20.9748521 1.33219265,19.3674231 C1.33219265,18.2198087 1.13065241,17.3041403 0.917229444,16.3348832 C0.686681387,15.2881554 0.448328015,14.2057794 0.448328015,12.7769407 C0.448328015,11.3481019 0.686681387,10.265726 0.917229444,9.21899819 C1.13065241,8.24974107 1.33219265,7.33418919 1.33219265,6.18657478 C1.33219265,4.57833025 0.605366307,2.50339774 0.172113036,1.40972157 C0.025792491,1.04019229 0.109204522,0.618821739 0.384604019,0.335966418 C0.654295152,0.0589359585 1.0463084,-0.0311164153 1.40686738,0.100874968 C2.71431601,0.57897968 6.02609982,1.69106242 8.53183916,1.69106242 C10.1424136,1.69106242 11.4246989,1.33737677 12.7822413,0.962838117 C14.2375249,0.561388595 15.7422034,0.146308896 17.7259186,0.146308896 C19.7096338,0.146308896 21.2143122,0.561388595 22.6694794,0.962838117 C24.0271383,1.33737677 25.3094235,1.69106242 26.919998,1.69106242 C29.4256209,1.69106242 32.7374047,0.57897968 34.0450863,0.100874968 C34.4059948,-0.0311164153 34.797309,0.0590524558 35.0670002,0.335849921 C35.3426327,0.618821739 35.4259282,1.04030879 35.2797241,1.40972157 C34.8464709,2.50374724 34.1196445,4.57914574 34.1196445,6.18657478 C34.1196445,7.33418919 34.3211848,8.24974107 34.5346077,9.21899819 C34.7651558,10.265726 35.0033927,11.3481019 35.0033927,12.7769407 C35.0033927,14.2057794 34.7651558,15.2881554 34.5346077,16.3348832 C34.3211848,17.3041403 34.1196445,18.2198087 34.1196445,19.3674231 C34.1196445,20.9748521 34.8464709,23.0501341 35.2797241,24.1442763 C35.4259282,24.5138056 35.3426327,24.9352926 35.0670002,25.2181479 C34.8795561,25.4106014 34.6329314,25.512886 34.3788509,25.512886" id="Fill-3"></path>
                            <path d="M30.3945285,20.8766682 L5.0573087,20.8766682 C4.73554329,20.8766682 4.47482245,20.6159474 4.47482245,20.294182 L4.47482245,5.25974597 C4.47482245,4.93809706 4.73554329,4.67725972 5.0573087,4.67725972 L28.2339705,4.67725972 C28.5557359,4.67725972 28.8164567,4.93809706 28.8164567,5.25974597 C28.8164567,5.58139487 28.5557359,5.84223221 28.2339705,5.84223221 L5.63979494,5.84223221 L5.63979494,19.7116958 L29.8120422,19.7116958 L29.8120422,5.45616033 C29.8120422,5.13451142 30.0727631,4.87367408 30.3945285,4.87367408 C30.7162939,4.87367408 30.9770147,5.13451142 30.9770147,5.45616033 L30.9770147,20.294182 C30.9770147,20.6159474 30.7162939,20.8766682 30.3945285,20.8766682" id="Fill-5"></path>
                            <path d="M30.394412,5.91945824 C30.2499554,5.91945824 30.1053823,5.8661025 29.9924965,5.75845904 C29.759735,5.53641528 29.7509977,5.16770149 29.9730414,4.93493998 L32.0353922,2.77251804 C32.2573195,2.53952354 32.6259168,2.53101924 32.8589113,2.7529465 C33.0916728,2.97499026 33.1005266,3.34370405 32.8783663,3.57646556 L30.8160155,5.739004 C30.7016152,5.85899617 30.5480719,5.91945824 30.394412,5.91945824" id="Fill-7"></path>
                            <path d="M5.0083682,5.81649797 C4.85202889,5.81649797 4.69615557,5.75393895 4.58140578,5.63033537 L2.76451468,3.67376406 C2.54561635,3.43809013 2.55936302,3.06949283 2.79503696,2.8505945 C3.03071089,2.63181266 3.39919169,2.64532634 3.61820652,2.88111678 L5.43509763,4.83768808 C5.65399596,5.07336202 5.64036578,5.44195931 5.40457535,5.66085765 C5.2923885,5.76500619 5.15026185,5.81649797 5.0083682,5.81649797" id="Fill-9"></path>
                            <path d="M32.4570074,22.9103724 C32.3033476,22.9103724 32.1498042,22.8499103 32.0354039,22.7299181 L29.9730531,20.5674962 C29.7508928,20.3346182 29.7597466,19.9659044 29.9925081,19.7438606 C30.2255026,19.5218169 30.5942164,19.5305542 30.8160272,19.7633157 L32.878378,21.9258541 C33.1004217,22.1587321 33.0916844,22.5274459 32.8589229,22.7493732 C32.7460371,22.8570166 32.6013475,22.9103724 32.4570074,22.9103724" id="Fill-11"></path>
                            <path d="M3.1912907,22.8074121 C3.04939705,22.8074121 2.90727041,22.7559203 2.79508356,22.6517718 C2.55929312,22.4328735 2.54566295,22.0642762 2.76456128,21.8286022 L4.58145238,19.8721474 C4.80046721,19.636357 5.16894801,19.6228433 5.40462195,19.8416251 C5.64029588,20.0605235 5.65404256,20.4291208 5.43514422,20.6647947 L3.61825312,22.6212495 C3.50350333,22.7448531 3.34763001,22.8074121 3.1912907,22.8074121" id="Fill-13"></path>
                        </g>
                    </g>
                </g>
                <g id="ent" transform="translate(113.972816, 3.781142)" fill="#22BFB3">
                    <g id="icon">
                        <g id="not-selected" transform="translate(0.464947, 0.589553)">
                            <path d="M1.22611279,12.6977368 C0.960162879,12.6977368 0.720366257,12.5141988 0.659574384,12.2439481 C0.286919042,10.5862944 0.162661849,9.45589103 0.124187451,8.79950154 C0.109425371,8.60968676 0.0625819203,8.00002448 0.486032766,7.62237095 C0.955164695,7.204267 1.61515753,7.33189506 2.52866294,7.50857508 C2.70336693,7.5424 2.89085697,7.5786659 3.09055187,7.6140019 C4.03265155,7.77092165 6.58521278,8.04384577 9.81566733,7.16823358 C11.3455768,6.76791386 12.793423,6.16778301 14.12387,5.38318427 C14.4005137,5.21998773 14.7566634,5.31227979 14.9197437,5.58857478 C15.0827077,5.86510225 14.9907644,6.22136819 14.7143532,6.3844485 C13.2912654,7.22367856 11.7438042,7.86530597 10.114861,8.29143026 C6.66808966,9.22550959 3.91676341,8.93003552 2.89399536,8.75951606 C2.68221182,8.72220403 2.48844499,8.68477577 2.30781292,8.64978847 C1.93399521,8.57748915 1.47927665,8.48845173 1.28295261,8.5041437 C1.27830314,8.54668639 1.27562969,8.6154986 1.28376627,8.72092543 C1.32049712,9.34453613 1.43812881,10.4076384 1.79369733,11.9889245 C1.86402063,12.3021828 1.66723164,12.6130001 1.35408957,12.6834397 C1.31119817,12.6930873 1.26830677,12.6977368 1.22611279,12.6977368 Z M4.98521254,13.5169741 L4.98648751,13.5169741 L4.98521254,13.5169741 Z M5.13399207,14.078863 L5.1328446,14.079118 L5.1327171,14.079118 C5.13322709,14.0789905 5.13360958,14.078863 5.13399207,14.078863 Z M5.66508188,13.9393788 C6.14804599,14.2693752 6.80885248,14.5054523 7.63099573,14.2963422 C8.44744336,14.076887 8.89425782,13.5489392 9.13812273,13.0272683 L5.66508188,13.9393788 Z M7.01598655,15.5377518 C5.79212875,15.5377518 4.90896116,14.8858955 4.44622226,14.4380349 C4.21921169,14.218231 4.12784953,13.891373 4.20805295,13.5849727 C4.28872133,13.2770613 4.52991279,13.0355211 4.83759174,12.9548527 L9.36083253,11.7670283 C9.66444319,11.6875223 9.99048755,11.776211 10.21157,11.9993858 C10.4316064,12.2212819 10.5176217,12.5461639 10.4359072,12.8472174 C10.2285406,13.6120559 9.62666621,14.963658 7.92472625,15.42105 C7.60402878,15.5024158 7.30076683,15.5377518 7.01598655,15.5377518 Z M9.38582346,21.9553045 C9.12777765,21.9553045 8.87868208,21.8476692 8.69886367,21.6494854 C8.46057813,21.3871388 8.3923471,21.0191329 8.52078882,20.6891365 C8.9244794,19.6516064 10.0100153,17.7825178 12.744836,16.9234113 C13.0510038,16.8278646 13.3773969,16.9973379 13.4735248,17.303622 C13.5696527,17.6099061 13.3994819,17.9360667 13.0931978,18.032427 C11.1806367,18.6331391 10.2478359,19.8065501 9.8048573,20.6658891 L13.1456206,19.723557 C13.4545782,19.6368443 13.7756244,19.816314 13.862802,20.1251553 C13.9498634,20.4342291 13.770045,20.755159 13.4612037,20.8423367 L9.64107958,21.9198523 C9.55645915,21.9436808 9.47067636,21.9553045 9.38582346,21.9553045 Z M12.333125,25.9533872 C6.81036356,25.9533872 3.05812179,20.3884318 1.29271651,14.6606285 C1.19821595,14.3538794 1.37024649,14.0285325 1.67699554,13.9340319 C1.98386082,13.8392989 2.30897529,14.0115619 2.40359209,14.3181947 C2.84157254,15.7393065 4.11517971,19.3240509 6.47571767,21.9119482 C8.77302278,24.430452 11.4349629,25.3033907 14.3872627,24.5071683 C14.556736,24.4609061 14.7355083,24.4054611 14.9324135,24.3380437 C15.2357917,24.234128 15.5664855,24.3956972 15.6705175,24.6995403 C15.7745495,25.003151 15.6127478,25.3336123 15.3090209,25.4377605 C15.0885196,25.5131983 14.8866162,25.5757337 14.6915707,25.6289702 C13.8732633,25.8497039 13.0862236,25.9533872 12.333125,25.9533872 Z" id="Fill-6"></path>
                            <path d="M17.2438065,11.7133618 L22.762151,13.2769799 C22.4914354,12.4242664 21.862129,11.2664311 20.4110282,10.8471648 C18.9595787,10.4281309 17.8734615,11.1112549 17.2438065,11.7133618 Z M23.0974943,14.5432641 C23.0120602,14.5432641 22.9256962,14.531408 22.8404946,14.5072307 L16.5553356,12.7264822 C16.2454482,12.6387233 16.006349,12.4018326 15.915568,12.0928751 C15.8251357,11.7844987 15.8981325,11.4567108 16.1109622,11.2161005 C16.7085358,10.5404157 18.3544496,9.04351756 20.7335855,9.73036111 C23.0790126,10.4081382 23.8001461,12.5274847 24.001352,13.4071652 C24.0750462,13.7294899 23.9758962,14.0580915 23.7358671,14.2861482 C23.5593033,14.4539942 23.3320603,14.5432641 23.0974943,14.5432641 Z M28.1377566,14.9635766 L28.1387766,14.9638316 C28.1385216,14.9638316 28.1381391,14.9637041 28.1378841,14.9635766 L28.1377566,14.9635766 Z M28.4978584,15.0700495 L33.7352584,16.6182082 C33.473493,15.7663083 32.8710374,14.6127738 31.4960717,14.1971108 C30.1306374,13.8002782 29.0979892,14.4765442 28.4978584,15.0700495 Z M34.0694393,17.8891419 C33.9806344,17.8891419 33.890667,17.8763558 33.8020946,17.8500863 L27.8083414,16.078288 L27.8082251,16.078288 C27.504382,15.9883207 27.2693511,15.753406 27.1797325,15.4496791 C27.0899976,15.1465334 27.159391,14.8222326 27.3652465,14.5823197 C27.94213,13.9093084 29.5316689,12.4161298 31.8265331,13.0826319 C34.0823416,13.7645935 34.7788328,15.8811503 34.9738783,16.7595522 C35.0458289,17.0828068 34.9438891,17.4112922 34.7013028,17.6377216 C34.525204,17.8020805 34.3009831,17.8891419 34.0694393,17.8891419 Z M23.0204293,22.5904575 C25.9674984,23.445612 28.0000159,22.4711985 28.9843096,21.7759859 L18.2658771,18.7973004 C18.8342753,19.9966322 20.132641,21.7440208 23.0204293,22.5904575 Z M25.2705422,24.0888668 C24.492104,24.0888668 23.6325325,23.978558 22.6956635,23.7065638 C22.6951986,23.7064475 22.6946174,23.7063313 22.6941524,23.7060988 C18.8155612,22.5694187 17.4171157,19.8837662 16.9958733,18.7819571 C16.8691751,18.4505659 16.9386848,18.0818626 17.1772028,17.8198647 C17.4153721,17.5580993 17.7748927,17.4542998 18.1162803,17.5493816 L29.738803,20.7792549 C30.0736813,20.8723606 30.3274264,21.1412165 30.4011206,21.4808606 C30.4745822,21.8194585 30.3553232,22.1681691 30.0900707,22.3907626 C29.3896275,22.9788048 27.738948,24.0888668 25.2705422,24.0888668 Z M24.1659434,30.2216392 C23.1629356,30.2216392 22.136913,30.08262 21.0928736,29.8044652 C18.2959825,29.0568298 16.1225858,27.5089036 14.6325457,25.2033457 C13.7621641,23.8566255 13.1237913,22.2416307 12.7348628,20.403345 C12.5429558,19.4965813 12.4098646,18.5260036 12.3393088,17.5184626 C12.0260505,13.0511317 12.9758218,8.90845034 13.3985753,7.33460338 C13.5454986,6.78817395 13.7018372,6.24290688 13.8632902,5.71414545 C14.5485064,3.46937939 15.1866467,1.985616 15.6012636,1.13604086 C15.7787572,0.764780358 16.0831816,0.251594663 16.6525096,0.131870707 C17.3639954,-0.0178423565 17.9994623,0.528819551 18.8785616,1.28517274 C19.0640756,1.44488217 19.2641192,1.61702895 19.4807847,1.79684735 C20.2356268,2.42940829 23.0419331,4.58199853 27.5494819,5.79667361 C31.8210699,6.94776714 35.2566825,6.57662288 36.5356366,6.36379321 C36.8108854,6.31508997 37.0728833,6.26382952 37.3158183,6.21628864 C38.4497088,5.99462497 39.2690623,5.83433435 39.8133995,6.31857707 C40.2526586,6.70936536 40.2600977,7.31879517 40.2275514,7.74317591 C40.1545547,8.83847575 39.9430036,10.2225079 39.6161456,11.7396313 C39.5484957,12.0533546 39.2393057,12.2530495 38.9256987,12.1853996 C38.6119754,12.1177498 38.4122805,11.8085598 38.4799304,11.4948365 C38.8780416,9.64655434 39.0195018,8.38922033 39.0680888,7.65995033 C39.0934285,7.33041886 39.0506533,7.21325211 39.0379835,7.18675011 C38.85863,7.09899129 38.127849,7.24173014 37.5389931,7.35703709 C37.289665,7.40574033 37.0204605,7.45851186 36.7321931,7.50930737 C35.3729194,7.73562052 31.7391229,8.1295472 27.2470336,6.91905664 C22.5096845,5.64242731 19.5350673,3.35895439 18.7362877,2.68943013 C18.5160188,2.5067058 18.3108608,2.33002579 18.1204648,2.1663643 C17.6628404,1.77267009 17.0952558,1.28424284 16.8945148,1.27052689 C16.8704537,1.28761371 16.7799052,1.36525993 16.6478602,1.64167116 C16.2495165,2.45765385 15.6381107,3.88132279 14.9749794,6.05355705 C14.8173623,6.56988114 14.664627,7.10236215 14.5211908,7.63635425 C14.1135481,9.15347762 13.1979505,13.1453998 13.4987714,17.437213 C13.5656076,18.3914013 13.6912596,19.3083938 13.8720079,20.1626184 C14.2314123,21.8617687 14.8157349,23.3452996 15.608819,24.5724121 C16.9374062,26.628177 18.8833273,28.0106981 21.3925322,28.681501 C25.43339,29.7576217 29.0706736,28.5339964 32.2038379,25.0436363 C35.3752441,21.510501 37.0621895,16.6943433 37.6403516,14.7874778 C37.7335736,14.4804962 38.0577581,14.3073033 38.3652046,14.3999441 C38.6724186,14.4931661 38.845844,14.8176993 38.7527383,15.1249133 C38.1520262,17.105938 36.3958036,22.113654 33.0687563,25.8199822 C31.4930495,27.5753911 29.7601906,28.8231937 27.9184177,29.5289838 C26.7137389,29.9905604 25.4590784,30.2216392 24.1659434,30.2216392 Z" id="Fill-8"></path>
                        </g>
                    </g>
                </g>
                <g id="food-&amp;-drink" transform="translate(347.454514, 4.888355)">
                    <g id="genre-food-no">
                        <g id="icon">
                            <g id="not-selected" transform="translate(0.324272, 0.692989)">
                                <g id="Group-20" transform="translate(35.345661, 0.000000)">
                                    <mask id="mask-2" fill="white">
                                        <use xlink:href="#path-1"></use>
                                    </mask>
                                    <g id="Clip-19"></g>
                                    <path d="M1.74993448,15.3659803 C1.75005763,15.3662289 1.75030395,15.3663532 1.75042711,15.3666018 C1.75030395,15.3663532 1.75005763,15.3661046 1.74993448,15.3659803 Z M1.75047493,15.3666348 C1.75072125,15.3668834 1.75096756,15.367132 1.75121388,15.3675048 C1.75096756,15.367132 1.75072125,15.3668834 1.75047493,15.3666348 Z M2.56483031,14.6494302 C2.69756569,14.8056336 2.7649062,15.0259763 2.82759881,15.8574973 C2.85991793,16.2847658 2.87742863,16.7261057 2.87742863,16.8330046 L2.87742863,25.6676563 C2.87742863,25.9497386 3.10485147,26.1793531 3.38437403,26.1793531 C3.6638966,26.1793531 3.89131944,25.9497386 3.89131944,25.6676563 L3.89131944,1.88493367 C1.97033142,3.84947432 1.11976566,5.18309309 1.11976566,7.95766589 L1.11976566,12.080147 C1.11976566,12.6199866 1.31832829,13.1368103 1.6787027,13.5356087 C1.68648523,13.5442261 1.69394349,13.5530616 1.70118557,13.5621153 L2.56483031,14.6494302 Z M3.38437403,27.2701586 C2.50883932,27.2701586 1.79652157,26.5513178 1.79652157,25.6676563 L1.79652157,16.8330046 C1.79652157,16.5922638 1.73869304,15.5744333 1.67675707,15.2754435 L0.868130501,14.2572856 C0.33329769,13.6590879 0.0388586086,12.8865795 0.0388586086,12.080147 L0.0388586086,7.95766589 C0.0388586086,4.42083823 1.40934066,2.80786418 3.66627459,0.571603883 L4.05313123,0.188403921 C4.20824139,0.0343821884 4.43987977,-0.0106680775 4.64082039,0.0746329103 C4.84165293,0.159715737 4.9722265,0.357915091 4.9722265,0.577603313 L4.9722265,25.6676563 C4.9722265,26.5513178 4.25990875,27.2701586 3.38437403,27.2701586 Z" id="Fill-18" fill="#594383" mask="url(#mask-2)"></path>
                                </g>
                                <path d="M3.5381763,27.2701368 C2.66253349,27.2701368 1.95032384,26.551296 1.95032384,25.6677435 L1.95032384,10.1767787 C1.10851342,9.83339316 4.32362822e-05,8.92071622 4.32362822e-05,7.11608765 L4.32362822e-05,0.847228609 C4.32362822e-05,0.545948138 0.241950235,0.301825874 0.540496764,0.301825874 C0.838935202,0.301825874 1.08095029,0.545948138 1.08095029,0.847228609 L1.08095029,7.11608765 C1.08095029,8.85592238 2.44667635,9.20868887 2.60254315,9.24315832 C2.85039514,9.29802584 3.03123089,9.52055015 3.03123089,9.77678036 L3.03123089,25.6677435 C3.03123089,25.9498258 3.25865373,26.1793313 3.5381763,26.1793313 C3.81769886,26.1793313 4.04501362,25.9498258 4.04501362,25.6677435 L4.04501362,9.77678036 C4.04501362,9.50364267 4.2451976,9.27271915 4.51337064,9.23628625 C4.65291574,9.21425198 5.92308962,8.96107603 5.92308962,7.11608765 L5.92308962,0.847228609 C5.92308962,0.545948138 6.16510471,0.301825874 6.46354315,0.301825874 C6.76208968,0.301825874 7.00399668,0.545948138 7.00399668,0.847228609 L7.00399668,7.11608765 C7.00399668,9.00623537 5.94913948,9.88684263 5.12592067,10.1955406 L5.12592067,25.6677435 C5.12592067,26.551296 4.41371101,27.2701368 3.5381763,27.2701368" id="Fill-21" fill="#594383"></path>
                                <path d="M6.4635972,7.51569333 L2.58659977,7.51569333 C2.28805324,7.51569333 2.04614625,7.27157106 2.04614625,6.97029059 C2.04614625,6.66901012 2.28805324,6.42488786 2.58659977,6.42488786 L6.4635972,6.42488786 C6.76214373,6.42488786 7.00405073,6.66901012 7.00405073,6.97029059 C7.00405073,7.27157106 6.76214373,7.51569333 6.4635972,7.51569333" id="Fill-23" fill="#594383"></path>
                                <path d="M4.5133166,7.51569333 C4.21477007,7.51569333 3.97286307,7.27157106 3.97286307,6.97029059 L3.97286307,0.847163161 C3.97286307,0.54588269 4.21477007,0.301760426 4.5133166,0.301760426 C4.81186313,0.301760426 5.05377013,0.54588269 5.05377013,0.847163161 L5.05377013,6.97029059 C5.05377013,7.27157106 4.81186313,7.51569333 4.5133166,7.51569333" id="Fill-25" fill="#594383"></path>
                                <path d="M2.56292791,7.51569333 C2.26438138,7.51569333 2.02247438,7.27157106 2.02247438,6.97029059 L2.02247438,0.847163161 C2.02247438,0.54588269 2.26438138,0.301760426 2.56292791,0.301760426 C2.86147444,0.301760426 3.10338144,0.54588269 3.10338144,0.847163161 L3.10338144,6.97029059 C3.10338144,7.27157106 2.86147444,7.51569333 2.56292791,7.51569333" id="Fill-27" fill="#594383"></path>
                                <path d="M20.7607008,1.74678316 C14.1565748,1.74678316 8.78381824,7.16874083 8.78381824,13.8333441 C8.78381824,20.4978383 14.1565748,25.919796 20.7607008,25.919796 C27.3648267,25.919796 32.7375833,20.4978383 32.7375833,13.8333441 C32.7375833,7.16874083 27.3648267,1.74678316 20.7607008,1.74678316 M20.7607008,27.0106014 C13.5606708,27.0106014 7.70291118,21.0993084 7.70291118,13.8333441 C7.70291118,6.5672707 13.5606708,0.655977686 20.7607008,0.655977686 C27.9607308,0.655977686 33.8184904,6.5672707 33.8184904,13.8333441 C33.8184904,21.0993084 27.9607308,27.0106014 20.7607008,27.0106014" id="Fill-29" fill="#594383"></path>
                                <path d="M13.0789754,8.71397586 C12.9681824,8.71397586 12.8563085,8.67983365 12.7602159,8.60860405 C12.5192817,8.43069368 12.4669658,8.08938065 12.6433698,7.84645827 C14.5322549,5.24237837 17.5669015,3.68765333 20.7606575,3.68765333 C21.0592041,3.68765333 21.3011111,3.9317756 21.3011111,4.23305607 C21.3011111,4.53433654 21.0592041,4.7784588 20.7606575,4.7784588 C17.9101975,4.7784588 15.2017687,6.1662906 13.5154456,8.49068798 C13.4096248,8.63663775 13.2454351,8.71397586 13.0789754,8.71397586" id="Fill-31" fill="#594383"></path>
                                <path d="M20.7607008,7.60805183 C17.3591944,7.60805183 14.5919642,10.400732 14.5919642,13.8332787 C14.5919642,17.2659344 17.3591944,20.0587236 20.7607008,20.0587236 C24.1622072,20.0587236 26.9295454,17.2659344 26.9295454,13.8332787 C26.9295454,10.400732 24.1622072,7.60805183 20.7607008,7.60805183 M20.7607008,21.1495291 C16.7632903,21.1495291 13.5110572,17.8675136 13.5110572,13.8332787 C13.5110572,9.79926186 16.7632903,6.51724636 20.7607008,6.51724636 C24.7582193,6.51724636 28.0104525,9.79926186 28.0104525,13.8332787 C28.0104525,17.8675136 24.7582193,21.1495291 20.7607008,21.1495291" id="Fill-33" fill="#594383"></path>
                                <path d="M11.9745262,9.94656423 L11.9757577,9.94656423 L11.9745262,9.94656423 Z M12.5143311,9.94656423 L12.5155627,9.94656423 L12.5143311,9.94656423 Z M11.9745262,10.4926214 C11.6759796,10.4926214 11.4334241,10.2478447 11.4334241,9.94656423 C11.4334241,9.64528376 11.6759796,9.40061609 11.9745262,9.40061609 C12.2730727,9.40061609 12.5156282,9.64528376 12.5156282,9.94656423 C12.5156282,10.2478447 12.2730727,10.4926214 11.9745262,10.4926214 Z" id="Fill-35" fill="#594383"></path>
                            </g>
                        </g>
                    </g>
                </g>
                <g id="horror" transform="translate(409.423382, 1.566715)">
                    <g id="icon">
                        <g id="not-selected" transform="translate(1.505313, 0.497624)">
                            <path d="M14.1648566,30.4545875 C13.0860078,30.4545875 12.4861719,29.8536568 12.0041733,29.3707625 C11.5530274,28.9188204 11.2736613,28.6631412 10.7810136,28.6631412 C10.1600784,28.6631412 9.85513439,28.9990374 9.50202041,29.3878808 C9.17518098,29.747862 8.80474969,30.1560132 8.19336887,30.1560132 C7.32740362,30.1560132 7.09859611,29.6351999 7.09859611,29.3598148 L7.09859611,10.3505788 C7.09859611,4.64322983 11.7418259,0 17.4491749,0 C23.1565238,0 27.7997537,4.64322983 27.7997537,10.3505788 L27.7997537,29.3598148 C27.7997537,29.6347023 27.5770172,29.8574388 27.3021297,29.8574388 C27.0272422,29.8574388 26.8045057,29.6347023 26.8045057,29.3598148 L26.8045057,10.3505788 C26.8045057,5.19200955 22.6077441,0.995247959 17.4491749,0.995247959 C12.2906057,0.995247959 8.09384407,5.19200955 8.09384407,10.3505788 L8.09384407,29.1561871 C8.12051672,29.1588742 8.15345943,29.1607652 8.19336887,29.1607652 C8.35579334,29.1607652 8.51642636,28.9927673 8.76523835,28.7189746 C9.16791567,28.2753926 9.71948209,27.6678933 10.7810136,27.6678933 C11.7104756,27.6678933 12.2407437,28.1990571 12.7085103,28.6676198 C13.1501018,29.109908 13.4988367,29.4593396 14.1648566,29.4593396 C15.2697809,29.4593396 16.1315661,28.1997538 16.1401252,28.1870146 C16.293493,27.9597 16.6022189,27.8984922 16.8301307,28.0513623 C17.0580424,28.2040333 17.1196483,28.511764 16.9674749,28.7400739 C16.9207977,28.8101393 15.8056224,30.4545875 14.1648566,30.4545875" id="Fill-8" fill="#F26668"></path>
                            <g id="Group-12" transform="translate(20.203534, 27.667893)">
                                <mask id="mask-4" fill="white">
                                    <use xlink:href="#path-3"></use>
                                </mask>
                                <g id="Clip-11"></g>
                                <path d="M6.60098209,1.69124476 L6.60098209,1.69204481 L6.60098209,1.69124476 Z M0.529969538,2.78671419 C0.255082052,2.78671419 0.0323455587,2.5639777 0.0323455587,2.28909021 C0.0323455587,2.01420272 0.255082052,1.79146623 0.529969538,1.79146623 C1.19598947,1.79146623 1.54472436,1.44203467 1.98631588,0.99974648 C2.45408242,0.531183741 2.98435053,1.99049592e-05 3.9138126,1.99049592e-05 C4.97534407,1.99049592e-05 5.52691049,0.607419734 5.92958781,1.05100175 C6.1783998,1.32489399 6.33903282,1.49289184 6.50145729,1.49289184 C6.56883558,1.49289184 6.61591081,1.48761703 6.64736064,1.48194412 C6.72658238,1.31205529 6.89876028,1.19431746 7.09860607,1.19431746 C7.37349355,1.19431746 7.59623005,1.41705395 7.59623005,1.69194144 C7.59623005,1.96722702 7.36742254,2.4881398 6.50145729,2.4881398 C5.89007647,2.4881398 5.51964518,2.07998861 5.19280575,1.72000743 C4.83969177,1.33116405 4.5347478,0.995267864 3.9138126,0.995267864 C3.42116486,0.995267864 3.14179876,1.25094706 2.69065286,1.70288916 C2.20865427,2.18578347 1.60881833,2.78671419 0.529969538,2.78671419 Z" id="Fill-10" fill="#F26668" mask="url(#mask-4)"></path>
                            </g>
                            <path d="M7.59583195,21.9950794 C7.52088978,21.9950794 7.44475331,21.9780607 7.37319498,21.9422317 L1.97795579,19.2375459 C1.17299924,18.8390486 0.568883733,18.1462565 0.278768953,17.2877556 C-0.0111467771,16.4292547 0.049264774,15.5119347 0.448757305,14.7047886 C0.848448885,13.8976425 1.54124099,13.2934275 2.39974188,13.0034122 C3.25814324,12.713397 4.17546329,12.7740076 4.98270891,13.1734006 L7.83698053,14.5864536 C8.08320487,14.7083715 8.18402349,15.0068463 8.06220514,15.2532697 C7.94008822,15.4994941 7.6418124,15.6000141 7.39528948,15.4783948 L4.54111739,14.0654413 C3.97233318,13.7837861 3.32492438,13.7414881 2.71822123,13.9464096 C2.11151807,14.1512317 1.6223537,14.5774964 1.34079805,15.1463801 C1.05914288,15.7152638 1.01684484,16.3626726 1.22176639,16.9692763 C1.42668795,17.5759794 1.85285312,18.0651438 2.42173686,18.3466994 L7.81926511,21.0524801 C8.06489231,21.1756918 8.16421806,21.4746643 8.04110588,21.720391 C7.95382264,21.8944598 7.77816137,21.9950794 7.59583195,21.9950794" id="Fill-13" fill="#F26668"></path>
                            <g id="Group-17" transform="translate(26.871695, 12.739174)">
                                <mask id="mask-6" fill="white">
                                    <use xlink:href="#path-5"></use>
                                </mask>
                                <g id="Clip-16"></g>
                                <path d="M0.617242832,9.25590554 C0.434913406,9.25590554 0.259252141,9.15528597 0.171968895,8.98121711 C0.0488567223,8.73549038 0.148182469,8.4365179 0.393809665,8.3133062 L5.78904885,5.60871987 C6.971702,5.0232155 7.4565868,3.58757032 6.87227673,2.40730576 C6.28806618,1.22684216 4.85252052,0.741957353 3.67175834,1.32626743 L0.817785295,2.73912143 C0.571461425,2.86123836 0.272887038,2.76032021 0.150969163,2.51409587 C0.0290512879,2.26767247 0.129869906,1.96919761 0.376094251,1.84737926 L3.23026635,0.434226684 C4.90288007,-0.393023419 6.9363707,0.293598148 7.76421795,1.96561472 C8.5920652,3.63783034 7.90504554,5.67161954 6.23292944,6.49956632 L0.8398798,9.20305788 C0.768321472,9.2388868 0.692185003,9.25590554 0.617242832,9.25590554" id="Fill-15" fill="#F26668" mask="url(#mask-6)"></path>
                            </g>
                            <path d="M13.4681831,9.75343 C12.5901753,9.75343 11.8757863,10.467819 11.8757863,11.3458267 C11.8757863,12.2238345 12.5901753,12.9382235 13.4681831,12.9382235 C14.3461908,12.9382235 15.0605798,12.2238345 15.0605798,11.3458267 C15.0605798,10.467819 14.3461908,9.75343 13.4681831,9.75343 M13.4681831,13.9334714 C12.0412961,13.9334714 10.8805384,12.7727137 10.8805384,11.3458267 C10.8805384,9.91893973 12.0412961,8.75818204 13.4681831,8.75818204 C14.89507,8.75818204 16.0558277,9.91893973 16.0558277,11.3458267 C16.0558277,12.7727137 14.89507,13.9334714 13.4681831,13.9334714" id="Fill-18" fill="#F26668"></path>
                            <path d="M21.2311171,9.75343 C20.3531094,9.75343 19.6387204,10.467819 19.6387204,11.3458267 C19.6387204,12.2238345 20.3531094,12.9382235 21.2311171,12.9382235 C22.1091249,12.9382235 22.8235139,12.2238345 22.8235139,11.3458267 C22.8235139,10.467819 22.1091249,9.75343 21.2311171,9.75343 M21.2311171,13.9334714 C19.8042301,13.9334714 18.6434724,12.7727137 18.6434724,11.3458267 C18.6434724,9.91893973 19.8042301,8.75818204 21.2311171,8.75818204 C22.6580041,8.75818204 23.8187618,9.91893973 23.8187618,11.3458267 C23.8187618,12.7727137 22.6580041,13.9334714 21.2311171,13.9334714" id="Fill-20" fill="#F26668"></path>
                        </g>
                    </g>
                </g>
                <g id="history" transform="translate(175.941684, 3.781142)" fill="#F26668">
                    <g id="icon">
                        <g id="not-selected" transform="translate(0.000000, 0.024537)">
                            <path d="M34.9155591,29.7383398 L1.00599995,29.7383398 C0.735017911,29.7383398 0.515268265,29.5186883 0.515268265,29.2476082 L0.515268265,26.8920961 C0.515268265,26.6210159 0.735017911,26.4013644 1.00599995,26.4013644 L3.85508994,26.4013644 C4.12617012,26.4013644 4.34582162,26.6210159 4.34582162,26.8920961 C4.34582162,27.1631763 4.12617012,27.3828278 3.85508994,27.3828278 L1.49673163,27.3828278 L1.49673163,28.7568765 L34.4248274,28.7568765 L34.4248274,27.3828278 L6.28391732,27.3828278 C6.01293528,27.3828278 5.79318564,27.1631763 5.79318564,26.8920961 C5.79318564,26.6210159 6.01293528,26.4013644 6.28391732,26.4013644 L34.9155591,26.4013644 C35.1866393,26.4013644 35.4062908,26.6210159 35.4062908,26.8920961 L35.4062908,29.2476082 C35.4062908,29.5186883 35.1866393,29.7383398 34.9155591,29.7383398 Z" id="Fill-14"></path>
                            <path d="M34.0050261,26.5976571 L33.0235627,26.5976571 L33.0235627,25.3217547 L2.89793742,25.3217547 L2.89793742,26.5976571 L1.91647406,26.5976571 L1.91647406,24.831023 C1.91647406,24.5599429 2.13622371,24.3402914 2.40720574,24.3402914 L33.5142944,24.3402914 C33.7853746,24.3402914 34.0050261,24.5599429 34.0050261,24.831023 L34.0050261,26.5976571 Z" id="Fill-16"></path>
                            <path d="M33.5142944,9.61834094 L2.40720574,9.61834094 C2.13622371,9.61834094 1.91647406,9.39868944 1.91647406,9.12760926 L1.91647406,7.36097521 C1.91647406,7.08989503 2.13622371,6.87024353 2.40720574,6.87024353 C2.67818778,6.87024353 2.89793742,7.08989503 2.89793742,7.36097521 L2.89793742,8.63687758 L33.0235627,8.63687758 L33.0235627,7.36097521 C33.0235627,7.08989503 33.2432142,6.87024353 33.5142944,6.87024353 C33.7853746,6.87024353 34.0050261,7.08989503 34.0050261,7.36097521 L34.0050261,9.12760926 C34.0050261,9.39868944 33.7853746,9.61834094 33.5142944,9.61834094" id="Fill-18"></path>
                            <path d="M34.0747983,7.55726788 L32.1365063,7.55726788 C31.8654261,7.55726788 31.6457746,7.33761638 31.6457746,7.0665362 C31.6457746,6.79545602 31.8654261,6.57580452 32.1365063,6.57580452 L33.5840666,6.57580452 L33.5840666,5.77542115 L17.821765,1.58771328 L2.33741388,5.77375266 L2.33741388,6.57580452 L29.9179084,6.57580452 C30.1888904,6.57580452 30.4086401,6.79545602 30.4086401,7.0665362 C30.4086401,7.33761638 30.1888904,7.55726788 29.9179084,7.55726788 L1.8466822,7.55726788 C1.57570017,7.55726788 1.35595052,7.33761638 1.35595052,7.0665362 L1.35595052,5.39804849 C1.35595052,5.17633591 1.50464222,4.98220246 1.71869938,4.92429612 L17.6926045,0.605857333 C17.7756363,0.583283675 17.8633791,0.582989236 17.9466072,0.605366601 L34.2008182,4.92380539 C34.4158568,4.98092656 34.56553,5.17555074 34.56553,5.39804849 L34.56553,7.0665362 C34.56553,7.33761638 34.3458785,7.55726788 34.0747983,7.55726788" id="Fill-20"></path>
                            <polygon id="Fill-22" points="4.29851508 24.6347304 5.27997844 24.6347304 5.27997844 9.42204827 4.29851508 9.42204827"></polygon>
                            <polygon id="Fill-24" points="7.28785619 24.6347304 8.26931955 24.6347304 8.26931955 9.42204827 7.28785619 9.42204827"></polygon>
                            <polygon id="Fill-25" points="9.89432844 24.6347304 10.8757918 24.6347304 10.8757918 9.42204827 9.89432844 9.42204827"></polygon>
                            <polygon id="Fill-26" points="12.9770067 24.6347304 13.9584701 24.6347304 13.9584701 9.42204827 12.9770067 9.42204827"></polygon>
                            <polygon id="Fill-27" points="21.8696536 24.6347304 22.851117 24.6347304 22.851117 9.42204827 21.8696536 9.42204827"></polygon>
                            <polygon id="Fill-28" points="24.9523319 24.6347304 25.9337953 24.6347304 25.9337953 9.42204827 24.9523319 9.42204827"></polygon>
                            <polygon id="Fill-29" points="27.5588042 24.6347304 28.5402675 24.6347304 28.5402675 9.42204827 27.5588042 9.42204827"></polygon>
                            <polygon id="Fill-30" points="30.6414824 24.6347304 31.6229458 24.6347304 31.6229458 9.42204827 30.6414824 9.42204827"></polygon>
                        </g>
                    </g>
                </g>
                <g id="nature" transform="translate(233.481698, 2.673929)" fill="#22BFB3">
                    <g id="icon">
                        <g id="not-selected" transform="translate(1.055497, 0.554136)">
                            <path d="M8.98084206,20.3710877 C6.92874524,20.3710877 5.27488734,19.3463059 4.30340811,17.4797654 C1.66540503,16.3230465 0.097464572,14.1023868 0.097464572,11.5049148 C0.097464572,9.40985928 1.02229084,7.5724505 2.77589318,6.17550052 C2.81779641,5.12105924 3.11090786,4.09131659 3.62989562,3.18221722 C3.77439313,2.92900355 4.09674184,2.84086956 4.34984997,2.98557817 C4.6029581,3.13007568 4.69098653,3.45242439 4.54648902,3.70542697 C4.07520971,4.53103655 3.82621802,5.47602281 3.82621802,6.43853032 C3.82621802,6.60466551 3.74790016,6.76109013 3.61511867,6.86072902 C2.00432504,8.06874508 1.15296135,9.67468342 1.15296135,11.5049148 C1.15296135,13.7196637 2.54970022,15.6177636 4.88920882,16.5820654 C5.00932435,16.6314627 5.10685226,16.7233964 5.16332133,16.8403455 C5.94607774,18.4596886 7.26608201,19.3155909 8.98084206,19.3155909 C10.4833417,19.3155909 12.1132398,18.2714935 12.7721865,16.887104 C12.8265446,16.7728992 12.9200616,16.6820209 13.035744,16.6309349 C14.5631534,15.957528 17.1254774,14.396026 17.1254774,11.5049148 C17.1254774,10.4992375 16.5603644,8.37969443 14.4425101,6.81449827 C14.3078287,6.71485937 14.2283498,6.55737925 14.2283498,6.38997746 C14.2283498,4.98616676 13.6650312,3.64821905 12.6420437,2.62280393 C11.6483991,1.62673163 10.3202675,1.05549677 8.99815221,1.05549677 C8.09623022,1.05549677 7.20581314,1.30448846 6.42316228,1.77576777 C6.17322065,1.92607051 5.84907759,1.84543056 5.69877485,1.59591112 C5.54836656,1.34628613 5.62900651,1.02193198 5.8786315,0.871629235 C6.82572875,0.301344329 7.9043409,0 8.99815221,0 C12.3186395,0 15.137027,2.77943965 15.278358,6.12684212 C16.4455263,7.06771194 18.1809741,9.09553234 18.1809741,11.5049148 C18.1809741,14.8819768 15.4119839,16.7000699 13.636005,17.5181855 C12.7539264,19.1818595 10.829228,20.3710877 8.98084206,20.3710877" id="Fill-24"></path>
                            <path d="M9.10365967,22.90428 C8.81223701,22.90428 8.57591128,22.6680598 8.57591128,22.3765316 L8.57591128,7.70512644 C8.57591128,7.41359823 8.81223701,7.17737806 9.10365967,7.17737806 C9.39508233,7.17737806 9.63140805,7.41359823 9.63140805,7.70512644 L9.63140805,22.3765316 C9.63140805,22.6680598 9.39508233,22.90428 9.10365967,22.90428" id="Fill-26"></path>
                            <path d="M9.10355412,17.3101471 C8.97436131,17.3101471 8.84485186,17.2630719 8.74310197,17.1677606 L5.47106197,14.1068199 C5.25827382,13.9077532 5.24708556,13.5737941 5.4462578,13.3609004 C5.64532449,13.1481122 5.97928367,13.1369239 6.19217737,13.3360962 L9.46421736,16.3970368 C9.67700551,16.5961035 9.68819378,16.9300627 9.48902154,17.1429564 C9.38516066,17.2539946 9.24446294,17.3101471 9.10355412,17.3101471" id="Fill-28"></path>
                            <path d="M9.10376522,13.9325574 C8.96232865,13.9325574 8.82141983,13.8760883 8.71734785,13.7644168 C8.51880891,13.5511009 8.53073602,13.2172472 8.74405192,13.0186027 L11.8049926,10.1687615 C12.0183085,9.97001142 12.3522676,9.98204408 12.5509121,10.19536 C12.7494511,10.4086759 12.737524,10.7425295 12.5242081,10.941174 L9.46326742,13.7910153 C9.36162308,13.8857989 9.23253582,13.9325574 9.10376522,13.9325574" id="Fill-30"></path>
                            <path d="M29.2464329,24.8041742 C27.3980469,24.8041742 25.4733486,23.614946 24.5912699,21.9512719 C22.8151855,21.1331564 20.0463008,19.3150632 20.0463008,15.9380013 C20.0463008,13.5286188 21.7816431,11.5007984 22.9489169,10.5599286 C23.090248,7.2125261 25.9086354,4.43308645 29.2291227,4.43308645 C30.322934,4.43308645 31.4016517,4.73443078 32.3486434,5.30471568 C32.5982684,5.45501842 32.6789084,5.77937258 32.5285001,6.02899757 C32.3780918,6.27862255 32.0541598,6.35936806 31.8041127,6.20885422 C31.0214618,5.73757491 30.1310447,5.48858322 29.2291227,5.48858322 C27.9070075,5.48858322 26.5788759,6.05981807 25.5852312,7.05589038 C24.5622438,8.08130549 23.9988196,9.4192532 23.9988196,10.8230639 C23.9988196,10.9904657 23.9193407,11.1479458 23.7847648,11.2475847 C21.666805,12.8127809 21.1017976,14.9323239 21.1017976,15.9380013 C21.1017976,18.8291125 23.6641215,20.3906144 25.1915309,21.0640214 C25.3072134,21.1151074 25.4007304,21.2059857 25.4550885,21.3201904 C26.1140351,22.70458 27.7439332,23.7486774 29.2464329,23.7486774 C30.9610874,23.7486774 32.2811972,22.8927751 33.0639536,21.2734319 C33.1204227,21.1564829 33.2180561,21.0645491 33.3380661,21.0151519 C35.6775747,20.0507444 37.0743136,18.1527502 37.0743136,15.9380013 C37.0743136,14.1077699 36.2229499,12.5018315 34.6121563,11.2938155 C34.4792692,11.1941766 34.4010569,11.037752 34.4010569,10.8716168 C34.4010569,9.90900371 34.1520652,8.96391189 33.6807859,8.13861897 C33.5362884,7.88551084 33.6243168,7.56316213 33.8773194,7.41866462 C34.1305331,7.27395601 34.4527763,7.36230109 34.5972738,7.61519812 C35.1162615,8.52419194 35.4094785,9.55404014 35.4512762,10.608587 C37.2049841,12.0055369 38.1298104,13.8429457 38.1298104,15.9380013 C38.1298104,18.5354733 36.5618699,20.7560274 33.9238668,21.9128519 C32.952282,23.7793923 31.2984242,24.8041742 29.2464329,24.8041742" id="Fill-32"></path>
                            <path d="M29.0525487,29.765009 C28.7610205,29.765009 28.5248003,29.5287888 28.5248003,29.2372606 L28.5248003,12.1382129 C28.5248003,11.8466847 28.7610205,11.6104645 29.0525487,11.6104645 C29.3440769,11.6104645 29.5802971,11.8466847 29.5802971,12.1382129 L29.5802971,29.2372606 C29.5802971,29.5287888 29.3440769,29.765009 29.0525487,29.765009" id="Fill-34"></path>
                            <path d="M29.0524431,21.7432335 C28.9232503,21.7432335 28.7938464,21.6961584 28.691991,21.600847 L25.419951,18.5399064 C25.2070573,18.3408397 25.1959746,18.0068805 25.3951468,17.7939868 C25.5942135,17.5811986 25.9279616,17.5699048 26.1410664,17.7691826 L29.4131064,20.8301233 C29.6260001,21.02919 29.6370828,21.3631491 29.4379105,21.5760428 C29.3340497,21.6870811 29.1933519,21.7432335 29.0524431,21.7432335" id="Fill-36"></path>
                            <path d="M29.0526542,18.3656439 C28.9112177,18.3656439 28.7702033,18.3091748 28.6663424,18.1975032 C28.4676979,17.9841873 28.479625,17.6503337 28.6929409,17.4516892 L31.7538816,14.6018479 C31.9670919,14.4029923 32.3012622,14.4151305 32.4996956,14.6284464 C32.6983401,14.8417623 32.686413,15.175616 32.4730971,15.3742604 L29.4121564,18.2241017 C29.3105121,18.3188853 29.1814248,18.3656439 29.0526542,18.3656439" id="Fill-38"></path>
                            <path d="M38.0242712,30.1872077 L0.554135806,30.1872077 C0.262713147,30.1872077 0.0263874193,29.9509875 0.0263874193,29.6594593 C0.0263874193,29.3679311 0.262713147,29.1317109 0.554135806,29.1317109 L38.0242712,29.1317109 C38.3157995,29.1317109 38.5520196,29.3679311 38.5520196,29.6594593 C38.5520196,29.9509875 38.3157995,30.1872077 38.0242712,30.1872077" id="Fill-40"></path>
                            <path d="M16.5976868,30.0552706 C16.3062641,30.0552706 16.0699384,29.8190504 16.0699384,29.5275222 C16.0699384,28.4645314 15.1911318,27.5373831 14.0258633,27.3709312 C13.8186693,27.3413773 13.6485232,27.1921301 13.5921597,26.9905302 C13.4204304,26.3761255 12.8168973,25.9545601 12.0169363,25.890597 C11.7426127,25.8686427 11.5313022,25.6395999 11.5313022,25.3645374 L11.5313022,25.2878028 C11.5313022,24.7545658 11.3088035,24.2618599 10.9045483,23.9004578 C10.4907935,23.5304007 9.92758045,23.3264787 9.31876991,23.3264787 C8.26612298,23.3264787 7.42774189,23.871115 7.18276109,24.7140347 C7.11732029,24.9394889 6.91075957,25.0945413 6.67601709,25.0945413 C5.68659441,25.0945413 4.88167258,25.79708 4.88167258,26.660793 C4.88167258,26.7188453 4.88536681,26.7770032 4.89254419,26.834 C4.92790333,27.1132845 4.73791391,27.3710368 4.46074046,27.4200118 C4.45493523,27.4210673 4.44902445,27.4220173 4.44332477,27.4228617 C3.39394987,27.6840971 2.66512935,28.5437992 2.66512935,29.5275222 C2.66512935,29.8190504 2.42880362,30.0552706 2.13738097,30.0552706 C1.84595831,30.0552706 1.60963258,29.8190504 1.60963258,29.5275222 C1.60963258,28.1738476 2.50384944,26.9838806 3.83103109,26.5069016 C3.91061554,25.2484328 4.95956824,24.2253397 6.29941584,24.0618433 C6.78504991,22.9623323 7.92984171,22.2709819 9.31876991,22.2709819 C11.011259,22.2709819 12.3650391,23.401419 12.5621004,24.9069796 C13.451462,25.1026687 14.1614947,25.6448773 14.4927095,26.3849917 C16.0361625,26.7411163 17.1254351,28.0182674 17.1254351,29.5275222 C17.1254351,29.8190504 16.8891094,30.0552706 16.5976868,30.0552706" id="Fill-42"></path>
                            <path d="M27.5748532,29.8593282 C27.283325,29.8593282 27.0471048,29.623108 27.0471048,29.3315798 C27.0471048,27.9057092 25.9715536,26.7106758 24.4895306,26.4899714 C24.2815977,26.4590453 24.1118738,26.3077926 24.0575157,26.1047151 C23.8362836,25.2797388 23.0727373,24.715048 22.0647378,24.6308194 C21.7912586,24.6080206 21.5808981,24.3792945 21.5808981,24.1048653 L21.5808981,24.008604 C21.5808981,22.5522296 20.3630659,21.4114487 18.8083192,21.4114487 C17.4941202,21.4114487 16.4442175,22.1311919 16.1336904,23.2451632 C16.0701495,23.4733616 15.8622166,23.6311584 15.6253631,23.6311584 C14.4988314,23.6311584 13.5326297,24.4090595 13.3781049,25.440702 C13.3349351,25.7289582 13.0663112,25.9289749 12.778055,25.8843273 C12.4897989,25.8411575 12.2910488,25.5725336 12.3342186,25.2841719 C12.5473234,23.8622066 13.7643112,22.7621679 15.2402124,22.5970882 C15.7894929,21.2235702 17.149606,20.3559519 18.8083192,20.3559519 C20.826429,20.3559519 22.4335284,21.7743285 22.6186625,23.646252 C23.7157459,23.8737115 24.5880084,24.5622121 24.9686206,25.5066706 C26.803074,25.924014 28.1026016,27.4853048 28.1026016,29.3315798 C28.1026016,29.623108 27.8663814,29.8593282 27.5748532,29.8593282" id="Fill-44"></path>
                        </g>
                    </g>
                </g>
                <g id="scenic" transform="translate(468.070610, 3.781142)" fill="#22BFB3">
                    <g id="icon" transform="translate(1.107213, 0.000000)">
                        <g id="not-selected" transform="translate(0.483515, 0.553045)">
                            <path d="M39.8447144,13.2516225 L11.6703829,13.2516225 C11.4033858,13.2516225 11.1868678,13.0352012 11.1868678,12.7681074 C11.1868678,12.5010136 11.4033858,12.2845922 11.6703829,12.2845922 L39.8447144,12.2845922 C40.1118082,12.2845922 40.3282296,12.5010136 40.3282296,12.7681074 C40.3282296,13.0352012 40.1118082,13.2516225 39.8447144,13.2516225" id="Fill-15"></path>
                            <path d="M8.70482974,13.2516225 L0.483524827,13.2516225 C0.216527757,13.2516225 9.67030313e-06,13.0352012 9.67030313e-06,12.7681074 C9.67030313e-06,12.5010136 0.216527757,12.2845922 0.483524827,12.2845922 L8.70482974,12.2845922 C8.97192351,12.2845922 9.1883449,12.5010136 9.1883449,12.7681074 C9.1883449,13.0352012 8.97192351,13.2516225 8.70482974,13.2516225" id="Fill-17"></path>
                            <path d="M29.7666339,13.3772204 C29.6503002,13.3772204 29.5336763,13.3355414 29.4409381,13.251023 L19.1497048,3.86841136 C19.0266019,3.75604244 18.8105673,3.75613914 18.6874643,3.86841136 L13.9286114,8.20718627 C13.7439087,8.37544954 13.4616325,8.37544954 13.2770264,8.20718627 L11.1956871,6.30958269 C11.0724874,6.19721376 10.8564528,6.19740717 10.7334466,6.30958269 L3.41515458,12.9818017 C3.2178804,13.161476 2.91220212,13.1477441 2.73204437,12.9502765 C2.55208003,12.7529057 2.56629538,12.4471307 2.76356956,12.2671663 L10.0819583,5.59485058 C10.5769811,5.14382764 11.3522493,5.14373094 11.8471754,5.59494728 L13.6028189,7.19557586 L18.0358793,3.15367926 C18.5310955,2.70265632 19.3063637,2.70255962 19.8011931,3.15377596 L30.0925231,12.5363876 C30.2897973,12.7163519 30.3040127,13.0221269 30.1240483,13.2194978 C30.0286024,13.3240338 29.8977632,13.3772204 29.7666339,13.3772204" id="Fill-19"></path>
                            <path d="M37.7044055,13.2516225 C37.5880718,13.2516225 37.4714479,13.2099435 37.3787097,13.1254251 L30.060321,6.45320603 C29.9375082,6.34093381 29.7212802,6.34083711 29.5982739,6.45310932 L26.1779844,9.57129857 C25.9810004,9.7510695 25.675032,9.73733767 25.4948742,9.53967668 C25.3150066,9.34240249 25.3291252,9.03653081 25.5264961,8.85666317 L28.9466889,5.73857063 C29.4414216,5.28735428 30.2169799,5.28735428 30.7118093,5.73857063 L38.0302948,12.4107897 C38.2275689,12.590754 38.2417843,12.896529 38.0618199,13.0938032 C37.9663741,13.1984359 37.8355349,13.2516225 37.7044055,13.2516225" id="Fill-21"></path>
                            <path d="M33.5870612,4.08229913 L33.58823,4.08229913 L33.5870612,4.08229913 Z M34.8601566,3.62421687 C34.4693797,3.62421687 34.1323696,3.86152611 34.0587786,4.18847906 C34.0120711,4.39629387 33.8347177,4.54908466 33.6221644,4.56446044 C33.4394924,4.57780546 33.2790621,4.71908859 33.2790621,4.86675412 C33.2790621,5.03559761 33.4446177,5.16788736 33.6561072,5.16788736 L35.8930417,5.16788736 C36.1907904,5.16788736 36.4422182,4.95813848 36.4422182,4.70970839 C36.4422182,4.47675079 36.2309221,4.28266781 35.9397493,4.24833823 C35.7846376,4.22996466 35.6478995,4.13780667 35.5726646,4.00097188 C35.4450166,3.76859449 35.1720239,3.62421687 34.8601566,3.62421687 Z M35.8930417,6.13491767 L33.6561072,6.13491767 C32.9024038,6.13491767 32.3120318,5.57790821 32.3120318,4.86675412 C32.3120318,4.31699738 32.6905274,3.83880089 33.2191062,3.66550906 C33.4929692,3.05869754 34.1265674,2.65718655 34.8601566,2.65718655 C35.4370869,2.65718655 35.9636349,2.9107419 36.2873,3.3318836 C36.949619,3.50449851 37.4092486,4.05348162 37.4092486,4.70970839 C37.4092486,5.49551723 36.7290394,6.13491767 35.8930417,6.13491767 Z" id="Fill-23"></path>
                            <path d="M11.2103279,2.72676439 L11.2114966,2.72676439 L11.2103279,2.72676439 Z M12.4834233,2.26868213 C12.0926464,2.26868213 11.7556363,2.50599136 11.6820453,2.83294431 C11.6353377,3.04075913 11.4579844,3.19354992 11.2454311,3.2089257 C11.0627591,3.22227072 10.9023288,3.36355385 10.9023288,3.51121938 C10.9023288,3.68006287 11.0678844,3.81235262 11.2793739,3.81235262 L13.5163084,3.81235262 C13.814057,3.81235262 14.0654849,3.60260374 14.0654849,3.35417365 C14.0654849,3.12111935 13.8541888,2.92703636 13.5631127,2.89280349 C13.408001,2.87442991 13.2711662,2.78227193 13.1959313,2.64543714 C13.0682833,2.41305975 12.7952906,2.26868213 12.4834233,2.26868213 Z M13.5163084,4.77938293 L11.2793739,4.77938293 C10.5256705,4.77938293 9.93529845,4.22237347 9.93529845,3.51121938 C9.93529845,2.96146264 10.3137941,2.48326615 10.8423729,2.30997432 C11.1162359,1.7031628 11.7498341,1.30165181 12.4834233,1.30165181 C13.0603536,1.30165181 13.5869016,1.55520716 13.91047,1.97625216 C14.5728857,2.14877037 15.0325152,2.69785018 15.0325152,3.35417365 C15.0325152,4.13998249 14.3523061,4.77938293 13.5163084,4.77938293 Z" id="Fill-25"></path>
                            <path d="M25.6152018,0.994136173 C25.1182449,0.994136173 24.6800835,1.22980146 24.4716884,1.60887734 C24.3963568,1.74580884 24.2596187,1.83796682 24.1046037,1.8562437 C23.6092908,1.91465233 23.2497489,2.25891512 23.2497489,2.67473815 C23.2497489,3.12421384 23.6718577,3.48994471 24.1907661,3.48994471 L27.275883,3.48994471 C27.6702379,3.48994471 27.9791074,3.22700917 27.9791074,2.89135294 C27.9791074,2.59176695 27.68455,2.31713034 27.3359355,2.29160074 C27.123479,2.27612826 26.9461256,2.12343417 26.8993213,1.91561936 C26.7791195,1.38172192 26.239033,0.994136173 25.6152018,0.994136173 M27.275883,4.45697502 L24.1907661,4.45697502 C23.1386372,4.45697502 22.2827186,3.65743436 22.2827186,2.67473815 C22.2827186,1.83535584 22.8887565,1.13590282 23.7545388,0.936791275 C24.1624322,0.370401621 24.8539555,0.0271058597 25.6152018,0.0271058597 C26.5661794,0.0271058597 27.410687,0.581697744 27.7419916,1.38491312 C28.4388336,1.57648183 28.9461377,2.18629114 28.9461377,2.89135294 C28.9461377,3.76922306 28.2124518,4.45697502 27.275883,4.45697502" id="Fill-27"></path>
                            <path d="M9.45824306,30.2680488 C9.28504793,30.2680488 9.11765498,30.1747304 9.03071895,30.0110121 C8.90558523,29.7750568 8.99542235,29.4824334 9.23128104,29.3572997 C9.41076187,29.2621439 9.61635251,29.161476 9.83403104,29.0548126 C10.9725158,28.4973196 12.6930562,27.6549395 12.6930562,26.4817383 C12.6930562,25.8489137 12.132372,25.4007918 11.2175613,24.72213 C10.1750059,23.9486991 8.87744465,22.9861171 8.67968695,21.2224473 C8.42390743,18.941126 10.8472854,16.9550392 15.8829023,15.3193074 C19.7690104,14.056946 24.2884265,13.298891 26.2183289,12.9753226 L26.6075586,12.909758 C27.9283286,12.6856971 28.4727667,12.5800006 28.6951837,12.532326 C28.7512714,12.4987701 28.8169328,12.4751746 28.8915875,12.4652141 C28.939939,12.4589284 28.9848093,12.4572845 29.0263916,12.459412 C29.0858639,12.4548669 29.1867252,12.4463571 29.3534412,12.4303044 C30.8555294,12.2863135 33.1610264,12.2845729 33.258503,12.2845729 C33.5028716,12.2845729 33.7086556,12.4667614 33.7384402,12.7092926 C33.7682247,12.9517271 33.6123394,13.1782056 33.3753203,13.2372911 C23.6270745,15.6652142 21.0588354,17.7476172 21.0628002,18.5094437 C21.0660881,19.1438156 22.4564843,19.7173613 23.8010433,20.2721466 C24.4738062,20.5496843 25.1696813,20.8367956 25.8350948,21.1765133 C26.0728876,21.2979723 26.167173,21.5893386 26.045714,21.8271313 C25.9240616,22.0649241 25.6328888,22.1592095 25.3951927,22.0378472 C24.7645923,21.7158261 24.0872842,21.4362577 23.4322179,21.1660694 C21.6455327,20.4289022 20.1024424,19.7923061 20.0957699,18.514569 C20.0859062,16.6232511 24.4879249,14.8150978 28.7595879,13.5065124 C28.7409242,13.5102838 28.7216803,13.5140552 28.7016628,13.51802 C28.3062441,13.5966396 27.6561096,13.71278 26.7692461,13.8631532 L26.3783724,13.9289112 C24.4695513,14.249095 19.9996471,14.9988336 16.1815213,16.2390499 C13.0618815,17.2524977 9.39470916,18.9210118 9.64072168,21.1146234 C9.7915784,22.4602461 10.8094745,23.2152066 11.793718,23.9455079 C12.711333,24.6262006 13.6600865,25.3301019 13.6600865,26.4817383 C13.6600865,28.2580763 11.6134635,29.2602098 10.2592343,29.9233992 C10.0488085,30.0263879 9.85008374,30.1236712 9.68443145,30.2115742 C9.61229098,30.2499653 9.53473515,30.2680488 9.45824306,30.2680488" id="Fill-29"></path>
                            <path d="M25.6347551,30.2679521 C25.5137797,30.2679521 25.3926108,30.2227918 25.2987121,30.1320843 C25.1067566,29.9464145 25.1016313,29.6403494 25.2872045,29.4482972 C27.3605174,27.304391 28.1929371,25.649512 27.8323315,24.3888913 C27.7075846,23.9533409 27.4609919,23.5581156 27.0784347,23.1804902 C26.8883165,22.9929831 26.8862858,22.6868213 27.0738897,22.4967998 C27.2613001,22.3066816 27.5676553,22.3046509 27.7575801,22.4922548 C28.2548271,22.9828292 28.5927075,23.5315222 28.7619378,24.1228613 C29.232398,25.7672963 28.3492092,27.673023 25.9824992,30.1205767 C25.8875369,30.2186336 25.7613394,30.2679521 25.6347551,30.2679521" id="Fill-31"></path>
                        </g>
                    </g>
                </g>
                <g id="sport" transform="translate(295.450567, 3.781142)" fill="#F4BD34">
                    <g id="icon">
                        <g id="not-selected" transform="translate(0.656547, 0.904394)">
                            <path d="M14.4585656,28.8880899 C6.49409733,28.8880899 0.0145206422,22.4085132 0.0145206422,14.444045 C0.0145206422,6.47957669 6.49409733,0 14.4585656,0 C16.3939582,0 18.2726689,0.37652999 20.0427209,1.11919464 C20.3213159,1.23606009 20.4524066,1.55667412 20.3355411,1.83526911 C20.2186757,2.11397352 19.8977334,2.24539244 19.6193572,2.12808929 C17.9841162,1.44210658 16.2478764,1.09424583 14.4585656,1.09424583 C7.09746448,1.09424583 1.10876647,7.08294384 1.10876647,14.444045 C1.10876647,21.8051461 7.09746448,27.7938441 14.4585656,27.7938441 C21.8196667,27.7938441 27.8083647,21.8051461 27.8083647,14.444045 C27.8083647,11.3501743 26.7257179,8.33443279 24.7601241,5.95247847 C24.5677557,5.71951353 24.6008019,5.37460725 24.8337669,5.18223883 C25.0668412,4.98987041 25.4117475,5.02291664 25.6040065,5.255991 C27.7312204,7.83348705 28.9026106,11.0965281 28.9026106,14.444045 C28.9026106,22.4085132 22.4230339,28.8880899 14.4585656,28.8880899" id="Fill-4"></path>
                            <path d="M10.9644526,8.12648232 L10.9658006,8.12648232 L10.9644526,8.12648232 Z M11.1841185,8.62764691 L11.1838489,8.62764691 L11.1838489,8.6277817 C11.1838489,8.62764691 11.1839837,8.62764691 11.1841185,8.62764691 Z M6.81518188,16.7296619 C7.70633569,16.9513561 10.5183286,17.6331807 12.0671242,17.8061809 C12.5708055,16.8594394 14.1388598,13.8969877 14.6947367,12.6820466 C14.097935,11.9949696 12.2174735,9.83405293 11.1435807,8.64537369 C10.2568039,9.03481578 7.50105517,10.2844445 6.2601804,11.2947617 C6.29300777,12.1684076 6.42519267,14.9766801 6.81518188,16.7296619 Z M12.1047662,18.9049132 C12.0678901,18.9049132 12.0307952,18.9028341 11.9934814,18.8988948 C10.3630551,18.7241438 7.3872536,18.0000813 6.513936,17.7823264 C6.13357615,17.6874553 5.84338216,17.3920089 5.75682731,17.0111019 C5.334339,15.1478201 5.19744885,12.1722374 5.16549687,11.3045005 C5.15389786,10.985309 5.29253881,10.6745432 5.53633678,10.4732019 C6.85501243,9.38366135 9.61798315,8.11871317 10.7448375,7.62531773 C11.1522252,7.44695565 11.6266902,7.54850167 11.9253099,7.87852621 C13.0166013,9.08482281 14.9727845,11.3333886 15.5463882,11.9938754 C15.8106486,12.2979663 15.8735677,12.7323819 15.7066952,13.1002673 C15.16001,14.3041566 13.6413062,17.1774273 13.0137562,18.3568054 C12.8321114,18.6978819 12.4834847,18.9049132 12.1047662,18.9049132 Z" id="Fill-6"></path>
                            <path d="M13.3038299,3.9087227 C12.9918604,3.9087227 12.6835019,3.79842272 12.441017,3.59708149 C10.9773538,2.38181207 8.98899971,2.29832112 8.96919386,2.29755514 C8.66761971,2.28705038 8.43104376,2.03417017 8.44111082,1.73259602 C8.45095903,1.43102187 8.7023073,1.19367995 9.00442857,1.20396586 C9.10061278,1.20702975 11.3808022,1.29445999 13.1401307,2.75527817 C13.193311,2.79937628 13.2598412,2.82071407 13.3252771,2.81338263 C15.3282941,2.61379219 17.1127902,2.45184381 18.6654156,2.49430054 C18.7759344,2.49823983 18.8793406,2.43685264 18.9246424,2.34044958 C19.0186381,2.14107799 19.1208407,1.90679996 19.2288428,1.64429038 C19.3437386,1.36492942 19.6631489,1.23154085 19.943057,1.34643667 C20.2225274,1.4614419 20.3558065,1.78107111 20.2409107,2.0605415 C20.1260149,2.33979303 20.0162621,2.5907036 19.9147161,2.80648888 C19.6843773,3.29605446 19.1833221,3.60452236 18.6357615,3.58810868 C17.1462741,3.54740273 15.3989824,3.70639665 13.4337168,3.90226665 C13.3904941,3.90653421 13.347162,3.9087227 13.3038299,3.9087227" id="Fill-8"></path>
                            <path d="M7.23696988,26.8090228 C7.06856545,26.8090228 6.9023495,26.7315502 6.79522284,26.5852496 C6.69914805,26.4541589 4.43362149,23.3489081 3.78079442,21.2838474 C3.76000375,21.2180832 3.71896953,21.1631521 3.66535149,21.1296681 C2.5196761,20.4103109 1.87636898,19.9671414 0.857844961,19.0832096 C0.629585281,18.8852605 0.605183599,18.5396977 0.80313267,18.3115474 C1.00108174,18.0831783 1.34697285,18.0587766 1.57490425,18.2568351 C2.53849713,19.092839 3.15193135,19.5152178 4.247162,20.2028419 C4.52017633,20.3740914 4.72501915,20.6408685 4.8240484,20.9538228 C5.42260087,22.8473058 7.65540949,25.9079114 7.67784153,25.9385503 C7.85642244,26.1822388 7.8036798,26.5246284 7.55988182,26.7032093 C7.46249395,26.7746635 7.34913008,26.8090228 7.23696988,26.8090228" id="Fill-10"></path>
                            <path d="M24.6340889,17.7948555 C24.2199168,17.7949649 23.819204,17.5766629 23.6030905,17.1931297 C22.5062185,15.2472323 21.3891029,13.4013491 20.9597208,12.6980773 C20.7573948,12.3671773 20.7306952,11.9582577 20.8881571,11.604488 C21.5867237,10.0332604 22.1769599,8.45973488 22.4664973,7.6617014 C22.5761408,7.3594707 22.7979444,7.11994029 23.090874,6.98731769 C23.3831471,6.85502337 23.7084663,6.84637883 24.0069766,6.96335371 C25.8819668,7.69770209 27.1557784,8.63568961 27.6352769,8.98869332 C27.8785278,9.16793078 27.9305045,9.51042973 27.7513764,9.75379 C27.5722484,9.99704085 27.2298589,10.049127 26.9863892,9.86988949 C26.5385143,9.54008379 25.3489597,8.66414 23.6080146,7.982206 C23.5808773,7.97170124 23.5571321,7.97739132 23.542141,7.98428507 C23.5264933,7.99128824 23.5057026,8.00584171 23.4951978,8.03483923 C23.2006269,8.84655078 22.6002142,10.447323 21.8878601,12.0491895 C21.8768083,12.0744666 21.8787779,12.1035735 21.8935502,12.1276469 C22.3259962,12.8360617 23.4508809,14.6949665 24.556288,16.655855 C24.5790483,16.6962327 24.6293836,16.7119898 24.6708556,16.6918557 C25.4062982,16.330864 26.786361,15.6029717 27.767243,14.7836004 C27.9993325,14.5900283 28.3442388,14.6209955 28.5379203,14.8528661 C28.7314924,15.0847368 28.7005252,15.429862 28.4686546,15.6235435 C27.3997952,16.5162292 25.932521,17.291393 25.1529803,17.6740507 C24.9862172,17.7560098 24.8089494,17.7948555 24.6340889,17.7948555" id="Fill-12"></path>
                            <path d="M13.7633365,28.8708884 C13.5749074,28.8708884 13.3917306,28.7735005 13.2900752,28.5990777 C12.9604884,28.033462 12.6991824,27.563374 12.538,27.2685842 C12.3630301,26.9484079 12.3904957,26.552072 12.6074846,26.2587047 C13.4627472,25.1023057 14.4384862,23.7215864 14.8182989,23.1817949 C15.0272999,22.8847071 15.3700177,22.7121446 15.7372466,22.7265886 C18.0414,22.8007785 20.294671,22.379275 21.1560613,22.194238 C21.6384049,22.0908318 22.1038971,22.3859499 22.2179175,22.8657767 L22.2577481,23.0326492 C22.4059089,23.6526489 22.5903988,24.4244205 22.7753263,25.545913 C22.8245674,25.844095 22.622679,26.1256444 22.324497,26.1747761 C22.0258774,26.2240171 21.7447656,26.0220194 21.695634,25.7239468 C21.5188038,24.6509293 21.3409889,23.9039971 21.1974238,23.3036939 C20.1867784,23.5113817 17.9771678,23.8922887 15.706936,23.8203968 C15.3292023,24.3572338 14.3885886,25.6878367 13.545691,26.8305576 C13.7051226,27.1205328 13.9427928,27.5457567 14.2355036,28.0482344 C14.3876038,28.3093214 14.2992981,28.6443795 14.0382111,28.7963702 C13.9516562,28.846815 13.8567851,28.8708884 13.7633365,28.8708884" id="Fill-14"></path>
                            <path d="M5.92291195,11.4896906 C5.82782198,11.4896906 5.73152835,11.4648513 5.64376984,11.4127652 L1.59506026,9.00542434 C1.33539573,8.85102625 1.25004455,8.5152022 1.40444264,8.25542824 C1.5587313,7.99576371 1.89444592,7.91019368 2.15443873,8.06481062 L6.2031483,10.4721514 C6.46281284,10.6265495 6.54816401,10.9623736 6.39376593,11.2221475 C6.29145394,11.394163 6.10959029,11.4896906 5.92291195,11.4896906" id="Fill-16"></path>
                            <path d="M15.2250739,24.0735177 C15.0415688,24.0735177 14.8624408,23.9811633 14.7589251,23.8136343 L11.5856122,18.6706789 C11.4269466,18.4134217 11.5068265,18.076394 11.7638649,17.9177284 C12.0211221,17.7589533 12.3581498,17.8388332 12.5168154,18.095981 L15.6901283,23.2389364 C15.848794,23.4961936 15.7690235,23.8332213 15.5118757,23.991887 C15.4223664,24.0471464 15.3231183,24.0735177 15.2250739,24.0735177" id="Fill-18"></path>
                            <path d="M11.3945679,8.5352269 C11.3315393,8.5352269 11.2673071,8.52417502 11.2047162,8.50108643 C10.9213065,8.39614826 10.7767567,8.08133373 10.8816948,7.79803349 L11.9758312,4.84356974 C12.0808788,4.5602695 12.3955839,4.41582905 12.6788842,4.52054838 C12.9622939,4.62548655 13.1068437,4.94019165 13.0019056,5.2234919 L11.9076597,8.17795564 C11.8259196,8.39877445 11.6169186,8.5352269 11.3945679,8.5352269" id="Fill-20"></path>
                            <path d="M4.2815432,21.0096294 C4.18306108,21.0096294 4.08337528,20.9830392 3.9935377,20.9272327 C3.7367182,20.7679105 3.6579325,20.4305545 3.8172547,20.1738444 L5.78689719,17.0005315 C5.94610996,16.743712 6.28335652,16.6648169 6.54028544,16.8242485 C6.79699552,16.9835707 6.87589064,17.3209267 6.71656845,17.5776367 L4.74692595,20.7509497 C4.6434103,20.9178221 4.4645011,21.0096294 4.2815432,21.0096294" id="Fill-22"></path>
                            <path d="M21.5707367,23.198121 C21.4856044,23.198121 21.399159,23.1782058 21.3184037,23.1361867 C21.0504229,22.996561 20.9463601,22.6662081 21.0858764,22.3981179 L23.821491,17.1457379 C23.9611168,16.8777571 24.291579,16.7734755 24.5594504,16.9132107 C24.8275406,17.0528364 24.9316034,17.3831893 24.7919776,17.6512795 L22.056363,22.9036595 C21.9588657,23.0908849 21.7682481,23.198121 21.5707367,23.198121" id="Fill-24"></path>
                            <path d="M15.3333167,13.2403746 C15.054284,13.2403746 14.8159572,13.0280909 14.7892576,12.7446812 C14.7609167,12.443873 14.9817355,12.176877 15.2825437,12.1485361 L21.0820466,11.6014131 C21.3835113,11.5725251 21.6498507,11.7937816 21.6780823,12.0946992 C21.7065327,12.3955073 21.4857138,12.6625033 21.1849057,12.6908443 L15.3854028,13.2379672 C15.3677854,13.2396086 15.3504963,13.2403746 15.3333167,13.2403746" id="Fill-26"></path>
                            <path d="M12.817733,27.2468306 C12.7809664,27.2468306 12.743762,27.2431102 12.7063388,27.2354504 L9.53302591,26.578903 C9.23714183,26.5176252 9.04685248,26.2280877 9.10813025,25.9322037 C9.16940802,25.6363196 9.45905489,25.4470151 9.75472011,25.507308 L12.928033,26.1638555 C13.2239171,26.2250238 13.4142064,26.5145613 13.3530381,26.8104454 C13.2994201,27.0689062 13.0717075,27.2468306 12.817733,27.2468306" id="Fill-28"></path>
                            <path d="M21.8995467,6.4560504 C21.7557628,6.4560504 21.6121977,6.39969674 21.5047428,6.28786482 L18.8785528,3.55225024 C18.6692236,3.33427647 18.6763362,2.98794766 18.8943099,2.77861844 C19.1123931,2.56939863 19.4586125,2.57662066 19.6679417,2.79437558 L22.2941317,5.52999015 C22.503461,5.74796392 22.4963484,6.09429273 22.2783746,6.30362196 C22.1722327,6.40538682 22.0357803,6.4560504 21.8995467,6.4560504" id="Fill-30"></path>
                        </g>
                    </g>
                </g>
            </g>
        </g>
    </g>
</svg>