<?xml version="1.0" encoding="UTF-8"?>
<svg width="689px" height="43px" viewBox="0 0 689 43" version="1.1" xmlns="http://www.w3.org/2000/svg" xmlns:xlink="http://www.w3.org/1999/xlink">
    <!-- Generator: Sketch 48.2 (47327) - http://www.bohemiancoding.com/sketch -->
    <title>genre-btns</title>
    <desc>Created with Sketch.</desc>
    <defs>
        <polygon id="path-1" points="0.0453350434 31.9718845 5.80086786 31.9718845 5.80086786 0.037501805 0.0453350434 0.037501805 0.0453350434 31.9718845"></polygon>
        <polygon id="path-3" points="0.0378185804 2.32729726e-05 8.88154816 2.32729726e-05 8.88154816 3.25821616 0.0378185804 3.25821616"></polygon>
        <polygon id="path-5" points="0.115995415 0.0976960301 9.48827455 0.0976960301 9.48827455 10.8220486 0.115995415 10.8220486"></polygon>
    </defs>
    <g id="Desktop---1440" stroke="none" stroke-width="1" fill="none" fill-rule="evenodd" transform="translate(-377.000000, -892.000000)">
        <g id="intro" transform="translate(319.000000, 816.000000)">
            <g id="genre-btns" transform="translate(57.000000, 76.000000)">
                <g id="architecture" transform="translate(0.000000, 0.537252)" fill="#F4BD34">
                    <g id="icon">
                        <g id="not-selected" transform="translate(1.291042, 0.000000)">
                            <path d="M9.05766575,10.1049736 L3.48208448,10.1049736 C1.58181369,10.1049736 0.0358622856,8.55902219 0.0358622856,6.6587514 C0.0358622856,5.0197015 1.15634354,3.65363531 2.74891592,3.28454067 C3.48079344,2.10969219 4.7755654,1.39402442 6.21120442,1.39402442 C8.00618354,1.39402442 9.58957517,2.55467143 10.1481661,4.21566905 C11.1567571,4.49008726 11.997369,5.30846462 12.2802507,6.34431088 C12.3845383,6.72645939 12.1594666,7.12080108 11.777318,7.22508861 C11.3951695,7.32951959 11.0006844,7.10444788 10.8963969,6.72215592 C10.7226799,6.08610242 10.1559124,5.60626504 9.5178506,5.55519714 C9.19982385,5.52980665 8.93673812,5.29713214 8.87247291,4.98455646 C8.61598584,3.73525787 7.49679563,2.82851585 6.21120442,2.82851585 C5.19429345,2.82851585 4.28955971,3.37362259 3.84988808,4.25095754 C3.74316192,4.46412297 3.5373124,4.61029764 3.30076477,4.64099576 C2.24010181,4.77827659 1.47035371,5.62677827 1.47035371,6.6587514 C1.47035371,7.76790017 2.37279226,8.67048217 3.48208448,8.67048217 L9.05766575,8.67048217 C9.45372883,8.67048217 9.77491146,8.9916648 9.77491146,9.38772788 C9.77491146,9.78379096 9.45372883,10.1049736 9.05766575,10.1049736" id="Fill-14"></path>
                            <path d="M30.4266964,11.336341 L30.4282399,11.336341 L30.4266964,11.336341 Z M32.7456952,10.1722512 C31.9647581,10.1722512 31.2849526,10.7225222 31.1291668,11.4806509 C31.065045,11.7932266 30.8019593,12.0259011 30.4837891,12.0512916 C30.0601838,12.0851456 29.7022782,12.4754707 29.7022782,12.9036664 C29.7022782,13.388381 30.0677866,13.7538894 30.5525013,13.7538894 L34.6270307,13.7538894 C35.2689656,13.7538894 35.790977,13.2317346 35.790977,12.5897996 C35.790977,11.9920471 35.3421247,11.5000165 34.7234285,11.4198284 C34.4868809,11.3892738 34.2810314,11.2430991 34.1741618,11.0297902 C33.9092112,10.5008932 33.3618093,10.1722512 32.7456952,10.1722512 Z M34.6270307,15.1883809 L30.5525013,15.1883809 C29.271357,15.1883809 28.2677868,14.1848107 28.2677868,12.9036664 C28.2677868,11.8952189 28.9358294,11.019175 29.8609329,10.7219484 C30.3083508,9.54810402 31.4532184,8.73775982 32.7456952,8.73775982 C33.7816849,8.73775982 34.7192685,9.23968837 35.2718346,10.0689679 C36.4234443,10.3758056 37.2254685,11.3848268 37.2254685,12.5897996 C37.2254685,14.0227131 36.0599442,15.1883809 34.6270307,15.1883809 Z" id="Fill-16"></path>
                            <path d="M28.3873086,41.8871496 C27.9911021,41.8871496 27.6700629,41.5661104 27.6700629,41.1699039 L27.6700629,18.0134826 L23.53342,18.0134826 C23.1372134,18.0134826 22.8161742,17.6923 22.8161742,17.2962369 C22.8161742,16.9001738 23.1372134,16.5789912 23.53342,16.5789912 L28.3873086,16.5789912 C28.7835151,16.5789912 29.1045543,16.9001738 29.1045543,17.2962369 L29.1045543,41.1699039 C29.1045543,41.5661104 28.7835151,41.8871496 28.3873086,41.8871496" id="Fill-18"></path>
                            <path d="M3.86297065,41.8871496 C3.46690756,41.8871496 3.14572493,41.5661104 3.14572493,41.1699039 L3.14572493,17.2962369 C3.14572493,16.9001738 3.46690756,16.5789912 3.86297065,16.5789912 L19.5231701,16.5789912 C19.9193766,16.5789912 20.2404158,16.9001738 20.2404158,17.2962369 C20.2404158,17.6923 19.9193766,18.0134826 19.5231701,18.0134826 L4.58021636,18.0134826 L4.58021636,41.1699039 C4.58021636,41.5661104 4.25903373,41.8871496 3.86297065,41.8871496" id="Fill-20"></path>
                            <path d="M9.16728959,13.4085787 C8.7712265,13.4085787 8.45004387,13.087396 8.45004387,12.6913329 L8.45004387,7.67792886 C8.45004387,7.39404301 8.61744902,7.1368387 8.87723542,7.02193594 L15.8349492,3.94466493 C16.0198551,3.86304237 16.2304385,3.86304237 16.415201,3.94466493 L23.3730582,7.02193594 C23.6325577,7.1368387 23.8001063,7.39404301 23.8001063,7.67792886 L23.8001063,10.6103162 C23.8001063,11.0063793 23.4790671,11.3275619 23.0828605,11.3275619 C22.6867975,11.3275619 22.3656148,11.0063793 22.3656148,10.6103162 L22.3656148,8.14499927 L16.1251468,5.38489432 L9.8845353,8.14499927 L9.8845353,12.6913329 C9.8845353,13.087396 9.56335267,13.4085787 9.16728959,13.4085787" id="Fill-22"></path>
                            <path d="M16.1251324,5.01097979 C15.7290694,5.01097979 15.4078867,4.68979716 15.4078867,4.29373408 L15.4078867,0.717260057 C15.4078867,0.321196975 15.7290694,1.43449142e-05 16.1251324,1.43449142e-05 C16.5211955,1.43449142e-05 16.8423782,0.321196975 16.8423782,0.717260057 L16.8423782,4.29373408 C16.8423782,4.68979716 16.5211955,5.01097979 16.1251324,5.01097979" id="Fill-24"></path>
                            <path d="M13.8259583,24.1570364 C13.4298952,24.1570364 13.1087126,23.8359972 13.1087126,23.4397907 L13.1087126,21.3409863 C13.1087126,20.9447798 13.4298952,20.6237406 13.8259583,20.6237406 C14.2220214,20.6237406 14.543204,20.9447798 14.543204,21.3409863 L14.543204,23.4397907 C14.543204,23.8359972 14.2220214,24.1570364 13.8259583,24.1570364" id="Fill-26"></path>
                            <path d="M8.71677321,24.1570364 C8.32071013,24.1570364 7.9995275,23.8359972 7.9995275,23.4397907 L7.9995275,21.3409863 C7.9995275,20.9447798 8.32071013,20.6237406 8.71677321,20.6237406 C9.11283629,20.6237406 9.43401892,20.9447798 9.43401892,21.3409863 L9.43401892,23.4397907 C9.43401892,23.8359972 9.11283629,24.1570364 8.71677321,24.1570364" id="Fill-28"></path>
                            <path d="M23.7889459,24.1570364 C23.3927394,24.1570364 23.0717002,23.8359972 23.0717002,23.4397907 L23.0717002,21.3409863 C23.0717002,20.9447798 23.3927394,20.6237406 23.7889459,20.6237406 C24.1851524,20.6237406 24.5061916,20.9447798 24.5061916,21.3409863 L24.5061916,23.4397907 C24.5061916,23.8359972 24.1851524,24.1570364 23.7889459,24.1570364" id="Fill-30"></path>
                            <path d="M18.6796891,24.1570364 C18.2834826,24.1570364 17.9624434,23.8359972 17.9624434,23.4397907 L17.9624434,21.3409863 C17.9624434,20.9447798 18.2834826,20.6237406 18.6796891,20.6237406 C19.0758956,20.6237406 19.3969348,20.9447798 19.3969348,21.3409863 L19.3969348,23.4397907 C19.3969348,23.8359972 19.0758956,24.1570364 18.6796891,24.1570364" id="Fill-32"></path>
                            <path d="M13.8259583,29.6904723 C13.4298952,29.6904723 13.1087126,29.3694331 13.1087126,28.9732266 L13.1087126,26.8742788 C13.1087126,26.4780722 13.4298952,26.157033 13.8259583,26.157033 C14.2220214,26.157033 14.543204,26.4780722 14.543204,26.8742788 L14.543204,28.9732266 C14.543204,29.3694331 14.2220214,29.6904723 13.8259583,29.6904723" id="Fill-34"></path>
                            <path d="M8.71677321,29.6904723 C8.32071013,29.6904723 7.9995275,29.3694331 7.9995275,28.9732266 L7.9995275,26.8742788 C7.9995275,26.4780722 8.32071013,26.157033 8.71677321,26.157033 C9.11283629,26.157033 9.43401892,26.4780722 9.43401892,26.8742788 L9.43401892,28.9732266 C9.43401892,29.3694331 9.11283629,29.6904723 8.71677321,29.6904723" id="Fill-36"></path>
                            <path d="M23.7889459,29.6904723 C23.3927394,29.6904723 23.0717002,29.3694331 23.0717002,28.9732266 L23.0717002,26.8742788 C23.0717002,26.4780722 23.3927394,26.157033 23.7889459,26.157033 C24.1851524,26.157033 24.5061916,26.4780722 24.5061916,26.8742788 L24.5061916,28.9732266 C24.5061916,29.3694331 24.1851524,29.6904723 23.7889459,29.6904723" id="Fill-38"></path>
                            <path d="M18.6796891,29.6904723 C18.2834826,29.6904723 17.9624434,29.3694331 17.9624434,28.9732266 L17.9624434,26.8742788 C17.9624434,26.4780722 18.2834826,26.157033 18.6796891,26.157033 C19.0758956,26.157033 19.3969348,26.4780722 19.3969348,26.8742788 L19.3969348,28.9732266 C19.3969348,29.3694331 19.0758956,29.6904723 18.6796891,29.6904723" id="Fill-40"></path>
                            <path d="M13.8259583,35.4147099 C13.4298952,35.4147099 13.1087126,35.0936708 13.1087126,34.6974642 L13.1087126,32.5985164 C13.1087126,32.2023098 13.4298952,31.8812707 13.8259583,31.8812707 C14.2220214,31.8812707 14.543204,32.2023098 14.543204,32.5985164 L14.543204,34.6974642 C14.543204,35.0936708 14.2220214,35.4147099 13.8259583,35.4147099" id="Fill-42"></path>
                            <path d="M8.71677321,35.4147099 C8.32071013,35.4147099 7.9995275,35.0936708 7.9995275,34.6974642 L7.9995275,32.5985164 C7.9995275,32.2023098 8.32071013,31.8812707 8.71677321,31.8812707 C9.11283629,31.8812707 9.43401892,32.2023098 9.43401892,32.5985164 L9.43401892,34.6974642 C9.43401892,35.0936708 9.11283629,35.4147099 8.71677321,35.4147099" id="Fill-44"></path>
                            <path d="M23.7889459,35.4147099 C23.3927394,35.4147099 23.0717002,35.0936708 23.0717002,34.6974642 L23.0717002,32.5985164 C23.0717002,32.2023098 23.3927394,31.8812707 23.7889459,31.8812707 C24.1851524,31.8812707 24.5061916,32.2023098 24.5061916,32.5985164 L24.5061916,34.6974642 C24.5061916,35.0936708 24.1851524,35.4147099 23.7889459,35.4147099" id="Fill-46"></path>
                            <path d="M18.6796891,35.4147099 C18.2834826,35.4147099 17.9624434,35.0936708 17.9624434,34.6974642 L17.9624434,32.5985164 C17.9624434,32.2023098 18.2834826,31.8812707 18.6796891,31.8812707 C19.0758956,31.8812707 19.3969348,32.2023098 19.3969348,32.5985164 L19.3969348,34.6974642 C19.3969348,35.0936708 19.0758956,35.4147099 18.6796891,35.4147099" id="Fill-48"></path>
                            <path d="M13.8259583,40.9854139 C13.4298952,40.9854139 13.1087126,40.6643748 13.1087126,40.2681682 L13.1087126,38.1692204 C13.1087126,37.7730138 13.4298952,37.4519747 13.8259583,37.4519747 C14.2220214,37.4519747 14.543204,37.7730138 14.543204,38.1692204 L14.543204,40.2681682 C14.543204,40.6643748 14.2220214,40.9854139 13.8259583,40.9854139" id="Fill-50"></path>
                            <path d="M8.71677321,40.9854139 C8.32071013,40.9854139 7.9995275,40.6643748 7.9995275,40.2681682 L7.9995275,38.1692204 C7.9995275,37.7730138 8.32071013,37.4519747 8.71677321,37.4519747 C9.11283629,37.4519747 9.43401892,37.7730138 9.43401892,38.1692204 L9.43401892,40.2681682 C9.43401892,40.6643748 9.11283629,40.9854139 8.71677321,40.9854139" id="Fill-52"></path>
                            <path d="M23.7889459,40.9854139 C23.3927394,40.9854139 23.0717002,40.6643748 23.0717002,40.2681682 L23.0717002,38.1692204 C23.0717002,37.7730138 23.3927394,37.4519747 23.7889459,37.4519747 C24.1851524,37.4519747 24.5061916,37.7730138 24.5061916,38.1692204 L24.5061916,40.2681682 C24.5061916,40.6643748 24.1851524,40.9854139 23.7889459,40.9854139" id="Fill-54"></path>
                            <path d="M18.6796891,40.9854139 C18.2834826,40.9854139 17.9624434,40.6643748 17.9624434,40.2681682 L17.9624434,38.1692204 C17.9624434,37.7730138 18.2834826,37.4519747 18.6796891,37.4519747 C19.0758956,37.4519747 19.3969348,37.7730138 19.3969348,38.1692204 L19.3969348,40.2681682 C19.3969348,40.6643748 19.0758956,40.9854139 18.6796891,40.9854139" id="Fill-56"></path>
                            <path d="M25.6720028,17.4537297 C25.2757963,17.4537297 24.9547571,17.1325471 24.9547571,16.736484 L24.9547571,13.8063918 L7.29559386,13.8063918 L7.29559386,16.736484 C7.29559386,17.1325471 6.97441123,17.4537297 6.57834815,17.4537297 C6.18214162,17.4537297 5.86110244,17.1325471 5.86110244,16.736484 L5.86110244,13.0891461 C5.86110244,12.6929396 6.18214162,12.3719004 6.57834815,12.3719004 L25.6720028,12.3719004 C26.0682093,12.3719004 26.3892485,12.6929396 26.3892485,13.0891461 L26.3892485,16.736484 C26.3892485,17.1325471 26.0682093,17.4537297 25.6720028,17.4537297" id="Fill-58"></path>
                        </g>
                    </g>
                </g>
                <g id="art" transform="translate(76.378987, 7.010047)" fill="#594383">
                    <g id="icon">
                        <g id="not-selected" transform="translate(1.089673, 1.022113)">
                            <path d="M9.97546677,26.5385658 C12.0429852,26.5385658 13.7024211,26.9962285 15.3073734,27.4389082 C16.9211792,27.8841759 18.5901498,28.3445627 20.725228,28.3445627 C22.8603062,28.3445627 24.5292767,27.8841759 26.1430826,27.4389082 C27.7478986,26.9962285 29.4074707,26.5385658 31.4749892,26.5385658 C34.2927476,26.5385658 37.7550476,27.5881934 39.8232472,28.3188192 C39.2793641,26.8811318 38.5307587,24.5545435 38.5307587,22.6444828 C38.5307587,21.1544911 38.7935061,19.9604818 39.0478086,18.805837 C39.3017024,17.6532352 39.5640412,16.4614053 39.5640412,14.9388596 C39.5640412,13.4164501 39.3017024,12.2244839 39.0478086,11.0718822 C38.7935061,9.91723736 38.5307587,8.72336429 38.5307587,7.23337255 C38.5307587,5.32331183 39.2793641,2.99685979 39.8232472,1.55889994 C37.7549114,2.28966196 34.2927476,3.33928956 31.4749892,3.33928956 C29.4074707,3.33928956 27.7478986,2.88149065 26.1430826,2.43881096 C24.5292767,1.99354329 22.8603062,1.53315641 20.725228,1.53315641 C18.5901498,1.53315641 16.9211792,1.99354329 15.3073734,2.43881096 C13.7024211,2.88149065 12.0429852,3.33928956 9.97546677,3.33928956 C7.15729974,3.33928956 3.69527213,2.28952575 1.62720882,1.55889994 C2.1710919,2.99645116 2.91969731,5.32249458 2.91969731,7.23337255 C2.91969731,8.72336429 2.65694989,9.91723736 2.40251122,11.0718822 C2.1487536,12.2244839 1.8862786,13.4164501 1.8862786,14.9388596 C1.8862786,16.4614053 2.1487536,17.6532352 2.40251122,18.805837 C2.65694989,19.9604818 2.91969731,21.1544911 2.91969731,22.6444828 C2.91969731,24.5545435 2.1710919,26.8811318 1.62720882,28.3188192 C3.69527213,27.5883296 7.15729974,26.5385658 9.97546677,26.5385658 M40.1959154,29.8297872 C40.0656994,29.8297872 39.9339852,29.806904 39.80554,29.7597757 C38.2767286,29.2009096 34.4045753,27.9006572 31.4749892,27.9006572 C29.5918979,27.9006572 28.092644,28.3141881 26.5052627,28.7521005 C24.8038744,29.221341 23.0445972,29.7066541 20.725228,29.7066541 C18.4058588,29.7066541 16.6465816,29.221341 14.9450571,28.7521005 C13.357812,28.3141881 11.8585581,27.9006572 9.97546677,27.9006572 C7.04574446,27.9006572 3.17359114,29.2009096 1.64491601,29.7599119 C1.22334873,29.9141006 0.765004992,29.808811 0.449680842,29.4850418 C0.127682444,29.1543261 0.0301567027,28.6615214 0.201235378,28.2296022 C0.707797154,26.950326 1.55760595,24.5238965 1.55760595,22.6444828 C1.55760595,21.3026866 1.32196415,20.2320828 1.07242901,19.0988228 C0.802871131,17.8749837 0.524187239,16.6094646 0.524187239,14.9388596 C0.524187239,13.2682545 0.802871131,12.0027354 1.07242901,10.7788964 C1.32196415,9.64563635 1.55760595,8.57516875 1.55760595,7.23337255 C1.55760595,5.35300542 0.707797154,2.9269845 0.201235378,1.64825313 C0.0301567027,1.21619775 0.127682444,0.72352931 0.449680842,0.392813527 C0.765004992,0.0689082019 1.22334873,-0.0363814602 1.64491601,0.117943491 C3.17359114,0.676945785 7.04574446,1.9771982 9.97546677,1.9771982 C11.8585581,1.9771982 13.357812,1.56366726 14.9450571,1.12575489 C16.6465816,0.656378206 18.4058588,0.171065054 20.725228,0.171065054 C23.0445972,0.171065054 24.8038744,0.656378206 26.5052627,1.12575489 C28.092644,1.56366726 29.5918979,1.9771982 31.4749892,1.9771982 C34.4045753,1.9771982 38.2767286,0.676945785 39.8056762,0.117943491 C40.2276521,-0.0363814602 40.6851786,0.069044411 41.0005027,0.392677318 C41.3227735,0.72352931 41.4201631,1.21633396 41.2492206,1.64825313 C40.7426588,2.92739313 39.89285,5.35395889 39.89285,7.23337255 C39.89285,8.57516875 40.1284918,9.64563635 40.378027,10.7788964 C40.6475849,12.0027354 40.9261325,13.2682545 40.9261325,14.9388596 C40.9261325,16.6094646 40.6475849,17.8749837 40.378027,19.0988228 C40.1284918,20.2320828 39.89285,21.3026866 39.89285,22.6444828 C39.89285,24.5238965 40.7426588,26.950326 41.2492206,28.2296022 C41.4201631,28.6616576 41.3227735,29.1544623 41.0005027,29.4851781 C40.7813422,29.7101955 40.4929875,29.8297872 40.1959154,29.8297872" id="Fill-3"></path>
                            <path d="M35.5374267,24.4090994 L5.91302929,24.4090994 C5.53681965,24.4090994 5.23198361,24.1042634 5.23198361,23.7280537 L5.23198361,6.1497199 C5.23198361,5.77364648 5.53681965,5.46867422 5.91302929,5.46867422 L33.0112921,5.46867422 C33.3875017,5.46867422 33.6923377,5.77364648 33.6923377,6.1497199 C33.6923377,6.52579333 33.3875017,6.83076558 33.0112921,6.83076558 L6.59407497,6.83076558 L6.59407497,23.0470081 L34.856381,23.0470081 L34.856381,6.37936851 C34.856381,6.00329508 35.1612171,5.69832283 35.5374267,5.69832283 C35.9136363,5.69832283 36.2184724,6.00329508 36.2184724,6.37936851 L36.2184724,23.7280537 C36.2184724,24.1042634 35.9136363,24.4090994 35.5374267,24.4090994" id="Fill-5"></path>
                            <path d="M35.5372905,6.92105862 C35.3683912,6.92105862 35.1993556,6.85867483 35.067369,6.73281759 C34.7952231,6.47320298 34.7850074,6.04210106 35.044622,5.76995521 L37.4559324,3.24164123 C37.7154108,2.96922296 38.1463765,2.95927969 38.4187948,3.21875809 C38.6909406,3.47837271 38.7012925,3.90947462 38.4415417,4.18162048 L36.0302314,6.71007067 C35.896474,6.85036608 35.7169503,6.92105862 35.5372905,6.92105862" id="Fill-7"></path>
                            <path d="M5.85580783,6.80067698 C5.67301517,6.80067698 5.49076734,6.72753268 5.35660135,6.58301479 L3.23228366,4.29538235 C2.97634669,4.01983126 2.99241937,3.58886556 3.26797045,3.33292859 C3.54352154,3.07712783 3.97435103,3.09292809 4.23042421,3.36861538 L6.35474189,5.65624782 C6.61067886,5.93179891 6.59474239,6.36276461 6.3190551,6.61870158 C6.1878857,6.74047255 6.02171056,6.80067698 5.85580783,6.80067698" id="Fill-9"></path>
                            <path d="M37.9488869,26.7869159 C37.769227,26.7869159 37.5897034,26.7162234 37.455946,26.575928 L35.0446357,24.047614 C34.7848848,23.7753319 34.7952367,23.34423 35.0673826,23.0846154 C35.3398009,22.8250008 35.7709028,22.8352165 36.030245,23.1073623 L38.4415553,25.6358125 C38.7011699,25.9080946 38.6909542,26.3391965 38.4188084,26.5986749 C38.2868217,26.7245321 38.11765,26.7869159 37.9488869,26.7869159" id="Fill-11"></path>
                            <path d="M3.73127221,26.6665343 C3.56536948,26.6665343 3.39919434,26.6063299 3.26802494,26.4845589 C2.99233765,26.2286219 2.97640118,25.7976562 3.23233814,25.5221051 L5.35665583,23.2346089 C5.61272901,22.9589216 6.0435585,22.9431214 6.31910958,23.1989221 C6.59466067,23.4548591 6.61073334,23.8858248 6.35479638,24.1613759 L4.23047869,26.4488721 C4.09631269,26.59339 3.91406487,26.6665343 3.73127221,26.6665343" id="Fill-13"></path>
                        </g>
                    </g>
                </g>
                <g id="ent" transform="translate(156.641651, 4.420929)" fill="#22BFB3">
                    <g id="icon">
                        <g id="not-selected" transform="translate(0.543619, 0.689309)">
                            <path d="M1.43357689,14.846254 C1.12262699,14.846254 0.842255641,14.6316605 0.771177495,14.3156822 C0.335467103,12.3775456 0.190185004,11.0558726 0.145200556,10.2884189 C0.127940662,10.0664866 0.0731710777,9.35366652 0.568271813,8.91211223 C1.11678309,8.42326311 1.88844984,8.57248644 2.95652469,8.77906155 C3.16078942,8.81860981 3.38000366,8.86101207 3.61348789,8.90232709 C4.71499529,9.08579841 7.69946199,9.40490259 11.4765247,8.38113266 C13.2653021,7.91307696 14.9581307,7.21140111 16.5136957,6.29404455 C16.8371488,6.10323438 17.2535607,6.21114269 17.444235,6.53418811 C17.6347733,6.85750533 17.5272727,7.27405317 17.2040914,7.46472743 C15.5402105,8.44595919 13.7309115,9.196153 11.8263434,9.69437955 C7.79636202,10.7865095 4.57949833,10.4410398 3.38367309,10.2416677 C3.13605477,10.1980423 2.90950167,10.154281 2.6983058,10.1133737 C2.26123637,10.028841 1.72957727,9.92473797 1.50003427,9.9430851 C1.49459809,9.99282622 1.49147228,10.0732818 1.50098561,10.1965473 C1.54393148,10.9256759 1.68146702,12.1686601 2.09719942,14.0175073 C2.17942175,14.3837704 1.94933513,14.7471795 1.58320794,14.8295377 C1.53305911,14.8408178 1.48291028,14.846254 1.43357689,14.846254 Z M5.82873412,15.8041102 L5.83022482,15.8041102 L5.82873412,15.8041102 Z M6.00268786,16.4610734 L6.00134622,16.4613715 L6.00119715,16.4613715 C6.00179343,16.4612224 6.00224064,16.4610734 6.00268786,16.4610734 Z M6.62364057,16.2979878 C7.1883245,16.6838211 7.96094258,16.9598435 8.92219636,16.715351 C9.8767908,16.458763 10.3992084,15.841484 10.6843364,15.2315438 L6.62364057,16.2979878 Z M8.20312472,18.166813 C6.77218438,18.166813 5.73958065,17.4046595 5.19854413,16.8810188 C4.9331223,16.6240231 4.82630122,16.2418591 4.92007545,15.8836144 C5.0143933,15.5236029 5.2963955,15.241193 5.65613518,15.1468752 L10.9447297,13.7580653 C11.2997128,13.6651065 11.6809254,13.7688017 11.9394161,14.0297387 C12.1966836,14.2891807 12.2972531,14.6690343 12.2017121,15.0210274 C11.9592582,15.9152802 11.2555437,17.4955798 9.26562747,18.0303647 C8.89066647,18.1254979 8.53609117,18.166813 8.20312472,18.166813 Z M10.9739493,25.670246 C10.6722409,25.670246 10.3809972,25.5443983 10.1707526,25.3126808 C9.89214803,25.005944 9.81237199,24.5756698 9.96254665,24.1898364 C10.4345436,22.9767513 11.7037574,20.7914041 14.9013226,19.7869326 C15.2592955,19.675219 15.6409158,19.873368 15.753309,20.2314768 C15.8657022,20.5895856 15.6667377,20.9709342 15.3086289,21.0835991 C13.0724534,21.7859545 11.9818183,23.1579122 11.4638856,24.1626555 L15.3699219,23.0608763 C15.7311565,22.9594914 16.1065253,23.1693282 16.2084538,23.5304269 C16.3102464,23.8917975 16.1000018,24.2670303 15.7389031,24.3689588 L11.2723959,25.6287951 C11.1734573,25.6566556 11.0731597,25.670246 10.9739493,25.670246 Z M14.4199482,30.3448233 C7.96270934,30.3448233 3.57557049,23.838251 1.51145027,17.1412763 C1.40095976,16.7826238 1.60209869,16.4022267 1.96075113,16.2917362 C2.31953947,16.1809738 2.69966485,16.3823846 2.81029126,16.7409011 C3.32238008,18.4024717 4.81148761,22.5937719 7.57143978,25.6195536 C10.2574598,28.5642002 13.3698128,29.5848443 16.8216557,28.6538973 C17.0198047,28.5998072 17.2288261,28.5349807 17.4590486,28.456156 C17.8137598,28.3346572 18.2004086,28.5235647 18.3220433,28.8788195 C18.443678,29.2338026 18.2544987,29.6201796 17.8993797,29.7419501 C17.6415686,29.8301523 17.4055022,29.903269 17.1774541,29.9655133 C16.2206852,30.2235963 15.3004746,30.3448233 14.4199482,30.3448233 Z" id="Fill-6"></path>
                            <path d="M20.1615403,13.6953181 L26.6136148,15.5235078 C26.2970928,14.5265111 25.5613049,13.1727646 23.8646709,12.6825564 C22.1676292,12.1926201 20.8977359,12.9913319 20.1615403,13.6953181 Z M27.0056998,17.0040533 C26.9058098,17.0040533 26.8048326,16.9901911 26.7052145,16.9619229 L19.3565769,14.8798632 C18.994255,14.7772552 18.7146991,14.5002815 18.6085575,14.1390468 C18.5028237,13.7784917 18.5881718,13.3952406 18.8370133,13.1139179 C19.5356992,12.323904 21.4601094,10.5737236 24.2418064,11.3767843 C26.9840909,12.1692445 27.8272435,14.6471944 28.0624945,15.675721 C28.1486581,16.0525847 28.0327314,16.4367872 27.7520882,16.7034322 C27.545649,16.8996785 27.2799554,17.0040533 27.0056998,17.0040533 Z M32.8987983,17.4954846 L32.8999909,17.4957828 C32.8996928,17.4957828 32.8992455,17.4956337 32.8989474,17.4954846 L32.8987983,17.4954846 Z M33.319831,17.6199733 L39.4434239,19.4300877 C39.1373666,18.4340423 38.4329727,17.0853243 36.8253562,16.5993292 C35.228884,16.1353506 34.0215069,16.926044 33.319831,17.6199733 Z M39.8341499,20.9160694 C39.7303187,20.9160694 39.6251285,20.9011199 39.5215691,20.8704055 L32.5136445,18.7988105 L32.5135086,18.7988105 C32.1582537,18.6936203 31.8834545,18.4189569 31.778672,18.063838 C31.6737536,17.7093986 31.7548887,17.3302246 31.9955759,17.0497173 C32.6700708,16.2628292 34.5285672,14.5169978 37.2117332,15.2962752 C39.8492353,16.0936279 40.6635761,18.5683162 40.8916241,19.5953478 C40.9757491,19.9732987 40.8565607,20.3573653 40.5729277,20.6221076 C40.3670321,20.8142768 40.104872,20.9160694 39.8341499,20.9160694 Z M26.915595,26.41287 C30.3613221,27.4127207 32.7377513,26.2734318 33.8885921,25.4605859 L21.3565501,21.9778927 C22.0211239,23.3801571 23.5391792,25.4232121 26.915595,26.41287 Z M29.5464377,28.1648172 C28.6362841,28.1648172 27.631269,28.0358436 26.5358773,27.7178267 C26.5353337,27.7176908 26.5346542,27.7175549 26.5341105,27.7172831 C21.9992433,26.3882712 20.3641741,23.2481937 19.8716556,21.9599533 C19.7235195,21.572489 19.8047905,21.1413994 20.0836669,20.8350702 C20.3621356,20.5290129 20.7824887,20.40765 21.1816408,20.5188201 L34.7707493,24.2952033 C35.1622907,24.404063 35.4589706,24.7184105 35.5451342,25.1155239 C35.6310259,25.5114143 35.4915877,25.9191283 35.1814533,26.1793857 C34.3624917,26.8669275 32.4325094,28.1648172 29.5464377,28.1648172 Z M28.2549355,35.3352838 C27.0822141,35.3352838 25.8825835,35.1727418 24.6618877,34.8475219 C21.3917494,33.973383 18.8506038,32.1635404 17.1084417,29.4678712 C16.0907875,27.8932796 15.344399,26.00502 14.889662,23.8556876 C14.6652833,22.7954952 14.5096725,21.6606912 14.4271784,20.4826694 C14.0609153,15.259445 15.1713924,10.4158023 15.6656777,8.57565302 C15.8374612,7.93676514 16.020253,7.2992363 16.2090246,6.68100593 C17.0101826,4.05641482 17.7562993,2.32159163 18.2410713,1.32826435 C18.4485977,0.894184817 18.8045321,0.294165672 19.4701932,0.154183855 C20.3020657,-0.0208613678 21.0450566,0.618298325 22.0729036,1.50263005 C22.2898075,1.68936308 22.5236994,1.8906379 22.7770258,2.10088244 C23.6595907,2.84047569 26.9407373,5.35729439 32.2109848,6.77749825 C37.2053457,8.12336226 41.2222802,7.68941863 42.7176394,7.44057717 C43.0394617,7.38363311 43.3457908,7.32369915 43.6298316,7.26811413 C44.9555817,7.00894392 45.9135737,6.82153137 46.5500153,7.38771025 C47.0635991,7.84462177 47.072297,8.55716999 47.0342437,9.05335796 C46.9488956,10.3339877 46.7015491,11.9522047 46.3193851,13.7260325 C46.2402886,14.0928393 45.8787821,14.3263235 45.5121113,14.247227 C45.1453046,14.1681305 44.9118204,13.806624 44.9909169,13.4398173 C45.4563904,11.278797 45.6217864,9.80871615 45.6785946,8.95605021 C45.7082218,8.57076045 45.6582089,8.43376854 45.6433952,8.40278228 C45.4336943,8.30017424 44.5792616,8.46706519 43.8907685,8.60188263 C43.599253,8.65882669 43.2844978,8.72052741 42.9474542,8.77991775 C41.3581849,9.04452416 37.1095329,9.5051051 31.8573608,8.08979381 C26.3184298,6.59715275 22.8404932,3.92730538 21.9065563,3.14449445 C21.6490169,2.9308523 21.4091452,2.72427719 21.1865333,2.5329234 C20.6514766,2.07261427 19.9878541,1.50154282 19.7531467,1.48550606 C19.7250144,1.50548405 19.6191447,1.59626837 19.464757,1.91944969 C18.9990117,2.87350052 18.2841531,4.538061 17.5088169,7.07784759 C17.3245301,7.68153616 17.1459514,8.30411548 16.978245,8.92846156 C16.5016273,10.7022894 15.4311062,15.3696637 15.7828275,20.3876721 C15.8609727,21.5033135 16.0078856,22.5754655 16.2192174,23.574229 C16.6394347,25.5608836 17.3226275,27.2954349 18.2499051,28.7301806 C19.8032955,31.1337907 22.0784757,32.7502409 25.01225,33.5345468 C29.7368401,34.7927523 33.9895693,33.3620838 37.6528798,29.2811382 C41.360903,25.1501796 43.3332876,19.5191053 44.0092774,17.2895891 C44.118273,16.9306648 44.4973111,16.7281668 44.856779,16.8364829 C45.215975,16.9454784 45.4187448,17.3249243 45.3098852,17.6841203 C44.6075298,20.0003437 42.5541461,25.855389 38.6641465,30.1888455 C36.8218227,32.2412779 34.7957558,33.7002146 32.6423462,34.5254278 C31.2338301,35.0651053 29.7668751,35.3352838 28.2549355,35.3352838 Z" id="Fill-8"></path>
                        </g>
                    </g>
                </g>
                <g id="food-&amp;-drink" transform="translate(476.397749, 5.715488)">
                    <g id="genre-food-no">
                        <g id="icon">
                            <g id="not-selected" transform="translate(0.378317, 0.812470)">
                                <g id="Group-20" transform="translate(41.236604, 0.000000)">
                                    <mask id="mask-2" fill="white">
                                        <use xlink:href="#path-1"></use>
                                    </mask>
                                    <g id="Clip-19"></g>
                                    <path d="M2.04159022,18.0152873 C2.04173391,18.0155787 2.04202128,18.0157244 2.04216496,18.0160159 C2.04202128,18.0157244 2.04173391,18.015433 2.04159022,18.0152873 Z M2.04222075,18.0160546 C2.04250812,18.016346 2.04279549,18.0166375 2.04308286,18.0170746 C2.04279549,18.0166375 2.04250812,18.016346 2.04222075,18.0160546 Z M2.99230202,17.175194 C3.14715997,17.358329 3.2257239,17.6166618 3.29886528,18.5915485 C3.33657092,19.092484 3.35700006,19.609917 3.35700006,19.7352468 L3.35700006,30.0931143 C3.35700006,30.4238314 3.62232671,30.6930347 3.94843637,30.6930347 C4.27454603,30.6930347 4.53987268,30.4238314 4.53987268,30.0931143 L4.53987268,2.20992223 C2.29872,4.51317679 1.30639327,6.07672983 1.30639327,9.32967725 L1.30639327,14.162931 C1.30639327,14.7958464 1.53804967,15.4017776 1.95848649,15.8693344 C1.9675661,15.8794375 1.97626741,15.8897964 1.9847165,15.9004111 L2.99230202,17.175194 Z M3.94843637,31.9719101 C2.92697921,31.9719101 2.09594183,31.1291312 2.09594183,30.0931143 L2.09594183,19.7352468 C2.09594183,19.452999 2.02847522,18.2596804 1.95621658,17.9091406 L1.01281892,16.7154383 C0.388847305,16.0141031 0.0453350434,15.1084035 0.0453350434,14.162931 L0.0453350434,9.32967725 C0.0453350434,5.18305172 1.64423077,3.29197869 4.27732036,0.670156277 L4.7286531,0.220887356 C4.90961496,0.040310152 5.17985974,-0.0125074012 5.41429046,0.0875006535 C5.64859508,0.187252933 5.80093091,0.41962459 5.80093091,0.677190091 L5.80093091,30.0931143 C5.80093091,31.1291312 4.96989354,31.9719101 3.94843637,31.9719101 Z" id="Fill-18" fill="#594383" mask="url(#mask-2)"></path>
                                </g>
                                <path d="M4.12787235,31.9718845 C3.10628908,31.9718845 2.27537781,31.1291056 2.27537781,30.0932166 L2.27537781,11.9313957 C1.29326566,11.5288058 5.04423292e-05,10.4587707 5.04423292e-05,8.34299932 L5.04423292e-05,0.993302508 C5.04423292e-05,0.640077128 0.282275274,0.353864818 0.630579558,0.353864818 C0.978757735,0.353864818 1.26110867,0.640077128 1.26110867,0.993302508 L1.26110867,8.34299932 C1.26110867,10.3828055 2.85445575,10.7963938 3.03630034,10.8368063 C3.325461,10.9011337 3.53643604,11.1620243 3.53643604,11.4624321 L3.53643604,30.0932166 C3.53643604,30.4239337 3.80176269,30.6930091 4.12787235,30.6930091 C4.45398201,30.6930091 4.71918255,30.4239337 4.71918255,30.0932166 L4.71918255,11.4624321 C4.71918255,11.1422017 4.95273054,10.8714638 5.26559908,10.8287494 C5.4284017,10.8029161 6.91027123,10.5060891 6.91027123,8.34299932 L6.91027123,0.993302508 C6.91027123,0.640077128 7.19262217,0.353864818 7.54080034,0.353864818 C7.88910463,0.353864818 8.17132946,0.640077128 8.17132946,0.993302508 L8.17132946,8.34299932 C8.17132946,10.5590346 6.94066273,11.5914707 5.98024078,11.9533924 L5.98024078,30.0932166 C5.98024078,31.1291056 5.14932952,31.9718845 4.12787235,31.9718845" id="Fill-21" fill="#594383"></path>
                                <path d="M7.5408634,8.81150252 L3.01769974,8.81150252 C2.66939545,8.81150252 2.38717062,8.52529021 2.38717062,8.17206483 C2.38717062,7.81883945 2.66939545,7.53262714 3.01769974,7.53262714 L7.5408634,7.53262714 C7.88916768,7.53262714 8.17139251,7.81883945 8.17139251,8.17206483 C8.17139251,8.52529021 7.88916768,8.81150252 7.5408634,8.81150252" id="Fill-23" fill="#594383"></path>
                                <path d="M5.26553603,8.81150252 C4.91723175,8.81150252 4.63500692,8.52529021 4.63500692,8.17206483 L4.63500692,0.993225775 C4.63500692,0.640000395 4.91723175,0.353788085 5.26553603,0.353788085 C5.61384031,0.353788085 5.89606515,0.640000395 5.89606515,0.993225775 L5.89606515,8.17206483 C5.89606515,8.52529021 5.61384031,8.81150252 5.26553603,8.81150252" id="Fill-25" fill="#594383"></path>
                                <path d="M2.99008256,8.81150252 C2.64177828,8.81150252 2.35955344,8.52529021 2.35955344,8.17206483 L2.35955344,0.993225775 C2.35955344,0.640000395 2.64177828,0.353788085 2.99008256,0.353788085 C3.33838684,0.353788085 3.62061168,0.640000395 3.62061168,0.993225775 L3.62061168,8.17206483 C3.62061168,8.52529021 3.33838684,8.81150252 2.99008256,8.81150252" id="Fill-27" fill="#594383"></path>
                                <path d="M24.2208176,2.04795267 C16.516004,2.04795267 10.2477879,8.40473063 10.2477879,16.2184034 C10.2477879,24.0319483 16.516004,30.3887263 24.2208176,30.3887263 C31.9256311,30.3887263 38.1938472,24.0319483 38.1938472,16.2184034 C38.1938472,8.40473063 31.9256311,2.04795267 24.2208176,2.04795267 M24.2208176,31.6676017 C15.8207826,31.6676017 8.98672971,24.7371202 8.98672971,16.2184034 C8.98672971,7.69955875 15.8207826,0.769077287 24.2208176,0.769077287 C32.6208525,0.769077287 39.4549054,7.69955875 39.4549054,16.2184034 C39.4549054,24.7371202 32.6208525,31.6676017 24.2208176,31.6676017" id="Fill-29" fill="#594383"></path>
                                <path d="M15.2588046,10.2163855 C15.1295461,10.2163855 14.9990266,10.1763567 14.8869185,10.0928461 C14.6058286,9.88426156 14.5447934,9.48410145 14.7505981,9.1992959 C16.9542974,6.14623671 20.4947184,4.32345563 24.2207671,4.32345563 C24.5690714,4.32345563 24.8512962,4.60966794 24.8512962,4.96289332 C24.8512962,5.3161187 24.5690714,5.60233101 24.2207671,5.60233101 C20.8952305,5.60233101 17.7353969,7.22944416 15.7680199,9.9545997 C15.6445623,10.1257132 15.4530076,10.2163855 15.2588046,10.2163855" id="Fill-31" fill="#594383"></path>
                                <path d="M24.2208176,8.9197849 C20.2523934,8.9197849 17.0239582,12.1939616 17.0239582,16.2183267 C17.0239582,20.2428196 20.2523934,23.5171243 24.2208176,23.5171243 C28.1892417,23.5171243 31.417803,20.2428196 31.417803,16.2183267 C31.417803,12.1939616 28.1892417,8.9197849 24.2208176,8.9197849 M24.2208176,24.7959996 C19.557172,24.7959996 15.7629,20.9481194 15.7629,16.2183267 C15.7629,11.4887898 19.557172,7.64090952 24.2208176,7.64090952 C28.8845892,7.64090952 32.6788612,11.4887898 32.6788612,16.2183267 C32.6788612,20.9481194 28.8845892,24.7959996 24.2208176,24.7959996" id="Fill-33" fill="#594383"></path>
                                <path d="M13.9702805,11.6614891 L13.9717174,11.6614891 L13.9702805,11.6614891 Z M14.600053,11.6614891 L14.6014898,11.6614891 L14.600053,11.6614891 Z M13.9702805,12.3016941 C13.6219762,12.3016941 13.3389948,12.0147145 13.3389948,11.6614891 C13.3389948,11.3082637 13.6219762,11.021412 13.9702805,11.021412 C14.3185848,11.021412 14.6015663,11.3082637 14.6015663,11.6614891 C14.6015663,12.0147145 14.3185848,12.3016941 13.9702805,12.3016941 Z" id="Fill-35" fill="#594383"></path>
                            </g>
                        </g>
                    </g>
                </g>
                <g id="horror" transform="translate(560.544090, 1.831811)">
                    <g id="icon">
                        <g id="not-selected" transform="translate(1.760019, 0.581824)">
                            <path d="M16.5616175,35.607648 C15.3002224,35.607648 14.5988913,34.905037 14.0353363,34.3404347 C13.5078544,33.8120218 13.1812182,33.5130805 12.6052121,33.5130805 C11.8792118,33.5130805 11.5226698,33.9058119 11.1098073,34.3604494 C10.7276651,34.7813411 10.2945551,35.2585534 9.5797257,35.2585534 C8.56723503,35.2585534 8.29971221,34.6496161 8.29971221,34.3276345 L8.29971221,12.1019457 C8.29971221,5.42888631 13.7285985,0 20.4016579,0 C27.0747174,0 32.5036037,5.42888631 32.5036037,12.1019457 L32.5036037,34.3276345 C32.5036037,34.6490343 32.2431791,34.9094589 31.9217794,34.9094589 C31.6003796,34.9094589 31.3399551,34.6490343 31.3399551,34.3276345 L31.3399551,12.1019457 C31.3399551,6.07052217 26.4330815,1.16364863 20.4016579,1.16364863 C14.3702344,1.16364863 9.46336084,6.07052217 9.46336084,12.1019457 L9.46336084,34.089552 C9.49454662,34.0926939 9.53306339,34.0949048 9.5797257,34.0949048 C9.76963316,34.0949048 9.95744604,33.8984809 10.2483582,33.5783612 C10.7191704,33.059723 11.3640645,32.3494319 12.6052121,32.3494319 C13.6919436,32.3494319 14.3119356,32.9704712 14.8588504,33.5183169 C15.3751613,34.0354424 15.7829038,34.4439994 16.5616175,34.4439994 C17.8535002,34.4439994 18.8611035,32.9712857 18.8711109,32.956391 C19.0504292,32.6906137 19.411393,32.6190493 19.6778685,32.7977857 C19.944344,32.9762894 20.0163739,33.3360896 19.838452,33.6030305 C19.7838769,33.6849514 18.4800086,35.607648 16.5616175,35.607648" id="Fill-8" fill="#F26668"></path>
                            <g id="Group-12" transform="translate(23.622067, 32.349432)">
                                <mask id="mask-4" fill="white">
                                    <use xlink:href="#path-3"></use>
                                </mask>
                                <g id="Clip-11"></g>
                                <path d="M7.71789953,1.97741139 L7.71789953,1.97834681 L7.71789953,1.97741139 Z M0.619642895,3.25823943 C0.298243144,3.25823943 0.0378185804,2.99781487 0.0378185804,2.67641512 C0.0378185804,2.35501537 0.298243144,2.0945908 0.619642895,2.0945908 C1.39835656,2.0945908 1.80609904,1.68603377 2.32240993,1.16890832 C2.86932479,0.621062546 3.48931678,2.32729726e-05 4.57604823,2.32729726e-05 C5.81719586,2.32729726e-05 6.46208993,0.710198031 6.93290216,1.22883622 C7.22381432,1.54907233 7.41162721,1.74549622 7.60153467,1.74549622 C7.68031368,1.74549622 7.73535426,1.73932888 7.77212556,1.73269608 C7.86475199,1.53406126 8.0660632,1.39640163 8.29972384,1.39640163 C8.6211236,1.39640163 8.88154816,1.65682619 8.88154816,1.97822594 C8.88154816,2.30009115 8.61402534,2.90914484 7.60153467,2.90914484 C6.88670531,2.90914484 6.45359529,2.43193254 6.07145309,2.01104083 C5.65859055,1.55640331 5.30204861,1.1636719 4.57604823,1.1636719 C4.00004216,1.1636719 3.67340599,1.46261323 3.14592407,1.99102608 C2.58236904,2.55562839 1.88103801,3.25823943 0.619642895,3.25823943 Z" id="Fill-10" fill="#F26668" mask="url(#mask-4)"></path>
                            </g>
                            <path d="M8.8810827,25.7167511 C8.79345996,25.7167511 8.70444084,25.6968527 8.6207745,25.6549613 L2.31263528,22.4926298 C1.37147627,22.0267049 0.665141556,21.2166891 0.325937981,20.2129258 C-0.0130328646,19.2091625 0.0576006071,18.1366275 0.524689167,17.1929085 C0.992010456,16.2491895 1.80202627,15.5427384 2.80578957,15.2036512 C3.80943652,14.8645639 4.88197146,14.9354301 5.82580686,15.4024023 L9.16303476,17.0545507 C9.45092143,17.1970976 9.56879904,17.5460758 9.42636845,17.8341952 C9.28358876,18.1220819 8.93484327,18.2396104 8.6466075,18.0974126 L5.30949596,16.4453806 C4.64447077,16.116068 3.88751734,16.066613 3.17815713,16.3062082 C2.46879693,16.5456871 1.89686363,17.0440778 1.56766743,17.7092194 C1.23835487,18.3743609 1.1888998,19.1313144 1.42849506,19.8405582 C1.66809031,20.5499184 2.16636465,21.1218517 2.83150621,21.4510479 L9.14232182,24.6146594 C9.4295103,24.7587191 9.54564243,25.1082792 9.4016991,25.395584 C9.29964711,25.5991062 9.09426313,25.7167511 8.8810827,25.7167511" id="Fill-13" fill="#F26668"></path>
                            <g id="Group-17" transform="translate(31.418513, 14.894702)">
                                <mask id="mask-6" fill="white">
                                    <use xlink:href="#path-5"></use>
                                </mask>
                                <g id="Clip-16"></g>
                                <path d="M0.721683243,10.8220486 C0.508502814,10.8220486 0.303118831,10.7044037 0.201066847,10.5008816 C0.0571235112,10.2135767 0.173255644,9.8640167 0.460444126,9.719957 L6.76858334,6.55774185 C8.15134701,5.87316736 8.71827662,4.19460421 8.03509851,2.8146333 C7.35203676,1.43442966 5.67358998,0.867500053 4.29303725,1.55067816 L0.956158442,3.20259376 C0.668155406,3.34537344 0.319060818,3.22737947 0.17651386,2.9394928 C0.0339669035,2.6513734 0.15184451,2.30239518 0.43973118,2.15996458 L3.77684272,0.507699897 C5.7324706,-0.459524843 8.11003748,0.343276345 9.07796041,2.29820604 C10.0458833,4.25336847 9.24261669,6.63128444 7.28757063,7.59932373 L0.981991441,10.7602589 C0.898325105,10.8021502 0.809305985,10.8220486 0.721683243,10.8220486" id="Fill-15" fill="#F26668" mask="url(#mask-6)"></path>
                            </g>
                            <path d="M15.7470634,11.4037566 C14.7204926,11.4037566 13.8852256,12.2390235 13.8852256,13.2655944 C13.8852256,14.2921652 14.7204926,15.1274322 15.7470634,15.1274322 C16.7736343,15.1274322 17.6089012,14.2921652 17.6089012,13.2655944 C17.6089012,12.2390235 16.7736343,11.4037566 15.7470634,11.4037566 M15.7470634,16.2910808 C14.0787404,16.2910808 12.721577,14.9339174 12.721577,13.2655944 C12.721577,11.5972713 14.0787404,10.2401079 15.7470634,10.2401079 C17.4153865,10.2401079 18.7725499,11.5972713 18.7725499,13.2655944 C18.7725499,14.9339174 17.4153865,16.2910808 15.7470634,16.2910808" id="Fill-18" fill="#F26668"></path>
                            <path d="M24.8235227,11.4037566 C23.7969519,11.4037566 22.9616849,12.2390235 22.9616849,13.2655944 C22.9616849,14.2921652 23.7969519,15.1274322 24.8235227,15.1274322 C25.8500936,15.1274322 26.6853605,14.2921652 26.6853605,13.2655944 C26.6853605,12.2390235 25.8500936,11.4037566 24.8235227,11.4037566 M24.8235227,16.2910808 C23.1551997,16.2910808 21.7980363,14.9339174 21.7980363,13.2655944 C21.7980363,11.5972713 23.1551997,10.2401079 24.8235227,10.2401079 C26.4918458,10.2401079 27.8490092,11.5972713 27.8490092,13.2655944 C27.8490092,14.9339174 26.4918458,16.2910808 24.8235227,16.2910808" id="Fill-20" fill="#F26668"></path>
                        </g>
                    </g>
                </g>
                <g id="history" transform="translate(240.787992, 4.420929)" fill="#F26668">
                    <g id="icon">
                        <g id="not-selected" transform="translate(0.000000, 0.028688)">
                            <path d="M40.8234371,34.7702078 L1.1762199,34.7702078 C0.859386424,34.7702078 0.602454096,34.5133903 0.602454096,34.196442 L0.602454096,31.4423662 C0.602454096,31.1254179 0.859386424,30.8686004 1.1762199,30.8686004 L4.50738942,30.8686004 C4.82433765,30.8686004 5.08115522,31.1254179 5.08115522,31.4423662 C5.08115522,31.7593144 4.82433765,32.016132 4.50738942,32.016132 L1.74998571,32.016132 L1.74998571,33.6226762 L40.2496713,33.6226762 L40.2496713,32.016132 L7.3471859,32.016132 C7.03035242,32.016132 6.77342009,31.7593144 6.77342009,31.4423662 C6.77342009,31.1254179 7.03035242,30.8686004 7.3471859,30.8686004 L40.8234371,30.8686004 C41.1403853,30.8686004 41.3972029,31.1254179 41.3972029,31.4423662 L41.3972029,34.196442 C41.3972029,34.5133903 41.1403853,34.7702078 40.8234371,34.7702078 Z" id="Fill-14"></path>
                            <path d="M39.7588376,31.0981067 L38.611306,31.0981067 L38.611306,29.6063156 L3.38828216,29.6063156 L3.38828216,31.0981067 L2.24075055,31.0981067 L2.24075055,29.0325498 C2.24075055,28.7156015 2.49768288,28.458784 2.81451636,28.458784 L39.1850718,28.458784 C39.50202,28.458784 39.7588376,28.7156015 39.7588376,29.0325498 L39.7588376,31.0981067 Z" id="Fill-16"></path>
                            <path d="M39.1850718,11.2458098 L2.81451636,11.2458098 C2.49768288,11.2458098 2.24075055,10.9889922 2.24075055,10.672044 L2.24075055,8.60648709 C2.24075055,8.28953886 2.49768288,8.03272128 2.81451636,8.03272128 C3.13134984,8.03272128 3.38828216,8.28953886 3.38828216,8.60648709 L3.38828216,10.0982782 L38.611306,10.0982782 L38.611306,8.60648709 C38.611306,8.28953886 38.8681235,8.03272128 39.1850718,8.03272128 C39.50202,8.03272128 39.7588376,8.28953886 39.7588376,8.60648709 L39.7588376,10.672044 C39.7588376,10.9889922 39.50202,11.2458098 39.1850718,11.2458098" id="Fill-18"></path>
                            <path d="M39.8404156,8.83599341 L37.5741554,8.83599341 C37.2572072,8.83599341 37.0003896,8.57917584 37.0003896,8.2622276 C37.0003896,7.94527937 37.2572072,7.6884618 37.5741554,7.6884618 L39.2666498,7.6884618 L39.2666498,6.75264977 L20.8372921,1.85636189 L2.73291539,6.75069897 L2.73291539,7.6884618 L34.9801602,7.6884618 C35.2969937,7.6884618 35.553926,7.94527937 35.553926,8.2622276 C35.553926,8.57917584 35.2969937,8.83599341 34.9801602,8.83599341 L2.15914958,8.83599341 C1.8423161,8.83599341 1.58538377,8.57917584 1.58538377,8.2622276 L1.58538377,6.31142386 C1.58538377,6.05219647 1.75923481,5.82521472 2.00951146,5.75751036 L20.686277,0.708371264 C20.7833581,0.681978037 20.8859475,0.681633777 20.9832581,0.707797498 L39.9877587,5.75693659 C40.2391828,5.82372293 40.4141814,6.05127845 40.4141814,6.31142386 L40.4141814,8.2622276 C40.4141814,8.57917584 40.1573638,8.83599341 39.8404156,8.83599341" id="Fill-20"></path>
                            <polygon id="Fill-22" points="5.0258442 28.8030435 6.17337581 28.8030435 6.17337581 11.0163035 5.0258442 11.0163035"></polygon>
                            <polygon id="Fill-24" points="8.52099598 28.8030435 9.66852759 28.8030435 9.66852759 11.0163035 8.52099598 11.0163035"></polygon>
                            <polygon id="Fill-25" points="11.5684957 28.8030435 12.7160273 28.8030435 12.7160273 11.0163035 11.5684957 11.0163035"></polygon>
                            <polygon id="Fill-26" points="15.1727777 28.8030435 16.3203093 28.8030435 16.3203093 11.0163035 15.1727777 11.0163035"></polygon>
                            <polygon id="Fill-27" points="25.5701026 28.8030435 26.7176343 28.8030435 26.7176343 11.0163035 25.5701026 11.0163035"></polygon>
                            <polygon id="Fill-28" points="29.1743847 28.8030435 30.3219163 28.8030435 30.3219163 11.0163035 29.1743847 11.0163035"></polygon>
                            <polygon id="Fill-29" points="32.2218844 28.8030435 33.369416 28.8030435 33.369416 11.0163035 32.2218844 11.0163035"></polygon>
                            <polygon id="Fill-30" points="35.8261664 28.8030435 36.973698 28.8030435 36.973698 11.0163035 35.8261664 11.0163035"></polygon>
                        </g>
                    </g>
                </g>
                <g id="nature" transform="translate(319.756098, 3.126370)" fill="#22BFB3">
                    <g id="icon">
                        <g id="not-selected" transform="translate(1.234092, 0.647898)">
                            <path d="M10.5004431,23.8179723 C8.10112176,23.8179723 6.16742327,22.6197925 5.03156515,20.4374245 C1.94719945,19.0849833 0.113956039,16.4885775 0.113956039,13.4516009 C0.113956039,11.0020521 1.1952673,8.853745 3.24558746,7.22042447 C3.29458091,5.98756673 3.63728821,4.78358674 4.24409116,3.72066345 C4.41303833,3.42460482 4.78992997,3.32155815 5.08586519,3.49075214 C5.38180041,3.65969931 5.48472367,4.03659096 5.3157765,4.33240277 C4.7647545,5.2977094 4.47363224,6.40259181 4.47363224,7.52796015 C4.47363224,7.7222062 4.38206263,7.90509861 4.22681387,8.02159688 C2.34346634,9.43401498 1.34804787,11.3116857 1.34804787,13.4516009 C1.34804787,16.0410958 2.98112158,18.2603631 5.71648612,19.3878294 C5.85692577,19.4455849 5.97095585,19.5530743 6.03697977,19.6898117 C6.95218227,21.5831554 8.49553751,22.5838804 10.5004431,22.5838804 C12.2571728,22.5838804 14.1628574,21.3631168 14.9333009,19.744482 C14.9968567,19.6109532 15.1061972,19.5046979 15.2414537,19.4449679 C17.0273079,18.6576173 20.0231893,16.8319018 20.0231893,13.4516009 C20.0231893,12.2757582 19.3624565,9.79757843 16.8862513,7.96754366 C16.7287811,7.85104539 16.635854,7.66691889 16.635854,7.47119192 C16.635854,5.82984979 15.9772192,4.26551499 14.7811374,3.06659478 C13.6193634,1.90198232 12.0665056,1.23409183 10.5206822,1.23409183 C9.46615073,1.23409183 8.42507086,1.52521409 7.50999177,2.07623609 C7.21775883,2.25197077 6.83876923,2.15768615 6.66303455,1.86594684 C6.48717647,1.57408413 6.58146108,1.19484771 6.8733238,1.01911303 C7.98067439,0.352333217 9.24179283,0 10.5206822,0 C14.4030117,0 17.6982837,3.24973401 17.8635286,7.16353283 C19.2281873,8.26360229 21.2572811,10.6345395 21.2572811,13.4516009 C21.2572811,17.4000777 18.0197646,19.5258009 15.9432817,20.4823455 C14.9119511,22.427521 12.6615847,23.8179723 10.5004431,23.8179723" id="Fill-24"></path>
                            <path d="M10.644042,26.7797927 C10.3033093,26.7797927 10.0269961,26.5036029 10.0269961,26.1627467 L10.0269961,9.00887034 C10.0269961,8.66801418 10.3033093,8.39182443 10.644042,8.39182443 C10.9847748,8.39182443 11.2610879,8.66801418 11.2610879,9.00887034 L11.2610879,26.1627467 C11.2610879,26.5036029 10.9847748,26.7797927 10.644042,26.7797927" id="Fill-26"></path>
                            <path d="M10.6439186,20.239106 C10.4928658,20.239106 10.3414427,20.1840655 10.2224762,20.072627 L6.39679158,16.4937607 C6.14799867,16.261011 6.13491729,15.8705443 6.36779042,15.621628 C6.60054014,15.3728351 6.99100679,15.3597537 7.23992312,15.5926268 L11.0656078,19.1714931 C11.3144007,19.4042429 11.3274821,19.7947095 11.0946089,20.0436258 C10.9731743,20.1734523 10.8086699,20.239106 10.6439186,20.239106" id="Fill-28"></path>
                            <path d="M10.6441654,16.2900121 C10.4787971,16.2900121 10.3140459,16.2239882 10.1923644,16.0934213 C9.96023173,15.8440113 9.97417697,15.4536681 10.2235869,15.221412 L13.8024532,11.8893641 C14.0518632,11.6569846 14.4423298,11.6710532 14.6745859,11.9204632 C14.9067186,12.1698731 14.8927734,12.5602164 14.6433634,12.7924725 L11.0644971,16.1245204 C10.9456541,16.2353419 10.7947246,16.2900121 10.6441654,16.2900121" id="Fill-30"></path>
                            <path d="M34.1950679,29.001158 C32.0339263,29.001158 29.7835598,27.6107067 28.7522293,25.6655311 C26.675623,24.7089866 23.4382299,22.5832634 23.4382299,18.6347866 C23.4382299,15.8177252 25.4672003,13.446788 26.8319824,12.3467185 C26.9972273,8.43291969 30.2924993,5.18318568 34.1748288,5.18318568 C35.4537181,5.18318568 36.71496,5.53551889 37.8221872,6.20229871 C38.1140499,6.37803338 38.2083345,6.7572698 38.0324764,7.04913252 C37.8566183,7.34099524 37.4778756,7.43540326 37.1855192,7.25942177 C36.2704401,6.70839977 35.2293602,6.4172775 34.1748288,6.4172775 C32.6290054,6.4172775 31.0761476,7.085168 29.9143736,8.24978046 C28.7182918,9.44870067 28.0595335,11.0130355 28.0595335,12.6543776 C28.0595335,12.8501046 27.9666064,13.0342311 27.8092597,13.1507293 C25.3329311,14.9807641 24.6723217,17.4589439 24.6723217,18.6347866 C24.6723217,22.0150875 27.668203,23.840803 29.4540573,24.6281536 C29.5893138,24.6878836 29.6986543,24.7941389 29.76221,24.9276676 C30.5326536,26.5463025 32.4383382,27.7670661 34.1950679,27.7670661 C36.1998501,27.7670661 37.7433287,26.7663411 38.6585312,24.8729974 C38.7245551,24.73626 38.8387086,24.6287706 38.9790249,24.5710151 C41.7143894,23.4434254 43.3474631,21.2242815 43.3474631,18.6347866 C43.3474631,16.4948714 42.3520446,14.6172007 40.4686971,13.2047826 C40.3133249,13.0882843 40.2218787,12.9053919 40.2218787,12.7111458 C40.2218787,11.5856541 39.9307565,10.4806483 39.3797345,9.51571186 C39.2107873,9.21977664 39.3137106,8.84288499 39.6095224,8.67393782 C39.905581,8.50474383 40.2823492,8.60803732 40.4512964,8.90372572 C41.0580994,9.9665256 41.4009301,11.170629 41.4498001,12.4036101 C43.5002437,14.0369307 44.5815549,16.1852377 44.5815549,18.6347866 C44.5815549,21.6717632 42.7483115,24.2680456 39.6639458,25.6206102 C38.5279643,27.8029782 36.5942658,29.001158 34.1950679,29.001158" id="Fill-32"></path>
                            <path d="M33.9683776,34.8013895 C33.6275214,34.8013895 33.3513316,34.5251998 33.3513316,34.1843436 L33.3513316,14.192056 C33.3513316,13.8511999 33.6275214,13.5750101 33.9683776,13.5750101 C34.3092337,13.5750101 34.5854235,13.8511999 34.5854235,14.192056 L34.5854235,34.1843436 C34.5854235,34.5251998 34.3092337,34.8013895 33.9683776,34.8013895" id="Fill-34"></path>
                            <path d="M33.9682541,25.4222917 C33.8172013,25.4222917 33.6659016,25.3672512 33.5468118,25.2558127 L29.7211271,21.6769464 C29.4722108,21.4441966 29.4592528,21.05373 29.692126,20.8048137 C29.9248757,20.5560208 30.3150955,20.542816 30.5642587,20.7758125 L34.3899433,24.3546788 C34.6388596,24.5874285 34.6518176,24.9778952 34.4189445,25.2268115 C34.2975098,25.356638 34.1330054,25.4222917 33.9682541,25.4222917" id="Fill-36"></path>
                            <path d="M33.968501,21.4731978 C33.8031327,21.4731978 33.638258,21.4071739 33.5168234,21.276607 C33.2845673,21.027197 33.2985125,20.6368538 33.5479225,20.4045977 L37.1267888,17.0725498 C37.3760753,16.8400469 37.7667888,16.8542389 37.9987981,17.1036489 C38.2310541,17.3530588 38.2171089,17.7434021 37.9676989,17.9756582 L34.3888326,21.3077061 C34.2699896,21.4185275 34.1190602,21.4731978 33.968501,21.4731978" id="Fill-38"></path>
                            <path d="M44.4581581,35.2950263 L0.64789821,35.2950263 C0.307165456,35.2950263 0.0308522957,35.0188365 0.0308522957,34.6779804 C0.0308522957,34.3371242 0.307165456,34.0609344 0.64789821,34.0609344 L44.4581581,34.0609344 C44.7990143,34.0609344 45.075204,34.3371242 45.075204,34.6779804 C45.075204,35.0188365 44.7990143,35.2950263 44.4581581,35.2950263" id="Fill-40"></path>
                            <path d="M19.406094,35.1407648 C19.0653612,35.1407648 18.7890481,34.864575 18.7890481,34.5237189 C18.7890481,33.280865 17.7615432,32.1968387 16.3991058,32.0022225 C16.1568536,31.9676679 15.957918,31.7931673 15.8920175,31.5574558 C15.6912308,30.8390909 14.9855771,30.3461946 14.0502589,30.2714087 C13.7295184,30.2457396 13.4824532,29.9779416 13.4824532,29.6563373 L13.4824532,29.5666188 C13.4824532,28.9431556 13.2223067,28.3670816 12.7496495,27.9445285 C12.2658855,27.5118559 11.6073741,27.2734294 10.8955499,27.2734294 C9.66479015,27.2734294 8.68455101,27.9102208 8.3981183,28.8957665 C8.3216046,29.1593685 8.08009283,29.3406566 7.80563081,29.3406566 C6.64879313,29.3406566 5.7076747,30.1620681 5.7076747,31.1719255 C5.7076747,31.2398005 5.71199402,31.307799 5.72038585,31.3744399 C5.76172793,31.7009806 5.5395914,32.0023459 5.21551888,32.0596077 C5.20873138,32.0608418 5.20182046,32.0619525 5.19515637,32.0629398 C3.96822227,32.3683775 3.11608186,33.3735453 3.11608186,34.5237189 C3.11608186,34.864575 2.8397687,35.1407648 2.49903595,35.1407648 C2.1583032,35.1407648 1.88199004,34.864575 1.88199004,34.5237189 C1.88199004,32.9409961 2.92751263,31.549681 4.4792597,30.9919949 C4.57231022,29.5205872 5.79875068,28.324382 7.36530685,28.1332212 C7.9331125,26.8476677 9.27160849,26.0393376 10.8955499,26.0393376 C12.8744162,26.0393376 14.4572624,27.3610499 14.6876673,29.1213585 C15.7275131,29.3501591 16.5576866,29.9841121 16.9449447,30.8494573 C18.7495571,31.2658399 20.0231399,32.759091 20.0231399,34.5237189 C20.0231399,34.864575 19.7468267,35.1407648 19.406094,35.1407648" id="Fill-42"></path>
                            <path d="M32.240649,34.911668 C31.8997928,34.911668 31.6236031,34.6354782 31.6236031,34.2946221 C31.6236031,32.6274874 30.3660635,31.2302487 28.6332752,30.9722001 C28.3901591,30.9360412 28.1917171,30.7591958 28.1281614,30.5217565 C27.8694957,29.5571904 26.9767537,28.8969512 25.798196,28.7984707 C25.4784428,28.7718143 25.2324883,28.5043866 25.2324883,28.1835228 L25.2324883,28.0709736 C25.2324883,26.3681737 23.8085932,25.0343672 21.9907759,25.0343672 C20.4542082,25.0343672 19.226657,25.8758944 18.8635872,27.178355 C18.7892949,27.4451656 18.5461788,27.6296623 18.2692486,27.6296623 C16.9521024,27.6296623 15.8224147,28.539188 15.6417437,29.7453894 C15.5912693,30.0824198 15.277193,30.3162802 14.9401625,30.2640782 C14.603132,30.2136038 14.3707525,29.8995274 14.4212269,29.5623735 C14.67039,27.899805 16.0932979,26.6136345 17.8189285,26.4206226 C18.4611499,24.8146989 20.0514006,23.8002754 21.9907759,23.8002754 C24.3503595,23.8002754 26.2293877,25.458648 26.4458474,27.6473099 C27.7285625,27.9132566 28.7484159,28.7182547 29.1934295,29.8225201 C31.3382811,30.31048 32.8576949,32.1359486 32.8576949,34.2946221 C32.8576949,34.6354782 32.5815052,34.911668 32.240649,34.911668" id="Fill-44"></path>
                        </g>
                    </g>
                </g>
                <g id="scenic" transform="translate(640.806754, 4.420929)" fill="#22BFB3">
                    <g id="icon" transform="translate(1.294559, 0.000000)">
                        <g id="not-selected" transform="translate(0.565328, 0.646622)">
                            <path d="M46.5866288,15.4938599 L13.645067,15.4938599 C13.3328928,15.4938599 13.0797388,15.2408189 13.0797388,14.9285316 C13.0797388,14.6162443 13.3328928,14.3632034 13.645067,14.3632034 L46.5866288,14.3632034 C46.8989161,14.3632034 47.1519571,14.6162443 47.1519571,14.9285316 C47.1519571,15.2408189 46.8989161,15.4938599 46.5866288,15.4938599" id="Fill-15"></path>
                            <path d="M10.1777282,15.4938599 L0.565339518,15.4938599 C0.25316528,15.4938599 1.13065642e-05,15.2408189 1.13065642e-05,14.9285316 C1.13065642e-05,14.6162443 0.25316528,14.3632034 0.565339518,14.3632034 L10.1777282,14.3632034 C10.4900155,14.3632034 10.7430564,14.6162443 10.7430564,14.9285316 C10.7430564,15.2408189 10.4900155,15.4938599 10.1777282,15.4938599" id="Fill-17"></path>
                            <path d="M34.8032894,15.6407095 C34.6672714,15.6407095 34.5309143,15.5919782 34.4224843,15.4931588 L22.3899256,4.52296489 C22.245993,4.39158262 21.9934044,4.39169568 21.8494718,4.52296489 L16.2853985,9.59588107 C16.0694431,9.79261529 15.7394045,9.79261529 15.5235622,9.59588107 L13.0900504,7.37719397 C12.9460047,7.24581169 12.6934161,7.24603782 12.5495966,7.37719397 L3.99301492,15.1783841 C3.76236101,15.3884601 3.40496051,15.3724047 3.19431922,15.1415247 C2.98390406,14.9107577 3.00052471,14.5532442 3.23117862,14.342829 L11.7878734,6.54152581 C12.3666564,6.01418765 13.2731037,6.01407458 13.8517736,6.54163887 L15.9044803,8.41310138 L21.0876355,3.68729673 C21.6666447,3.15995857 22.5730919,3.15984551 23.1516488,3.6874098 L35.1843206,14.6576037 C35.4149745,14.8680189 35.4315952,15.2255325 35.22118,15.4562994 C35.1095842,15.5785234 34.9566064,15.6407095 34.8032894,15.6407095" id="Fill-19"></path>
                            <path d="M44.0841696,15.4938599 C43.9481516,15.4938599 43.8117945,15.4451286 43.7033645,15.3463092 L35.1466698,7.54511906 C35.0030764,7.41384985 34.7502616,7.41373678 34.6064421,7.545006 L30.6074234,11.1908076 C30.3771087,11.4009967 30.019369,11.3849413 29.8087277,11.1538352 C29.5984256,10.9231813 29.6149332,10.5655546 29.8457002,10.3552525 L33.8446058,6.70956396 C34.4230496,6.18199968 35.3298361,6.18199968 35.908393,6.70956396 L44.4652008,14.5107541 C44.6958547,14.7211693 44.7124754,15.0786828 44.5020602,15.3093367 C44.3904644,15.4316737 44.2374866,15.4938599 44.0841696,15.4938599" id="Fill-21"></path>
                            <path d="M39.2701511,4.77304348 L39.2715176,4.77304348 L39.2701511,4.77304348 Z M40.7586603,4.23745153 C40.301762,4.23745153 39.9077283,4.51491462 39.8216853,4.89718956 C39.7670746,5.14016762 39.5597122,5.31881134 39.311194,5.33678877 C39.097613,5.35239183 38.9100371,5.51758074 38.9100371,5.69023197 C38.9100371,5.88764458 39.1036054,6.04231838 39.35088,6.04231838 L41.9663144,6.04231838 C42.3144435,6.04231838 42.6084142,5.797079 42.6084142,5.50661337 C42.6084142,5.23423824 42.3613658,5.00731549 42.0209251,4.96717719 C41.8395678,4.94569472 41.679693,4.83794316 41.591728,4.67795527 C41.4424813,4.40625854 41.123297,4.23745153 40.7586603,4.23745153 Z M41.9663144,7.17297481 L39.35088,7.17297481 C38.4696464,7.17297481 37.7793806,6.52171671 37.7793806,5.69023197 C37.7793806,5.04745379 38.2219196,4.48834419 38.8399364,4.28573056 C39.1601383,3.57624366 39.9009443,3.10679511 40.7586603,3.10679511 C41.4332099,3.10679511 42.0488524,3.40325322 42.4272831,3.8956541 C43.2016696,4.09747627 43.7390706,4.73934992 43.7390706,5.50661337 C43.7390706,6.42538478 42.9437669,7.17297481 41.9663144,7.17297481 Z" id="Fill-23"></path>
                            <path d="M13.1071685,3.18814584 L13.108535,3.18814584 L13.1071685,3.18814584 Z M14.5956777,2.65255389 C14.1387794,2.65255389 13.7447457,2.93001698 13.6587027,3.31229191 C13.604092,3.55526998 13.3967296,3.73391369 13.1482113,3.75189113 C12.9346303,3.76749419 12.7470544,3.93268309 12.7470544,4.10533433 C12.7470544,4.30274694 12.9406228,4.45742074 13.1878974,4.45742074 L15.8033318,4.45742074 C16.1514609,4.45742074 16.4454316,4.21218136 16.4454316,3.92171573 C16.4454316,3.64922753 16.1983832,3.42230478 15.8580556,3.38227955 C15.6766983,3.36079707 15.5167104,3.25304552 15.4287453,3.09305763 C15.2794987,2.82136089 14.9603144,2.65255389 14.5956777,2.65255389 Z M15.8033318,5.58807716 L13.1878974,5.58807716 C12.3066638,5.58807716 11.616398,4.93681906 11.616398,4.10533433 C11.616398,3.46255615 12.0589369,2.90344655 12.6769537,2.70083292 C12.9971556,1.99134601 13.7379617,1.52189747 14.5956777,1.52189747 C15.2702273,1.52189747 15.8858697,1.81835558 16.2641874,2.31064339 C17.038687,2.51235249 17.576088,3.15433921 17.576088,3.92171573 C17.576088,4.84048714 16.7807843,5.58807716 15.8033318,5.58807716 Z" id="Fill-25"></path>
                            <path d="M29.9494153,1.16234872 C29.368371,1.16234872 28.8560705,1.43788969 28.6124141,1.88110701 C28.5243359,2.04120796 28.3644611,2.14895952 28.1832169,2.17032893 C27.6040947,2.23862057 27.1837166,2.64113426 27.1837166,3.12731652 C27.1837166,3.65284563 27.6772481,4.08045989 28.2839584,4.08045989 L31.8910916,4.08045989 C32.3521733,4.08045989 32.7133049,3.77303441 32.7133049,3.38058356 C32.7133049,3.0303062 32.368907,2.70919978 31.9613053,2.67935045 C31.7129001,2.66125994 31.5055377,2.4827293 31.450814,2.23975123 C31.3102734,1.61551582 30.6788018,1.16234872 29.9494153,1.16234872 M31.8910916,5.21111631 L28.2839584,5.21111631 C27.0538042,5.21111631 26.0530602,4.27628958 26.0530602,3.12731652 C26.0530602,2.14590675 26.7616426,1.32810296 27.7739193,1.0953008 C28.2508302,0.43307533 29.0593626,0.0316922996 29.9494153,0.0316922996 C31.0613028,0.0316922996 32.0487051,0.680123759 32.436068,1.61924698 C33.250819,1.84323002 33.8439613,2.55622196 33.8439613,3.38058356 C33.8439613,4.40699346 32.9861323,5.21111631 31.8910916,5.21111631" id="Fill-27"></path>
                            <path d="M11.0586226,35.3895461 C10.856122,35.3895461 10.6604054,35.2804377 10.5587594,35.0890176 C10.4124524,34.8131374 10.5174904,34.4710008 10.7932575,34.3246938 C11.0031074,34.2134373 11.2434849,34.0957359 11.4979957,33.9710245 C12.8291175,33.3192011 14.8407814,32.3342863 14.8407814,30.9625739 C14.8407814,30.2226723 14.1852268,29.6987262 13.1156258,28.9052315 C11.8966651,28.0009325 10.3795503,26.8754771 10.1483311,24.8133859 C9.84927248,22.1460543 12.6826975,19.8239121 18.5703647,17.9114068 C23.1140206,16.4354479 28.3981434,15.5491263 30.6545944,15.1708087 L31.1096836,15.0941502 C32.6539342,14.8321771 33.2904937,14.7085964 33.5505447,14.652855 C33.6161228,14.6136212 33.6928943,14.5860332 33.780181,14.5743874 C33.8367138,14.5670382 33.8891763,14.5651161 33.9377945,14.5676035 C34.0073299,14.5622894 34.1252574,14.5523396 34.3201825,14.5335707 C36.0764312,14.365216 38.7720291,14.3631808 38.8859993,14.3631808 C39.1717162,14.3631808 39.4123199,14.5761965 39.4471441,14.8597651 C39.4819683,15.1432207 39.2997065,15.4080204 39.0225826,15.4771035 C27.6248874,18.3158426 24.6220901,20.7505982 24.6267258,21.6413293 C24.63057,22.3830399 26.2562278,23.0536322 27.8282925,23.7022898 C28.6148902,24.0267882 29.4285106,24.3624801 30.2065153,24.7596797 C30.4845437,24.9016901 30.5947827,25.2423569 30.4527722,25.5203853 C30.3105357,25.7984138 29.970095,25.9086528 29.6921797,25.7667554 C28.9548786,25.3902468 28.1629668,25.063374 27.3970602,24.7474686 C25.3080594,23.8855692 23.5038709,23.1412581 23.4960694,21.6473218 C23.4845367,19.4359839 28.6313978,17.3218825 33.6258464,15.7918783 C33.6040247,15.7962878 33.5815247,15.8006974 33.5581201,15.8053331 C33.0957947,15.8972555 32.3356544,16.0330473 31.2987294,16.2088644 L30.841718,16.285749 C28.6099153,16.6601093 23.3836821,17.5367073 18.9195114,18.9867741 C15.2720138,20.1717021 10.9843385,22.1225367 11.2719775,24.6873177 C11.4483599,26.2606261 12.6384888,27.1433296 13.7892709,27.9972013 C14.8621508,28.7930704 15.9714378,29.6160752 15.9714378,30.9625739 C15.9714378,33.0394767 13.5785166,34.2111759 11.9951453,34.9865801 C11.7491145,35.106995 11.5167646,35.2207391 11.3230831,35.3235157 C11.2387362,35.3684028 11.1480575,35.3895461 11.0586226,35.3895461" id="Fill-29"></path>
                            <path d="M29.9722772,35.389433 C29.8308321,35.389433 29.6891608,35.3366313 29.5793741,35.2305758 C29.3549388,35.0134897 29.3489463,34.655637 29.5659193,34.4310886 C31.9900466,31.9244233 32.9633157,29.989531 32.5416939,28.5156073 C32.3958392,28.0063596 32.1075218,27.5442603 31.6602341,27.102739 C31.4379471,26.8835047 31.4355727,26.5255389 31.6549201,26.3033649 C31.8740413,26.0810779 32.2322332,26.0787035 32.4542942,26.2980508 C33.0356777,26.8716328 33.430729,27.5131673 33.6285939,28.2045637 C34.1786583,30.1272449 33.1460298,32.3554296 30.3788612,35.217121 C30.2678308,35.3317695 30.1202801,35.389433 29.9722772,35.389433" id="Fill-31"></path>
                        </g>
                    </g>
                </g>
                <g id="sport" transform="translate(403.902439, 4.420929)" fill="#F4BD34">
                    <g id="icon">
                        <g id="not-selected" transform="translate(0.767638, 1.057422)">
                            <path d="M16.9050234,33.7760916 C7.59292936,33.7760916 0.0169776036,26.2001398 0.0169776036,16.8880458 C0.0169776036,7.57595176 7.59292936,0 16.9050234,0 C19.1678936,0 21.364491,0.440240649 23.4340443,1.30856767 C23.7597788,1.44520731 23.9130507,1.82007075 23.776411,2.14580533 C23.6397714,2.47166786 23.2645241,2.62532348 22.9390454,2.48817208 C21.0271139,1.68611785 18.9970941,1.27939741 16.9050234,1.27939741 C8.29838909,1.27939741 1.29637501,8.28141149 1.29637501,16.8880458 C1.29637501,25.4946801 8.29838909,32.4966942 16.9050234,32.4966942 C25.5116577,32.4966942 32.5136718,25.4946801 32.5136718,16.8880458 C32.5136718,13.2706776 31.247836,9.74465831 28.9496544,6.95966603 C28.7247364,6.68728232 28.7633742,6.28401626 29.0357579,6.05909819 C29.3082695,5.83418013 29.7115356,5.87281793 29.9363257,6.14532958 C32.4234743,9.15895017 33.7930692,12.9741132 33.7930692,16.8880458 C33.7930692,26.2001398 26.2171175,33.7760916 16.9050234,33.7760916" id="Fill-4"></path>
                            <path d="M12.81969,9.50152162 L12.821266,9.50152162 L12.81969,9.50152162 Z M13.0765244,10.0874856 L13.0762092,10.0874856 L13.0762092,10.0876432 C13.0762092,10.0874856 13.0763668,10.0874856 13.0765244,10.0874856 Z M7.96834294,19.5603999 C9.0102842,19.8196059 12.2980797,20.6167984 14.1089388,20.8190711 C14.6978454,19.7121365 16.5312219,16.2484239 17.1811558,14.8279089 C16.4833724,14.0245753 14.284728,11.4980213 13.0291273,10.1082119 C11.9923037,10.5635494 8.77026924,12.0246213 7.31943258,13.2058889 C7.3578145,14.2273598 7.51236571,17.5108053 7.96834294,19.5603999 Z M14.15295,22.103714 C14.1098343,22.103714 14.0664628,22.1012832 14.0228353,22.0966774 C12.1165332,21.8923576 8.63721191,21.0457803 7.61612484,20.7911802 C7.1714063,20.6802565 6.83211011,20.3348192 6.73090977,19.8894609 C6.23693443,17.710903 6.07688181,14.2318377 6.03952341,13.2172755 C6.0259618,12.8440753 6.18806145,12.4807264 6.47311119,12.2453173 C8.01491301,10.9714213 11.2453915,9.4924379 12.5629149,8.91555761 C13.0392346,8.70701583 13.5939813,8.82574391 13.9431288,9.21161017 C15.2190719,10.6220179 17.5062506,13.2510516 18.1769108,14.0232959 C18.4858852,14.3788404 18.5594506,14.8867612 18.3643425,15.3168946 C17.7251555,16.7244876 15.9494799,20.0839294 15.2157454,21.4628639 C15.0033655,21.8616521 14.5957495,22.103714 14.15295,22.103714 Z" id="Fill-6"></path>
                            <path d="M15.5549009,4.5700971 C15.1901447,4.5700971 14.8296105,4.44113385 14.5460961,4.20572472 C12.8347741,2.78482596 10.509981,2.68720794 10.486824,2.68631236 C10.134222,2.67403014 9.85761631,2.3783614 9.86938676,2.02575948 C9.88090134,1.67315755 10.1747789,1.39565625 10.5280205,1.40768259 C10.6404796,1.4112649 13.3064879,1.51348875 15.3635031,3.22148429 C15.4256818,3.27304401 15.5034691,3.29799226 15.5799771,3.2894203 C17.9219141,3.05605821 20.0083554,2.86670739 21.8236923,2.91634801 C21.9529115,2.92095384 22.0738145,2.84917965 22.1267816,2.73646474 C22.2366818,2.50335853 22.3561775,2.22943954 22.4824541,1.92251211 C22.6167908,1.59588195 22.9902469,1.4399234 23.3175168,1.57426013 C23.6442748,1.7087248 23.8001055,2.08243678 23.6657687,2.40919488 C23.531432,2.7356971 23.4031084,3.02906292 23.2843804,3.28136009 C23.0150672,3.85376249 22.4292311,4.21442462 21.7890207,4.19523366 C20.0475049,4.14764008 18.0045631,4.33353652 15.7067654,4.56254866 C15.6562292,4.56753831 15.605565,4.5700971 15.5549009,4.5700971" id="Fill-8"></path>
                            <path d="M8.46149947,31.3452365 C8.26460021,31.3452365 8.07025974,31.2546552 7.94500674,31.0835998 C7.83267564,30.9303279 5.18381125,27.299654 4.42052275,24.8851752 C4.3962142,24.8082834 4.3482368,24.7440577 4.28554633,24.7049081 C2.94601724,23.8638322 2.1938595,23.3456763 1.00299639,22.3121791 C0.736114093,22.0807361 0.707583531,21.6767024 0.939026523,21.409948 C1.17046951,21.1429378 1.57488704,21.1144072 1.84138552,21.3459781 C2.96802287,22.3234378 3.68525306,22.8172852 4.96580193,23.6212585 C5.28501158,23.8214842 5.52451478,24.1334013 5.64030024,24.4993089 C6.34013063,26.7131782 8.95074104,30.2916528 8.97696869,30.3274759 C9.18576634,30.6123977 9.12409939,31.0127211 8.83904965,31.2215188 C8.72518328,31.3050635 8.5926377,31.3452365 8.46149947,31.3452365" id="Fill-10"></path>
                            <path d="M28.8022934,20.8058293 C28.3180415,20.8059573 27.8495262,20.5507175 27.5968452,20.1022887 C26.3143772,17.8271363 25.0082404,15.6689208 24.5062049,14.8466521 C24.2696443,14.4597623 24.238427,13.9816515 24.4225323,13.5680223 C25.2392996,11.7309356 25.9294066,9.89116211 26.2679351,8.95809757 C26.3961307,8.60472801 26.6554646,8.32466792 26.9979593,8.16960495 C27.3396863,8.0149258 27.7200512,8.00481857 28.0690708,8.14158615 C30.2613183,9.00018975 31.7506648,10.0968892 32.3112967,10.5096228 C32.5957068,10.7191881 32.6564781,11.1196395 32.4470408,11.4041775 C32.2376034,11.6885875 31.83728,11.7494868 31.5526141,11.5399215 C31.0289567,11.1543112 29.6381238,10.1301535 27.6026025,9.33283308 C27.5708734,9.32055086 27.5431105,9.32720373 27.5255828,9.33526393 C27.5072874,9.34345207 27.4829788,9.36046806 27.4706966,9.39437209 C27.1262828,10.3434291 26.4242775,12.2150596 25.5913898,14.0879694 C25.5784679,14.1175235 25.5807708,14.1515555 25.5980426,14.1797022 C26.1036605,15.0079841 27.418881,17.1814244 28.7113283,19.4741046 C28.7379398,19.5213143 28.796792,19.5397377 28.8452812,19.5161968 C29.7051642,19.0941236 31.3187402,18.2430684 32.465592,17.2850556 C32.7369522,17.0587302 33.1402183,17.0949372 33.3666716,17.3660415 C33.592997,17.6371458 33.5567901,18.0406677 33.2856858,18.2671211 C32.0359704,19.3108535 30.3204264,20.2171786 29.4089837,20.6645839 C29.2140035,20.7604107 29.0067412,20.8058293 28.8022934,20.8058293" id="Fill-12"></path>
                            <path d="M16.0921583,33.7559795 C15.871846,33.7559795 15.6576749,33.6421131 15.5388189,33.4381772 C15.1534644,32.7768566 14.8479443,32.2272275 14.659489,31.8825579 C14.4549134,31.5082062 14.4870263,31.0448084 14.7407308,30.701802 C15.7407078,29.3497348 16.8815465,27.7353912 17.3256253,27.1042644 C17.5699902,26.756908 17.9706975,26.555147 18.4000632,26.5720351 C21.0940904,26.6587782 23.7286255,26.1659543 24.7357672,25.9496082 C25.2997255,25.8287052 25.8439812,26.1737587 25.9772944,26.7347744 L26.0238645,26.9298825 C26.1970949,27.6547891 26.4128013,28.5571481 26.6290194,29.8684025 C26.6865923,30.2170383 26.4505435,30.5462273 26.1019077,30.6036722 C25.7527602,30.6612451 25.424083,30.4250683 25.366638,30.0765605 C25.1598874,28.8219834 24.9519853,27.9486667 24.7841284,27.2467893 C23.6024769,27.4896189 21.0189897,27.9349771 18.3646239,27.8509207 C17.922976,28.4785931 16.8232059,30.0343404 15.8376861,31.3704151 C16.0240943,31.7094554 16.3019794,32.2066292 16.6442182,32.7941285 C16.8220545,33.0993927 16.7188071,33.4911442 16.4135429,33.6688525 C16.3123426,33.7278327 16.2014188,33.7559795 16.0921583,33.7559795" id="Fill-14"></path>
                            <path d="M6.92509671,13.4338007 C6.81391707,13.4338007 6.7013301,13.4047584 6.59872243,13.3438591 L1.86495202,10.5291848 C1.56135101,10.3486618 1.46155801,9.95601476 1.64208099,9.65228582 C1.82247602,9.34868481 2.21499515,9.24863593 2.51897997,9.42941479 L7.25275039,12.2440891 C7.55635139,12.4246121 7.65614439,12.8172591 7.47562141,13.1209881 C7.35599776,13.3221093 7.14336191,13.4338007 6.92509671,13.4338007" id="Fill-16"></path>
                            <path d="M17.8012285,28.1468709 C17.5866736,28.1468709 17.3772362,28.0388898 17.2562052,27.8430141 L13.5459527,21.8298462 C13.3604401,21.5290599 13.4538361,21.1350055 13.7543666,20.9494929 C14.0551529,20.7638523 14.4492073,20.8572483 14.6347199,21.1579067 L18.3449724,27.1710745 C18.530485,27.4718609 18.437217,27.8659153 18.1365586,28.0514279 C18.0319039,28.1160375 17.9158625,28.1468709 17.8012285,28.1468709" id="Fill-18"></path>
                            <path d="M13.3225827,9.97942773 C13.2488894,9.97942773 13.1737888,9.96650582 13.1006073,9.93951053 C12.7692433,9.81681632 12.6002349,9.44873369 12.7229292,9.1174977 L14.0021986,5.66312469 C14.1250208,5.3318887 14.4929755,5.16300825 14.8242115,5.28544658 C15.1555754,5.40814079 15.3245838,5.77609548 15.2018896,6.10733147 L13.9224922,9.56170448 C13.8269212,9.81988688 13.5825563,9.97942773 13.3225827,9.97942773" id="Fill-20"></path>
                            <path d="M5.0060006,24.5645582 C4.89085483,24.5645582 4.77430172,24.5334688 4.6692632,24.4682196 C4.36898863,24.2819393 4.27687201,23.8875011 4.46315227,23.5873545 L6.76606761,19.877102 C6.95221993,19.5768274 7.34653022,19.4845828 7.64693273,19.670991 C7.94707936,19.8572713 8.03932391,20.2517095 7.85304365,20.5518562 L5.55012831,24.2621087 C5.42909732,24.4572168 5.21991584,24.5645582 5.0060006,24.5645582" id="Fill-22"></path>
                            <path d="M25.2206076,27.123353 C25.1210705,27.123353 25.0199981,27.100068 24.9255786,27.0509391 C24.6122541,26.887688 24.4905834,26.5014379 24.6537066,26.1879856 L27.8522001,20.046878 C28.0154512,19.7335536 28.4018293,19.611627 28.7150257,19.7750061 C29.0284781,19.9382572 29.1501488,20.3245072 28.9868977,20.6379596 L25.7884042,26.7790672 C25.6744099,26.9979721 25.4515388,27.123353 25.2206076,27.123353" id="Fill-24"></path>
                            <path d="M17.9277865,15.4807087 C17.6015402,15.4807087 17.3228874,15.2325056 17.2916701,14.9011416 C17.2585337,14.5494353 17.5167161,14.2372623 17.8684225,14.2041259 L24.6492287,13.5644272 C25.0017027,13.5306511 25.313108,13.7893453 25.3461165,14.1411796 C25.3793808,14.4928859 25.1211984,14.8050589 24.7694921,14.8381953 L17.9886858,15.477894 C17.9680875,15.4798131 17.947873,15.4807087 17.9277865,15.4807087" id="Fill-26"></path>
                            <path d="M14.9865542,31.8571234 C14.9435664,31.8571234 14.9000669,31.8527735 14.8563115,31.8438177 L11.1460591,31.0761793 C10.80011,31.004533 10.5776228,30.6660044 10.649269,30.3200554 C10.7209153,29.9741063 11.0595718,29.7527706 11.405265,29.8232654 L15.1155175,30.5909038 C15.4614665,30.6624221 15.6839537,31.0009507 15.6124354,31.3468997 C15.5497449,31.6490934 15.2835023,31.8571234 14.9865542,31.8571234" id="Fill-28"></path>
                            <path d="M25.6050537,7.54844472 C25.4369409,7.54844472 25.269084,7.48255575 25.1434471,7.35180133 L22.0728934,4.15330781 C21.8281446,3.89845185 21.8364607,3.49352257 22.0913167,3.24877384 C22.3463006,3.00415306 22.7511019,3.01259708 22.9958507,3.26719716 L26.0664044,6.46569069 C26.3111532,6.72054665 26.3028371,7.12547593 26.0479811,7.37022466 C25.9238796,7.48920862 25.7643387,7.54844472 25.6050537,7.54844472" id="Fill-30"></path>
                        </g>
                    </g>
                </g>
            </g>
        </g>
    </g>
</svg>