<?xml version="1.0" encoding="UTF-8"?>
<svg width="16px" height="13px" viewBox="0 0 16 13" version="1.1" xmlns="http://www.w3.org/2000/svg" xmlns:xlink="http://www.w3.org/1999/xlink">
    <!-- Generator: Sketch 51.2 (57519) - http://www.bohemiancoding.com/sketch -->
    <title>Fill 1</title>
    <desc>Created with Sketch.</desc>
    <defs></defs>
    <g id="My-Tours" stroke="none" stroke-width="1" fill="none" fill-rule="evenodd">
        <g id="11.3.3---Retro-Review-&amp;-Tip---Neither-Left---iPhone-5" transform="translate(-26.000000, -101.000000)" fill="#343030">
            <g id="header/hero">
                <g id="preview" transform="translate(15.000000, 96.000000)">
                    <g id="Group-2" transform="translate(11.000000, 5.000000)">
                        <path d="M14.8933981,6.63043572 C14.8933981,3.01576403 11.9466717,0.0747557387 8.33176175,0.0747557387 C4.71709006,0.0747557387 1.77024454,3.01576403 1.77024454,6.63043572 L1.77024454,7.86673611 C1.23774669,7.86673611 0.832,8.23969308 0.832,8.73862689 L0.833906033,11.0504062 C0.833906033,11.5493102 1.23965272,11.9676844 1.7383185,11.9676844 L1.8000263,11.9676844 C1.89282627,12.4363301 2.25211341,12.6705339 2.68073249,12.6705339 L3.17725398,12.6705339 C3.67591976,12.6705339 4.11394987,12.2049854 4.11394987,11.7058431 L4.11394987,8.03303745 C4.11394987,7.52686667 3.66746174,7.16364833 3.17725398,7.16364833 L3.05919909,7.16364833 L3.05919909,6.53620623 C3.05919909,3.62081025 5.41648489,1.24875269 8.332,1.24875269 C11.2472769,1.24875269 13.6046818,3.62081025 13.6046818,6.53620623 L13.6046818,7.16364833 L13.486746,7.16364833 C12.9965383,7.16364833 12.5500501,7.52686667 12.5500501,8.03303745 L12.5500501,11.7060814 C12.5500501,12.2051045 12.9879611,12.6707721 13.486746,12.6707721 L13.9832675,12.6707721 C14.4118866,12.6707721 14.7710546,12.4364195 14.8639737,11.9679226 L14.9256815,11.9679226 C15.4245855,11.9679226 15.830094,11.5330791 15.830094,11.0341751 L15.832,8.75316039 C15.8317617,8.25437549 15.4262533,7.86673611 14.9273493,7.86673611 L14.8933981,6.63043572 Z" id="Fill-1"></path>
                    </g>
                </g>
            </g>
        </g>
    </g>
</svg>