<?xml version="1.0" encoding="UTF-8"?>
<svg width="39px" height="49px" viewBox="0 0 39 49" version="1.1" xmlns="http://www.w3.org/2000/svg" xmlns:xlink="http://www.w3.org/1999/xlink">
    <!-- Generator: Sketch 49.3 (51167) - http://www.bohemiancoding.com/sketch -->
    <title>icon-feet</title>
    <desc>Created with Sketch.</desc>
    <defs></defs>
    <g id="Individual-Tour-Pages" stroke="none" stroke-width="1" fill="none" fill-rule="evenodd">
        <g id="Desktop---1440-V2-Copy" transform="translate(-142.000000, -15.000000)">
            <g id="nav">
                <g id="icon-feet" transform="translate(142.000000, 15.000000)">
                    <g id="left">
                        <path d="M4.53532835,24.5197006 C0.135753035,18.1796106 -0.284845444,11.4903663 0.819081522,6.86378306 C1.14749403,5.49136446 1.93337941,3.5070615 2.84717281,2.33745204 C4.86028389,-0.243755063 8.32071466,-0.436193271 10.2865804,2.10122549 C15.3556563,8.64527689 16.4722589,13.5991203 16.0343755,21.7172471 C15.8557652,25.0140478 14.349677,25.2687115 10.6414964,26.303499 C6.90105075,27.3486574 6.02528406,26.6676336 4.53532835,24.5197006" id="Fill-4" fill="#22BFB3"></path>
                        <path d="M10.64576,37.6707203 C8.72483489,37.0553789 6.41327175,33.3852251 6.82465163,31.6037313 C7.25677336,29.7358131 15.7759091,27.2997989 17.0584464,27.9727564 C18.5265079,28.7425093 19.4898513,31.1958084 19.6385012,33.2941914 C19.794065,35.5031977 13.8169573,38.6870706 10.64576,37.6707203" id="Fill-6" fill="#594383"></path>
                    </g>
                    <g id="right" transform="translate(21.274725, 9.362637)">
                        <path d="M10.7020611,38.5867031 C7.7382822,39.9983007 1.42930502,37.5657435 1.26797958,35.3406047 C1.11587273,33.2272414 1.71162455,30.6564052 3.04140713,29.7045851 C4.20410265,28.8726067 12.8972394,30.2381114 13.5851772,32.050718 C14.2420022,33.7780525 12.4973828,37.7316782 10.7020611,38.5867031" id="Fill-8" fill="#F26668"></path>
                        <path d="M14.8240414,24.6896684 C13.6682598,27.0208211 12.9065733,27.8101634 9.09237883,27.2351535 C5.31275415,26.6647528 3.80090428,26.5990703 3.15790715,23.3299254 C1.5769178,15.2786334 1.96870817,10.1911203 6.00875821,3.02366134 C7.57476734,0.243102079 10.9925621,0.00111391378 13.331781,2.32765728 C14.3919197,3.38203429 15.4451443,5.26493268 15.9613858,6.59356294 C17.7002436,11.0761056 18.2360745,17.8068336 14.8240414,24.6896684" id="Fill-10" fill="#F4BD34"></path>
                    </g>
                </g>
            </g>
        </g>
    </g>
</svg>