<?xml version="1.0" encoding="utf-8"?>
<!-- Generator: Adobe Illustrator 22.1.0, SVG Export Plug-In . SVG Version: 6.00 Build 0)  -->
<svg version="1.1" id="Layer_1" xmlns="http://www.w3.org/2000/svg" xmlns:xlink="http://www.w3.org/1999/xlink" x="0px" y="0px"
	 viewBox="0 0 39 49" style="enable-background:new 0 0 39 49;" xml:space="preserve">
<style type="text/css">
	.st0{fill:#FFFFFF;}
</style>
<title>icon-feet</title>
<desc>Created with Sketch.</desc>
<g id="Individual-Tour-Pages">
	<g id="Desktop---1440-V2-Copy" transform="translate(-142.000000, -15.000000)">
		<g id="nav">
			<g id="icon-feet" transform="translate(142.000000, 15.000000)">
				<g id="left">
					<path id="Fill-4" class="st0" d="M4.5,24.5c-4.4-6.3-4.8-13-3.7-17.7c0.3-1.4,1.1-3.4,2-4.5c2-2.6,5.5-2.8,7.4-0.2
						c5.1,6.5,6.2,11.5,5.7,19.6c-0.2,3.3-1.7,3.6-5.4,4.6C6.9,27.3,6,26.7,4.5,24.5"/>
					<path id="Fill-6" class="st0" d="M10.6,37.7c-1.9-0.6-4.2-4.3-3.8-6.1c0.4-1.9,9-4.3,10.2-3.6c1.5,0.8,2.4,3.2,2.6,5.3
						C19.8,35.5,13.8,38.7,10.6,37.7"/>
				</g>
				<g id="right" transform="translate(21.274725, 9.362637)">
					<path id="Fill-8" class="st0" d="M10.7,38.6c-3,1.4-9.3-1-9.4-3.2c-0.2-2.1,0.4-4.7,1.8-5.6c1.2-0.8,9.9,0.5,10.5,2.3
						C14.2,33.8,12.5,37.7,10.7,38.6"/>
					<path id="Fill-10" class="st0" d="M14.8,24.7c-1.2,2.3-1.9,3.1-5.7,2.5c-3.8-0.6-5.3-0.6-5.9-3.9C1.6,15.3,2,10.2,6,3
						c1.6-2.8,5-3,7.3-0.7c1.1,1.1,2.1,2.9,2.6,4.3C17.7,11.1,18.2,17.8,14.8,24.7"/>
				</g>
			</g>
		</g>
	</g>
</g>
</svg>
