<?xml version="1.0" encoding="UTF-8"?>
<svg width="39px" height="39px" viewBox="0 0 39 39" version="1.1" xmlns="http://www.w3.org/2000/svg" xmlns:xlink="http://www.w3.org/1999/xlink">
    <!-- Generator: Sketch 48.2 (47327) - http://www.bohemiancoding.com/sketch -->
    <title>inst</title>
    <desc>Created with Sketch.</desc>
    <defs></defs>
    <g id="Desktop---1156" stroke="none" stroke-width="1" fill="none" fill-rule="evenodd" transform="translate(-610.000000, -3543.000000)">
        <g id="footer" transform="translate(0.000000, 3488.000000)" fill="#343030">
            <g id="social-accounts" transform="translate(507.000000, 55.000000)">
                <g id="inst" transform="translate(103.000000, 0.000000)">
                    <path d="M19.8635419,38.369548 C9.38054801,38.369548 0.851998374,29.8478321 0.851998374,19.373238 C0.851998374,8.89864391 9.38054801,0.376928044 19.8635419,0.376928044 C22.4109448,0.376928044 24.8837417,0.872127306 27.2135199,1.84885424 C27.5802123,2.00255166 27.7527564,2.42421218 27.5989357,2.7906107 C27.4451151,3.15715314 27.0226843,3.32999077 26.65628,3.17571771 C24.5039429,2.2735369 22.2186689,1.81604244 19.8635419,1.81604244 C10.174712,1.81604244 2.29226683,9.69217159 2.29226683,19.373238 C2.29226683,29.0543044 10.174712,36.9304336 19.8635419,36.9304336 C29.5523719,36.9304336 37.4348171,29.0543044 37.4348171,19.373238 C37.4348171,15.304286 36.0098155,11.3380867 33.4226612,8.20542251 C33.169462,7.89903506 33.2129582,7.4454262 33.5195913,7.19242989 C33.8263685,6.93943358 34.2803411,6.98289483 34.5333963,7.2894262 C37.3332781,10.6792601 38.8750855,14.9706993 38.8750855,19.373238 C38.8750855,29.8478321 30.3465359,38.369548 19.8635419,38.369548" id="in"></path>
                    <path d="M27.2479842,23.6051472 C27.2479842,25.4469274 25.751048,26.9438636 23.9092678,26.9438636 L15.9206441,26.9438636 C14.0796476,26.9438636 12.5819276,25.4469274 12.5819276,23.6051472 L12.5819276,15.6165235 C12.5819276,13.775527 14.0796476,12.277807 15.9206441,12.277807 L23.9092678,12.277807 C25.751048,12.277807 27.2479842,13.775527 27.2479842,15.6165235 L27.2479842,23.6051472 Z M23.9092678,10.6954435 L15.9206441,10.6954435 C13.2065654,10.6954435 11.0003478,12.9032285 11.0003478,15.6165235 L11.0003478,23.6051472 C11.0003478,26.3184421 13.2065654,28.5254434 15.9206441,28.5254434 L23.9092678,28.5254434 C26.6225627,28.5254434 28.8303477,26.3184421 28.8303477,23.6051472 L28.8303477,15.6165235 C28.8303477,12.9032285 26.6225627,10.6954435 23.9092678,10.6954435 Z M19.9149559,22.6224203 C18.2542188,22.6224203 16.9022737,21.2720427 16.9022737,19.6105218 C16.9022737,17.9497847 18.253435,16.5978396 19.9149559,16.5978396 C21.5764768,16.5978396 22.9276381,17.9497847 22.9276381,19.6105218 C22.9276381,21.2720427 21.5756931,22.6224203 19.9149559,22.6224203 M19.9149559,15.0170436 C22.4479915,15.0170436 24.5092179,17.0774862 24.5092179,19.6105218 C24.5092179,22.1443411 22.4479915,24.2055675 19.9149559,24.2055675 C17.3811366,24.2055675 15.320694,22.1443411 15.320694,19.6105218 C15.320694,17.0774862 17.3811366,15.0170436 19.9149559,15.0170436 Z M24.7023305,13.6752087 C25.0079876,13.6752087 25.3065911,13.7982553 25.5221186,14.0145665 C25.7384298,14.230094 25.8614764,14.5294813 25.8614764,14.8351384 C25.8614764,15.1400118 25.7384298,15.4393991 25.5221186,15.6557103 C25.3065911,15.8712377 25.0079876,15.9950681 24.7023305,15.9950681 C24.3966734,15.9950681 24.0980698,15.8712377 23.8825424,15.6557103 C23.6670149,15.4393991 23.5424008,15.1400118 23.5424008,14.8351384 C23.5424008,14.5294813 23.6662312,14.230094 23.8825424,14.0145665 C24.0980698,13.7982553 24.3966734,13.6752087 24.7023305,13.6752087 Z" id="logo"></path>
                </g>
            </g>
        </g>
    </g>
</svg>