<?xml version="1.0" encoding="UTF-8"?>
<svg width="39px" height="39px" viewBox="0 0 39 39" version="1.1" xmlns="http://www.w3.org/2000/svg" xmlns:xlink="http://www.w3.org/1999/xlink">
    <!-- Generator: Sketch 48.2 (47327) - http://www.bohemiancoding.com/sketch -->
    <title>li-hover</title>
    <desc>Created with Sketch.</desc>
    <defs></defs>
    <g id="Desktop---1156" stroke="none" stroke-width="1" fill="none" fill-rule="evenodd" transform="translate(-636.000000, -3543.000000)">
        <g id="footer" transform="translate(0.000000, 3488.000000)" fill="#0077B5">
            <g id="social-accounts-hover" transform="translate(481.000000, 55.000000)">
                <g id="li-hover" transform="translate(155.000000, 0.000000)">
                    <path d="M19.8635419,38.369548 C9.38054801,38.369548 0.851998374,29.8478321 0.851998374,19.373238 C0.851998374,8.89864391 9.38054801,0.376928044 19.8635419,0.376928044 C22.4109448,0.376928044 24.8837417,0.872127306 27.2135199,1.84885424 C27.5802123,2.00255166 27.7527564,2.42421218 27.5989357,2.7906107 C27.4451151,3.15715314 27.0226843,3.32999077 26.65628,3.17571771 C24.5039429,2.2735369 22.2186689,1.81604244 19.8635419,1.81604244 C10.174712,1.81604244 2.29226683,9.69217159 2.29226683,19.373238 C2.29226683,29.0543044 10.174712,36.9304336 19.8635419,36.9304336 C29.5523719,36.9304336 37.4348171,29.0543044 37.4348171,19.373238 C37.4348171,15.304286 36.0098155,11.3380867 33.4226612,8.20542251 C33.169462,7.89903506 33.2129582,7.4454262 33.5195913,7.19242989 C33.8263685,6.93943358 34.2803411,6.98289483 34.5333963,7.2894262 C37.3332781,10.6792601 38.8750855,14.9706993 38.8750855,19.373238 C38.8750855,29.8478321 30.3465359,38.369548 19.8635419,38.369548" id="in"></path>
                    <path d="M25.4895333,25.1892447 L23.1417911,25.1892447 L23.1417911,21.5157032 C23.1417911,20.6393125 23.1268401,19.5122731 21.9219678,19.5122731 C20.6999458,19.5122731 20.5139381,20.4673763 20.5139381,21.4528212 L20.5139381,25.1892447 L18.1688344,25.1892447 L18.1688344,17.6346071 L20.4193952,17.6346071 L20.4193952,18.6675433 L20.4514958,18.6675433 C20.7645868,18.0734621 21.5306041,17.4472802 22.6730342,17.4472802 C25.0502386,17.4472802 25.4895333,19.0114156 25.4895333,21.0460669 L25.4895333,25.1892447 Z M15.5211934,16.6025504 C14.7670488,16.6025504 14.1588961,15.9926387 14.1588961,15.2406928 C14.1588961,14.4891867 14.7670488,13.879275 15.5211934,13.879275 C16.2722598,13.879275 16.8821714,14.4891867 16.8821714,15.2406928 C16.8821714,15.9926387 16.2722598,16.6025504 15.5211934,16.6025504 Z M14.3453435,25.1892447 L16.695724,25.1892447 L16.695724,17.6346071 L14.3453435,17.6346071 L14.3453435,25.1892447 Z M26.6587871,11.6999512 L13.1677347,11.6999512 C12.5235237,11.6999512 11.9998,12.2109226 11.9998,12.8415018 L11.9998,26.3884005 C11.9998,27.0185399 12.5235237,27.5303908 13.1677347,27.5303908 L26.6587871,27.5303908 C27.3043173,27.5303908 27.8297999,27.0185399 27.8297999,26.3884005 L27.8297999,12.8415018 C27.8297999,12.2109226 27.3043173,11.6999512 26.6587871,11.6999512 Z" id="Fill-1"></path>
                </g>
            </g>
        </g>
    </g>
</svg>