<?xml version="1.0" encoding="UTF-8"?>
<svg width="214px" height="118px" viewBox="0 0 214 118" version="1.1" xmlns="http://www.w3.org/2000/svg" xmlns:xlink="http://www.w3.org/1999/xlink">
    <!-- Generator: Sketch 48.2 (47327) - http://www.bohemiancoding.com/sketch -->
    <title>logo-lockup</title>
    <desc>Created with Sketch.</desc>
    <defs></defs>
    <g id="Desktop" stroke="none" stroke-width="1" fill="none" fill-rule="evenodd" transform="translate(-369.000000, -157.000000)">
        <g id="copy" transform="translate(142.000000, 157.000000)">
            <g id="logo-lockup" transform="translate(227.000000, 0.000000)">
                <g id="logo">
                    <g id="Group-3" transform="translate(0.000000, 0.259653)"></g>
                    <path d="M74.6575935,41.439499 C73.1370839,40.952213 71.3084142,38.0487879 71.6343283,36.6392412 C71.9760942,35.1605804 78.7163016,33.2339464 79.7317713,33.7659345 C80.893395,34.3746456 81.655869,36.3161804 81.7728557,37.9761864 C81.8965001,39.7240116 77.1669416,42.2435049 74.6575935,41.439499 M69.8227787,31.0333923 C66.341395,26.0165982 66.0085061,20.724299 66.8822601,17.0637893 C67.1415964,15.9779375 67.7642572,14.407653 68.4867846,13.4815879 C70.0802127,11.4395523 72.8175105,11.2873745 74.3732113,13.2958041 C78.3837298,18.473336 79.2679461,22.3925479 78.9207905,28.8160353 C78.779709,31.424616 77.5886009,31.6262516 74.6544231,32.4454753 C71.6948824,33.2723079 71.0021564,32.7327108 69.8227787,31.0333923 M38.4472083,59.8872501 C36.6014187,73.7059434 26.8553831,96.5700204 13.1226068,92.5705982 C1.83830756,89.2911671 5.60978015,72.9618575 9.22178311,67.5535227 C14.4516261,59.7271464 24.8187372,53.3160234 39.4499964,49.1200382 C39.4994542,49.1076738 39.5546187,49.0892856 39.6037594,49.0769212 C39.240752,53.1007553 38.8533327,56.8417923 38.4472083,59.8872501 M180.372325,8.79482933 C179.652334,7.66269007 177.578912,4.29734193 172.785946,5.71861896 C166.934711,7.44742193 162.307555,17.7533449 160.437353,23.2355493 C159.293167,14.9786367 157.059641,12.3513508 154.223111,10.1238486 C151.349804,7.87193452 146.637048,8.89342785 145.812435,9.50879674 C144.993845,10.1238486 144.926316,11.1573893 145.504592,12.8928501 C146.378346,15.5137953 147.313605,19.9437538 148.11349,24.3429597 C145.824482,28.3544293 142.785048,33.393733 139.967223,36.9930545 C136.768002,41.0967819 134.023413,43.4533182 133.919108,37.4052027 C133.814485,31.3507464 135.352749,14.227576 135.561993,11.7667345 C135.764897,9.305576 135.561993,8.17977748 134.023413,7.04763822 C132.485466,5.92152267 129.815063,5.410776 127.969591,5.20184859 C126.123484,4.99862785 125.053167,6.02012119 124.893063,7.76762933 C124.862311,8.08720267 124.837582,8.40741007 124.806829,8.72730044 L124.806829,8.73332415 C121.594927,28.0960441 119.318918,34.4640501 115.76842,39.890773 C111.695445,46.1173804 109.308156,44.5791167 109.105253,41.7121508 C108.896008,38.8385271 110.538577,14.9475671 110.741798,11.3542693 C110.951042,7.76762933 110.433955,6.53689156 109.308156,5.61399674 C108.182358,4.69110193 105.924103,3.87282933 103.666165,3.66358489 C101.414251,3.46068119 100.435875,5.0109923 100.079208,6.84441748 C99.8943757,7.79204119 99.7222246,8.7089123 99.5621209,9.58869007 C99.5560972,9.62546637 99.5500735,9.656536 99.5437327,9.6933123 C97.2670898,21.0204116 92.6957327,22.8538367 90.1239283,23.4260886 C87.921155,8.06881452 79.4733861,0.537916741 70.5950809,2.43284711 C63.5134246,3.94669896 55.059632,9.35471674 57.0591846,27.0437982 C57.6866009,32.5814841 59.1202424,37.1835938 61.0706542,40.8444204 C58.5172379,41.0413004 55.0041505,41.423013 49.7128024,42.4378486 C50.531075,32.5015908 51.0602098,22.1833034 51.5649327,7.16462489 C51.7247194,2.24230785 50.7403194,1.81779526 49.5526987,1.2823197 C48.3590542,0.740820444 46.4333713,0.396518222 45.3934898,0.322648593 C44.359949,0.242755259 43.4738305,1.02393452 43.3568439,2.20553156 C43.178352,4.05734489 43.0369535,5.60797304 42.9139431,6.99215674 C41.5357831,17.4455019 35.6106779,24.8042486 31.7837239,28.5820619 C27.907629,32.4153567 25.938512,30.2740886 25.938512,27.6100264 C25.938512,22.2264204 27.3721535,12.4864086 28.5905268,4.24186044 C28.7810661,2.94359378 28.4859046,2.33456563 27.7351609,1.8729597 C27.3721535,1.65166785 26.529152,1.0854397 24.3758364,0.704044148 C22.4254246,0.359424889 21.4410246,0.667267852 20.862432,0.796301926 C19.8475964,1.01791081 19.2629801,2.07618044 19.0169594,3.25746044 C16.9803135,13.1017775 11.8303639,34.4393212 24.7080913,36.5805893 C31.8084527,37.7618693 38.0103313,29.5664619 41.4866424,24.6628501 C41.055789,30.4956975 40.5513831,37.725093 39.985472,44.5791167 C29.5318098,47.1388738 20.5736113,49.9934753 10.4522039,58.422856 C-3.69906133,70.2175849 -3.69906133,92.8781241 11.7872468,97.1850723 C31.4270572,102.648572 45.6274631,80.4188856 47.8299194,61.1915404 C48.4208764,56.0419079 48.9129179,51.3843167 49.3314068,46.7818901 C54.7273772,45.7175967 60.0307727,44.9544886 63.525789,44.6406219 C67.6910216,49.9750871 73.1608616,52.2209775 78.1323194,51.3472234 C86.5369713,49.8704649 91.4038068,42.0444056 90.5731698,27.9914219 C92.5419698,27.3763701 95.4644172,25.8872471 97.8333179,23.8198486 C97.6855787,26.6008975 97.6855787,29.1974308 97.722355,31.9661153 C97.8209535,39.2817449 99.7713653,49.0953093 107.769893,50.3257301 C115.122299,51.4578693 118.635703,46.2403908 123.16426,38.6419641 C123.711783,43.5148234 126.154236,48.3753182 131.150423,48.3753182 C136.995318,48.3753182 140.99474,44.7331967 145.301688,37.3497212 C146.815223,34.7655523 148.168971,32.3782634 149.184124,30.5632264 C149.424121,32.0951493 149.639072,33.4920145 149.81154,34.6365182 C150.636153,40.1738871 151.761952,50.2214249 152.272699,51.8639938 C152.789469,53.500539 156.0689,53.4022575 158.732962,53.193013 C161.403365,52.9901093 161.914112,49.1935908 162.018417,46.0187819 C162.030782,45.711256 162.030782,45.3298604 162.030782,44.8869597 C161.926159,22.7371671 169.820382,13.243176 171.296823,11.6621123 C172.835087,10.0255671 174.730017,10.4316916 175.652912,11.3542693 C176.575807,12.2774812 177.911167,13.9200501 179.756956,12.5850071 C181.602746,11.2559879 181.091999,9.92094489 180.372325,8.79482933" id="Fill-1" fill="#FFFFFF"></path>
                    <path d="M105.893351,95.2862424 C104.978699,97.1307639 104.376328,97.7559609 101.35877,97.3006957 C98.3675253,96.849869 97.1713446,96.7975579 96.6631342,94.2102187 C95.411472,87.8396764 95.7218513,83.8148913 98.9179016,78.1430987 C100.157516,75.9428616 102.861525,75.7523224 104.712388,77.5920883 C105.551902,78.4265298 106.385075,79.9166039 106.793102,80.9685327 C108.168725,84.514275 108.593555,89.8408142 105.893351,95.2862424 M102.631673,106.282355 C100.286868,107.399276 95.2948024,105.475179 95.1676705,103.714038 C95.0471964,102.041985 95.5186305,100.008192 96.5705594,99.254912 C97.4902839,98.596109 104.368402,99.6772053 104.913389,101.11053 C105.432696,102.477593 104.052633,105.605798 102.631673,106.282355 M205.598328,69.0916913 C204.878654,67.959552 202.805232,64.5938868 198.012266,66.0154809 C192.160713,67.7442839 187.534192,78.0502068 185.663356,83.5320942 C184.51917,75.2751816 182.285644,72.6478957 179.449431,70.4207105 C176.575807,68.1687964 171.863051,69.1899727 171.038438,69.8053416 C170.220165,70.4207105 170.152636,71.4542513 170.730912,73.189395 C171.604666,75.8103401 172.539925,80.2406157 173.339493,84.6395046 C171.051119,88.6509742 168.011368,93.6902779 165.193543,97.2895994 C161.994005,101.393644 159.25005,103.749863 159.145428,97.7017476 C159.040805,91.6476083 160.578752,74.524755 160.787996,72.0635964 C160.991217,69.6021209 160.787996,68.4766394 159.25005,67.3441831 C157.711786,66.2180676 155.041383,65.7076379 153.195593,65.4983935 C151.349804,65.2954898 150.27917,66.3166661 150.119066,68.0641742 C150.088313,68.3843816 150.063902,68.703955 150.033149,69.0238453 L150.033149,69.0301861 C146.821564,88.3929061 144.544921,94.760912 140.99474,100.187635 C136.921448,106.414242 134.534476,104.875979 134.331256,102.008696 C134.122011,99.1357061 135.764897,75.244429 135.967801,71.6511313 C136.177045,68.0641742 135.660592,66.8337535 134.534476,65.9108587 C133.408361,64.9879639 131.150423,64.1696913 128.892485,63.9601298 C126.640254,63.7572261 125.661878,65.3075372 125.305211,67.1412794 C125.13306,68.0334216 124.966933,68.8948113 124.819193,69.7254483 C124.806829,69.7809298 124.800805,69.8300705 124.788441,69.885552 C122.942651,79.2558987 119.583327,84.7564913 117.005182,87.4021653 C114.531976,72.881869 106.299475,65.8122601 97.6671905,67.6520261 C90.5852172,69.1652439 82.1314246,74.5738957 84.1312942,92.2629772 C84.1744113,92.6443727 84.223552,93.0197446 84.2726927,93.3890927 C82.8637801,96.1885298 80.4888557,100.636559 77.8244764,104.469854 C71.4935639,113.582133 70.0351935,110.105822 69.3152024,103.442654 C68.3739194,94.6810187 69.1985327,85.1810039 69.9616409,75.201312 C75.4375046,72.7281061 81.030355,70.2545831 83.7004409,69.1531964 C85.8540735,68.2670779 87.2322335,67.6580498 86.6967579,66.3477357 C86.3524557,65.4983935 85.4539727,65.1106572 82.5067964,66.1568794 C78.1754364,67.6827787 74.2930009,69.0301861 70.287555,70.7098483 C70.484435,67.8733179 70.6505624,65.006352 70.7488439,62.1143401 C70.921312,57.3029861 67.266509,56.7862157 64.903949,56.3740676 C62.5474127,55.9616024 61.6061298,57.216752 61.1137713,59.9610246 C60.3570039,64.1325979 59.3726039,69.731789 58.560355,75.7367876 C56.8806927,76.339475 55.3918868,76.7639876 54.2413594,76.8809742 C51.164832,77.1888172 49.3437713,76.4196853 48.9620587,77.0103253 C48.5806631,77.5886009 49.2083964,78.462355 49.9344113,78.985149 C51.6692379,80.234275 54.2657713,81.2373801 57.9881031,80.3512616 C57.0591846,88.503235 56.6223076,96.9082039 57.6250957,103.134811 C59.5755076,115.237066 66.238992,118.005751 70.7488439,117.082856 C75.1543905,116.18469 80.3350927,110.302702 85.9276261,100.772251 C89.736509,112.536228 97.9934216,117.833599 105.204112,116.566085 C113.60274,115.089644 118.475916,107.262951 117.644962,93.2166246 C119.355694,91.893629 121.478257,89.7092439 122.948675,87.2176498 C122.917922,88.8909713 122.924263,90.5398809 122.948675,92.2629772 C123.046956,99.5782898 124.997685,109.391854 132.996213,110.622592 C140.348936,111.754731 143.862023,106.537253 148.390263,98.9388261 C148.937786,103.811685 151.380556,108.67218 156.376426,108.67218 C162.221638,108.67218 166.220743,105.029742 170.527691,97.6465831 C172.041543,95.0624142 173.394974,92.6751253 174.410127,90.8600883 C174.650124,92.3920113 174.865709,93.7885594 175.03786,94.9330631 C175.862156,100.470749 176.988272,110.51797 177.498702,112.160856 C178.015789,113.797718 181.29522,113.698802 183.959282,113.489875 C186.629368,113.286654 187.140432,109.49077 187.245054,106.315644 C187.257102,106.007801 187.257102,105.626722 187.257102,105.183822 C187.152796,83.034029 195.046385,73.5400379 196.523143,71.9589742 C198.061407,70.322112 199.956337,70.7282364 200.879232,71.6511313 C201.802444,72.5740261 203.137487,74.216912 204.983276,72.881869 C206.829066,71.5528498 206.318319,70.2178068 205.598328,69.0916913" id="Fill-4" fill="#FFFFFF"></path>
                    <path d="M209.89697,64.2562424 L210.555139,64.2562424 C210.869957,64.2562424 211.084591,64.2096379 211.199041,64.1154779 C211.313809,64.021635 211.370875,63.8973564 211.370875,63.7429594 C211.370875,63.6434098 211.343293,63.5543224 211.288129,63.4756972 C211.232964,63.397072 211.156558,63.3384201 211.058277,63.2997416 C210.960312,63.2610631 210.77865,63.2420409 210.513924,63.2420409 L209.89697,63.2420409 L209.89697,64.2562424 Z M209.35452,66.1486364 L209.35452,62.7864587 L210.509803,62.7864587 C210.904514,62.7864587 211.190164,62.8175283 211.366754,62.8796676 C211.543343,62.9418068 211.684425,63.0499164 211.789047,63.2046305 C211.893986,63.3593446 211.946615,63.5232527 211.946615,63.6973061 C211.946615,63.9430098 211.858795,64.1570098 211.683474,64.3393061 C211.508152,64.5212853 211.275764,64.6233713 210.985992,64.6455639 C211.104564,64.6953387 211.199675,64.7543076 211.271643,64.8234216 C211.407017,64.9559431 211.572511,65.1781861 211.76844,65.4901505 L212.178369,66.1486364 L211.515761,66.1486364 L211.217746,65.6185505 C210.983139,65.2016468 210.794185,64.9407253 210.650567,64.8357861 C210.551017,64.7587461 210.406132,64.7200676 210.215909,64.7200676 L209.89697,64.7200676 L209.89697,66.1486364 L209.35452,66.1486364 Z M210.725071,61.813472 C210.286292,61.813472 209.858926,61.9257031 209.443607,62.1507994 C209.028289,62.3758957 208.703009,62.6973713 208.468401,63.1155431 C208.234111,63.533715 208.116807,63.9693239 208.116807,64.4217357 C208.116807,64.8716113 208.231892,65.3030987 208.462377,65.7158809 C208.692863,66.1283461 209.01529,66.4501387 209.429023,66.6803076 C209.843074,66.9107935 210.274878,67.026195 210.725071,67.026195 C211.174946,67.026195 211.607068,66.9107935 212.020801,66.6803076 C212.435169,66.4501387 212.756644,66.1283461 212.985545,65.7158809 C213.214763,65.3030987 213.329213,64.8716113 213.329213,64.4217357 C213.329213,63.9693239 213.21286,63.533715 212.979521,63.1155431 C212.746182,62.6973713 212.421219,62.3758957 212.004315,62.1507994 C211.587729,61.9257031 211.160997,61.813472 210.725071,61.813472 Z M210.725071,61.2957505 C211.249767,61.2957505 211.761465,61.4304913 212.261115,61.6996557 C212.760766,61.9685031 213.150087,62.3537031 213.428763,62.8546216 C213.707755,63.3555401 213.846935,63.8783342 213.846935,64.4217357 C213.846935,64.9600646 213.70934,65.4777861 213.434786,65.9745831 C213.160232,66.4713801 212.775032,66.8572142 212.27982,67.1317683 C211.784292,67.4066394 211.265936,67.5435994 210.725071,67.5435994 C210.183889,67.5435994 209.66585,67.4066394 209.170321,67.1317683 C208.675109,66.8572142 208.289275,66.4713801 208.013136,65.9745831 C207.737314,65.4777861 207.599086,64.9600646 207.599086,64.4217357 C207.599086,63.8783342 207.738899,63.3555401 208.01916,62.8546216 C208.29942,62.3537031 208.689376,61.9685031 209.189026,61.6996557 C209.688677,61.4304913 210.200692,61.2957505 210.725071,61.2957505 Z" id="Fill-6" fill="#FFFFFF"></path>
                </g>
            </g>
        </g>
    </g>
</svg>