<?xml version="1.0" encoding="UTF-8"?>
<svg width="120px" height="66px" viewBox="0 0 120 66" version="1.1" xmlns="http://www.w3.org/2000/svg" xmlns:xlink="http://www.w3.org/1999/xlink">
    <!-- Generator: Sketch 48.2 (47327) - http://www.bohemiancoding.com/sketch -->
    <title>logo-lockup</title>
    <desc>Created with Sketch.</desc>
    <defs></defs>
    <g id="Desktop---1440" stroke="none" stroke-width="1" fill="none" fill-rule="evenodd" transform="translate(-142.000000, -27.000000)">
        <g id="logo-lockup" transform="translate(142.000000, 27.000000)">
            <g id="logo">
                <g id="Group-3" transform="translate(0.000000, 0.145600)"></g>
                <path d="M41.8640711,23.2371022 C41.0114489,22.9638578 39.9860267,21.3357689 40.1687822,20.5453689 C40.3604267,19.7162133 44.1399822,18.6358578 44.7094044,18.9341689 C45.3607822,19.2755022 45.7883378,20.3642133 45.8539378,21.2950578 C45.9232711,22.2751467 43.2711822,23.6879467 41.8640711,23.2371022 M39.15296,17.4019022 C37.2007822,14.5887467 37.0141156,11.6211022 37.5040711,9.56848 C37.6494933,8.95959111 37.9986489,8.07905778 38.4038044,7.55976889 C39.2973156,6.41470222 40.8322489,6.32936889 41.7046044,7.45559111 C43.9534933,10.35888 44.4493156,12.5565689 44.2546489,16.1585244 C44.1755378,17.62128 43.5076267,17.7343467 41.8622933,18.1937244 C40.2027378,18.6573689 39.8142933,18.3547911 39.15296,17.4019022 M21.5591822,33.5816356 C20.52416,41.3304356 15.0590933,54.1514133 7.35847111,51.9087467 C1.03082667,50.0698133 3.14567111,40.9131911 5.17109333,37.88048 C8.10371556,33.4918578 13.9170489,29.8968356 22.1214933,27.5439467 C22.1492267,27.5370133 22.18016,27.5267022 22.2077156,27.5197689 C22.00416,29.7761244 21.7869156,31.8739022 21.5591822,33.5816356 M101.14336,4.93168 C100.739627,4.29683556 99.57696,2.40972444 96.8893156,3.20670222 C93.6082489,4.17612444 91.0135822,9.95514667 89.9648711,13.02928 C89.3232711,8.39923556 88.0708267,6.92599111 86.4802489,5.67692444 C84.8690489,4.41416889 82.2263822,4.98696889 81.7639822,5.33203556 C81.30496,5.67692444 81.2670933,6.25648 81.59136,7.22963556 C82.0813156,8.69932444 82.60576,11.1834133 83.0542933,13.6502578 C81.7707378,15.89968 80.0663822,18.7254578 78.4862933,20.7437689 C76.6923378,23.0449244 75.1533156,24.3663467 75.0948267,20.97488 C75.03616,17.5798578 75.8987378,7.97808 76.0160711,6.59816889 C76.1298489,5.21808 76.0160711,4.58679111 75.1533156,3.95194667 C74.2909156,3.32048 72.7934933,3.03408 71.7586489,2.91692444 C70.7234489,2.80296889 70.1232711,3.37576889 70.0334933,4.35568 C70.0162489,4.53488 70.0023822,4.71443556 69.9851378,4.89381333 L69.9851378,4.89719111 C68.1840711,15.7547911 66.9078044,19.3256356 64.9168711,22.3686578 C62.63296,25.8602133 61.2942933,24.9976356 61.1805156,23.3899911 C61.0631822,21.7786133 61.9842489,8.38181333 62.0982044,6.36688 C62.2155378,4.35568 61.9255822,3.66554667 61.2942933,3.14803556 C60.6630044,2.63052444 59.3966933,2.17168 58.13056,2.05434667 C56.8678044,1.94056889 56.3191822,2.80990222 56.1191822,3.83799111 C56.0155378,4.36936889 55.9190044,4.88350222 55.8292267,5.37683556 C55.8258489,5.39745778 55.8224711,5.41488 55.8189156,5.43550222 C54.5422933,11.7871467 51.9789156,12.8152356 50.5367822,13.1361244 C49.3015822,4.52456889 44.5645156,0.301635556 39.5860267,1.36421333 C35.6150044,2.21310222 30.87456,5.24563556 31.9958044,15.1647467 C32.3476267,18.2699911 33.1515378,20.8506133 34.2452267,22.9034133 C32.8134044,23.0138133 30.8434489,23.2278578 27.8763378,23.7969244 C28.3351822,18.2251911 28.6318933,12.4392356 28.9149156,4.01754667 C29.0045156,1.25736889 28.4525156,1.01932444 27.78656,0.719057778 C27.1172267,0.415413333 26.0374044,0.222346667 25.4542933,0.180924444 C24.8747378,0.136124444 24.3778489,0.574168889 24.3122489,1.23674667 C24.21216,2.27514667 24.1328711,3.14465778 24.0638933,3.92083556 C23.2910933,9.78252444 19.9686044,13.9089244 17.8226489,16.0273244 C15.6491378,18.1768356 14.54496,16.9761244 14.54496,15.4822578 C14.54496,12.4634133 15.3488711,7.00172444 16.0320711,2.37861333 C16.1389156,1.65061333 15.9734044,1.30910222 15.5524267,1.05025778 C15.3488711,0.926168889 14.87616,0.608657778 13.6686933,0.394791111 C12.5750044,0.201546667 12.0230044,0.374168889 11.69856,0.446524444 C11.1294933,0.570791111 10.8016711,1.16421333 10.6637156,1.82661333 C9.52167111,7.34679111 6.63384889,19.3117689 13.8550044,20.51248 C17.8365156,21.17488 21.3142044,16.5793244 23.2635378,13.8296356 C23.0219378,17.1003911 22.7390933,21.1542578 22.42176,24.9976356 C16.5598933,26.4330133 11.5366044,28.0337244 5.86104889,32.76048 C-2.07424,39.3743467 -2.07424,52.0811911 6.60967111,54.4963022 C17.6226489,57.5599467 25.5854933,45.0947022 26.8205156,34.3130133 C27.1518933,31.4253689 27.4278044,28.8136356 27.6624711,26.2328356 C30.6882489,25.6360356 33.6621156,25.2081244 35.6219378,25.0321244 C37.9575822,28.0234133 41.0247822,29.2827911 43.8125156,28.7928356 C48.5254044,27.9647467 51.2544711,23.5763022 50.7886933,15.6961244 C51.8926933,15.3512356 53.5314489,14.5162133 54.8598044,13.3569244 C54.77696,14.9163911 54.77696,16.3723911 54.7975822,17.9249244 C54.8528711,22.0271467 55.94656,27.53008 60.4317156,28.2200356 C64.55456,28.85488 66.5246933,25.9291911 69.0640711,21.6683911 C69.3710933,24.4008356 70.7406933,27.1263467 73.5422933,27.1263467 C76.8198044,27.1263467 79.0624711,25.0840356 81.4775822,20.9437689 C82.3262933,19.4947022 83.0854044,18.1560356 83.6546489,17.1382578 C83.7892267,17.99728 83.90976,18.7805689 84.0064711,19.4223467 C84.4688711,22.5274133 85.10016,28.1615467 85.38656,29.0826133 C85.6763378,30.0003022 87.5152711,29.9451911 89.0091378,29.8278578 C90.50656,29.71408 90.79296,27.5851911 90.8514489,25.8049244 C90.8583822,25.63248 90.8583822,25.4186133 90.8583822,25.1702578 C90.7997156,12.7498133 95.2263822,7.42608 96.0542933,6.53950222 C96.9168711,5.62181333 97.9794489,5.84954667 98.49696,6.36688 C99.0144711,6.88456889 99.7632711,7.80563556 100.798293,7.05701333 C101.833316,6.31176889 101.546916,5.56314667 101.14336,4.93168" id="Fill-1" fill="#343030"></path>
                <path d="M59.3794489,53.4315378 C58.86656,54.4658489 58.5287822,54.8164267 56.8366933,54.5611378 C55.15936,54.3083378 54.4886044,54.2790044 54.2036267,52.82816 C53.50176,49.2558933 53.6758044,46.9990044 55.4679822,43.81856 C56.1630933,42.5847822 57.67936,42.4779378 58.7172267,43.5095822 C59.1879822,43.9774933 59.6551822,44.8130489 59.8839822,45.4029156 C60.65536,47.3911822 60.8935822,50.3780267 59.3794489,53.4315378 M57.5504711,59.5975822 C56.2356267,60.2238933 53.4363378,59.14496 53.3650489,58.1574044 C53.2974933,57.2198044 53.5618489,56.07936 54.1517156,55.65696 C54.6674489,55.2875378 58.5243378,55.89376 58.8299378,56.6974933 C59.1211378,57.4640711 58.3472711,59.2182044 57.5504711,59.5975822 M115.288782,38.7430044 C114.885227,38.10816 113.72256,36.2208711 111.034916,37.0180267 C107.753671,37.9874489 105.15936,43.7664711 104.110293,46.8404267 C103.468693,42.2103822 102.216249,40.7371378 100.625849,39.4882489 C99.0144711,38.2254933 96.3718044,38.7981156 95.9094044,39.1431822 C95.45056,39.4882489 95.4126933,40.0678044 95.73696,41.0407822 C96.2269156,42.5104711 96.75136,44.9947378 97.1997156,47.4614044 C95.9165156,49.7108267 94.2119822,52.5366044 92.6318933,54.5549156 C90.83776,56.8562489 89.2990933,58.1774933 89.2404267,54.7860267 C89.18176,51.3911822 90.04416,41.7895822 90.1614933,40.4094933 C90.2754489,39.0292267 90.1614933,38.3981156 89.2990933,37.7630933 C88.4365156,37.1316267 86.9390933,36.8454044 85.9040711,36.7280711 C84.8690489,36.6142933 84.2686933,37.1869156 84.1789156,38.1668267 C84.1616711,38.3463822 84.1479822,38.5255822 84.1307378,38.70496 L84.1307378,38.7085156 C82.3298489,49.5661156 81.0532267,53.13696 79.0624711,56.1799822 C76.7783822,59.6715378 75.4398933,58.80896 75.3259378,57.2011378 C75.2086044,55.5901156 76.1298489,42.1931378 76.2436267,40.1782044 C76.36096,38.1668267 76.07136,37.4768711 75.4398933,36.95936 C74.8084267,36.4418489 73.5422933,35.9830044 72.27616,35.8654933 C71.0132267,35.7517156 70.4646044,36.6210489 70.2646044,37.6493156 C70.1680711,38.1495822 70.0749156,38.6326044 69.9920711,39.0983822 C69.9851378,39.1294933 69.98176,39.1570489 69.9748267,39.18816 C68.9398044,44.44256 67.0560711,47.5270044 65.6103822,49.01056 C64.2235378,40.8683378 59.6071822,36.9040711 54.7666489,37.9357156 C50.7954489,38.7842489 46.0550044,41.8171378 47.1764267,51.7362489 C47.2006044,51.9501156 47.22816,52.1606044 47.2557156,52.3677156 C46.4656711,53.9374933 45.1339378,56.4317156 43.6398933,58.5812267 C40.0898489,63.6909156 39.2720711,61.7415822 38.8683378,58.0052267 C38.3405156,53.09216 38.8029156,47.7650489 39.2308267,42.16896 C42.3014044,40.7821156 45.4375822,39.3950933 46.9348267,38.7774933 C48.1424711,38.2806044 48.9152711,37.9390933 48.6150044,37.2043378 C48.4219378,36.7280711 47.9181156,36.5106489 46.2654933,37.0973156 C43.8366933,37.95296 41.6596267,38.7085156 39.4135822,39.6503822 C39.5239822,38.0598044 39.6171378,36.45216 39.6722489,34.8304711 C39.76896,32.1325156 37.7195378,31.8427378 36.3947378,31.6116267 C35.0733156,31.3803378 34.5454933,32.08416 34.2694044,33.6230044 C33.8450489,35.9622044 33.2930489,39.1019378 32.8375822,42.4692267 C31.8957156,42.8071822 31.0608711,43.0452267 30.4157156,43.1108267 C28.69056,43.2834489 27.6694044,42.85216 27.45536,43.18336 C27.2414933,43.5076267 27.5934933,43.9975822 28.0006044,44.2907378 C28.9734044,44.9911822 30.4294044,45.5536711 32.5166933,45.0567822 C31.9958044,49.6279822 31.7508267,54.3410489 32.3131378,57.8326044 C33.4068267,64.6189156 37.14336,66.1714489 39.6722489,65.6539378 C42.1426489,65.1502933 45.0477156,61.8519822 48.1837156,56.5078044 C50.3195378,63.1044267 54.9495822,66.0749156 58.99296,65.36416 C63.7024711,64.5362489 66.4350933,60.1474489 65.9691378,52.2710044 C66.9284267,51.5291378 68.1186489,50.3042489 68.9431822,48.9070933 C68.9259378,49.8454044 68.9294933,50.7700267 68.9431822,51.7362489 C68.9982933,55.8382933 70.09216,61.3412267 74.5773156,62.03136 C78.7003378,62.6662044 80.6702933,59.7405156 83.2094933,55.4797156 C83.5165156,58.21216 84.8862933,60.9376711 87.6877156,60.9376711 C90.9654044,60.9376711 93.2078933,58.8951822 95.6230044,54.7550933 C96.4718933,53.3060267 97.2308267,51.96736 97.8000711,50.9495822 C97.9346489,51.8086044 98.0555378,52.5917156 98.1520711,53.2334933 C98.6142933,56.3387378 99.24576,61.9726933 99.5319822,62.8939378 C99.8219378,63.8118044 101.660871,63.7563378 103.154738,63.6391822 C104.651982,63.5252267 104.93856,61.3966933 104.997227,59.6162489 C105.003982,59.4436267 105.003982,59.2299378 105.003982,58.9815822 C104.945493,46.5611378 109.371804,41.2374044 110.199893,40.3508267 C111.062471,39.43296 112.125049,39.6606933 112.64256,40.1782044 C113.160249,40.6957156 113.908871,41.61696 114.943893,40.8683378 C115.978916,40.1230933 115.692516,39.3744711 115.288782,38.7430044" id="Fill-4" fill="#343030"></path>
                <path d="M117.699236,36.0315378 L118.068302,36.0315378 C118.244836,36.0315378 118.365191,36.0054044 118.429369,35.9526044 C118.493724,35.8999822 118.525724,35.8302933 118.525724,35.7437156 C118.525724,35.6878933 118.510258,35.6379378 118.479324,35.5938489 C118.448391,35.54976 118.405547,35.5168711 118.350436,35.4951822 C118.295502,35.4734933 118.193636,35.4628267 118.045191,35.4628267 L117.699236,35.4628267 L117.699236,36.0315378 Z M117.395058,37.0926933 L117.395058,35.20736 L118.04288,35.20736 C118.264213,35.20736 118.424391,35.2247822 118.523413,35.2596267 C118.622436,35.2944711 118.701547,35.3550933 118.760213,35.4418489 C118.819058,35.5286044 118.848569,35.6205156 118.848569,35.7181156 C118.848569,35.8558933 118.799324,35.9758933 118.701013,36.0781156 C118.602702,36.18016 118.472391,36.2374044 118.309902,36.2498489 C118.376391,36.27776 118.429724,36.3108267 118.47008,36.3495822 C118.545991,36.4238933 118.638791,36.5485156 118.748658,36.7234489 L118.978524,37.0926933 L118.606969,37.0926933 L118.439858,36.7954489 C118.308302,36.5616711 118.202347,36.41536 118.121813,36.3565156 C118.065991,36.3133156 117.984747,36.2916267 117.87808,36.2916267 L117.699236,36.2916267 L117.699236,37.0926933 L117.395058,37.0926933 Z M118.163591,34.66176 C117.917547,34.66176 117.677902,34.7246933 117.445013,34.8509156 C117.212124,34.9771378 117.029724,35.1574044 116.898169,35.3918933 C116.766791,35.6263822 116.701013,35.8706489 116.701013,36.1243378 C116.701013,36.3766044 116.765547,36.61856 116.894791,36.8500267 C117.024036,37.0813156 117.204836,37.26176 117.436836,37.3908267 C117.669013,37.5200711 117.911147,37.5847822 118.163591,37.5847822 C118.415858,37.5847822 118.658169,37.5200711 118.890169,37.3908267 C119.122524,37.26176 119.302791,37.0813156 119.431147,36.8500267 C119.55968,36.61856 119.623858,36.3766044 119.623858,36.1243378 C119.623858,35.8706489 119.558613,35.6263822 119.427769,35.3918933 C119.296924,35.1574044 119.114702,34.9771378 118.880924,34.8509156 C118.647324,34.7246933 118.408036,34.66176 118.163591,34.66176 Z M118.163591,34.3714489 C118.457813,34.3714489 118.744747,34.4470044 119.024924,34.5979378 C119.305102,34.7486933 119.523413,34.9646933 119.67968,35.2455822 C119.836124,35.5264711 119.914169,35.8196267 119.914169,36.1243378 C119.914169,36.4262044 119.837013,36.7165156 119.683058,36.9950933 C119.529102,37.2736711 119.313102,37.4900267 119.035413,37.6439822 C118.757547,37.7981156 118.46688,37.8749156 118.163591,37.8749156 C117.860124,37.8749156 117.569636,37.7981156 117.291769,37.6439822 C117.01408,37.4900267 116.797724,37.2736711 116.64288,36.9950933 C116.488213,36.7165156 116.410702,36.4262044 116.410702,36.1243378 C116.410702,35.8196267 116.489102,35.5264711 116.646258,35.2455822 C116.803413,34.9646933 117.02208,34.7486933 117.302258,34.5979378 C117.582436,34.4470044 117.869547,34.3714489 118.163591,34.3714489 Z" id="Fill-6" fill="#343030"></path>
            </g>
        </g>
    </g>
</svg>