<?xml version="1.0" encoding="UTF-8"?>
<svg width="67px" height="65px" viewBox="0 0 67 65" version="1.1" xmlns="http://www.w3.org/2000/svg" xmlns:xlink="http://www.w3.org/1999/xlink">
    <!-- Generator: Sketch 48.2 (47327) - http://www.bohemiancoding.com/sketch -->
    <title>Page 1</title>
    <desc>Created with Sketch.</desc>
    <defs>
        <polygon id="path-1" points="0.0247543417 0.0893333333 13.349309 0.0893333333 13.349309 13.4138129 0.0247543417 13.4138129"></polygon>
        <polygon id="path-3" points="0.18421148 0.185429993 51.8214034 0.185429993 51.8214034 23.8510429 0.18421148 23.8510429"></polygon>
        <polygon id="path-5" points="0 0.0193506251 17.6537378 0.0193506251 17.6537378 22.3333333 0 22.3333333"></polygon>
    </defs>
    <g id="Desktop---1440---Builder-Modal" stroke="none" stroke-width="1" fill="none" fill-rule="evenodd" transform="translate(-688.000000, -263.000000)">
        <g id="Page-1" transform="translate(688.000000, 263.000000)">
            <path d="M39.905519,20.0811574 C43.5848888,20.0811574 46.5677964,23.064065 46.5677964,26.7434347 C46.5677964,30.4228045 43.5848888,33.405712 39.905519,33.405712 C36.2261493,33.405712 33.2432417,30.4228045 33.2432417,26.7434347 C33.2432417,23.064065 36.2261493,20.0811574 39.905519,20.0811574" id="Fill-1" fill="#F4BD34"></path>
            <path d="M22.6394126,9.75902857 C26.3187824,9.75902857 29.3016899,12.7419361 29.3016899,16.4213059 C29.3016899,20.1006756 26.3187824,23.0835832 22.6394126,23.0835832 C18.9600429,23.0835832 15.9771353,20.1006756 15.9771353,16.4213059 C15.9771353,12.7419361 18.9600429,9.75902857 22.6394126,9.75902857" id="Fill-3" fill="#F4BD34"></path>
            <g id="Group-7" transform="translate(34.156863, 0.098342)">
                <mask id="mask-2" fill="white">
                    <use xlink:href="#path-1"></use>
                </mask>
                <g id="Clip-6"></g>
                <path d="M6.68703165,0.0892582633 C10.3664014,0.0892582633 13.349309,3.07216583 13.349309,6.75153557 C13.349309,10.4309053 10.3664014,13.4138129 6.68703165,13.4138129 C3.0076619,13.4138129 0.0247543417,10.4309053 0.0247543417,6.75153557 C0.0247543417,3.07216583 3.0076619,0.0892582633 6.68703165,0.0892582633" id="Fill-5" fill="#F4BD34" mask="url(#mask-2)"></path>
            </g>
            <path d="M41.0315695,23.3332583 C37.8754378,23.3332583 35.3076675,25.9010286 35.3076675,29.0571602 C35.3076675,32.2132919 37.8754378,34.7810622 41.0315695,34.7810622 C44.1877011,34.7810622 46.7554714,32.2132919 46.7554714,29.0571602 C46.7554714,25.9010286 44.1877011,23.3332583 41.0315695,23.3332583 M41.0315695,36.6578129 C36.8405975,36.6578129 33.4309168,33.2481322 33.4309168,29.0571602 C33.4309168,24.8661882 36.8405975,21.4565076 41.0315695,21.4565076 C45.2225415,21.4565076 48.6322221,24.8661882 48.6322221,29.0571602 C48.6322221,33.2481322 45.2225415,36.6578129 41.0315695,36.6578129" id="Fill-8" fill="#343030"></path>
            <path d="M23.765463,13.0111294 C20.6093314,13.0111294 18.0415611,15.5788997 18.0415611,18.7350314 C18.0415611,21.891163 20.6093314,24.4589333 23.765463,24.4589333 C26.9215947,24.4589333 29.489365,21.891163 29.489365,18.7350314 C29.489365,15.5788997 26.9215947,13.0111294 23.765463,13.0111294 M23.765463,26.335684 C19.574491,26.335684 16.1648104,22.9260034 16.1648104,18.7350314 C16.1648104,14.5440594 19.574491,11.1343787 23.765463,11.1343787 C27.956435,11.1343787 31.3661157,14.5440594 31.3661157,18.7350314 C31.3661157,22.9260034 27.956435,26.335684 23.765463,26.335684" id="Fill-10" fill="#343030"></path>
            <path d="M41.9699448,3.43970084 C38.8138132,3.43970084 36.2460429,6.00747115 36.2460429,9.1636028 C36.2460429,12.3197345 38.8138132,14.8875048 41.9699448,14.8875048 C45.1260765,14.8875048 47.6938468,12.3197345 47.6938468,9.1636028 C47.6938468,6.00747115 45.1260765,3.43970084 41.9699448,3.43970084 M41.9699448,16.7642555 C37.7789728,16.7642555 34.3692922,13.3545748 34.3692922,9.1636028 C34.3692922,4.97263081 37.7789728,1.56295014 41.9699448,1.56295014 C46.1609168,1.56295014 49.5705975,4.97263081 49.5705975,9.1636028 C49.5705975,13.3545748 46.1609168,16.7642555 41.9699448,16.7642555" id="Fill-12" fill="#343030"></path>
            <path d="M38.4182317,53.1319868 C37.6067246,53.1319868 36.766691,52.9822221 35.977705,52.7192894 C33.9123409,52.0307095 27.9701728,49.9584014 27.9103045,49.9375695 C27.4210356,49.7667852 27.162607,49.2319112 27.3333913,48.7424546 C27.5041756,48.2531857 28.0388619,47.9945695 28.5285062,48.1655415 C28.5881868,48.1861857 34.518156,50.254365 36.5711336,50.938816 C38.2027807,51.4826983 40.1089964,51.4252697 40.6894754,50.0706311 C41.2971672,48.6527459 40.7393969,47.179872 39.3016182,46.4057123 L39.1034333,46.2989252 C30.936565,41.8883734 26.9398367,40.9625723 25.0251756,40.9625723 C21.6038591,40.9625723 16.7246826,43.4235555 13.1620468,45.2203566 C12.2129739,45.6991157 11.3932092,46.1123762 10.6946826,46.4325499 C10.2238059,46.6483762 9.66678627,46.4419336 9.45058459,45.9704938 C9.23475826,45.4994294 9.44157619,44.9424098 9.91264062,44.7265835 C10.5794501,44.4208608 11.3845762,44.0149196 12.3169459,43.5446059 C16.0477387,41.6629756 21.1573801,39.0858216 25.0251756,39.0858216 C28.1250048,39.0858216 33.1616406,40.9571297 39.9952653,44.6475723 L40.1913857,44.7532333 C42.4965986,45.9947039 43.4109515,48.4851521 42.4143969,50.8100709 C41.7027331,52.4708076 40.123635,53.1319868 38.4182317,53.1319868" id="Fill-14" fill="#343030"></path>
            <path d="M41.1900986,47.7621714 C40.6717401,47.7621714 40.2517232,47.3421546 40.2517232,46.8237961 C40.2517232,46.3054375 40.6717401,45.8854207 41.1900986,45.8854207 C43.7015664,45.8854207 46.1191966,44.9994067 48.1819333,43.3234683 C48.6081434,42.9772078 49.2049501,42.4181238 49.8957821,41.7712078 C50.951079,40.7827232 52.1471322,39.6623031 53.3326756,38.7308717 C54.7511238,37.6160818 56.6490818,37.1155524 58.1683115,37.4567457 C59.3619249,37.7243703 60.293544,38.4671882 60.8621994,39.6044992 C61.0941658,40.0680566 60.9063031,40.6318325 60.4427457,40.8634235 C59.9791882,41.0957653 59.4156,40.9073395 59.1838213,40.4439697 C58.8668381,39.810191 58.4004655,39.4320258 57.7574908,39.288079 C56.7823311,39.0692499 55.4699193,39.438219 54.4921322,40.2065608 C53.370586,41.0876952 52.2060622,42.1784627 51.1787289,43.1408605 C50.4619978,43.8121742 49.8428577,44.3920902 49.3654123,44.7800146 C46.9644852,46.7308969 44.1373479,47.7621714 41.1900986,47.7621714" id="Fill-16" fill="#343030"></path>
            <g id="Group-20" transform="translate(15.014006, 38.258006)">
                <mask id="mask-4" fill="white">
                    <use xlink:href="#path-3"></use>
                </mask>
                <g id="Clip-19"></g>
                <path d="M25.2263445,23.8510429 C22.6996751,23.8510429 19.5885854,23.1354378 16.8049888,22.4949028 C15.9976106,22.3092922 15.2348992,22.1340036 14.5416275,21.9893062 C11.249056,21.3033538 1.03915686,19.2334854 0.936310924,19.2126535 C0.428462185,19.1096199 0.100218487,18.6145331 0.203064426,18.1066843 C0.305910364,17.5988356 0.802123249,17.2696535 1.30922129,17.3732501 C1.41187955,17.3942697 11.6270336,19.4650765 14.9244846,20.1521549 C15.6367115,20.3004182 16.408619,20.4779588 17.2255686,20.6660092 C20.0951204,21.3260625 23.6652633,22.1486423 26.0401036,21.9412613 C30.059916,21.5918104 33.7216443,18.4651437 35.4812857,16.9624294 C35.711563,16.7659336 35.912563,16.5942109 36.0820336,16.4557067 C37.5468375,15.2572137 46.8301849,7.49966471 48.7082493,5.91061989 C50.4149664,4.4666479 50.0208487,3.57856947 49.5178796,2.85977395 C49.2127199,2.42399244 48.7919524,2.16349944 48.2674006,2.08580196 C47.4776639,1.97019412 46.5518627,2.27310168 45.7275938,2.92076835 C44.5230952,3.86721373 40.5380028,7.2776451 37.6281008,9.76809328 C35.8012717,11.331802 34.3580504,12.5667039 33.9348431,12.9105246 C31.3220308,15.0338804 27.3249272,15.2433258 25.3706667,14.1039504 C24.9230616,13.8428944 24.7717955,13.2682333 25.0328515,12.8206283 C25.2940952,12.3730232 25.8685686,12.2215695 26.3161737,12.4828132 C27.983479,13.4551577 31.199479,12.7151549 32.7513641,11.4539784 C33.1559916,11.1253594 34.6628347,9.83546863 36.4078375,8.3421381 C39.4932157,5.70173754 43.3326723,2.41573473 44.5683249,1.4448916 C45.7960952,0.480241737 47.2440084,0.0371408964 48.5423445,0.229507843 C49.5822521,0.383401401 50.4513754,0.920902801 51.0553137,1.7836451 C51.9777367,3.10131176 52.5295014,5.13552185 49.9204426,7.34333137 C48.0397507,8.93481597 38.7389496,16.706816 37.2703922,17.9083118 C37.1095546,18.0396843 36.9186891,18.2029616 36.7000476,18.3896983 C34.7919552,20.0190933 30.8213137,23.4092557 26.2026303,23.8110681 C25.8890252,23.838281 25.5626583,23.8510429 25.2263445,23.8510429" id="Fill-18" fill="#343030" mask="url(#mask-4)"></path>
            </g>
            <g id="Group-23" transform="translate(0.000000, 42.199182)">
                <mask id="mask-6" fill="white">
                    <use xlink:href="#path-5"></use>
                </mask>
                <g id="Clip-22"></g>
                <path d="M9.98508319,22.3333333 C9.64914482,22.3333333 9.32446695,22.1526022 9.15574706,21.8354314 C8.91252017,21.3778796 9.08593193,20.8097871 9.54348375,20.5663725 L15.1547807,17.5817759 C15.4316014,17.4361401 15.6320384,17.1953529 15.7234361,16.9012661 C15.8148339,16.6069916 15.786495,16.294888 15.6431112,16.0221961 L8.54355098,2.51409524 C8.40016723,2.24121569 8.15938011,2.04077871 7.86529328,1.94956863 C7.57120644,1.85798319 7.25872745,1.88669748 6.98622325,2.02970588 L1.37924286,5.0122381 C0.921503361,5.25584034 0.353410924,5.08186555 0.109996359,4.6245014 C-0.133230532,4.16694958 0.0403689076,3.59885714 0.497920728,3.35544258 L6.10902997,0.370845938 C6.82951457,-0.00788235294 7.64946695,-0.082952381 8.42250056,0.157271709 C9.1953465,0.397495798 9.82837451,0.924487395 10.204663,1.64084314 L17.3044109,15.1491317 C17.6808871,15.8654874 17.7559571,16.6856275 17.5155454,17.4582857 C17.2753213,18.2313193 16.7485174,18.8643473 16.0319739,19.2406359 L10.4249936,22.2231681 C10.2846126,22.2980504 10.1337218,22.3333333 9.98508319,22.3333333" id="Fill-21" fill="#343030" mask="url(#mask-6)"></path>
            </g>
            <path d="M25.5620202,20.0889006 C25.669558,20.1765448 25.7234207,20.3127969 25.7234207,20.4980322 C25.7234207,20.6881471 25.669558,20.8281527 25.5620202,20.9184244 C25.4542947,21.0083207 25.2904543,21.0535504 25.0703115,21.0535504 L22.1125524,21.0535504 C21.8922218,21.0535504 21.7283815,21.0083207 21.6208437,20.9184244 C21.5131182,20.8281527 21.4594431,20.6881471 21.4594431,20.4980322 C21.4594431,20.3227437 21.5082387,20.1915588 21.6058297,20.1039146 C21.7034207,20.0162703 21.8546868,19.9676625 22.0600034,19.957528 L22.0600034,18.7939426 L21.8723283,18.7939426 C21.7522162,18.7939426 21.6533115,18.7575336 21.5758017,18.685091 C21.4981042,18.6126485 21.4594431,18.5188109 21.4594431,18.4035784 C21.4594431,18.2883459 21.4981042,18.1945084 21.5758017,18.1220658 C21.6533115,18.0496232 21.7522162,18.0130266 21.8723283,18.0130266 L22.0600034,18.0130266 L22.0600034,17.2097773 C22.0600034,16.9096849 22.1350734,16.6443123 22.2852134,16.4142227 C22.4353535,16.1839454 22.6455496,16.0062171 22.9158017,15.8812255 C23.1860538,15.7560462 23.4987204,15.6935504 23.854177,15.6935504 C24.1443227,15.6935504 24.4384095,15.7384048 24.7362499,15.8286765 C25.0339025,15.9185728 25.2853871,16.0415 25.4907036,16.1965196 C25.5757204,16.2667101 25.6357765,16.3353992 25.6708717,16.4027745 C25.7057793,16.4705252 25.7234207,16.5568557 25.7234207,16.6617661 C25.7234207,16.8169734 25.6808185,16.9485336 25.5958017,17.0560714 C25.5105972,17.1636092 25.4054992,17.2172843 25.2805076,17.2172843 C25.2054375,17.2172843 25.1427541,17.2073375 25.0928325,17.187444 C25.0427232,17.1675504 24.9676532,17.1298277 24.8676224,17.0746513 C24.8075664,17.0498782 24.7400034,17.0196625 24.6649333,16.9847549 C24.5097261,16.9096849 24.3770398,16.8533824 24.2670622,16.8158473 C24.1568969,16.7781246 24.0418521,16.7595448 23.9217401,16.7595448 C23.756586,16.7595448 23.6327204,16.8083403 23.5501434,16.9059314 C23.4675664,17.0035224 23.4262779,17.134895 23.4262779,17.300049 L23.4262779,18.0130266 L24.2970902,18.0130266 C24.412135,18.0130266 24.5097261,18.0507493 24.5898633,18.1258193 C24.6698129,18.2007017 24.7099754,18.2936008 24.7099754,18.4035784 C24.7099754,18.513556 24.6698129,18.6062675 24.5898633,18.6813375 C24.5097261,18.7562199 24.412135,18.7939426 24.2970902,18.7939426 L23.4262779,18.7939426 L23.4262779,19.957528 L25.0703115,19.957528 C25.2904543,19.957528 25.4542947,20.0012563 25.5620202,20.0889006" id="Fill-24" fill="#343030"></path>
            <path d="M43.0158955,30.4110294 C43.1232457,30.4986737 43.1771084,30.6349258 43.1771084,30.8201611 C43.1771084,31.0102759 43.1232457,31.1502815 43.0158955,31.2405532 C42.90817,31.3304496 42.7443297,31.3756793 42.5239992,31.3756793 L39.5662401,31.3756793 C39.3459095,31.3756793 39.1820692,31.3304496 39.074719,31.2405532 C38.9669936,31.1502815 38.9131308,31.0102759 38.9131308,30.8201611 C38.9131308,30.6448725 38.9619263,30.5136877 39.059705,30.4260434 C39.1571084,30.3383992 39.3085622,30.2897913 39.5138787,30.2796569 L39.5138787,29.1160714 L39.3262036,29.1160714 C39.2059039,29.1160714 39.1069992,29.0796625 39.029677,29.0072199 C38.9519796,28.9347773 38.9131308,28.8409398 38.9131308,28.7257073 C38.9131308,28.6104748 38.9519796,28.5166373 39.029677,28.4441947 C39.1069992,28.3717521 39.2059039,28.3351555 39.3262036,28.3351555 L39.5138787,28.3351555 L39.5138787,27.5319062 C39.5138787,27.2318137 39.5887611,26.9664412 39.7389011,26.7363515 C39.8892289,26.5060742 40.0992373,26.3283459 40.3694894,26.2033543 C40.6399291,26.0781751 40.9525958,26.0156793 41.3078647,26.0156793 C41.5980104,26.0156793 41.8920972,26.0605336 42.1901252,26.1508053 C42.4877779,26.2407017 42.7390748,26.3636289 42.9443913,26.5186485 C43.0294081,26.5888389 43.0896518,26.657528 43.1245594,26.7249034 C43.1596546,26.7926541 43.1771084,26.8789846 43.1771084,26.983895 C43.1771084,27.1391022 43.1346938,27.2706625 43.049677,27.3782003 C42.9644725,27.4857381 42.8593745,27.5394132 42.7343829,27.5394132 C42.6593129,27.5394132 42.5966294,27.5294664 42.5467078,27.5095728 C42.4964109,27.4896793 42.4213409,27.4519566 42.3213101,27.3967801 C42.2612541,27.372007 42.193691,27.3417913 42.118621,27.3068838 C41.9636014,27.2318137 41.8309151,27.1755112 41.7209375,27.1379762 C41.6105846,27.1002535 41.4955398,27.0816737 41.3756154,27.0816737 C41.2102737,27.0816737 41.0864081,27.1304692 41.0038311,27.2280602 C40.9214417,27.3256513 40.8799655,27.4570238 40.8799655,27.6221779 L40.8799655,28.3351555 L41.7509655,28.3351555 C41.8660104,28.3351555 41.9636014,28.3728782 42.043551,28.4479482 C42.1236882,28.5228305 42.163663,28.6157297 42.163663,28.7257073 C42.163663,28.8356849 42.1236882,28.9283964 42.043551,29.0034664 C41.9636014,29.0783487 41.8660104,29.1160714 41.7509655,29.1160714 L40.8799655,29.1160714 L40.8799655,30.2796569 L42.5239992,30.2796569 C42.7443297,30.2796569 42.90817,30.3233852 43.0158955,30.4110294" id="Fill-26" fill="#343030"></path>
            <path d="M43.9542709,10.517472 C44.061621,10.6051162 44.1154838,10.7413683 44.1154838,10.9266036 C44.1154838,11.1167185 44.061621,11.2567241 43.9542709,11.3469958 C43.8465454,11.4368922 43.682705,11.4821218 43.4623745,11.4821218 L40.5046154,11.4821218 C40.2842849,11.4821218 40.1204445,11.4368922 40.0130944,11.3469958 C39.9053689,11.2567241 39.8515062,11.1167185 39.8515062,10.9266036 C39.8515062,10.7513151 39.9003017,10.6201303 39.9980804,10.532486 C40.0954838,10.4448417 40.2469375,10.3962339 40.4522541,10.3860994 L40.4522541,9.22251401 L40.264579,9.22251401 C40.1442793,9.22251401 40.0453745,9.18610504 39.9680524,9.11366246 C39.8903549,9.04121989 39.8515062,8.94738235 39.8515062,8.83214986 C39.8515062,8.71691737 39.8903549,8.62307983 39.9680524,8.55063725 C40.0453745,8.47819468 40.1442793,8.44159804 40.264579,8.44159804 L40.4522541,8.44159804 L40.4522541,7.63834874 C40.4522541,7.3382563 40.5271364,7.07288375 40.6772765,6.84279412 C40.8276042,6.61251681 41.0376126,6.43478852 41.3078647,6.30979692 C41.5783045,6.18461765 41.8909711,6.12212185 42.2462401,6.12212185 C42.5363857,6.12212185 42.8304725,6.16697619 43.1285006,6.2572479 C43.4261532,6.34714426 43.6774501,6.47007143 43.8827667,6.62509104 C43.9677835,6.69528151 44.0280272,6.76397059 44.0629347,6.83134594 C44.09803,6.89909664 44.1154838,6.98542717 44.1154838,7.09033754 C44.1154838,7.24554482 44.0730692,7.37710504 43.9880524,7.48464286 C43.9028479,7.59218067 43.7977499,7.64585574 43.6727583,7.64585574 C43.5976882,7.64585574 43.5350048,7.63590896 43.4850832,7.61601541 C43.4347863,7.59612185 43.3597162,7.55839916 43.2596854,7.50322269 C43.1996294,7.47844958 43.1320664,7.44823389 43.0569964,7.41332633 C42.9019768,7.3382563 42.7692905,7.28195378 42.6593129,7.24441877 C42.5489599,7.20669608 42.4339151,7.18811625 42.3139908,7.18811625 C42.148649,7.18811625 42.0247835,7.23691176 41.9422064,7.3345028 C41.8598171,7.43209384 41.8183409,7.56346639 41.8183409,7.72862045 L41.8183409,8.44159804 L42.6893409,8.44159804 C42.8043857,8.44159804 42.9019768,8.47932073 42.9819263,8.55439076 C43.0620636,8.62927311 43.1020384,8.72217227 43.1020384,8.83214986 C43.1020384,8.94212745 43.0620636,9.03483894 42.9819263,9.10990896 C42.9019768,9.18479132 42.8043857,9.22251401 42.6893409,9.22251401 L41.8183409,9.22251401 L41.8183409,10.3860994 L43.4623745,10.3860994 C43.682705,10.3860994 43.8465454,10.4298277 43.9542709,10.517472" id="Fill-28" fill="#343030"></path>
        </g>
    </g>
</svg>