<?xml version="1.0" encoding="UTF-8"?>
<svg width="77px" height="56px" viewBox="0 0 77 56" version="1.1" xmlns="http://www.w3.org/2000/svg" xmlns:xlink="http://www.w3.org/1999/xlink">
    <!-- Generator: Sketch 48.2 (47327) - http://www.bohemiancoding.com/sketch -->
    <title>img</title>
    <desc>Created with Sketch.</desc>
    <defs>
        <polygon id="path-1" points="0 0 44.7734557 0 44.7734557 53.3661202 0 53.3661202"></polygon>
        <polygon id="path-3" points="0.173783338 0.0183853725 22.4154317 0.0183853725 22.4154317 40.1710044 0.173783338 40.1710044"></polygon>
    </defs>
    <g id="Desktop---1440---Explorer-Modal" stroke="none" stroke-width="1" fill="none" fill-rule="evenodd" transform="translate(-683.000000, -270.000000)">
        <g id="img" transform="translate(683.000000, 270.000000)">
            <g id="Group-3">
                <mask id="mask-2" fill="white">
                    <use xlink:href="#path-1"></use>
                </mask>
                <g id="Clip-2"></g>
                <path d="M43.3766262,53.3661202 C44.1629978,53.3661202 44.7955005,52.7153443 44.7728667,51.9291803 C44.5301235,43.5133224 42.0783967,38.5805902 36.3983311,36.876612 C32.9046153,35.8286011 30.7384077,35.420153 29.0618393,35.1491694 C29.0618393,35.1491694 28.2324842,32.671694 28.234353,31.9175082 C30.3258066,29.6765464 31.8233803,26.9507213 32.5999923,23.9848525 C33.6417738,23.488776 34.4258612,22.5759454 34.7522874,21.469377 C35.4215443,19.7153552 35.4935989,17.2937377 34.2099049,15.7500656 L34.2099049,15.5415847 C34.4792273,13.3174426 35.1837847,7.40273224 31.777282,3.52050273 C29.7724186,1.24091803 26.6832055,0.049420765 22.610976,0.00145355191 C18.5387464,-0.0465136612 15.4144404,1.07479781 13.3452055,3.32302732 C9.85024372,7.15749727 10.416506,13.0555956 10.6303858,15.2853443 L10.6303858,15.4938251 C9.31346776,16.9895301 9.33194863,19.4294208 9.95718361,21.2019235 C10.265129,22.2993552 11.0195224,23.2196612 12.0395005,23.7360874 C12.7440579,26.7164918 14.1770525,29.4774098 16.213271,31.768 C16.2001891,32.5221858 16.0286699,34.4649617 15.711588,35.1491694 C14.0350197,35.420153 11.8686044,35.8286011 8.37509617,36.876612 C2.69482295,38.5805902 0.243096175,43.5133224 0.000560655738,51.9291803 C-0.022073224,52.7153443 0.610221858,53.3661202 1.39680109,53.3661202 L43.3766262,53.3661202 Z" id="Fill-1" fill="#F4BD34" mask="url(#mask-2)"></path>
            </g>
            <g id="Group-6" transform="translate(54.573770, 11.005464)">
                <mask id="mask-4" fill="white">
                    <use xlink:href="#path-3"></use>
                </mask>
                <g id="Clip-5"></g>
                <path d="M21.3772634,40.1710044 C20.8037333,40.1710044 20.339012,39.7062831 20.339012,39.132753 C20.339012,32.7730481 18.7199628,29.4514743 15.0896131,28.362141 C12.6931213,27.6432557 11.2212962,27.3596055 9.9876459,27.1600536 C9.6068153,27.0983814 9.29160219,26.8307202 9.16908852,26.4648404 C8.97472787,25.8846656 8.52329617,24.4664142 8.52474973,23.8266437 C8.52537268,23.5645891 8.62525246,23.3125016 8.80403934,23.1210481 C10.1718317,21.6558678 11.1639847,19.8526328 11.6735585,17.9067421 C11.751012,17.6108404 11.9551322,17.3641519 12.2313071,17.2325016 C12.7095257,17.0047093 13.0687607,16.5852557 13.2174383,16.0812885 C13.2251213,16.0553322 13.233635,16.0297913 13.2433945,16.0046656 C13.5947388,15.0843596 13.677176,13.7385781 13.0282689,12.9582284 C12.8733617,12.7717585 12.7884328,12.536906 12.7884328,12.2943705 L12.7884328,12.1456929 C12.7884328,12.1039552 12.7907169,12.0622175 12.7959082,12.0208951 C12.9724109,10.560906 13.4419082,6.68262186 11.3105858,4.25352896 C10.0788044,2.85292787 8.13665137,2.12677486 5.53894645,2.09604262 C4.01313224,2.0773541 2.70223607,2.3074306 1.62826885,2.77713552 C1.10312131,3.00658907 0.490553005,2.76737596 0.261099454,2.24202077 C0.0312306011,1.71666557 0.270859016,1.10451257 0.796421858,0.874643716 C2.14241093,0.286162842 3.74692459,-0.00413224044 5.56324153,0.019747541 C8.77455301,0.0575398907 11.2329246,1.02103716 12.8704546,2.88303716 C15.4766732,5.85305902 15.111624,10.1040754 14.8908918,11.9907858 C15.8570885,13.4723705 15.6820393,15.4105781 15.197176,16.7081847 C14.9243235,17.5994197 14.3410339,18.3623268 13.5621377,18.8633869 C12.9848699,20.8142612 11.9906404,22.6297475 10.6606404,24.1619989 C10.7223126,24.4304907 10.827176,24.8133978 10.9503126,25.2168623 C12.1021486,25.4216055 13.5741814,25.7397257 15.6861923,26.3732667 C21.7180175,28.1829388 22.4155148,34.5220863 22.4155148,39.132753 C22.4155148,39.7062831 21.9507934,40.1710044 21.3772634,40.1710044" id="Fill-4" fill="#343030" mask="url(#mask-4)"></path>
            </g>
            <path d="M55.5329694,36.3051377 C55.5061825,36.3051377 55.4796033,36.3040995 55.4526087,36.302023 C54.8807399,36.2582087 54.4527727,35.7594328 54.4965869,35.1877716 C54.4990787,35.1557934 54.5011552,35.124023 54.5034393,35.0926678 C53.7428164,34.1831596 53.0988929,33.1820776 52.586412,32.1114328 C52.3386852,31.594176 52.557341,30.9741322 53.0743902,30.7266131 C53.5914393,30.479094 54.2116907,30.6977497 54.4592098,31.2145913 C54.9496798,32.2393454 55.5811443,33.1893454 56.335953,34.038635 C56.5091333,34.2332033 56.602576,34.486329 56.5980077,34.7469301 C56.5951005,34.9099355 56.5840951,35.122777 56.5668601,35.3460011 C56.5253301,35.8908754 56.0703683,36.3051377 55.5329694,36.3051377" id="Fill-7" fill="#343030"></path>
            <path d="M62.2751246,53.3440262 C61.7015945,53.3440262 61.2368732,52.8793049 61.2368732,52.3057749 C61.2368732,42.4855781 57.8264251,40.2030863 54.8555727,39.3118514 C51.9943596,38.4536328 50.2370153,38.1149552 48.7645672,37.8767803 C48.383529,37.8153158 48.0681082,37.547447 47.9455945,37.1815672 C47.7178022,36.5010973 47.1880863,34.8394798 47.1899552,34.1077202 C47.1903705,33.8458732 47.2902503,33.5935781 47.4690372,33.4021246 C49.117365,31.6358514 50.313223,29.4629989 50.9270372,27.1184197 C51.0044907,26.8221027 51.2086109,26.5754142 51.4849934,26.4437639 C52.1037913,26.1493158 52.5689279,25.6061027 52.7614197,24.9534579 C52.7691027,24.9277093 52.7776164,24.9019607 52.787376,24.876835 C53.2246874,23.7312284 53.3210372,22.0478077 52.4989497,21.0591847 C52.3440426,20.8727148 52.2591137,20.6380699 52.2591137,20.3955344 L52.2591137,20.2186164 C52.2591137,20.1768787 52.2613978,20.135141 52.2665891,20.0938186 C52.4796383,18.3341902 53.0459005,13.6603978 50.4531792,10.7057421 C48.9502066,8.99678033 46.5923377,8.11094426 43.4456055,8.07377486 C42.3589716,8.06173115 41.3479224,8.15413552 40.4429825,8.34994973 C39.883365,8.47163279 39.3301847,8.11551257 39.2085016,7.55506448 C39.0870262,6.99482404 39.4429388,6.44205902 40.0033869,6.32058361 C41.0605344,6.09154536 42.2291902,5.98232131 43.4699005,5.99747978 C47.2302393,6.04170929 50.1045344,7.16468197 52.0132557,9.33525027 C55.0891792,12.8405945 54.6178131,17.9020699 54.3592885,20.0830208 C55.5136164,21.7926055 55.3090809,24.0651301 54.7411574,25.5803541 C54.4236601,26.6213049 53.7350918,27.5088022 52.8154087,28.0796328 C52.1309934,30.4306492 50.9318131,32.6167913 49.319824,34.4513814 C49.3991464,34.8187148 49.5561301,35.3847694 49.7251574,35.9325508 C51.1062393,36.1738404 52.8768732,36.550518 55.4521519,37.322977 C60.8155508,38.9318514 63.313376,43.6926492 63.313376,52.3057749 C63.313376,52.8793049 62.8486546,53.3440262 62.2751246,53.3440262" id="Fill-9" fill="#343030"></path>
            <path d="M37.9690787,34.5295617 C38.0058328,34.1445781 38.0263902,33.7938568 38.0303355,33.5683486 C37.5442262,33.0216055 37.0988164,32.4430918 36.6959749,31.8379989" id="Fill-11" fill="#FFFFFF"></path>
            <path d="M37.9703038,35.5678131 C37.9372874,35.5678131 37.9040634,35.5663596 37.8706317,35.5632448 C37.2998011,35.5088404 36.8811781,35.0017585 36.9355825,34.4309279 C36.9530251,34.247365 36.9658995,34.079376 36.9750361,33.935682 C36.5661727,33.4514415 36.1828503,32.9408295 35.8317137,32.4133978 C35.5140087,31.9360098 35.6433749,31.2912557 36.1207628,30.9737585 C36.5983585,30.6556383 37.2426973,30.7854197 37.5601945,31.2628077 C37.9368721,31.8286546 38.356118,32.3720754 38.8060962,32.8785344 C38.9792765,33.0731027 39.0729268,33.3256055 39.0683585,33.5859989 C39.0637902,33.8586437 39.0397027,34.2384361 39.002741,34.6281956 C38.9514514,35.1653869 38.4993967,35.5678131 37.9703038,35.5678131" id="Fill-13" fill="#343030"></path>
            <path d="M48.2846874,55.442623 C47.7111574,55.442623 47.2464361,54.9779016 47.2464361,54.4043716 C47.2464361,45.2762732 44.8856601,40.4974098 39.591824,38.9093005 C36.209824,37.8947213 34.1308295,37.4939563 32.3880208,37.2121749 C32.0069825,37.1507104 31.6917694,36.8828415 31.5692557,36.5167541 C31.3620208,35.8977486 30.6859115,33.811071 30.687988,32.9532678 C30.6886109,32.6912131 30.7882831,32.4391257 30.9672776,32.2474645 C32.9312339,30.142929 34.3559224,27.5539454 35.0872667,24.7602186 C35.1647202,24.4641093 35.3690481,24.2172131 35.6454306,24.0857705 C36.4220426,23.7159454 37.0063705,23.0336066 37.2482831,22.2138033 C37.2559661,22.1880546 37.2644798,22.1625137 37.2742393,22.137388 C37.8081082,20.7378251 37.9200317,18.674612 36.903376,17.4521749 C36.7484689,17.2657049 36.6635399,17.0308525 36.6635399,16.7883169 L36.6635399,16.5798361 C36.6635399,16.538306 36.6660317,16.4965683 36.6710153,16.4550383 C36.9249716,14.3581858 37.599212,8.78859016 34.4888186,5.24337705 C32.6806,3.18763934 29.8548951,2.12218579 26.0906109,2.07795628 C22.3223814,2.03414208 19.4657366,3.0383388 17.6008295,5.06459016 C14.419835,8.55456831 14.9543268,14.1264481 15.1555399,16.2239235 C15.1588623,16.2569399 15.1603158,16.2903716 15.1603158,16.3235956 L15.1603158,16.5320765 C15.1603158,16.7845792 15.0683268,17.0285683 14.901376,17.218153 C13.8600098,18.400929 13.9260426,20.4714098 14.4279333,21.8948525 C14.4356164,21.9160328 14.4422612,21.9378361 14.4484907,21.9596393 C14.6777366,22.7765355 15.243376,23.4646885 16.0002612,23.8480109 C16.2733213,23.9860984 16.4714197,24.2377705 16.5418131,24.5353333 C17.2050481,27.3421421 18.5674415,29.9637268 20.4811464,32.1164372 C20.6541191,32.3112131 20.7475617,32.5637158 20.7429934,32.8241093 C20.7340645,33.3413661 20.5999224,35.6431694 20.1451683,36.6239016 C20.0002284,36.9368306 19.709518,37.1571475 19.3689716,37.2121749 C17.6261628,37.4939563 15.5469607,37.8947213 12.165376,38.9093005 C6.87133224,40.4974098 4.51034863,45.2762732 4.51034863,54.4043716 C4.51034863,54.9779016 4.04562732,55.442623 3.47209727,55.442623 C2.89877486,55.442623 2.4338459,54.9779016 2.4338459,54.4043716 C2.4338459,49.4612568 3.10642514,45.6948962 4.48979126,42.8897486 C5.98757268,39.8526557 8.30308087,37.9001202 11.5687967,36.9204262 C14.656141,35.9940984 16.7598459,35.5524262 18.396753,35.2693989 C18.5115836,34.7126885 18.6135399,33.8544699 18.6519552,33.1773224 C16.7540317,30.9457049 15.3723268,28.2919344 14.6308077,25.4548087 C13.5836273,24.7886667 12.8049388,23.7556066 12.4589934,22.5543497 C11.4998568,19.8046448 12.1379661,17.4988962 13.0667858,16.1950601 C12.8306874,13.6920437 12.3819552,7.70797814 16.0696164,3.66191257 C18.3537694,1.1804918 21.7332776,-0.0502513661 26.114906,0.00166120219 C30.4925891,0.0531584699 33.8349279,1.35574863 36.0486874,3.8730929 C39.655365,7.98353005 39.059824,13.9663497 38.7606,16.4722732 C39.6611792,17.8035191 40.2498678,20.1292022 39.2280208,22.8411148 C38.8604798,24.0494317 38.0533432,25.0770929 36.9754306,25.7255847 C36.1714087,28.5272022 34.7413213,31.1300984 32.8122503,33.304612 C32.904447,33.764765 33.1168732,34.5312022 33.3471574,35.2671148 C34.9859333,35.5499344 37.0925454,35.9916066 40.1884033,36.9204262 C43.4539115,37.9001202 45.7696273,39.8526557 47.2672011,42.8897486 C48.6505672,45.6948962 49.3229388,49.4612568 49.3229388,54.4043716 C49.3229388,54.9779016 48.8582175,55.442623 48.2846874,55.442623" id="Fill-15" fill="#343030"></path>
        </g>
    </g>
</svg>