<?xml version="1.0" encoding="UTF-8"?>
<svg width="46px" height="45px" viewBox="0 0 46 45" version="1.1" xmlns="http://www.w3.org/2000/svg" xmlns:xlink="http://www.w3.org/1999/xlink">
    <!-- Generator: Sketch 51.3 (57544) - http://www.bohemiancoding.com/sketch -->
    <title>pace-icon</title>
    <desc>Created with Sketch.</desc>
    <defs>
        <path d="M0.158175,1.819125 C0.158175,2.712375 0.882225,3.43665 1.7757,3.43665 C2.669175,3.43665 3.393,2.712375 3.393,1.819125 C3.393,0.925875 2.669175,0.2016 1.7757,0.2016 C0.882225,0.2016 0.158175,0.925875 0.158175,1.819125 Z" id="path-1"></path>
    </defs>
    <g id="Home" stroke="none" stroke-width="1" fill="none" fill-rule="evenodd">
        <g id="Desktop---1440" transform="translate(-237.000000, -1548.000000)">
            <g id="section-2" transform="translate(-61.000000, 1301.000000)">
                <g id="copy" transform="translate(298.000000, 171.000000)">
                    <g id="Group-2">
                        <g id="feature-1" transform="translate(0.000000, 76.000000)">
                            <g id="pace-icon">
                                <g id="speech-fill" transform="translate(17.100000, 17.222700)" fill="#A58AD7">
                                    <path d="M0.02844,5.73941709 L0.02844,16.5071953 C0.02844,18.3218858 1.4681319,19.7909724 3.28217395,19.7909724 L18.3430673,19.7909724 C18.6186427,19.7909724 18.8447225,19.7898917 19.0344912,19.7860012 C20.4249038,19.7570388 20.6978854,19.9139546 21.7638756,20.896948 C21.8520597,20.9782157 21.9737451,21.0687773 22.0813816,21.167336 L24.416315,23.2772703 L24.416315,3.43584761 C24.416315,1.62137329 22.8929779,0.1771425 21.0785036,0.1771425 L7.58994806,0.177293796" id="Fill-1"></path>
                                </g>
                                <g id="clock-fill" transform="translate(0.000000, 0.047700)">
                                    <path d="M16.1757,29.2934025 C23.769225,29.2934025 29.924775,23.1376275 29.924775,15.5441025 C29.924775,7.9505775 23.769225,1.7948025 16.1757,1.7948025 C8.582175,1.7948025 2.4264,7.9505775 2.4264,15.5441025 C2.4264,23.1376275 8.582175,29.2934025 16.1757,29.2934025 Z" id="Stroke-9-Copy" stroke="#322E2D" stroke-width="1.5" fill="#FFFFFF"></path>
                                    <path d="M13.2492591,26.6757568 C20.5666396,26.6757568 26.498555,20.7440582 26.498555,13.4266777 C26.498555,6.10929723 20.5666396,0.177165 13.2492591,0.177165 C5.93187859,0.177165 0.00018,6.10929723 0.00018,13.4266777 C0.00018,20.7440582 5.93187859,26.6757568 13.2492591,26.6757568" id="Fill-5" fill="#1EBEB3"></path>
                                </g>
                                <g id="speech-outline" transform="translate(19.400000, 18.772700)">
                                    <path d="M0.0540175,10.2890676 L0.0540175,17.95237 C0.0540175,19.84147 1.5527425,21.370795 3.4411675,21.370795 L19.1196175,21.370795 C19.4064925,21.370795 19.6418425,21.36967 19.8393925,21.36562 C21.2868175,21.335245 21.5709925,21.49882 22.6806925,22.52212 C22.7724925,22.60672 22.8989425,22.700995 23.0112175,22.803595 L25.4418925,25.000045 L25.4418925,4.34482 C25.4418925,2.455945 23.8558675,0.95272 21.9669925,0.95272 L10.1507812,0.95272" id="Stroke-21" stroke="#322E2D" stroke-width="1.5" stroke-linecap="round" stroke-linejoin="round"></path>
                                    <path d="M17.3583525,9.895435 C17.3050275,9.895435 17.2784775,9.921985 17.2784775,9.97531 L17.2784775,10.82401 C17.2784775,10.87711 17.3050275,10.906585 17.3583525,10.911985 C17.6945025,10.95991 18.0655275,10.983985 18.4709775,10.983985 C18.6896775,10.98916 18.9137775,10.992085 19.1432775,10.992085 C19.4207025,10.992085 19.7062275,10.98916 19.9996275,10.983985 L20.0077275,10.983985 C20.1411525,10.983985 20.2451025,11.04001 20.3198025,11.15206 C20.3679525,11.22676 20.3918025,11.30146 20.3918025,11.37616 C20.3918025,11.42431 20.3839275,11.474935 20.3679525,11.52826 C20.3038275,11.699035 20.2012275,11.83921 20.0597025,11.94856 C19.9184025,12.057685 19.7622525,12.112585 19.5914775,12.112585 L18.3989775,12.112585 C17.5345275,12.112585 16.8005775,12.01111 16.1978025,11.808385 C15.6107775,11.61106 15.1119525,11.26411 14.7008775,10.767985 C14.6905275,10.75201 14.6756775,10.745035 14.6570025,10.74796 C14.6383275,10.75066 14.6261775,10.759885 14.6210025,10.77586 C14.4394275,11.17591 14.2369275,11.51476 14.0128275,11.79241 C13.9059525,11.90986 13.7752275,11.968585 13.6206525,11.968585 L13.6125525,11.968585 C13.4525775,11.968585 13.3083525,11.91256 13.1803275,11.80051 C13.0577025,11.699035 12.9960525,11.56291 12.9960525,11.392135 C12.9960525,11.258935 13.0390275,11.13856 13.1243025,11.032135 C13.5403275,10.519585 13.8285525,9.80206 13.9885275,8.878885 C14.0207025,8.708335 14.1035025,8.569285 14.2369275,8.46286 C14.3489775,8.37196 14.4743025,8.32651 14.6131275,8.32651 C14.6396775,8.32651 14.6664525,8.329435 14.6930025,8.33461 C14.8586025,8.355985 14.9918025,8.433385 15.0932775,8.56681 C15.1625775,8.668285 15.1974525,8.774935 15.1974525,8.886985 C15.1974525,8.929735 15.1920525,8.97226 15.1812525,9.01501 C15.1547025,9.13786 15.1252275,9.26296 15.0932775,9.39121 C15.0827025,9.444535 15.0905775,9.495385 15.1173525,9.54331 C15.3360525,9.92761 15.6242775,10.234285 15.9818025,10.46356 C15.9923775,10.47436 16.0056525,10.47436 16.0218525,10.46356 C16.0378275,10.45321 16.0457025,10.43971 16.0457025,10.423735 L16.0457025,8.08666 C16.0457025,8.033335 16.0191525,8.006335 15.9658275,8.006335 L13.5565275,8.006335 C13.4017275,8.006335 13.2710025,7.95301 13.1641275,7.846585 C13.0577025,7.73971 13.0041525,7.610335 13.0041525,7.458235 C13.0041525,7.306135 13.0577025,7.17676 13.1641275,7.069885 C13.2710025,6.96346 13.4017275,6.90991 13.5565275,6.90991 L15.9658275,6.90991 C16.0191525,6.90991 16.0457025,6.883135 16.0457025,6.830035 L16.0457025,6.373735 C16.0457025,6.320185 16.0191525,6.293635 15.9658275,6.293635 L14.2848525,6.293635 C14.1354525,6.293635 14.0072025,6.24031 13.9007775,6.133435 C13.7939025,6.02701 13.7405775,5.89876 13.7405775,5.74936 C13.7405775,5.59996 13.7939025,5.471935 13.9007775,5.36506 C14.0072025,5.258635 14.1354525,5.205085 14.2848525,5.205085 L15.9658275,5.205085 C16.0191525,5.205085 16.0457025,5.17831 16.0457025,5.12521 L16.0457025,5.044885 C16.0457025,4.874335 16.1057775,4.72876 16.2259275,4.608835 C16.3458525,4.48891 16.4912025,4.42861 16.6619775,4.42861 C16.8327525,4.42861 16.9783275,4.48891 17.0982525,4.608835 C17.2184025,4.72876 17.2784775,4.874335 17.2784775,5.044885 L17.2784775,5.12521 C17.2784775,5.17831 17.3050275,5.205085 17.3583525,5.205085 L19.1833275,5.205085 C19.3325025,5.205085 19.4607525,5.258635 19.5674025,5.36506 C19.6742775,5.471935 19.7276025,5.59996 19.7276025,5.74936 C19.7276025,5.89876 19.6742775,6.02701 19.5674025,6.133435 C19.4607525,6.24031 19.3325025,6.293635 19.1833275,6.293635 L17.3583525,6.293635 C17.3050275,6.293635 17.2784775,6.320185 17.2784775,6.373735 L17.2784775,6.830035 C17.2784775,6.883135 17.3050275,6.90991 17.3583525,6.90991 L19.8475275,6.90991 C19.9971525,6.90991 20.1251775,6.96346 20.2318275,7.069885 C20.3384775,7.17676 20.3918025,7.306135 20.3918025,7.458235 C20.3918025,7.610335 20.3384775,7.73971 20.2318275,7.846585 C20.1251775,7.95301 19.9971525,8.006335 19.8475275,8.006335 L17.3583525,8.006335 C17.3050275,8.006335 17.2784775,8.033335 17.2784775,8.08666 L17.2784775,8.758735 C17.2784775,8.812285 17.3050275,8.83906 17.3583525,8.83906 L19.3034775,8.83906 C19.4474775,8.83906 19.5714525,8.89081 19.6756275,8.994985 C19.7795775,9.09916 19.8315525,9.223135 19.8315525,9.367135 C19.8315525,9.51136 19.7795775,9.635335 19.6756275,9.73951 C19.5714525,9.84346 19.4474775,9.895435 19.3034775,9.895435 L17.3583525,9.895435 Z" id="Fill-23" fill="#322E2D"></path>
                                    <path d="M7.8314475,13.71273 L10.1696475,13.71273 L9.0059475,11.103405 L7.8314475,13.71273 Z M12.5982975,15.830205 C12.5982975,16.017405 12.5233725,16.17648 12.3721725,16.307205 C12.2218725,16.43703 12.0495225,16.50228 11.8551225,16.50228 C11.7284475,16.50228 11.6076225,16.46718 11.4939975,16.397205 C11.3805975,16.32678 11.2932975,16.22148 11.2336725,16.080855 L10.7010975,14.896905 L7.2997725,14.896905 L6.7674225,16.080855 C6.7077975,16.22148 6.6218475,16.32678 6.5118225,16.397205 C6.4015725,16.46718 6.2789475,16.50228 6.1450725,16.50228 C5.9515725,16.50228 5.7774225,16.43703 5.6237475,16.307205 C5.4696225,16.17648 5.3928975,16.017405 5.3928975,15.830205 C5.3928975,15.73638 5.4196725,15.629505 5.4729975,15.509355 L8.1826725,9.818655 C8.2562475,9.65868 8.3662725,9.53628 8.5131975,9.452805 C8.6612475,9.36888 8.8180725,9.327255 8.9854725,9.327255 C9.1591725,9.327255 9.3200475,9.371355 9.4671975,9.45798 C9.6141225,9.54528 9.7277475,9.66543 9.8085225,9.818655 L12.5172975,15.509355 C12.5712975,15.629505 12.5982975,15.73638 12.5982975,15.830205 Z" id="Fill-25" fill="#322E2D"></path>
                                </g>
                                <g id="clock-outline" transform="translate(2.250000, 1.622700)">
                                    <path d="M13.9257,27.7184025 C21.519225,27.7184025 27.674775,21.5626275 27.674775,13.9691025 C27.674775,6.3755775 21.519225,0.2198025 13.9257,0.2198025 C6.332175,0.2198025 0.1764,6.3755775 0.1764,13.9691025 C0.1764,21.5626275 6.332175,27.7184025 13.9257,27.7184025 Z" id="Stroke-9" stroke="#322E2D" stroke-width="1.5"></path>
                                    <polyline id="Stroke-11" stroke="#322E2D" stroke-width="1.5" stroke-linecap="round" stroke-linejoin="round" points="13.9257 3.454875 13.9257 13.9689 20.80035 18.417375"></polyline>
                                    <path d="M3.30237,13.9690125 L4.60287,13.9690125 M23.248395,13.9690125 L24.548895,13.9690125 M13.925745,23.5832625 L13.925745,24.8837625" id="Stroke-13" stroke="#322E2D" stroke-width="1.5" stroke-linecap="round" stroke-linejoin="round"></path>
                                    <g id="Group-18" transform="translate(12.150000, 12.150000)">
                                        <mask id="mask-2" fill="white">
                                            <use xlink:href="#path-1"></use>
                                        </mask>
                                        <g id="Clip-17"></g>
                                        <polygon id="Fill-16" fill="#1EBEB3" mask="url(#mask-2)" points="-3.88575 7.48035 7.43715 7.48035 7.43715 -3.84255 -3.88575 -3.84255"></polygon>
                                    </g>
                                    <path d="M13.9257,15.5866275 C14.819175,15.5866275 15.543,14.8623525 15.543,13.9691025 C15.543,13.0758525 14.819175,12.3515775 13.9257,12.3515775 C13.032225,12.3515775 12.308175,13.0758525 12.308175,13.9691025 C12.308175,14.8623525 13.032225,15.5866275 13.9257,15.5866275 Z" id="Stroke-19" stroke="#322E2D" stroke-width="1.5"></path>
                                </g>
                            </g>
                        </g>
                    </g>
                </g>
            </g>
        </g>
    </g>
</svg>