<?xml version="1.0" encoding="UTF-8"?>
<svg width="97px" height="16px" viewBox="0 0 97 16" version="1.1" xmlns="http://www.w3.org/2000/svg" xmlns:xlink="http://www.w3.org/1999/xlink">
    <!-- Generator: Sketch 49.3 (51167) - http://www.bohemiancoding.com/sketch -->
    <title>stars</title>
    <desc>Created with Sketch.</desc>
    <defs></defs>
    <g id="Individual-Tour-Pages" stroke="none" stroke-width="1" fill="none" fill-rule="evenodd">
        <g id="Desktop---1440-V2-Copy" transform="translate(-142.000000, -394.000000)">
            <g id="intro" transform="translate(142.000000, 264.000000)">
                <g id="details" transform="translate(0.000000, 128.000000)">
                    <g id="reviews" transform="translate(0.000000, 2.000000)">
                        <g id="stars">
                            <polygon id="Star" fill="#F4BD34" points="8 12.2278814 3.05572809 14.7692308 4.01809211 9.41996734 1.11022302e-16 5.64134417 5.53904558 4.87666687 8 0 10.4609544 4.87666687 16 5.64134417 11.9819079 9.41996734 12.9442719 14.7692308"></polygon>
                            <polygon id="Star-Copy" fill="#F4BD34" points="28 12.246345 23.0557281 14.7692308 24 9.42567288 20 5.64134417 25.527864 4.86172958 28 0 30.472136 4.86172958 36 5.64134417 32 9.42567288 32.9442719 14.7692308"></polygon>
                            <polygon id="Star-Copy-2" fill="#F4BD34" points="48 12.246345 43.0557281 14.7692308 44 9.42567288 40 5.64134417 45.527864 4.86172958 48 0 50.472136 4.86172958 56 5.64134417 52 9.42567288 52.9442719 14.7692308"></polygon>
                            <polygon id="Star-Copy-3" fill="#F4BD34" points="68 12.246345 63.0557281 14.7692308 64 9.42567288 60 5.64134417 65.527864 4.86172958 68 0 70.472136 4.86172958 76 5.64134417 72 9.42567288 72.9442719 14.7692308"></polygon>
                            <polygon id="Star-Copy-4" stroke="#F4BD34" stroke-linecap="round" stroke-linejoin="round" points="89 12.246345 84.0557281 14.7692308 85 9.42567288 81 5.64134417 86.527864 4.86172958 89 0 91.472136 4.86172958 97 5.64134417 93 9.42567288 93.9442719 14.7692308"></polygon>
                        </g>
                    </g>
                </g>
            </g>
        </g>
    </g>
</svg>