<?xml version="1.0" encoding="UTF-8"?>
<svg width="41px" height="48px" viewBox="0 0 41 48" version="1.1" xmlns="http://www.w3.org/2000/svg" xmlns:xlink="http://www.w3.org/1999/xlink">
    <!-- Generator: Sketch 51.3 (57544) - http://www.bohemiancoding.com/sketch -->
    <title>sync-icon</title>
    <desc>Created with Sketch.</desc>
    <defs></defs>
    <g id="Home" stroke="none" stroke-width="1" fill="none" fill-rule="evenodd">
        <g id="Desktop---1440" transform="translate(-240.000000, -1629.000000)">
            <g id="section-2" transform="translate(-61.000000, 1301.000000)">
                <g id="copy" transform="translate(298.000000, 171.000000)">
                    <g id="Group-2">
                        <g id="feature-2" transform="translate(2.000000, 156.000000)">
                            <g id="sync-icon" transform="translate(0.962264, 0.628925)">
                                <g id="user-1">
                                    <g id="fill" transform="translate(0.038703, 0.541848)" fill="#A58AD7">
                                        <path d="M14.4060113,5.5991 C14.4060113,8.6425717 11.9087849,11.1101189 8.82827547,11.1101189 C5.74776604,11.1101189 3.25078491,8.6425717 3.25078491,5.5991 C3.25078491,2.55538302 5.74776604,0.0880811321 8.82827547,0.0880811321 C11.9087849,0.0880811321 14.4060113,2.55538302 14.4060113,5.5991" id="Fill-5"></path>
                                        <path d="M16.3784547,23.9261075 C17.1638509,23.9261075 17.7682283,23.1309 17.6392094,22.2552396 C16.9350019,17.474183 13.2582094,13.8295226 8.82839811,13.8295226 C4.39858679,13.8295226 0.72179434,17.474183 0.0173415094,22.2552396 C-0.111677358,23.1309 0.492945283,23.9261075 1.27809623,23.9261075 L16.3784547,23.9261075 Z" id="Fill-7"></path>
                                    </g>
                                    <g id="outline" transform="translate(2.051282, 2.051282)" stroke="#322E2D" stroke-width="1.5">
                                        <path d="M14.9854591,5.90015094 C14.9854591,9.02191195 12.4242013,11.552478 9.2647044,11.552478 C6.10545912,11.552478 3.54420126,9.02191195 3.54420126,5.90015094 C3.54420126,2.77864151 6.10545912,0.247823899 9.2647044,0.247823899 C12.4242013,0.247823899 14.9854591,2.77864151 14.9854591,5.90015094 Z" id="Stroke-11"></path>
                                        <path d="M17.008478,24.6970818 C17.8140126,24.6970818 18.4338868,23.8817358 18.3015597,22.9833711 C17.5792956,18.0797233 13.8082264,14.3416101 9.26483019,14.3416101 C4.72143396,14.3416101 0.95036478,18.0797233 0.227849057,22.9833711 C0.0955220126,23.8817358 0.715647799,24.6970818 1.52093082,24.6970818 L17.008478,24.6970818 Z" id="Stroke-13"></path>
                                    </g>
                                </g>
                                <g id="user-2" transform="translate(19.487179, 20.512821)">
                                    <g id="fill" transform="translate(0.038703, 0.541848)" fill="#F26667">
                                        <path d="M14.5285208,5.91545094 C14.5285208,8.95916792 12.0312943,11.4264698 8.95103019,11.4264698 C5.87027547,11.4264698 3.37329434,8.95916792 3.37329434,5.91545094 C3.37329434,2.87197925 5.87027547,0.404432075 8.95103019,0.404432075 C12.0312943,0.404432075 14.5285208,2.87197925 14.5285208,5.91545094" id="Fill-1"></path>
                                        <path d="M16.5010868,24.2426792 C17.2862377,24.2426792 17.8908604,23.4474717 17.7618415,22.5718113 C17.057634,17.7905094 13.3805962,14.1458491 8.95103019,14.1458491 C4.52097358,14.1458491 0.844426415,17.7905094 0.139973585,22.5718113 C0.010954717,23.4474717 0.615332075,24.2426792 1.4007283,24.2426792 L16.5010868,24.2426792 Z" id="Fill-3"></path>
                                    </g>
                                    <g id="outline" transform="translate(2.051282, 2.051282)" stroke="#322E2D" stroke-width="1.5">
                                        <path d="M15.1110847,6.22483986 C15.1110847,9.3463493 12.5498268,11.8771669 9.39058152,11.8771669 C6.23108466,11.8771669 3.6698268,9.3463493 3.6698268,6.22483986 C3.6698268,3.10307886 6.23108466,0.572512821 9.39058152,0.572512821 C12.5498268,0.572512821 15.1110847,3.10307886 15.1110847,6.22483986 Z" id="Stroke-15"></path>
                                        <path d="M17.1342293,25.0217707 C17.9395123,25.0217707 18.5596381,24.2061732 18.4273111,23.30806 C17.7050469,18.4044122 13.9337262,14.666299 9.39058152,14.666299 C4.84693372,14.666299 1.07611611,18.4044122 0.353600387,23.30806 C0.221273343,24.2061732 0.841147557,25.0217707 1.64668215,25.0217707 L17.1342293,25.0217707 Z" id="Stroke-17"></path>
                                    </g>
                                </g>
                                <g id="arrow-up" transform="translate(8.205128, 29.743590)" stroke="#322E2D" stroke-linecap="round" stroke-linejoin="round" stroke-width="1.5">
                                    <polyline id="Stroke-19" points="6.21110982 3.48744074 3.32884567 0.631843251 0.473499758 3.5141074"></polyline>
                                    <path d="M3.27490856,0.894560232 L3.27490856,7.42638413 C3.27490856,9.34286212 4.82861925,10.8965728 6.74484567,10.8965728 L10.961701,10.8965728 L11.6100029,10.8965728" id="Stroke-21"></path>
                                </g>
                                <g id="arrow-down" transform="translate(20.512821, 8.205128)" stroke="#322E2D" stroke-linecap="round" stroke-linejoin="round" stroke-width="1.5">
                                    <polyline id="Stroke-23" points="7.73410934 7.90864441 10.6163735 10.7639903 13.4717194 7.88197775"></polyline>
                                    <path d="M10.6701848,10.5015249 L10.6701848,3.96944944 C10.6701848,2.05322303 9.11647412,0.499512337 7.2002477,0.499512337 L1.77961877,0.499512337 L0.413329463,0.499512337" id="Stroke-25"></path>
                                </g>
                            </g>
                        </g>
                    </g>
                </g>
            </g>
        </g>
    </g>
</svg>