<?xml version="1.0" encoding="UTF-8"?>
<svg width="21px" height="21px" viewBox="0 0 21 21" version="1.1" xmlns="http://www.w3.org/2000/svg" xmlns:xlink="http://www.w3.org/1999/xlink">
    <!-- Generator: Sketch 49.3 (51167) - http://www.bohemiancoding.com/sketch -->
    <title>tags-icon</title>
    <desc>Created with Sketch.</desc>
    <defs></defs>
    <g id="Individual-Tour-Pages" stroke="none" stroke-width="1" fill="none" fill-rule="evenodd">
        <g id="Desktop---1440-V2-Copy" transform="translate(-142.000000, -882.000000)" stroke="#F26668" stroke-width="1.5">
            <g id="tags" transform="translate(143.000000, 878.000000)">
                <g id="tags-icon" transform="translate(0.000000, 5.000000)">
                    <path d="M6.70154854,6.70135613 C6.388108,7.01479667 6.00924708,7.17122833 5.5665051,7.17122833 C5.12318588,7.17122833 4.74509461,7.01479667 4.43165407,6.70135613 C4.11744387,6.38733835 3.96120463,6.00924708 3.96120463,5.5665051 C3.96120463,5.12299346 4.11744387,4.7449022 4.43165407,4.43165407 C4.74509461,4.11744387 5.12318588,3.96101222 5.5665051,3.96101222 C6.00924708,3.96101222 6.388108,4.11744387 6.70154854,4.43165407 C7.01498909,4.7449022 7.17122833,5.12299346 7.17122833,5.5665051 C7.17122833,6.00924708 7.01498909,6.38733835 6.70154854,6.70135613 M19,11.2374881 C19,10.8020578 18.8453001,10.42185 18.536285,10.0955178 L9.56869139,1.14081583 C9.251595,0.82294979 8.82463087,0.553956616 8.29030037,0.332104592 C7.75520021,0.11044498 7.26589431,0 6.82238268,0 L1.60549288,0 C1.17102465,0 0.794472688,0.159317846 0.476606647,0.476414235 C0.158548194,0.794472688 0,1.170255 0,1.60530047 L0,6.82238268 C0,7.2657019 0.11044498,7.75423815 0.332297004,8.28953072 C0.553956616,8.82463087 0.823719442,9.24697709 1.14100824,9.55676179 L10.1084095,18.536285 C10.4174245,18.8453001 10.7939765,19 11.236526,19 C11.6717639,19 12.0521641,18.8453001 12.3783039,18.536285 L18.536285,12.3654123 C18.8453001,12.05582 19,11.6800377 19,11.2374881" id="Fill-1"></path>
                </g>
            </g>
        </g>
    </g>
</svg>