<?xml version="1.0" encoding="UTF-8"?>
<svg width="40px" height="51px" viewBox="0 0 40 51" version="1.1" xmlns="http://www.w3.org/2000/svg" xmlns:xlink="http://www.w3.org/1999/xlink">
    <!-- Generator: Sketch 51.3 (57544) - http://www.bohemiancoding.com/sketch -->
    <title>timeline-icon</title>
    <desc>Created with Sketch.</desc>
    <defs></defs>
    <g id="Home" stroke="none" stroke-width="1" fill="none" fill-rule="evenodd">
        <g id="Desktop---1440" transform="translate(-240.000000, -1712.000000)">
            <g id="section-2" transform="translate(-61.000000, 1301.000000)">
                <g id="copy" transform="translate(298.000000, 171.000000)">
                    <g id="Group-2">
                        <g id="feature-2-copy" transform="translate(3.000000, 240.000000)">
                            <g id="timeline-icon">
                                <g id="Group-20" transform="translate(0.000000, 0.100084)">
                                    <path d="M7.75260662,6.50144839 C7.75260662,8.60533843 6.04691573,10.3107624 3.94329258,10.3107624 C1.83913564,10.3107624 0.133444757,8.60533843 0.133444757,6.50144839 C0.133444757,4.39729146 1.83913564,2.69186746 3.94329258,2.69186746 C6.04691573,2.69186746 7.75260662,4.39729146 7.75260662,6.50144839" id="Fill-1" fill="#21BFB3"></path>
                                    <path d="M7.75260662,24.5401904 C7.75260662,26.6443473 6.04691573,28.3497713 3.94329258,28.3497713 C1.83913564,28.3497713 0.133444757,26.6443473 0.133444757,24.5401904 C0.133444757,22.4363004 1.83913564,20.7306095 3.94329258,20.7306095 C6.04691573,20.7306095 7.75260662,22.4363004 7.75260662,24.5401904" id="Fill-5" fill="#21BFB3"></path>
                                    <path d="M7.75260662,42.579226 C7.75260662,44.683116 6.04691573,46.38854 3.94329258,46.38854 C1.83913564,46.38854 0.133444757,44.683116 0.133444757,42.579226 C0.133444757,40.4750691 1.83913564,38.7696451 3.94329258,38.7696451 C6.04691573,38.7696451 7.75260662,40.4750691 7.75260662,42.579226" id="Fill-9" fill="#21BFB3"></path>
                                    <path d="M32.4938251,47.251678 L17.2845923,47.251678 C16.5506461,47.251678 15.9501447,46.6511766 15.9501447,45.9172305 L15.9501447,37.374364 C15.9501447,36.6404178 16.5506461,36.0399164 17.2845923,36.0399164 L32.4938251,36.0399164 C33.2277712,36.0399164 33.8282726,36.6404178 33.8282726,37.374364 L33.8282726,45.9172305 C33.8282726,46.6511766 33.2277712,47.251678 32.4938251,47.251678" id="Fill-13" fill="#F4BD34"></path>
                                    <path d="M35.4481319,29.571678 L17.2089024,29.571678 C16.4749563,29.571678 15.8744549,28.9711766 15.8744549,28.2372305 L15.8744549,19.694364 C15.8744549,18.9604178 16.4749563,18.3599164 17.2089024,18.3599164 L35.4481319,18.3599164 C36.182078,18.3599164 36.7825794,18.9604178 36.7825794,19.694364 L36.7825794,28.2372305 C36.7825794,28.9711766 36.182078,29.571678 35.4481319,29.571678" id="Fill-15" fill="#F4BD34"></path>
                                    <path d="M31.8120024,11.881678 L17.2088758,11.881678 C16.4749296,11.881678 15.8744282,11.2811766 15.8744282,10.5472305 L15.8744282,2.004364 C15.8744282,1.27041784 16.4749296,0.669916432 17.2088758,0.669916432 L31.8120024,0.669916432 C32.5459486,0.669916432 33.14645,1.27041784 33.14645,2.004364 L33.14645,10.5472305 C33.14645,11.2811766 32.5459486,11.881678 31.8120024,11.881678" id="Fill-17" fill="#F4BD34"></path>
                                    <g id="Group-19" transform="translate(15.746481, 1.078947)"></g>
                                </g>
                                <g id="Group-52" transform="translate(2.402006, 3.047258)" stroke="#322E2D">
                                    <path d="M3.96531096,9.62392913 L3.96531096,19.320559" id="Stroke-21" stroke-width="1.5"></path>
                                    <path d="M7.77475844,5.37219235 C7.77475844,7.47634928 6.06906756,9.18177328 3.96544441,9.18177328 C1.86128747,9.18177328 0.155596587,7.47634928 0.155596587,5.37219235 C0.155596587,3.2683023 1.86128747,1.56287831 3.96544441,1.56287831 C6.06906756,1.56287831 7.77475844,3.2683023 7.77475844,5.37219235 Z" id="Stroke-22" stroke-width="1.5"></path>
                                    <path d="M7.77475844,23.4112012 C7.77475844,25.5150913 6.06906756,27.2207822 3.96544441,27.2207822 C1.86128747,27.2207822 0.155596587,25.5150913 0.155596587,23.4112012 C0.155596587,21.3070443 1.86128747,19.6016203 3.96544441,19.6016203 C6.06906756,19.6016203 7.77475844,21.3070443 7.77475844,23.4112012 Z" id="Stroke-24" stroke-width="1.5"></path>
                                    <path d="M7.77475844,41.44997 C7.77475844,43.5541269 6.06906756,45.2595509 3.96544441,45.2595509 C1.86128747,45.2595509 0.155596587,43.5541269 0.155596587,41.44997 C0.155596587,39.3460799 1.86128747,37.6406559 3.96544441,37.6406559 C6.06906756,37.6406559 7.77475844,39.3460799 7.77475844,41.44997 Z" id="Stroke-26" stroke-width="1.5"></path>
                                    <polyline id="Stroke-28" stroke-width="1.5" stroke-linecap="round" stroke-linejoin="round" points="15.9657044 10.7939194 20.5447278 6.21489599 22.9216458 8.59101334 27.1539797 4.35894631 33.1624634 10.3679637"></polyline>
                                    <path d="M19.5332699,4.10732287 C20.0056644,4.10732287 20.3883839,3.72433642 20.3883839,3.25247576 C20.3883839,2.78008132 20.0056644,2.39736175 19.5332699,2.39736175 C19.0608755,2.39736175 18.677889,2.78008132 18.677889,3.25247576 C18.677889,3.72433642 19.0608755,4.10732287 19.5332699,4.10732287 Z" id="Stroke-30"></path>
                                    <path d="M31.8341543,11.3284724 L17.2310276,11.3284724 C16.4970814,11.3284724 15.89658,10.727971 15.89658,9.99402482 L15.89658,1.45115836 C15.89658,0.717212192 16.4970814,0.116710785 17.2310276,0.116710785 L31.8341543,0.116710785 C32.5681004,0.116710785 33.1686018,0.717212192 33.1686018,1.45115836 L33.1686018,9.99402482 C33.1686018,10.727971 32.5681004,11.3284724 31.8341543,11.3284724 Z" id="Stroke-32" stroke-width="1.5"></path>
                                    <path d="M35.4702837,29.0169486 L17.2310543,29.0169486 C16.4971081,29.0169486 15.8966067,28.4164472 15.8966067,27.682501 L15.8966067,19.1396346 C15.8966067,18.4056884 16.4971081,17.805187 17.2310543,17.805187 L35.4702837,17.805187 C36.2042299,17.805187 36.8047313,18.4056884 36.8047313,19.1396346 L36.8047313,27.682501 C36.8047313,28.4164472 36.2042299,29.0169486 35.4702837,29.0169486 Z" id="Stroke-34" stroke-width="1.5"></path>
                                    <path d="M19.5327361,21.7444495 L32.8654687,21.7444495" id="Stroke-36" stroke-width="1.5" stroke-linecap="round"></path>
                                    <path d="M19.5327361,25.3808192 L26.1993693,25.3808192" id="Stroke-38" stroke-width="1.5" stroke-linecap="round"></path>
                                    <path d="M32.5159769,46.705665 L17.3067441,46.705665 C16.572798,46.705665 15.9722966,46.1051636 15.9722966,45.3712175 L15.9722966,36.828351 C15.9722966,36.0944048 16.572798,35.4939034 17.3067441,35.4939034 L32.5159769,35.4939034 C33.2499231,35.4939034 33.8504245,36.0944048 33.8504245,36.828351 L33.8504245,45.3712175 C33.8504245,46.1051636 33.2499231,46.705665 32.5159769,46.705665 Z" id="Stroke-40" stroke-width="1.5"></path>
                                    <path d="M20.3659919,43.2209954 L20.3659919,41.402944" id="Stroke-42" stroke-width="1.5" stroke-linecap="round"></path>
                                    <path d="M23.396122,43.2209954 L23.396122,38.9785197" id="Stroke-44" stroke-width="1.5" stroke-linecap="round"></path>
                                    <path d="M26.4262521,43.2209954 L26.4262521,39.5848926" id="Stroke-46" stroke-width="1.5" stroke-linecap="round"></path>
                                    <path d="M29.4566491,43.2209954 L29.4566491,40.7968379" id="Stroke-48" stroke-width="1.5" stroke-linecap="round"></path>
                                    <path d="M3.96531096,27.5018702 L3.96531096,37.1985001" id="Stroke-50" stroke-width="1.5"></path>
                                </g>
                            </g>
                        </g>
                    </g>
                </g>
            </g>
        </g>
    </g>
</svg>