<?xml version="1.0" encoding="UTF-8"?>
<svg width="39px" height="39px" viewBox="0 0 39 39" version="1.1" xmlns="http://www.w3.org/2000/svg" xmlns:xlink="http://www.w3.org/1999/xlink">
    <!-- Generator: Sketch 48.2 (47327) - http://www.bohemiancoding.com/sketch -->
    <title>tw-hover</title>
    <desc>Created with Sketch.</desc>
    <defs></defs>
    <g id="Desktop---1156" stroke="none" stroke-width="1" fill="none" fill-rule="evenodd" transform="translate(-532.000000, -3543.000000)">
        <g id="footer" transform="translate(0.000000, 3488.000000)" fill="#00ACED">
            <g id="social-accounts-hover" transform="translate(481.000000, 55.000000)">
                <g id="tw-hover" transform="translate(51.000000, 0.000000)">
                    <path d="M19.8635419,38.369548 C9.38054801,38.369548 0.851998374,29.8478321 0.851998374,19.373238 C0.851998374,8.89864391 9.38054801,0.376928044 19.8635419,0.376928044 C22.4109448,0.376928044 24.8837417,0.872127306 27.2135199,1.84885424 C27.5802123,2.00255166 27.7527564,2.42421218 27.5989357,2.7906107 C27.4451151,3.15715314 27.0226843,3.32999077 26.65628,3.17571771 C24.5039429,2.2735369 22.2186689,1.81604244 19.8635419,1.81604244 C10.174712,1.81604244 2.29226683,9.69217159 2.29226683,19.373238 C2.29226683,29.0543044 10.174712,36.9304336 19.8635419,36.9304336 C29.5523719,36.9304336 37.4348171,29.0543044 37.4348171,19.373238 C37.4348171,15.304286 36.0098155,11.3380867 33.4226612,8.20542251 C33.169462,7.89903506 33.2129582,7.4454262 33.5195913,7.19242989 C33.8263685,6.93943358 34.2803411,6.98289483 34.5333963,7.2894262 C37.3332781,10.6792601 38.8750855,14.9706993 38.8750855,19.373238 C38.8750855,29.8478321 30.3465359,38.369548 19.8635419,38.369548" id="circle"></path>
                    <path d="M29.4825093,14.2298351 C28.8208995,14.523279 28.1098556,14.7216741 27.3635141,14.8108839 C28.1253093,14.3541668 28.7102654,13.6313571 28.9857093,12.7697717 C28.2727776,13.1924644 27.4832361,13.4996498 26.6428995,13.6649424 C25.9699629,12.9479278 25.0111337,12.4999912 23.9499239,12.4999912 C21.9125873,12.4999912 20.2605824,14.1518205 20.2605824,16.1891571 C20.2605824,16.4782985 20.2933337,16.7598888 20.3562898,17.0300205 C17.2901873,16.8760107 14.5716166,15.4073424 12.75208,13.1751668 C12.4344898,13.7201717 12.252558,14.3538595 12.252558,15.0300449 C12.252558,16.3098888 12.903719,17.4391912 13.8936751,18.100801 C13.2888751,18.0816156 12.7200312,17.9155766 12.2226605,17.6392985 C12.2223532,17.6547522 12.2223532,17.6702059 12.2223532,17.6857912 C12.2223532,19.473279 13.494119,20.9642498 15.1817727,21.3033083 C14.8722166,21.3875132 14.5462849,21.4327766 14.2098166,21.4327766 C13.9721288,21.4327766 13.7408946,21.40964 13.5155873,21.3663961 C13.98508,22.8321668 15.34768,23.8988644 16.9621044,23.9285424 C15.6993385,24.9182351 14.1085776,25.5079766 12.3800946,25.5079766 C12.0822605,25.5079766 11.788641,25.4905034 11.4999824,25.4561717 C13.1326263,26.5031571 15.071841,27.11384 17.155319,27.11384 C23.9413629,27.11384 27.6521727,21.4922644 27.6521727,16.6168546 C27.6521727,16.4570498 27.6485727,16.2979034 27.6415044,16.1395912 C28.3624702,15.619479 28.9879044,14.969679 29.4825093,14.2298351" id="Fill-1"></path>
                </g>
            </g>
        </g>
    </g>
</svg>