<?xml version="1.0" encoding="UTF-8"?>
<svg width="39px" height="39px" viewBox="0 0 39 39" version="1.1" xmlns="http://www.w3.org/2000/svg" xmlns:xlink="http://www.w3.org/1999/xlink">
    <!-- Generator: Sketch 48.2 (47327) - http://www.bohemiancoding.com/sketch -->
    <title>tw</title>
    <desc>Created with Sketch.</desc>
    <defs></defs>
    <g id="Desktop---1156" stroke="none" stroke-width="1" fill="none" fill-rule="evenodd" transform="translate(-532.000000, -3543.000000)">
        <g id="footer" transform="translate(0.000000, 3488.000000)" fill="#343030">
            <g id="social-accounts" transform="translate(481.000000, 55.000000)">
                <g id="tw" transform="translate(51.000000, 0.000000)">
                    <path d="M19.8635419,38.369548 C9.38054801,38.369548 0.851998374,29.8478321 0.851998374,19.373238 C0.851998374,8.89864391 9.38054801,0.376928044 19.8635419,0.376928044 C22.4109448,0.376928044 24.8837417,0.872127306 27.2135199,1.84885424 C27.5802123,2.00255166 27.7527564,2.42421218 27.5989357,2.7906107 C27.4451151,3.15715314 27.0226843,3.32999077 26.65628,3.17571771 C24.5039429,2.2735369 22.2186689,1.81604244 19.8635419,1.81604244 C10.174712,1.81604244 2.29226683,9.69217159 2.29226683,19.373238 C2.29226683,29.0543044 10.174712,36.9304336 19.8635419,36.9304336 C29.5523719,36.9304336 37.4348171,29.0543044 37.4348171,19.373238 C37.4348171,15.304286 36.0098155,11.3380867 33.4226612,8.20542251 C33.169462,7.89903506 33.2129582,7.4454262 33.5195913,7.19242989 C33.8263685,6.93943358 34.2803411,6.98289483 34.5333963,7.2894262 C37.3332781,10.6792601 38.8750855,14.9706993 38.8750855,19.373238 C38.8750855,29.8478321 30.3465359,38.369548 19.8635419,38.369548" id="in"></path>
                    <g id="logo" transform="translate(11.500000, 12.500000)">
                        <path d="M17.9825093,1.72983512 C17.3208995,2.02327902 16.6098556,2.22167415 15.8635141,2.3108839 C16.6253093,1.85416683 17.2102654,1.13135707 17.4857093,0.269771707 C16.7727776,0.69246439 15.9832361,0.999649756 15.1428995,1.16494244 C14.4699629,0.447927805 13.5111337,-8.78048781e-06 12.4499239,-8.78048781e-06 C10.4125873,-8.78048781e-06 8.76058244,1.65182049 8.76058244,3.68915707 C8.76058244,3.97829854 8.79333366,4.25988878 8.85628976,4.53002049 C5.79018732,4.37601073 3.07161659,2.90734244 1.25208,0.675166829 C0.934489756,1.22017171 0.752558049,1.85385951 0.752558049,2.53004488 C0.752558049,3.80988878 1.40371902,4.93919122 2.39367512,5.60080098 C1.78887512,5.58161561 1.22003122,5.41557659 0.722660488,5.13929854 C0.722353171,5.1547522 0.722353171,5.17020585 0.722353171,5.18579122 C0.722353171,6.97327902 1.99411902,8.46424976 3.68177268,8.80330829 C3.37221659,8.88751317 3.04628488,8.93277659 2.70981659,8.93277659 C2.47212878,8.93277659 2.24089463,8.90964 2.01558732,8.8663961 C2.48508,10.3321668 3.84768,11.3988644 5.46210439,11.4285424 C4.19933854,12.4182351 2.60857756,13.0079766 0.880094634,13.0079766 C0.582260488,13.0079766 0.288640976,12.9905034 -1.75609756e-05,12.9561717 C1.63262634,14.0031571 3.57184098,14.61384 5.65531902,14.61384 C12.4413629,14.61384 16.1521727,8.99226439 16.1521727,4.11685463 C16.1521727,3.95704976 16.1485727,3.79790341 16.1415044,3.63959122 C16.8624702,3.11947902 17.4879044,2.46967902 17.9825093,1.72983512" id="Fill-1"></path>
                    </g>
                </g>
            </g>
        </g>
    </g>
</svg>