<?xml version="1.0" encoding="UTF-8"?>
<svg width="29px" height="28px" viewBox="0 0 29 28" version="1.1" xmlns="http://www.w3.org/2000/svg" xmlns:xlink="http://www.w3.org/1999/xlink">
    <!-- Generator: Sketch 51.2 (57519) - http://www.bohemiancoding.com/sketch -->
    <title>tw-icon</title>
    <desc>Created with Sketch.</desc>
    <defs></defs>
    <g id="Individual-Tour-Pages" stroke="none" stroke-width="1" fill="none" fill-rule="evenodd">
        <g id="Desktop---1440-V2-Copy" transform="translate(-538.000000, -403.000000)" fill="#00ACED">
            <g id="modal" transform="translate(520.000000, 126.000000)">
                <g id="twitter" transform="translate(19.000000, 277.000000)">
                    <g id="tw-icon">
                        <path d="M13.5305432,27.2451415 C6.10337518,27.2451415 0.0609247442,21.2075328 0.0609247442,13.786316 C0.0609247442,6.36509921 6.10337518,0.327490477 13.5305432,0.327490477 C15.33537,0.327490477 17.0873388,0.678337588 18.7379793,1.37034553 C18.9977797,1.47923967 19.1200267,1.77798481 19.0110452,2.037577 C18.9020638,2.29727116 18.6027729,2.41972608 18.3431767,2.3104241 C16.8182526,1.67123185 15.1991432,1.34709847 13.5305432,1.34709847 C6.66603788,1.34709847 1.08135039,6.92731105 1.08135039,13.786316 C1.08135039,20.6453209 6.66603788,26.2255335 13.5305432,26.2255335 C20.3950485,26.2255335 25.979736,20.6453209 25.979736,13.786316 C25.979736,10.9034763 24.9701269,8.09343671 23.1371363,5.87395404 C22.9577455,5.65687949 22.9885624,5.33549906 23.205811,5.15625197 C23.4231616,4.97700489 23.7447998,5.00779705 23.9240886,5.22497355 C25.907796,7.62666018 27.0001617,10.6671312 27.0001617,13.786316 C27.0001617,21.2075328 20.9577112,27.2451415 13.5305432,27.2451415" id="fb" stroke="#00ACED" stroke-width="0.5"></path>
                        <g id="tw" transform="translate(7.000000, 8.000000)">
                            <path d="M13.9863961,1.84543415 C13.4718107,2.07366829 12.9187766,2.22797561 12.3382888,2.29736098 C12.9307961,1.94213659 13.385762,1.37995122 13.5999961,0.709829268 C13.0454937,1.03859024 12.4314059,1.2775122 11.7778107,1.40607317 C11.2544156,0.848395122 10.5086595,0.5 9.68327415,0.5 C8.09867902,0.5 6.81378634,1.7847561 6.81378634,3.36935122 C6.81378634,3.59423902 6.83925951,3.81325366 6.88822537,4.0233561 C4.50347902,3.90357073 2.38903512,2.76127317 0.97384,1.02513659 C0.726825366,1.44902927 0.585322927,1.94189756 0.585322927,2.46781951 C0.585322927,3.46325366 1.09178146,4.3416 1.86174732,4.85618537 C1.39134732,4.84126341 0.948913171,4.71212195 0.562069268,4.49723902 C0.561830244,4.50925854 0.561830244,4.52127805 0.561830244,4.5334 C0.561830244,5.92366829 1.55098146,7.0833122 2.86360098,7.34702439 C2.62283512,7.41251707 2.36933268,7.44772195 2.10763512,7.44772195 C1.92276683,7.44772195 1.74291805,7.42972683 1.56767902,7.39609268 C1.93284,8.53613659 2.99264,9.36579024 4.24830341,9.38887317 C3.2661522,10.1586341 2.02889366,10.617322 0.684518049,10.617322 C0.452869268,10.617322 0.224498537,10.6037317 -1.36585366e-05,10.5770293 C1.26982049,11.3913512 2.77809854,11.8663268 4.39858146,11.8663268 C9.67661561,11.8663268 12.562801,7.49399024 12.562801,3.70200488 C12.562801,3.5777122 12.560001,3.45393171 12.5545034,3.3308 C13.1152546,2.92626829 13.6017034,2.42086829 13.9863961,1.84543415" id="Fill-1"></path>
                        </g>
                    </g>
                </g>
            </g>
        </g>
    </g>
</svg>